<svg width="165" height="140" viewBox="0 0 165 140" fill="none" xmlns="http://www.w3.org/2000/svg">
<path d="M61.3584 79.0417V140H0V91.875C0 65.8194 3.39114 46.9583 10.1734 35.2917C19.0751 19.7361 33.1696 7.97222 52.4566 0L66.4451 20.4167C54.7881 24.8889 46.2042 31.5972 40.6936 40.5417C35.183 49.2917 32.1098 62.125 31.474 79.0417H61.3584ZM159.913 79.0417V140H98.5549V91.875C98.5549 65.8194 101.946 46.9583 108.728 35.2917C117.63 19.7361 131.724 7.97222 151.012 0L165 20.4167C153.343 24.8889 144.759 31.5972 139.249 40.5417C133.738 49.2917 130.665 62.125 130.029 79.0417H159.913Z" fill="#E7F1FA"/>
</svg>
