<svg width="12" height="10" viewBox="0 0 12 10" fill="none" xmlns="http://www.w3.org/2000/svg">
<path id="Twitter.svg Copy" fill-rule="evenodd" clip-rule="evenodd" d="M12 1.18179C11.5506 1.38624 11.0738 1.52027 10.5855 1.57939C11.1 1.26421 11.4849 0.767761 11.6685 0.18278C11.1853 0.477377 10.6568 0.685435 10.1055 0.798028C9.41441 0.0421805 8.34314 -0.204007 7.40356 0.177101C6.46398 0.558208 5.84683 1.48924 5.847 2.52534C5.84694 2.71895 5.86832 2.91194 5.91075 3.1006C3.92968 2.99845 2.0843 2.03777 0.83475 0.458104C0.181545 1.61185 0.51513 3.08751 1.59675 3.8289C1.20596 3.81631 0.823804 3.70792 0.48225 3.51281C0.48225 3.52358 0.48225 3.53358 0.48225 3.54588C0.482837 4.74739 1.30858 5.78225 2.457 6.02072C2.09438 6.12222 1.7139 6.13722 1.34475 6.06456C1.66724 7.09275 2.59115 7.79727 3.64425 7.81801C2.77257 8.5204 1.69586 8.90179 0.58725 8.90085C0.390998 8.90069 0.194921 8.88887 0 8.86547C1.12549 9.60714 2.43539 10.0009 3.77325 9.99984C5.63489 10.0126 7.42386 9.25982 8.74005 7.90975C10.0562 6.55967 10.7898 4.72499 10.7767 2.81604C10.7767 2.70684 10.7767 2.59763 10.7692 2.48919C11.2521 2.13198 11.6689 1.68923 12 1.18179Z" fill="white"/>
</svg>
