<svg xmlns="http://www.w3.org/2000/svg" width="70" height="60" viewBox="0 0 70 60">
    <g fill="#BBCED6" fill-rule="nonzero">
        <path d="M48.27 58.45l-.37-.7-5-9.45-.16-.3-.56-1.05H27.82L27.27 48l-.18.35-5 9.45-.36.7-.37.7h27.27l-.36-.75zm-24.94 0l.37-.7 5-9.45h12.6l5 9.45.37.7H23.33z"/>
        <path d="M52.5 58.8a.7.7 0 0 1-.7.7H18.2a.7.7 0 1 1 0-1.4h33.6a.7.7 0 0 1 .7.7zM67.2 0H2.8A2.81 2.81 0 0 0 0 2.8v42.7a2.81 2.81 0 0 0 2.8 2.8h64.4a2.81 2.81 0 0 0 2.8-2.8V2.8A2.81 2.81 0 0 0 67.2 0zm1.4 45.5a1.4 1.4 0 0 1-1.4 1.4H2.8a1.41 1.41 0 0 1-1.4-1.4V2.8a1.41 1.41 0 0 1 1.4-1.4h64.4a1.4 1.4 0 0 1 1.4 1.4v42.7z"/>
        <path d="M4.2 4.2v34.3h61.6V4.2H4.2zm60.2 32.9H5.6V5.6h58.8v31.5z"/>
        <path d="M67.2 0H2.8A2.81 2.81 0 0 0 0 2.8v42.7a2.81 2.81 0 0 0 2.8 2.8h64.4a2.81 2.81 0 0 0 2.8-2.8V2.8A2.81 2.81 0 0 0 67.2 0zM33.6 42.7a1.4 1.4 0 1 1 2.8 0 1.4 1.4 0 0 1-2.8 0zM64.4 5.6v31.5H5.6V5.6h58.8z" opacity=".2"/>
        <path d="M8.36 35.41A.7.7 0 0 1 8 34.1c.53-.44 4.42-4.32 6.8-6.71a.7.7 0 0 1 .81-.13l6.32 3.16c.75-.91 2.55-2.8 6.81-7.16a.7.7 0 0 1 .85-.12L36.28 27l6.64-6.68a.7.7 0 0 1 .76-.15l6.41 2.64 7.8-11.14a.7.7 0 1 1 1.15.8l-8.12 11.6a.7.7 0 0 1-.84.25l-6.49-2.68-6.69 6.73a.7.7 0 0 1-.85.11l-6.68-3.87c-2.46 2.52-6.06 6.26-6.59 6.94a.7.7 0 0 1-.89.33l-6.38-3.19c-6.69 6.72-6.78 6.72-7.15 6.72z"/>
        <path d="M60 15.41a.72.72 0 0 1-.52-.14.69.69 0 0 1-.27-.46l-.43-3.24-3.22.43a.71.71 0 0 1-.79-.6.72.72 0 0 1 .14-.52.69.69 0 0 1 .46-.27l3.93-.52a.54.54 0 0 1 .29 0 .7.7 0 0 1 .5.58l.52 3.93a.71.71 0 0 1-.61.81zM35 40.23a2.47 2.47 0 1 0 0 4.94 2.47 2.47 0 0 0 0-4.94zm0 3.71a1.24 1.24 0 1 1 0-2.48 1.24 1.24 0 0 1 0 2.48z"/>
    </g>
</svg>
