<svg id="Layer_1" data-name="Layer 1" xmlns="http://www.w3.org/2000/svg" viewBox="0 0 50 50"><defs><style>.cls-1{fill:#baccd5;}.cls-2,.cls-3{fill:none;stroke:#b9cdd5;stroke-width:1.5px;}.cls-3{stroke-linecap:round;}</style></defs><title>2</title><path id="Fill-1" class="cls-1" d="M5.86,4.41A.91.91,0,1,1,5,3.52a.9.9,0,0,1,.91.89"/><path id="Fill-3" class="cls-1" d="M9,4.41a.91.91,0,1,1-.91-.89A.9.9,0,0,1,9,4.41"/><path id="Fill-5" class="cls-1" d="M12.11,4.41a.91.91,0,1,1-.91-.89.9.9,0,0,1,.91.89"/><path id="Stroke-7" class="cls-2" d="M47.5,34.65H2.5A1.46,1.46,0,0,1,1,33.18V2.46A1.46,1.46,0,0,1,2.5,1h45A1.46,1.46,0,0,1,49,2.46V33.18A1.46,1.46,0,0,1,47.5,34.65Z"/><path id="Stroke-9" class="cls-2" d="M1,8H49"/><polyline id="Stroke-11" class="cls-3" points="1.03 29.67 25.07 29.67 32.57 23.34 39.9 30.5 48.59 22"/><polyline id="Stroke-13" class="cls-3" points="1.03 21.83 6.66 21.83 10.07 25.17 18.42 17 22 20.5 30.18 12.5 37.34 19.5 45.01 12 48.52 15.43"/></svg>