<svg id="quote.svg" xmlns="http://www.w3.org/2000/svg" width="60" height="60" viewBox="0 0 60 60">
  <defs>
    <style>
      .cls-1, .cls-3 {
        fill: #bcced6;
      }

      .cls-1, .cls-2, .cls-3 {
        fill-rule: evenodd;
      }

      .cls-2 {
        fill: none;
        stroke: #bcced6;
        stroke-width: 1.3px;
      }

      .cls-3 {
        opacity: 0.2;
      }
    </style>
  </defs>
  <path class="cls-1" d="M1450,4442a30,30,0,1,1-30,30A30,30,0,0,1,1450,4442Zm0,1.35a28.65,28.65,0,1,1-28.65,28.65A28.654,28.654,0,0,1,1450,4443.35Z" transform="translate(-1420 -4442)"/>
  <path class="cls-2" d="M1444.13,4470.1a1.463,1.463,0,0,1,.13.09,1.213,1.213,0,0,1,.14.1,7.781,7.781,0,1,1-11.56,2.8c1.79-3.59,8.61-13.03,8.61-13.03h7.24Zm18.42,0c0.04,0.03.09,0.06,0.13,0.09a1.213,1.213,0,0,1,.14.1,7.77,7.77,0,1,1-11.57,2.8c1.8-3.59,8.62-13.03,8.62-13.03h7.23S1462.54,4470.1,1462.55,4470.1Z" transform="translate(-1420 -4442)"/>
  <path id="Ellipse_2_copy" data-name="Ellipse 2 copy" class="cls-3" d="M1444.13,4470.1a1.463,1.463,0,0,1,.13.09,1.213,1.213,0,0,1,.14.1,7.781,7.781,0,1,1-11.56,2.8c1.79-3.59,8.61-13.03,8.61-13.03h7.24Zm18.42,0c0.04,0.03.09,0.06,0.13,0.09a1.213,1.213,0,0,1,.14.1,7.77,7.77,0,1,1-11.57,2.8c1.8-3.59,8.62-13.03,8.62-13.03h7.23S1462.54,4470.1,1462.55,4470.1Z" transform="translate(-1420 -4442)"/>
</svg>
