<svg id="Layer_1" data-name="Layer 1" xmlns="http://www.w3.org/2000/svg" viewBox="0 0 110 110"><defs><style>.cls-1{fill:#bdccd4;}.cls-2,.cls-3{fill:#bcced6;}.cls-3{opacity:0.2;}</style></defs><title>audience</title><path class="cls-1" d="M55,10A10,10,0,1,0,65,20,10,10,0,0,0,55,10Zm0,18a8,8,0,1,1,8-8A8,8,0,0,1,55,28Z"/><path class="cls-1" d="M23,5a9,9,0,1,0,9,9A9,9,0,0,0,23,5Zm0,16a7,7,0,1,1,7-7A7,7,0,0,1,23,21Z"/><path class="cls-1" d="M67,66H43a.41.41,0,0,1-.16,0A7.55,7.55,0,0,0,45,67.3a7.86,7.86,0,0,0,2,.53,8.13,8.13,0,0,0,1,.06H62a8.38,8.38,0,0,0,1-.06,8,8,0,0,0,2-.53A7.64,7.64,0,0,0,67.15,66,.39.39,0,0,1,67,66Zm.92-31.36A1.05,1.05,0,0,1,68,35V65a1.13,1.13,0,0,1,0,.18,7.93,7.93,0,0,0,2-5.29V40A8,8,0,0,0,67.92,34.64ZM42,35a1,1,0,0,1,.07-.36A8,8,0,0,0,40,40V59.89a7.92,7.92,0,0,0,2,5.29A1.1,1.1,0,0,1,42,65Zm20-3H48a8,8,0,0,0-5.36,2.07A1,1,0,0,1,43,34H67a1,1,0,0,1,.35.07A8,8,0,0,0,62,32Z"/><path class="cls-1" d="M28,25H18a8,8,0,0,0-5.36,2.07A1,1,0,0,1,13,27H33a1,1,0,0,1,.35.07A8,8,0,0,0,28,25Zm5.92,2.64A1.05,1.05,0,0,1,34,28V52.76A8,8,0,0,0,35.17,51,7.87,7.87,0,0,0,36,47.48V33A8,8,0,0,0,33.92,27.64ZM13.39,54a4.93,4.93,0,0,0,.61.4,7.79,7.79,0,0,0,4,1.08H28a7.79,7.79,0,0,0,4-1.08,5.69,5.69,0,0,0,.6-.4ZM10,33V47.48A8,8,0,0,0,10.82,51,8.47,8.47,0,0,0,12,52.76V28a1,1,0,0,1,.07-.36A8,8,0,0,0,10,33Z"/><rect class="cls-2" x="22" y="55" width="2" height="31"/><path class="cls-1" d="M18,25l.83,2L23,37l4.16-10L28,25Zm5,6.8L21,27h4Z"/><path class="cls-1" d="M48,32.2l.75,1.8L55,49l6.17-15L62,32Zm7,11.57-4-9.61L59,34Z"/><circle class="cls-3" cx="23" cy="14" r="9"/><circle class="cls-3" cx="55" cy="20" r="10"/><path class="cls-2" d="M33,25H13a3,3,0,0,0-3,3V53a3,3,0,0,0,3,3H33a3,3,0,0,0,3-3V28A3,3,0,0,0,33,25Zm1,3V53a1,1,0,0,1-1,1H13a1,1,0,0,1-1-1V28a1,1,0,0,1,.07-.36,0,0,0,0,1,0,0,1,1,0,0,1,.54-.54h0A1,1,0,0,1,13,27H33a1,1,0,0,1,.35.07h0a1,1,0,0,1,.53.54,0,0,0,0,1,0,0A1.05,1.05,0,0,1,34,28Z"/><path class="cls-2" d="M30,56V83a2,2,0,0,1-2,2H18a2,2,0,0,1-2-2V56H30m2-2H14V83a4,4,0,0,0,4,4H28a4,4,0,0,0,4-4V54Z"/><path class="cls-1" d="M87,5a9,9,0,1,0,9,9A9,9,0,0,0,87,5Zm0,16a7,7,0,1,1,7-7A7,7,0,0,1,87,21Z"/><path class="cls-1" d="M92,25H82a8,8,0,0,0-5.36,2.07A1,1,0,0,1,77,27H97a1,1,0,0,1,.35.07A8,8,0,0,0,92,25Zm5.92,2.64A1.05,1.05,0,0,1,98,28V52.76A8,8,0,0,0,99.17,51a7.87,7.87,0,0,0,.83-3.52V33A8,8,0,0,0,97.92,27.64ZM77.39,54a4.93,4.93,0,0,0,.61.4,7.79,7.79,0,0,0,4,1.08H92a7.79,7.79,0,0,0,4-1.08,5.69,5.69,0,0,0,.6-.4ZM74,33V47.48A8,8,0,0,0,74.82,51,8.47,8.47,0,0,0,76,52.76V28a1,1,0,0,1,.07-.36A8,8,0,0,0,74,33Z"/><rect class="cls-2" x="86" y="55" width="2" height="31"/><path class="cls-1" d="M82,25l.83,2L87,37l4.16-10L92,25Zm5,6.8L85,27h4Z"/><circle class="cls-3" cx="87" cy="14" r="9"/><path class="cls-2" d="M97,25H77a3,3,0,0,0-3,3V53a3,3,0,0,0,3,3H97a3,3,0,0,0,3-3V28A3,3,0,0,0,97,25Zm1,3V53a1,1,0,0,1-1,1H77a1,1,0,0,1-1-1V28a1,1,0,0,1,.07-.36,0,0,0,0,1,0,0,1,1,0,0,1,.54-.54h0A1,1,0,0,1,77,27H97a1,1,0,0,1,.35.07h0a1,1,0,0,1,.53.54,0,0,0,0,1,0,0A1.05,1.05,0,0,1,98,28Z"/><path class="cls-2" d="M94,56V83a2,2,0,0,1-2,2H82a2,2,0,0,1-2-2V56H94m2-2H78V83a4,4,0,0,0,4,4H92a4,4,0,0,0,4-4V54Z"/><path class="cls-2" d="M65,66v35a4,4,0,0,1-4,4H49a4,4,0,0,1-4-4V66h2v35a2,2,0,0,0,2,2h5V67h2v36h5a2,2,0,0,0,2-2V66Z"/><path class="cls-2" d="M67,32H43a3,3,0,0,0-3,3V65a3,3,0,0,0,3,3H67a3,3,0,0,0,3-3V35A3,3,0,0,0,67,32Zm1,3V65a1.13,1.13,0,0,1,0,.18,1,1,0,0,1-.82.8A.39.39,0,0,1,67,66H43a.41.41,0,0,1-.16,0,1,1,0,0,1-.82-.8A1.1,1.1,0,0,1,42,65V35a1,1,0,0,1,.07-.36,0,0,0,0,1,0,0,1,1,0,0,1,.54-.54h0A1,1,0,0,1,43,34H67a1,1,0,0,1,.35.07h0a1,1,0,0,1,.53.54,0,0,0,0,1,0,0A1.05,1.05,0,0,1,68,35Z"/><path class="cls-3" d="M36,51v2a3,3,0,0,1-3,3H32V83a4,4,0,0,1-4,4H18a4,4,0,0,1-4-4V56H13a3,3,0,0,1-3-3V51h2v2a1,1,0,0,0,1,1H33a1,1,0,0,0,1-1V51Z"/><path class="cls-3" d="M70,51V65a3,3,0,0,1-3,3H65v33a4,4,0,0,1-4,4H49a4,4,0,0,1-4-4V68H43a3,3,0,0,1-3-3V51h2V65a1.1,1.1,0,0,0,0,.18,1,1,0,0,0,.82.8A.41.41,0,0,0,43,66H67a.39.39,0,0,0,.15,0,1,1,0,0,0,.82-.8A1.13,1.13,0,0,0,68,65V51Z"/><path class="cls-3" d="M100,51v2a3,3,0,0,1-3,3H96V83a4,4,0,0,1-4,4H82a4,4,0,0,1-4-4V56H77a3,3,0,0,1-3-3V51h2v2a1,1,0,0,0,1,1H97a1,1,0,0,0,1-1V51Z"/></svg>