<svg xmlns="http://www.w3.org/2000/svg" width="70" height="54" viewBox="0 0 70 54">
    <g fill="none" fill-rule="evenodd" transform="translate(1 1)">
        <path stroke="#BCCED6" stroke-linecap="round" stroke-width="1.5" d="M11 7v45M57 7v45"/>
        <circle cx="33.5" cy="29.5" r="13.5" stroke="#BCCED6" stroke-linecap="round" stroke-width="1.5"/>
        <circle cx="33.5" cy="29.5" r="13.5" fill="#BCCED6" fill-rule="nonzero" opacity=".2"/>
        <path stroke="#BCCED6" stroke-linecap="round" stroke-width="1.5" d="M34 29.988c-.732.075-1.46-.195-2.022-.75-.563-.556-.915-1.35-.978-2.211.052-.87.398-1.68.962-2.246.564-.567 1.299-.844 2.038-.769M37 27c-.051-.887-.398-1.713-.963-2.29-.564-.577-1.298-.858-2.037-.778V22M34.495 30.009A3.281 3.281 0 0 1 38 32.993a3.282 3.282 0 0 1-3.505 2.995 3.222 3.222 0 0 1-2.374-.764A3.234 3.234 0 0 1 31 32.994M34 35v2M25 7V2.688c0-.713.3-1.397.834-1.9A2.933 2.933 0 0 1 27.846 0h13.308C42.726 0 44 1.203 44 2.688V7"/>
        <rect width="68" height="45" y="7" stroke="#BCCED6" stroke-linecap="round" stroke-width="1.5" rx="1.44"/>
        <path fill="#BCCED6" fill-rule="nonzero" d="M0 7h10v45H0zM57 7h10v45H57z" opacity=".2"/>
    </g>
</svg>
