<svg xmlns="http://www.w3.org/2000/svg" width="51" height="50" viewBox="0 0 51 50">
    <g fill="none" fill-rule="evenodd">
        <path fill="#BECED6" fill-rule="nonzero" d="M26 1.5c12.956.039 23.444 10.544 23.46 23.5a23.58 23.58 0 0 1-5.4 15l-.28.32a22.17 22.17 0 0 1-3 2.87c-8.626 7.04-21.014 7.04-29.64 0a23 23 0 0 1-3-2.87c-.1-.11-.2-.21-.3-.34A23.6 23.6 0 0 1 2.46 25 23.51 23.51 0 0 1 26 1.5zM26 0A25 25 0 0 0 6.68 40.92c.11.14.23.27.36.41A25.11 25.11 0 0 0 26 50a24.84 24.84 0 0 0 15.77-5.62 23.88 23.88 0 0 0 3.15-3.05c.13-.14.25-.27.36-.41A25 25 0 0 0 26 0z"/>
        <path stroke="#BECED6" stroke-linecap="round" stroke-width="1.5" d="M16.7 25.23l7.85 7.86 15.61-15.62"/>
    </g>
</svg>
