<?xml version="1.0" encoding="utf-8"?>
<svg id="Layer_1" data-name="Layer 1" viewBox="0 0 70 89" xmlns="http://www.w3.org/2000/svg">
  <defs>
    <style>.cls-1,.cls-2{fill:#bcced6;}.cls-1{opacity:0.3;}</style>
  </defs>
  <title>1</title>
  <polyline class="cls-1" points="43.4 16.8 35 4.2 26.6 16.8"/>
  <polygon class="cls-1" points="30.1 36.4 18.9 36.4 24.5 28 30.1 36.4"/>
  <path class="cls-2" d="M51.68,36l-5.6-8.4a.73.73,0,0,0-1.16,0L42.7,30.94V30.1A.7.7,0,0,0,43.25,29l-.55-.7V17.5h.86a.7.7,0,0,0,.58-1.09L35.7,4V2.8h.7a.7.7,0,0,0,0-1.4h-.7V.7a.7.7,0,0,0-1.4,0v.7h-.7a.7.7,0,1,0,0,1.4h.7V4L25.87,16.41a.7.7,0,0,0,.58,1.09h.86V28.27l-.55.7a.7.7,0,0,0,.55,1.13v.84l-2.22-3.33a.73.73,0,0,0-1.16,0L18.32,36a.7.7,0,0,0,.58,1.09h.7V69.3a.7.7,0,0,0,.7.7H49.7a.7.7,0,0,0,.7-.7V37.1h.7A.7.7,0,0,0,51.68,36ZM45.5,29.26l4.29,6.44H41.21ZM34.91,5.58l.09,0,.09,0L42.23,16.1H27.77ZM28.7,17.5H41.3v9l-1.43-1.82a.67.67,0,0,0,0-.16V18.9a.7.7,0,0,0-1.4,0v4l-2.95-3.75a.72.72,0,0,0-1.1,0L31.5,22.92v-4a.7.7,0,1,0-1.4,0v5.6a.67.67,0,0,0,0,.16L28.7,26.49ZM35,20.73l6.26,8H28.74ZM28.7,32.9V30.1H41.3v2.8a.67.67,0,0,0,0,.11l-2,3a.7.7,0,0,0,.58,1.09h.35V59.5H29.75V37.1h.35A.7.7,0,0,0,30.68,36l-2-3A.66.66,0,0,0,28.7,32.9ZM46.2,58.8H44.8V42.7h1.4Zm-2.1,3.5H25.9L27,60.9h16.1Zm-19.6-33,4.29,6.44H20.21ZM21,37.1h7.35V59.5H26.6V42a.7.7,0,0,0-.7-.7H23.1a.7.7,0,0,0-.7.7V59.5a.7.7,0,0,0,.7.7h2.63l-1.79,2.38a.7.7,0,0,0,.56,1.12v4.9H21Zm4.2,5.6V58.8H23.8V42.7ZM28,68.6V66.5a.7.7,0,1,1,1.4,0v2.1H28Zm6.3,0V66.5a.7.7,0,0,1,1.4,0v2.1Zm6.65,0H40.6V66.5a.7.7,0,1,1,1.4,0v2.1Zm2.45,0V66.5a2.1,2.1,0,0,0-4.2,0v2.1H37.1V66.5a2.1,2.1,0,0,0-4.2,0v2.1H30.8V66.5a2.1,2.1,0,0,0-4.2,0v2.1h-.7V63.7H44.1v4.9Zm5.6,0H45.5V63.7a.7.7,0,0,0,.56-1.12L44.27,60.2H46.9a.7.7,0,0,0,.7-.7V42a.7.7,0,0,0-.7-.7H44.1a.7.7,0,0,0-.7.7V59.5H41.65V37.1H49Z"/>
  <path class="cls-2" d="M35,43.4a3.5,3.5,0,1,0-3.5-3.5A3.5,3.5,0,0,0,35,43.4Zm0-5.6a2.1,2.1,0,1,1-2.1,2.1A2.1,2.1,0,0,1,35,37.8Z"/>
  <path class="cls-2" d="M32.2,58.8h5.6a.7.7,0,0,0,.7-.7V47.53a3.44,3.44,0,0,0-3.43-3.43,3.57,3.57,0,0,0-3.57,3.57V58.1A.7.7,0,0,0,32.2,58.8Zm.7-11.13a2.17,2.17,0,0,1,2.17-2.17,2,2,0,0,1,2,2V57.4H32.9Z"/>
  <path class="cls-2" d="M23.1,39.9V38.5a.7.7,0,0,0-1.4,0v1.4a.7.7,0,1,0,1.4,0Z"/>
  <path class="cls-2" d="M24.5,40.6a.7.7,0,0,0,.7-.7V38.5a.7.7,0,0,0-1.4,0v1.4A.7.7,0,0,0,24.5,40.6Z"/>
  <path class="cls-2" d="M26.6,40.6a.7.7,0,0,0,.7-.7V38.5a.7.7,0,1,0-1.4,0v1.4A.7.7,0,0,0,26.6,40.6Z"/>
  <path class="cls-2" d="M43.4,40.6a.7.7,0,0,0,.7-.7V38.5a.7.7,0,0,0-1.4,0v1.4A.7.7,0,0,0,43.4,40.6Z"/>
  <path class="cls-2" d="M45.5,40.6a.7.7,0,0,0,.7-.7V38.5a.7.7,0,0,0-1.4,0v1.4A.7.7,0,0,0,45.5,40.6Z"/>
  <path class="cls-2" d="M47.6,40.6a.7.7,0,0,0,.7-.7V38.5a.7.7,0,0,0-1.4,0v1.4A.7.7,0,0,0,47.6,40.6Z"/>
  <path class="cls-1" d="M27.68,29.4,35,20,42.4,29.4Z"/>
  <polygon class="cls-1" points="45.5 63 24.5 63 26.6 60.2 43.4 60.2 45.5 63"/>
  <polygon class="cls-1" points="51.1 36.4 39.9 36.4 45.5 28 51.1 36.4"/>
</svg>