<svg xmlns="http://www.w3.org/2000/svg" viewBox="0 0 70 70"><defs><style>.cls-1,.cls-2,.cls-3{fill:#bcced6;}.cls-1{opacity:0.2;}.cls-2{opacity:0.3;}</style></defs><title>1</title><g id="Layer_3" data-name="Layer 3"><polygon class="cls-1" points="53.2 37.1 16.8 37.1 24.71 28.36 45.29 28.36 53.2 37.1"/><polygon class="cls-2" points="60.14 30.04 69.3 39.2 51.29 38.89 60.14 30.04"/><polygon class="cls-2" points="9.55 30.04 18.71 39.2 0.7 38.89 9.55 30.04"/><circle class="cls-3" cx="35.01" cy="17.5" r="1.4"/><path class="cls-3" d="M39.21,48.3H42a.7.7,0,0,0,.7-.7V43.4a.7.7,0,0,0-.7-.7h-2.8a.7.7,0,0,0-.7.7v4.2A.7.7,0,0,0,39.21,48.3Zm.7-4.2h1.4v2.8h-1.4Z"/><path class="cls-3" d="M44.11,48.3h2.8a.7.7,0,0,0,.7-.7V43.4a.7.7,0,0,0-.7-.7h-2.8a.7.7,0,0,0-.7.7v4.2A.7.7,0,0,0,44.11,48.3Zm.7-4.2h1.4v2.8h-1.4Z"/><path class="cls-3" d="M23.11,48.3h2.8a.7.7,0,0,0,.7-.7V43.4a.7.7,0,0,0-.7-.7h-2.8a.7.7,0,0,0-.7.7v4.2A.7.7,0,0,0,23.11,48.3Zm.7-4.2h1.4v2.8h-1.4Z"/><path class="cls-3" d="M28,48.3h2.8a.7.7,0,0,0,.7-.7V43.4a.7.7,0,0,0-.7-.7H28a.7.7,0,0,0-.7.7v4.2A.7.7,0,0,0,28,48.3Zm.7-4.2h1.4v2.8h-1.4Z"/><path class="cls-3" d="M55.3,47.6h2.8a.7.7,0,0,0,.7-.7V42a.7.7,0,0,0-.7-.7H55.3a.7.7,0,0,0-.7.7v4.9A.7.7,0,0,0,55.3,47.6Zm.7-4.9h1.4v3.5H56Z"/><path class="cls-3" d="M62.3,47.6h2.8a.7.7,0,0,0,.7-.7V42a.7.7,0,0,0-.7-.7H62.3a.7.7,0,0,0-.7.7v4.9A.7.7,0,0,0,62.3,47.6Zm.7-4.9h1.4v3.5H63Z"/><path class="cls-3" d="M69.79,38.57l-9.16-9.16a.7.7,0,0,0-1,0l-6.53,6.53-7.29-8.05a.7.7,0,0,0-.52-.23H39.91v-6a.7.7,0,0,0-.7-.7V15.4a.7.7,0,0,0,.7-.7A4.91,4.91,0,0,0,36.41,10V8.4a.69.69,0,0,0-.47-.65V5.6a.69.69,0,0,0-.27-.54.67.67,0,0,0,0-.16V.7a.7.7,0,0,0-1.4,0V4.9a.67.67,0,0,0,0,.16.69.69,0,0,0-.27.54V7.75a.69.69,0,0,0-.47.65V10a4.91,4.91,0,0,0-3.5,4.69.7.7,0,0,0,.7.7V21a.7.7,0,0,0-.7.7v6H24.73a.7.7,0,0,0-.52.23l-7.45,8.23L10,29.41a.7.7,0,0,0-1,0L.2,38.26a.7.7,0,0,0,.3,1.17v11a.7.7,0,0,0,.7.7H18l.1,0,.1,0H68.6a.7.7,0,0,0,.7-.7V39.76a.7.7,0,0,0,.49-1.19ZM9.55,30.9l4.91,4.91A13.79,13.79,0,0,0,9.61,35a13.68,13.68,0,0,0-5,.88Zm.06,5.51a10.47,10.47,0,0,1,6.58,1.92L3.34,38.1A10.8,10.8,0,0,1,9.61,36.4Zm7.7,13.3H1.91V39.9h15.4ZM35,11.2A3.51,3.51,0,0,1,38.44,14H31.58A3.51,3.51,0,0,1,35,11.2Zm2.8,4.2V21h-5.6V15.4Zm-6.3,7h7v4.9h-2.8V24.5a.7.7,0,0,0-1.4,0v2.8h-2.8Zm4.9,27.3h-2.8V44.1h2.8Zm14.69,0H37.81V43.4a.7.7,0,0,0-.7-.7h-4.2a.7.7,0,0,0-.7.7v6.3H18.91V41.81H51.1Zm0-11.75-.32.32a.7.7,0,0,0,.3,1.17v1H18.91v-.68a.7.7,0,0,0,.29-1.16l-.29-.29V37.8h32.2ZM18.39,36.4,25,29.06H45l6.65,7.34Zm41.75-5.5,4.91,4.91a15,15,0,0,0-9.9.07Zm.06,5.51a10.47,10.47,0,0,1,6.58,1.92L53.93,38.1A10.8,10.8,0,0,1,60.2,36.4Zm7.7,13.3H52.51V39.9H67.9Z"/><path class="cls-3" d="M4.71,47.6h2.8a.7.7,0,0,0,.7-.7V42a.7.7,0,0,0-.7-.7H4.71A.7.7,0,0,0,4,42v4.9A.7.7,0,0,0,4.71,47.6Zm.7-4.9h1.4v3.5H5.41Z"/><path class="cls-3" d="M11.71,47.6h2.8a.7.7,0,0,0,.7-.7V42a.7.7,0,0,0-.7-.7h-2.8a.7.7,0,0,0-.7.7v4.9A.7.7,0,0,0,11.71,47.6Zm.7-4.9h1.4v3.5h-1.4Z"/></g></svg>