<svg xmlns="http://www.w3.org/2000/svg" viewBox="0 0 70 70"><defs><style>.cls-1{fill:#bcced6;}</style></defs><title>1</title><g id="Warstwa_5" data-name="Warstwa 5"><path class="cls-1" d="M69.74,19.45a.7.7,0,0,0-.59-.14,12.71,12.71,0,0,1-2.65.29A12.61,12.61,0,0,1,53.9,7V3.5a.7.7,0,0,0-.7-.7H51.8V.7a.7.7,0,0,0-.7-.7h-.7a.7.7,0,0,0-.7.7V2.8H48.3a.7.7,0,0,0-.7.7V7A12.6,12.6,0,0,1,22.4,7V3.5a.7.7,0,0,0-.7-.7H20.3V.7a.7.7,0,0,0-.7-.7h-.7a.7.7,0,0,0-.7.7V2.8H16.8a.7.7,0,0,0-.7.7V7A12.61,12.61,0,0,1,3.5,19.6a12.41,12.41,0,0,1-2.65-.3A.7.7,0,0,0,0,20V32.9a.7.7,0,0,0,.7.7H16.1V44.8a.7.7,0,1,0,1.4,0V33.6H21v9.1a.7.7,0,0,0,1.4,0V33.6H47.6V44.8a.7.7,0,1,0,1.4,0V33.6h3.5v9.1a.7.7,0,0,0,1.4,0V33.6H69.3a.7.7,0,0,0,.7-.7V20A.7.7,0,0,0,69.74,19.45Zm-6.42,1.17V32.2H59.45V19.07A13.89,13.89,0,0,0,63.32,20.62ZM49,15.4h3.5v7.7H49ZM49,4.2h3.5V14H49ZM42.22,19V32.2H38.34V20.85a.7.7,0,0,0-.05-.26A13.9,13.9,0,0,0,42.22,19Zm-5.28,1.87h0V32.2H33.06V20.85a12.57,12.57,0,0,0,3.88,0ZM31.66,32.2H27.78V19a13.9,13.9,0,0,0,3.92,1.62.68.68,0,0,0,0,.2ZM17.5,15.4H21v7.7H17.5Zm0-11.2H21V14H17.5V4.2ZM10.55,19.07V32.2H6.68V20.62A13.89,13.89,0,0,0,10.55,19.07ZM1.4,20.83A13.5,13.5,0,0,0,3.5,21a14,14,0,0,0,1.78-.13V32.2H1.4ZM12,32.2v-14s0,0,0-.06a14.07,14.07,0,0,0,4.16-5.08V32.2Zm5.55,0V24.5H21v7.7Zm4.9-19.14a14.07,14.07,0,0,0,4,5,.67.67,0,0,0,0,.16v14h-4ZM43.62,32.2v-14a.67.67,0,0,0,0-.16,14.07,14.07,0,0,0,4-5V32.2Zm5.38,0V24.5h3.5v7.7Zm4.9-19.14a14.07,14.07,0,0,0,4.19,5.1.69.69,0,0,0,0,.21V32.2H53.9ZM68.6,32.2H64.72V20.87A14,14,0,0,0,66.5,21a13.91,13.91,0,0,0,2.1-.16Z"/><path class="cls-1" d="M69.3,46.74a.7.7,0,0,0-.7.7,2.73,2.73,0,1,1-5.46,0,.7.7,0,1,0-1.4,0c0,.06,0,.12,0,.18s0,0,0,0a2.73,2.73,0,1,1-5.46,0,.66.66,0,0,0,0-.09c0-.12,0-.24,0-.37a.7.7,0,1,0-1.4,0,2.73,2.73,0,0,1-5.46,0,.7.7,0,1,0-1.4,0c0,.06,0,.12,0,.18s0,0,0,0a2.73,2.73,0,1,1-5.46,0,.7.7,0,0,0-1.4,0,2.73,2.73,0,1,1-5.46,0,.7.7,0,0,0-1.4,0c0,.06,0,.12,0,.18s0,0,0,0a2.73,2.73,0,1,1-5.46,0,.66.66,0,0,0,0-.09c0-.12,0-.24,0-.37a.7.7,0,0,0-1.4,0,2.73,2.73,0,1,1-5.46,0,.7.7,0,1,0-1.4,0c0,.06,0,.12,0,.18s0,0,0,0a2.73,2.73,0,0,1-5.46,0,.7.7,0,0,0-1.4,0,2.73,2.73,0,1,1-5.46,0,.7.7,0,1,0-1.4,0c0,.06,0,.12,0,.18s0,0,0,0a2.73,2.73,0,1,1-5.46,0,.7.7,0,0,0-1.4,0,4.13,4.13,0,0,0,7.64,2.17,4.12,4.12,0,0,0,6.78-.1,4.12,4.12,0,0,0,6.94-.13,4.12,4.12,0,0,0,6.63.1,4.12,4.12,0,0,0,7.09.13,4.12,4.12,0,0,0,6.78-.1,4.12,4.12,0,0,0,6.94-.13,4.12,4.12,0,0,0,6.63.1,4.12,4.12,0,0,0,7.09.13A4.13,4.13,0,0,0,70,47.44.7.7,0,0,0,69.3,46.74Z"/></g></svg>