<?xml version="1.0" encoding="utf-8"?>
<svg version="1.1" id="Layer_1" x="0px" y="0px" viewBox="0 0 187.9 26.5" style="enable-background:new 0 0 192.2 31.2;" width="161px" height="23px" preserveAspectRatio="none" xmlns="http://www.w3.org/2000/svg">
  <style type="text/css">
	.st0{fill:#10446F;}
</style>
  <g transform="matrix(1, 0, 0, 1, -2, -3)">
    <path class="st0" d="M189.8,19.9c0-5.4-3.7-8.6-8.6-8.6c-4.9,0-8.8,3.5-8.8,8.9s3.9,9,8.8,9c1.8,0,3.3-0.3,5.1-1.3&#10;&#9;&#9;c1.8-1,3.1-3.1,3.3-4.4c-0.2,0-3.6,0-3.6,0c-0.9,1.6-2.5,2.4-4.7,2.4c-3,0-5.2-2.4-5.2-4.6h13.6C189.8,20.7,189.8,20.3,189.8,19.9z&#10;&#9;&#9; M176.1,18.2c0.5-2.2,2.3-3.7,4.9-3.7c2.6,0,4.7,1.5,5,3.7H176.1z" style="fill: rgb(188, 206, 214);"/>
    <path class="st0" d="M15.6,22.5c-0.8,1.8-2.6,3-4.7,3c-2.8,0-5.2-2.3-5.2-5.2c0-2.8,2.3-5.2,5.2-5.2c2.1,0,3.9,1.3,4.7,3.1h4&#10;&#9;&#9;c-0.9-4-4.5-6.9-8.7-6.9c-4.9,0-9,4-9,9s4,9,9,9c4.2,0,7.7-2.9,8.7-6.8H15.6z" style="fill: rgb(188, 206, 214);"/>
    <path class="st0" d="M33.9,12.1c-1.1-0.5-2.3-0.8-3.6-0.8c-1.3,0-2.5,0.4-3.6,1.1l0-0.5h-3.7v7.6c0,1.2,0,9.1,0,9.1h3.7&#10;&#9;&#9;c0,0,0-4.1,0-8c0-1.5,0-2.5,0.2-3.2c0,0,0-0.1,0-0.1c0.2-0.7,0.6-1.2,1.4-1.7c0.5-0.3,1.1-0.6,2-0.6s1.4,0.2,2,0.6L33.9,12.1z" style="fill: rgb(188, 206, 214);"/>
    <path class="st0" d="M47.9,11.9c0,0,0,4.1,0,8c0,1.5,0,2.5-0.2,3.2c0,0,0,0.1,0,0.1c-0.2,0.7-0.6,1.2-1.4,1.7&#10;&#9;&#9;c-0.5,0.3-1.1,0.6-2,0.6s-1.4-0.2-2-0.6c-0.7-0.5-1.1-0.9-1.4-1.7c0,0,0-0.1,0-0.1c-0.2-0.7-0.2-1.7-0.2-3.2v-8h-3.7V21&#10;&#9;&#9;c0,2,0.1,2.9,0.6,4.4c0.5,1.3,1.6,2.4,3,3c1.1,0.5,2.3,0.8,3.6,0.8c1.3,0,2.5-0.4,3.6-1.1l0,0.5h3.7V21c0-1.2,0-9.1,0-9.1H47.9z" style="fill: rgb(188, 206, 214);"/>
    <path class="st0" d="M59.8,28.6c0,0,0-4.1,0-8c0-1.5,0-2.5,0.2-3.2c0,0,0-0.1,0-0.1c0.2-0.7,0.6-1.2,1.4-1.7c0.5-0.3,1.1-0.6,2-0.6&#10;&#9;&#9;c0.9,0,1.4,0.2,2,0.6c0.7,0.5,1.1,0.9,1.4,1.7c0,0,0,0.1,0,0.1c0.2,0.7,0.2,1.7,0.2,3.2v8h3.7v-9.1c0-2-0.1-2.9-0.6-4.4&#10;&#9;&#9;c-0.5-1.3-1.6-2.4-3-3c-1.1-0.5-2.3-0.8-3.6-0.8c-1.3,0-2.5,0.4-3.6,1.1l0-0.5h-3.7v7.6c0,1.2,0,9.1,0,9.1H59.8z" style="fill: rgb(188, 206, 214);"/>
    <path class="st0" d="M87.7,22.5c-0.8,1.8-2.6,3-4.7,3c-2.8,0-5.2-2.3-5.2-5.2c0-2.8,2.3-5.2,5.2-5.2c2.1,0,3.9,1.3,4.7,3.1h4&#10;&#9;&#9;c-0.9-4-4.5-6.9-8.7-6.9c-4.9,0-9,4-9,9s4,9,9,9c4.2,0,7.7-2.9,8.7-6.8H87.7z" style="fill: rgb(188, 206, 214);"/>
    <path class="st0" d="M98.8,28.6c0,0,0-4.1,0-8c0-1.5,0-2.5,0.2-3.2c0,0,0-0.1,0-0.1c0.2-0.7,0.6-1.2,1.4-1.7c0.5-0.3,1.1-0.6,2-0.6&#10;&#9;&#9;c0.9,0,1.4,0.2,2,0.6c0.7,0.5,1.1,0.9,1.4,1.7c0,0,0,0.1,0,0.1c0.2,0.7,0.2,1.7,0.2,3.2v8h3.7v-9.1c0-2-0.1-2.9-0.6-4.4&#10;&#9;&#9;c-0.5-1.3-1.6-2.4-3-3c-1.1-0.5-2.3-0.8-3.6-0.8c-1.3,0-2.5,0.4-3.6,1.1l0-9.6h-3.7v16.7c0,1.2,0,9.1,0,9.1H98.8z" style="fill: rgb(188, 206, 214);"/>
    <path class="st0" d="M122.9,11.3c-0.2,0-0.4,0-0.7,0c-1.6,0.1-3.1,0.7-4.4,1.6l0-10.1h-3.7v16.7c0,0.4,0,1.5,0,2.8&#10;&#9;&#9;c0,2.7,0,6.3,0,6.3h3.7c0,0,0-0.4,0-0.9c1.4,1,3.2,1.6,5,1.6c1.1,0,2.2-0.2,3.2-0.6c0.9-0.4,1.8-0.9,2.6-1.5&#10;&#9;&#9;c1.9-1.6,3.1-4.1,3.1-6.8C131.8,15.3,127.8,11.3,122.9,11.3z M128,21c0,0.1,0,0.1,0,0.2c0,0.2-0.1,0.4-0.1,0.6c0,0,0,0,0,0&#10;&#9;&#9;c-0.1,0.2-0.2,0.4-0.3,0.6c0,0,0,0.1,0,0.1c-0.5,1.1-1.4,2-2.5,2.5c-0.3,0.1-0.7,0.3-1,0.3c0,0,0,0,0,0c-0.2,0-0.3,0.1-0.5,0.1&#10;&#9;&#9;c0,0,0,0-0.1,0c-0.2,0-0.4,0-0.6,0h0c-0.2,0-0.5,0-0.7-0.1c-0.1,0-0.1,0-0.2,0c-0.5-0.1-0.9-0.2-1.3-0.4c0,0-0.1,0-0.1,0&#10;&#9;&#9;c-0.4-0.2-0.8-0.5-1.2-0.8c0,0,0,0,0,0c-0.4-0.3-0.7-0.7-0.9-1.1c0,0,0,0,0,0c-0.1-0.2-0.2-0.4-0.3-0.6h0c-0.3-0.6-0.4-1.3-0.4-2.1&#10;&#9;&#9;c0-0.8,0.2-1.5,0.5-2.2h0c0.8-1.6,2.3-2.7,4.1-2.9c0.2,0,0.4,0,0.5,0h0c2.8,0,5.2,2.3,5.2,5.2v0C128,20.5,128,20.7,128,21z" style="fill: rgb(188, 206, 214);"/>
    <path class="st0" d="M169.4,16.9L169.4,16.9c0-2.8-2.1-5.6-6.7-5.6c-4.6,0-6.7,2.7-6.7,5.4l0,0l0,0.1l0,0l0,0.1h0&#10;&#9;&#9;c0.1,1.6,1,3.6,4.5,4.4l3.1,0.7c0.8,0.2,2.2,0.6,2.3,1.7h0c0,1.4-1.8,2.2-3.1,2.2c-1.5,0-3.1-0.8-3.1-2.2v-0.1h-3.6v0.1&#10;&#9;&#9;c0,2.7,2.1,5.5,6.7,5.5c4.7,0,6.7-2.8,6.7-5.5l0-0.1h0c-0.1-1.6-0.9-3.6-4.5-4.4l-3.1-0.7c-0.7-0.2-2.3-0.6-2.3-1.6&#10;&#9;&#9;c0-1.6,1.6-2.1,3.1-2.1c1.5,0,3.1,0.8,3.1,2.2v0.1H169.4z" style="fill: rgb(188, 206, 214);"/>
    <path class="st0" d="M134.8,20.3c0,2.7,1.2,5.2,3.1,6.8c0.8,0.7,1.6,1.2,2.6,1.5c1,0.4,2.1,0.6,3.2,0.6c1.9,0,3.6-0.6,5-1.6&#10;&#9;&#9;c0,0.6,0,0.9,0,0.9h3.7c0,0,0-3.6,0-6.3c0-1.3,0-2.4,0-2.8v-7.6h-3.7l0,1c-1.3-0.9-2.8-1.4-4.4-1.6c-0.2,0-0.4,0-0.7,0&#10;&#9;&#9;C138.9,11.3,134.8,15.3,134.8,20.3z M138.6,20.3L138.6,20.3c0-2.8,2.3-5.2,5.2-5.2h0c0.2,0,0.4,0,0.5,0c1.8,0.2,3.4,1.3,4.1,2.9h0&#10;&#9;&#9;c0.3,0.7,0.5,1.4,0.5,2.2c0,0.7-0.2,1.4-0.4,2.1h0c-0.1,0.2-0.2,0.4-0.3,0.6c0,0,0,0,0,0c-0.3,0.4-0.6,0.8-0.9,1.1c0,0,0,0,0,0&#10;&#9;&#9;c-0.3,0.3-0.7,0.6-1.2,0.8c0,0-0.1,0-0.1,0c-0.4,0.2-0.8,0.3-1.3,0.4c-0.1,0-0.1,0-0.2,0c-0.2,0-0.5,0.1-0.7,0.1h0&#10;&#9;&#9;c-0.2,0-0.4,0-0.6,0c0,0,0,0-0.1,0c-0.2,0-0.3,0-0.5-0.1c0,0,0,0,0,0c-0.4-0.1-0.7-0.2-1-0.3c-1.1-0.5-2-1.4-2.5-2.5c0,0,0,0,0-0.1&#10;&#9;&#9;c-0.1-0.2-0.2-0.4-0.3-0.6c0,0,0,0,0,0c-0.1-0.2-0.1-0.4-0.1-0.6c0-0.1,0-0.1,0-0.2C138.7,20.7,138.6,20.5,138.6,20.3z" style="fill: rgb(188, 206, 214);"/>
  </g>
</svg>