<?xml version="1.0" encoding="utf-8"?>
<!-- Generator: Adobe Illustrator 21.0.0, SVG Export Plug-In . SVG Version: 6.00 Build 0)  -->
<svg version="1.1" id="Layer_1" xmlns="http://www.w3.org/2000/svg" xmlns:xlink="http://www.w3.org/1999/xlink" x="0px" y="0px"
	 width="2570px" height="50px" viewBox="0 0 2570 50" style="enable-background:new 0 0 2570 50;" xml:space="preserve">
<g>
	<path style="fill:none;stroke:#B9CDD5;stroke-width:2;stroke-miterlimit:10;" d="M17,25"/>
	<path style="fill:none;stroke:#B9CDD5;stroke-width:2;stroke-miterlimit:10;" d="M13.8,25V2.7c0-0.8,0.7-1.5,1.7-1.5h31.7
		c0.9,0,1.7,0.7,1.7,1.5v44.6c0,0.8-0.7,1.5-1.7,1.5H15.5c-0.9,0-1.7-0.7-1.7-1.5v-2.6"/>
	<line style="fill:none;stroke:#B9CDD5;stroke-width:2;stroke-miterlimit:10;" x1="13.8" y1="8.3" x2="48.8" y2="8.3"/>
	<circle style="fill:#BACCD5;" cx="17.6" cy="4.8" r="0.9"/>
	<circle style="fill:#BACCD5;" cx="19.9" cy="4.8" r="0.9"/>
	<circle style="fill:#BACCD5;" cx="22.1" cy="4.8" r="0.9"/>
	
		<line style="fill:none;stroke:#B9CDD5;stroke-width:2;stroke-linecap:round;stroke-miterlimit:10;" x1="21.6" y1="14.8" x2="43.7" y2="14.8"/>
	
		<line style="fill:none;stroke:#B9CDD5;stroke-width:2;stroke-linecap:round;stroke-miterlimit:10;" x1="24.4" y1="19.8" x2="40.9" y2="19.8"/>
	<path style="fill:none;stroke:#B9CDD5;stroke-width:2;stroke-linecap:round;stroke-miterlimit:10;" d="M28.6,44.3H2
		c-0.5,0-0.8-0.4-0.8-0.8V26.1c0-0.5,0.4-0.8,0.8-0.8h26.6c0.5,0,0.8,0.4,0.8,0.8v17.4C29.4,44,29,44.3,28.6,44.3z"/>
	<path style="fill:none;stroke:#B9CDD5;stroke-width:2;stroke-linecap:round;stroke-miterlimit:10;" d="M43.6,44.3h-8.9
		c-0.5,0-0.8-0.4-0.8-0.8V26.1c0-0.5,0.4-0.8,0.8-0.8h8.9c0.5,0,0.8,0.4,0.8,0.8v17.4C44.4,44,44,44.3,43.6,44.3z"/>
	<polyline style="fill:none;stroke:#B9CDD5;stroke-width:2;stroke-miterlimit:10;" points="5.9,44.2 17.5,32.6 28.9,44 	"/>
	<polyline style="fill:none;stroke:#B9CDD5;stroke-width:2;stroke-miterlimit:10;" points="21.1,35.2 25.6,30.7 29.6,34.7 	"/>
	<circle style="fill:none;stroke:#B9CDD5;stroke-width:2;stroke-miterlimit:10;" cx="8.3" cy="31.5" r="2.4"/>
</g>
<g>
	<path style="fill:none;stroke:#B9CDD5;stroke-width:2;stroke-linecap:round;stroke-miterlimit:10;" d="M155.4,48.9h-20.8
		c-1.8,0-3.3-1.5-3.3-3.3V4.5c0-1.8,1.5-3.3,3.3-3.3h20.8c1.8,0,3.3,1.5,3.3,3.3v41.1C158.7,47.4,157.2,48.9,155.4,48.9z"/>
	
		<rect x="135.2" y="6.9" style="fill:none;stroke:#B9CDD5;stroke-width:2;stroke-linecap:round;stroke-miterlimit:10;" width="19.6" height="31.6"/>
	
		<ellipse style="fill:none;stroke:#B9CDD5;stroke-width:2;stroke-linecap:round;stroke-miterlimit:10;" cx="145" cy="43.4" rx="2" ry="2"/>
</g>
<g>
	<g>
		<path style="fill:none;stroke:#B9CDD5;stroke-width:2;stroke-linecap:round;stroke-miterlimit:10;" d="M213.1,37.5h6.2
			c2.6,0,4.9-0.9,6.7-2.8c1.9-1.9,2.8-4.1,2.8-6.8c0-2.2-0.7-4.2-2.1-6l0,0c-1.4-1.7-3.2-2.8-5.3-3.3c0.7-1,1-2.2,1-3.4
			c0-1.8-0.6-3.3-1.9-4.5c-1.2-1.2-2.7-1.9-4.5-1.9c-1.6,0-3,0.5-4.1,1.5c-1-2.4-2.5-4.3-4.7-5.7c-2.1-1.5-4.5-2.2-7.1-2.2
			c-3.5,0-6.5,1.2-9,3.7c-2.5,2.5-3.7,5.5-3.7,9c0,0.2,0,0.6,0,1.1c-1.9,0.9-3.5,2.2-4.6,4.1c-1.2,1.8-1.8,3.8-1.8,6
			c0,3.1,1.1,5.7,3.3,7.9c2.2,2.2,4.8,3.3,7.9,3.3h3.4 M213.6,37.5 M195.6,37.5 M226.8,22"/>
	</g>
	
		<polyline style="fill:none;stroke:#B9CDD5;stroke-width:2;stroke-linecap:round;stroke-linejoin:round;stroke-miterlimit:10;" points="
		200.1,32.5 200.1,47.5 196.1,43.5 	"/>
	
		<polyline style="fill:none;stroke:#B9CDD5;stroke-width:2;stroke-linecap:round;stroke-linejoin:round;stroke-miterlimit:10;" points="
		200.1,32.5 200.1,47.5 204.1,43.5 	"/>
	
		<polyline style="fill:none;stroke:#B9CDD5;stroke-width:2;stroke-linecap:round;stroke-linejoin:round;stroke-miterlimit:10;" points="
		209.1,43.5 209.1,28.5 213.1,32.5 	"/>
	
		<polyline style="fill:none;stroke:#B9CDD5;stroke-width:2;stroke-linecap:round;stroke-linejoin:round;stroke-miterlimit:10;" points="
		209.1,43.5 209.1,28.5 205.1,32.5 	"/>
</g>
<g>
	<circle style="fill:none;stroke:#B9CDD5;stroke-width:2;stroke-linecap:round;stroke-miterlimit:10;" cx="265" cy="25" r="24"/>
	<g>
		<g>
			<path style="fill:none;stroke:#B9CDD5;stroke-width:2;stroke-linecap:round;stroke-miterlimit:10;" d="M276.7,36.7
				c6.4-6.4,6.4-16.9,0-23.3c-6.4-6.4-16.9-6.4-23.3,0c-6.4,6.4-6.4,16.9,0,23.3C259.8,43.1,270.2,43.1,276.7,36.7L276.7,36.7z
				 M259.1,22.5l3.7,3.7l8.1-8.1l2.9,2.9l-8.1,8.1l-2.9,2.9l-6.6-6.6L259.1,22.5z M259.1,22.5"/>
		</g>
	</g>
</g>
<g>
	<path style="fill:none;stroke:#B9CDD5;stroke-width:2;stroke-miterlimit:10;" d="M380.9,23h-17.7c-1.2,0-2.1-1-2.1-2.1V3.1
		c0-1.2,1-2.1,2.1-2.1h17.7c1.2,0,2.1,1,2.1,2.1v17.7C383,22,382,23,380.9,23z"/>
	<path style="fill:none;stroke:#B9CDD5;stroke-width:2;stroke-miterlimit:10;" d="M406.9,23h-17.7c-1.2,0-2.1-1-2.1-2.1V3.1
		c0-1.2,1-2.1,2.1-2.1h17.7c1.2,0,2.1,1,2.1,2.1v17.7C409,22,408,23,406.9,23z"/>
	<path style="fill:none;stroke:#B9CDD5;stroke-width:2;stroke-miterlimit:10;" d="M406.9,49h-17.7c-1.2,0-2.1-1-2.1-2.1V29.1
		c0-1.2,1-2.1,2.1-2.1h17.7c1.2,0,2.1,1,2.1,2.1v17.7C409,48,408,49,406.9,49z"/>
	<path style="fill:none;stroke:#B9CDD5;stroke-width:2;stroke-miterlimit:10;" d="M380.9,49h-17.7c-1.2,0-2.1-1-2.1-2.1V29.1
		c0-1.2,1-2.1,2.1-2.1h17.7c1.2,0,2.1,1,2.1,2.1v17.7C383,48,382,49,380.9,49z"/>
	<polyline style="fill:none;stroke:#B9CDD5;stroke-width:2;stroke-miterlimit:10;" points="361,19 371,9 374.5,12.5 382.9,4.1 	"/>
	<circle style="fill:none;stroke:#B9CDD5;stroke-width:2;stroke-miterlimit:10;" cx="398" cy="12" r="5"/>
	<circle style="fill:none;stroke:#B9CDD5;stroke-width:2;stroke-miterlimit:10;" cx="397" cy="33" r="2"/>
	<path style="fill:none;stroke:#B9CDD5;stroke-width:2;stroke-miterlimit:10;" d="M366,49"/>
	<polyline style="fill:none;stroke:#B9CDD5;stroke-width:2;stroke-miterlimit:10;" points="391,49 404.5,35.5 409,40 	"/>
	<polyline style="fill:none;stroke:#B9CDD5;stroke-width:2;stroke-miterlimit:10;" points="387,44 393.5,37.5 398,42 	"/>
	
		<line style="fill:none;stroke:#B9CDD5;stroke-width:2;stroke-linecap:round;stroke-miterlimit:10;" x1="365" y1="32" x2="379" y2="32"/>
	
		<line style="fill:none;stroke:#B9CDD5;stroke-width:2;stroke-linecap:round;stroke-miterlimit:10;" x1="365" y1="36" x2="379" y2="36"/>
	
		<line style="fill:none;stroke:#B9CDD5;stroke-width:2;stroke-linecap:round;stroke-miterlimit:10;" x1="365" y1="40" x2="379" y2="40"/>
	
		<line style="fill:none;stroke:#B9CDD5;stroke-width:2;stroke-linecap:round;stroke-miterlimit:10;" x1="365" y1="44" x2="372.5" y2="44"/>
</g>
<g>
	<path style="fill:none;stroke:#B9CDD5;stroke-width:2;stroke-linecap:round;stroke-miterlimit:10;" d="M445,48.7
		c-13.1,0-23.7-10.6-23.7-23.7S431.9,1.3,445,1.3s23.7,10.6,23.7,23.7"/>
	<path style="fill:none;stroke:#B9CDD5;stroke-width:2;stroke-linecap:round;stroke-miterlimit:10;stroke-dasharray:5,4;" d="
		M468.7,25c0,13.1-10.6,23.7-23.7,23.7"/>
	
		<circle style="fill:none;stroke:#B9CDD5;stroke-width:2;stroke-linecap:round;stroke-miterlimit:10;" cx="444.8" cy="25.2" r="18.9"/>
	
		<line style="fill:none;stroke:#B9CDD5;stroke-width:2;stroke-linecap:round;stroke-miterlimit:10;" x1="444.5" y1="25" x2="444.5" y2="10.9"/>
	
		<line style="fill:none;stroke:#B9CDD5;stroke-width:2;stroke-linecap:round;stroke-miterlimit:10;" x1="444.5" y1="25" x2="454.9" y2="35.4"/>
</g>
<g>
	<path style="fill:none;stroke:#B9CDD5;stroke-width:2;stroke-linecap:round;stroke-miterlimit:10;" d="M483.8,1l3.9,43.1l17.3,4.9
		l17.4-4.9L526.2,1H483.8z M517.8,15.1h-20.3l0.5,5.4h19.4l-1.5,16.3l-10.8,3v0h-0.1l-10.9-3l-0.7-8.3h5.3l0.4,4.2l5.9,1.6l5.9-1.6
		l0.7-6.8h-18.4l-1.4-16h26.6L517.8,15.1z M517.8,15.1"/>
</g>
<g>
	<path style="fill:none;stroke:#B9CDD5;stroke-width:2;stroke-linecap:round;stroke-miterlimit:10;" d="M563.2,37.8l-2.4-5.6H550
		l-2.4,5.6h-6.1l11.2-25.8h5.6l11.2,25.8H563.2z M555.5,19.6l-3.3,7.5h6.5L555.5,19.6z"/>
	<path style="fill:none;stroke:#B9CDD5;stroke-width:2;stroke-linecap:round;stroke-miterlimit:10;" d="M588.5,37.8h-5.2v-2.4
		c-1.4,1.8-3.2,2.7-5.3,2.7s-3.9-0.6-5.3-1.8s-2.1-2.8-2.1-4.9c0-2,0.7-3.6,2.2-4.6c1.5-1,3.5-1.5,6.1-1.5h4.1v-0.1
		c0-2.1-1.1-3.2-3.4-3.2c-1,0-2,0.2-3,0.6c-1.1,0.4-2,0.9-2.7,1.4l-2.5-3.6c2.6-1.9,5.6-2.8,8.9-2.8c2.4,0,4.4,0.6,5.9,1.8
		c1.5,1.2,2.3,3.1,2.3,5.7V37.8z M582.9,30.2v-1h-3.5c-2.2,0-3.3,0.7-3.3,2.1c0,0.7,0.3,1.3,0.8,1.6c0.5,0.4,1.3,0.6,2.3,0.6
		c1,0,1.9-0.3,2.6-0.9C582.6,32,582.9,31.2,582.9,30.2z"/>
</g>
<g>
	<path style="fill:none;stroke:#B9CDD5;stroke-width:2;stroke-linecap:round;stroke-miterlimit:10;" d="M694.2,38.4h-24.9
		c-0.5,0-0.8-0.4-0.8-0.8V14.1c0-0.5,0.4-0.8,0.8-0.8h35.5c0.5,0,0.8,0.4,0.8,0.8v15.9"/>
	<path style="fill:none;stroke:#B9CDD5;stroke-width:2;stroke-linecap:round;stroke-miterlimit:10;" d="M668,34.7h-2.4
		c-0.5,0-0.8-0.4-0.8-0.8V10.5c0-0.5,0.4-0.8,0.8-0.8H701c0.5,0,0.8,0.4,0.8,0.8v2.5"/>
	<path style="fill:none;stroke:#B9CDD5;stroke-width:2;stroke-linecap:round;stroke-miterlimit:10;" d="M664,31h-2.1
		c-0.5,0-0.8-0.4-0.8-0.8V6.8c0-0.5,0.4-0.8,0.8-0.8h35.5c0.5,0,0.8,0.4,0.8,0.8v2.2"/>
	<polyline style="fill:none;stroke:#B9CDD5;stroke-width:2;stroke-miterlimit:10;" points="674.6,38.2 689.9,22.9 697.9,31 	"/>
	<polyline style="fill:none;stroke:#B9CDD5;stroke-width:2;stroke-miterlimit:10;" points="694.6,26.3 700.5,20.4 705.7,25.7 	"/>
	<circle style="fill:none;stroke:#B9CDD5;stroke-width:2;stroke-miterlimit:10;" cx="677.7" cy="21.5" r="3.2"/>
	<circle style="fill:none;stroke:#B9CDD5;stroke-width:2;stroke-linecap:round;stroke-miterlimit:10;" cx="702" cy="37.1" r="7"/>
	
		<line style="fill:none;stroke:#B9CDD5;stroke-width:2;stroke-linecap:round;stroke-miterlimit:10;" x1="702" y1="33.9" x2="702" y2="39.9"/>
	
		<line style="fill:none;stroke:#B9CDD5;stroke-width:2;stroke-linecap:round;stroke-miterlimit:10;" x1="705" y1="36.9" x2="699" y2="36.9"/>
</g>
<g>
	<path style="fill:none;stroke:#B9CDD5;stroke-width:2;stroke-miterlimit:10;" d="M880.4,49h-30.7c-1.2,0-2.1-1-2.1-2.1V3.1
		c0-1.2,1-2.1,2.1-2.1h30.7c1.2,0,2.1,1,2.1,2.1v43.7C882.5,48,881.5,49,880.4,49z"/>
	<path style="fill:none;stroke:#B9CDD5;stroke-width:2;stroke-miterlimit:10;" d="M876.4,12h-22.7c-1.2,0-2.1-1-2.1-2.1V7.1
		c0-1.2,1-2.1,2.1-2.1h22.7c1.2,0,2.1,1,2.1,2.1v2.7C878.5,11,877.5,12,876.4,12z"/>
	<path style="fill:none;stroke:#B9CDD5;stroke-width:2;stroke-miterlimit:10;" d="M876.4,23.5h-22.7c-1.2,0-2.1-1-2.1-2.1v-2.7
		c0-1.2,1-2.1,2.1-2.1h22.7c1.2,0,2.1,1,2.1,2.1v2.7C878.5,22.5,877.5,23.5,876.4,23.5z"/>
	<path style="fill:none;stroke:#B9CDD5;stroke-width:2;stroke-miterlimit:10;" d="M876.4,35h-22.7c-1.2,0-2.1-1-2.1-2.1v-2.7
		c0-1.2,1-2.1,2.1-2.1h22.7c1.2,0,2.1,1,2.1,2.1v2.7C878.5,34,877.5,35,876.4,35z"/>
	<line style="fill:none;stroke:#B9CDD5;stroke-width:2;stroke-miterlimit:10;" x1="847.5" y1="38.9" x2="882.5" y2="38.9"/>
	
		<line style="fill:none;stroke:#B9CDD5;stroke-width:2;stroke-linecap:round;stroke-miterlimit:10;" x1="851.5" y1="44" x2="878.5" y2="44"/>
</g>
<g>
	<path style="fill:none;stroke:#B9CDD5;stroke-width:2;stroke-miterlimit:10;" d="M1061.5,49h-24.7c-1.2,0-2.1-1-2.1-2.1V11.3
		c0-1.2,1-2.1,2.1-2.1h24.7c1.2,0,2.1,1,2.1,2.1v35.5C1063.6,48,1062.6,49,1061.5,49z"/>
	<path style="fill:none;stroke:#B9CDD5;stroke-width:2;stroke-miterlimit:10;" d="M1030.5,40.8V7.3c0-1.2,1-2.2,2.2-2.2h22.2"/>
	<path style="fill:none;stroke:#B9CDD5;stroke-width:2;stroke-miterlimit:10;" d="M1034.6,44.9h-1.9c-1.2,0-2.2-1-2.2-2.2v-1.9"/>
	<path style="fill:none;stroke:#B9CDD5;stroke-width:2;stroke-miterlimit:10;" d="M1034.6,44.9"/>
	<path style="fill:none;stroke:#B9CDD5;stroke-width:2;stroke-miterlimit:10;" d="M1054.9,5.1h2.5c1.2,0,2.2,1,2.2,2.2v1.9"/>
	<path style="fill:none;stroke:#B9CDD5;stroke-width:2;stroke-miterlimit:10;" d="M1029.6,40.8h-1c-1.2,0-2.2-1-2.2-2.2V3.2
		c0-1.2,1-2.2,2.2-2.2h24.7c1.2,0,2.2,1,2.2,2.2v0.9"/>
	<path style="fill:none;stroke:#B9CDD5;stroke-width:2;stroke-miterlimit:10;" d="M1058.8,18.3h-19.5c-0.8,0-1.5-0.7-1.5-1.5V14
		c0-0.8,0.7-1.5,1.5-1.5h19.5c0.8,0,1.5,0.7,1.5,1.5v2.9C1060.3,17.6,1059.6,18.3,1058.8,18.3z"/>
	<path style="fill:none;stroke:#B9CDD5;stroke-width:2;stroke-miterlimit:10;" d="M1058.8,27.8h-19.5c-0.8,0-1.5-0.7-1.5-1.5v-2.9
		c0-0.8,0.7-1.5,1.5-1.5h19.5c0.8,0,1.5,0.7,1.5,1.5v2.9C1060.3,27.2,1059.6,27.8,1058.8,27.8z"/>
	<path style="fill:none;stroke:#B9CDD5;stroke-width:2;stroke-miterlimit:10;" d="M1058.9,37.4h-19.5c-0.8,0-1.4-0.6-1.4-1.4V33
		c0-0.8,0.6-1.4,1.4-1.4h19.5c0.8,0,1.4,0.6,1.4,1.4v2.9C1060.3,36.7,1059.6,37.4,1058.9,37.4z"/>
	<line style="fill:none;stroke:#B9CDD5;stroke-width:2;stroke-miterlimit:10;" x1="1034.6" y1="42.6" x2="1063.6" y2="42.6"/>
</g>
<g>
	<path style="fill:none;stroke:#B9CDD5;stroke-width:2;stroke-miterlimit:10;" d="M1126.9,13.6H1083c-0.8,0-1.5-0.7-1.5-1.5V3.5
		c0-0.8,0.7-1.5,1.5-1.5h43.9c0.8,0,1.5,0.7,1.5,1.5v8.7C1128.4,13,1127.7,13.6,1126.9,13.6z"/>
	<path style="fill:none;stroke:#B9CDD5;stroke-width:2;stroke-miterlimit:10;" d="M1126.9,30.8H1083c-0.8,0-1.5-0.7-1.5-1.5v-8.7
		c0-0.8,0.7-1.5,1.5-1.5h43.9c0.8,0,1.5,0.7,1.5,1.5v8.7C1128.4,30.2,1127.7,30.8,1126.9,30.8z"/>
	<path style="fill:none;stroke:#B9CDD5;stroke-width:2;stroke-miterlimit:10;" d="M1127,48h-43.9c-0.8,0-1.5-0.7-1.5-1.5v-8.7
		c0-0.8,0.7-1.5,1.5-1.5h43.9c0.8,0,1.5,0.7,1.5,1.5v8.7C1128.5,47.3,1127.8,48,1127,48z"/>
	
		<line style="fill:none;stroke:#B9CDD5;stroke-width:2;stroke-linecap:round;stroke-miterlimit:10;" x1="1086.2" y1="42.5" x2="1123.9" y2="42.5"/>
	
		<line style="fill:none;stroke:#B9CDD5;stroke-width:2;stroke-linecap:round;stroke-miterlimit:10;stroke-dasharray:5,4;" x1="1089.6" y1="8.1" x2="1123.9" y2="8.1"/>
	
		<line style="fill:none;stroke:#B9CDD5;stroke-width:2;stroke-linecap:round;stroke-miterlimit:10;stroke-dasharray:5,4;" x1="1089.6" y1="24.7" x2="1104" y2="24.7"/>
	<line style="fill:none;stroke:#B9CDD5;stroke-width:2;stroke-miterlimit:10;" x1="1085.4" y1="2" x2="1085.4" y2="13.6"/>
	<line style="fill:none;stroke:#B9CDD5;stroke-width:2;stroke-miterlimit:10;" x1="1085.4" y1="18.6" x2="1085.4" y2="30.3"/>
</g>
<g>
	<path style="fill:none;stroke:#B9CDD5;stroke-width:2;stroke-miterlimit:10;" d="M2076.4,12.3h-22.6c-0.4,0-0.7-0.3-0.7-0.7V7.2
		c0-0.4,0.3-0.7,0.7-0.7h22.6c0.4,0,0.7,0.3,0.7,0.7v4.3C2077.1,12,2076.8,12.3,2076.4,12.3z"/>
	<path style="fill:none;stroke:#B9CDD5;stroke-width:2;stroke-miterlimit:10;" d="M2076.4,22.3h-22.6c-0.4,0-0.7-0.3-0.7-0.7v-4.3
		c0-0.4,0.3-0.7,0.7-0.7h22.6c0.4,0,0.7,0.3,0.7,0.7v4.3C2077.1,22,2076.8,22.3,2076.4,22.3z"/>
	<path style="fill:none;stroke:#B9CDD5;stroke-width:2;stroke-miterlimit:10;" d="M2076.4,32.3h-22.6c-0.4,0-0.7-0.3-0.7-0.7v-4.3
		c0-0.4,0.3-0.7,0.7-0.7h22.6c0.4,0,0.7,0.3,0.7,0.7v4.3C2077.1,32,2076.8,32.3,2076.4,32.3z"/>
	<path style="fill:none;stroke:#B9CDD5;stroke-width:2;stroke-miterlimit:10;" d="M2079.2,47h-28.5c-1,0-1.8-0.8-1.8-1.8V4.8
		c0-1,0.8-1.8,1.8-1.8h28.5c1,0,1.8,0.8,1.8,1.8v40.5C2081,46.2,2080.2,47,2079.2,47z"/>
	
		<line style="fill:none;stroke:#B9CDD5;stroke-width:2;stroke-linecap:round;stroke-miterlimit:10;" x1="2041" y1="38" x2="2049" y2="38"/>
	
		<line style="fill:none;stroke:#B9CDD5;stroke-width:2;stroke-linecap:round;stroke-miterlimit:10;" x1="2081" y1="38" x2="2089" y2="38"/>
	<circle style="fill:none;stroke:#B9CDD5;stroke-width:2;stroke-miterlimit:10;" cx="2065" cy="40" r="3"/>
</g>
<g>
	<path style="fill:none;stroke:#B9CDD5;stroke-width:2;stroke-linecap:round;stroke-miterlimit:10;" d="M2199.8,37.9h-6.4
		c-0.2,0-0.4-0.3-0.4-0.7v-14c0-0.4,0.2-0.7,0.4-0.7h6.4c0.2,0,0.4,0.3,0.4,0.7v14C2200.2,37.6,2200,37.9,2199.8,37.9z"/>
	<path style="fill:none;stroke:#B9CDD5;stroke-width:2;stroke-miterlimit:10;" d="M2202.2,41.8H2175c-1.2,0-2.1-1-2.1-2.1V3.3
		c0-1.2,1-2.1,2.1-2.1h27.2c1.2,0,2.1,1,2.1,2.1v36.3C2204.4,40.8,2203.4,41.8,2202.2,41.8z"/>
	<path style="fill:none;stroke:#B9CDD5;stroke-width:2;stroke-miterlimit:10;" d="M2200.8,41.1v2.3c0,1-0.8,1.9-1.9,1.9h-27.7
		c-1,0-1.9-0.8-1.9-1.9V6.6c0-1,0.8-1.9,1.9-1.9h1.7"/>
	<path style="fill:none;stroke:#B9CDD5;stroke-width:2;stroke-miterlimit:10;" d="M2197.3,45.3l-0.2,1.6c0,1-0.8,1.9-1.9,1.9h-27.7
		c-1,0-1.9-0.8-1.9-1.9V10.1c0-1,0.8-1.9,1.9-1.9h1.6"/>
	
		<line style="fill:none;stroke:#B9CDD5;stroke-width:2;stroke-linecap:round;stroke-miterlimit:10;" x1="2177" y1="22.5" x2="2188.7" y2="22.5"/>
	
		<line style="fill:none;stroke:#B9CDD5;stroke-width:2;stroke-linecap:round;stroke-miterlimit:10;" x1="2177" y1="27.5" x2="2188.7" y2="27.5"/>
	
		<line style="fill:none;stroke:#B9CDD5;stroke-width:2;stroke-linecap:round;stroke-miterlimit:10;" x1="2177" y1="32.4" x2="2188.7" y2="32.4"/>
	
		<line style="fill:none;stroke:#B9CDD5;stroke-width:2;stroke-linecap:round;stroke-miterlimit:10;" x1="2177" y1="37.4" x2="2188.7" y2="37.4"/>
	<line style="fill:none;stroke:#B9CDD5;stroke-width:2;stroke-miterlimit:10;" x1="2172.8" y1="7.2" x2="2204.4" y2="7.2"/>
	<path style="fill:none;stroke:#B9CDD5;stroke-width:2;stroke-linecap:round;stroke-miterlimit:10;" d="M2198.9,18.2h-20.4
		c-0.8,0-1.5-0.7-1.5-1.5v-4.4c0-0.8,0.7-1.5,1.5-1.5h20.4c0.8,0,1.5,0.7,1.5,1.5v4.4C2200.4,17.6,2199.7,18.2,2198.9,18.2z"/>
</g>
<g>
	<circle style="fill:none;stroke:#B9CDD5;stroke-width:2;stroke-linecap:round;stroke-miterlimit:10;" cx="2245" cy="25" r="23.8"/>
	<path style="fill:none;stroke:#B9CDD5;stroke-width:2;stroke-linecap:round;stroke-miterlimit:10;" d="M2225,37.9
		c4.2-6.5,11.6-10.9,20-10.9c8.4,0,15.7,4.3,20,10.9"/>
	
		<circle style="fill:none;stroke:#B9CDD5;stroke-width:2;stroke-linecap:round;stroke-miterlimit:10;" cx="2245" cy="15.6" r="8.4"/>
	<g>
		<g>
			<path style="fill:none;stroke:#B9CDD5;stroke-width:2;stroke-linecap:round;stroke-linejoin:round;stroke-miterlimit:10;" d="
				M2250.1,32.9c-1.4,0-2.8,0.6-3.8,1.6l-1.7,1.7l-1.7-1.7c-1-1-2.4-1.6-3.8-1.6c-1.4,0-2.8,0.6-3.8,1.6c-1,1-1.6,2.4-1.6,3.8
				c0,1.4,0.6,2.8,1.6,3.8c1,1,2.4,1.6,3.8,1.6c1.4,0,2.8-0.6,3.8-1.6l1.7-1.7l1.7,1.6c1,1,2.4,1.6,3.8,1.6c1.4,0,2.8-0.6,3.8-1.6
				c1-1,1.6-2.4,1.6-3.8c0-1.4-0.6-2.8-1.6-3.8C2252.9,33.5,2251.5,32.9,2250.1,32.9L2250.1,32.9z M2240.6,39.9
				c-0.9,0.9-2.4,0.9-3.2,0c-0.4-0.4-0.7-1-0.7-1.6c0-0.6,0.2-1.2,0.7-1.6c0.4-0.4,1-0.7,1.6-0.7c0.6,0,1.2,0.2,1.6,0.7l1.7,1.6
				L2240.6,39.9z M2251.7,39.9c-0.9,0.9-2.3,0.9-3.2,0l-1.6-1.6l1.7-1.6c0.9-0.9,2.4-0.9,3.2,0c0.4,0.4,0.7,1,0.7,1.6
				C2252.4,38.9,2252.1,39.5,2251.7,39.9L2251.7,39.9z M2251.7,39.9"/>
		</g>
	</g>
</g>
<g>
	
		<line style="fill:none;stroke:#B9CDD5;stroke-width:2;stroke-linecap:round;stroke-miterlimit:10;" x1="920" y1="29" x2="917" y2="29"/>
	<path style="fill:none;stroke:#B9CDD5;stroke-width:2;stroke-linecap:round;stroke-miterlimit:10;" d="M908,29h-4.9
		c-1.2,0-2.1-1-2.1-2.3V4.3c0-1.3,1-2.3,2.1-2.3h43.7c1.2,0,2.1,1,2.1,2.3v22.4c0,1.3-1,2.3-2.1,2.3H945"/>
	<polyline style="fill:none;stroke:#B9CDD5;stroke-width:2;stroke-miterlimit:10;" points="908,29 908,40 917,29 	"/>
	<path style="fill:none;stroke:#B9CDD5;stroke-width:2;stroke-linecap:round;stroke-miterlimit:10;" d="M941,40l2.9,0
		c0.6,0,1.1-0.6,1.1-1.4V25.4c0-0.8-0.5-1.4-1.1-1.4h-22.8c-0.6,0-1.1,0.6-1.1,1.4v13.2c0,0.8,0.5,1.4,1.1,1.4l10.9,0"/>
	<polyline style="fill:none;stroke:#B9CDD5;stroke-width:2;stroke-miterlimit:10;" points="941,40 941,48 932,40 	"/>
	
		<line style="fill:none;stroke:#B9CDD5;stroke-width:2;stroke-linecap:round;stroke-miterlimit:10;" x1="910.2" y1="10" x2="942.2" y2="10"/>
	
		<line style="fill:none;stroke:#B9CDD5;stroke-width:2;stroke-linecap:round;stroke-miterlimit:10;" x1="910.2" y1="14.5" x2="942.2" y2="14.5"/>
	
		<line style="fill:none;stroke:#B9CDD5;stroke-width:2;stroke-linecap:round;stroke-miterlimit:10;" x1="910.2" y1="19" x2="925.2" y2="19"/>
	<polyline style="fill:none;stroke:#B9CDD5;stroke-width:2;stroke-linecap:round;stroke-miterlimit:10;" points="928.9,32.7 
		931.3,34.8 937.2,29.4 	"/>
</g>
<g>
	<path style="fill:none;stroke:#B9CDD5;stroke-width:2;stroke-linecap:round;stroke-miterlimit:10;" d="M2284,34h-1.5
		c-0.8,0-1.5-0.7-1.5-1.5v-25c0-0.8,0.7-1.5,1.5-1.5h45c0.8,0,1.5,0.7,1.5,1.5v25c0,0.8-0.7,1.5-1.5,1.5H2295"/>
	<polyline style="fill:none;stroke:#B9CDD5;stroke-width:2;stroke-linecap:round;stroke-miterlimit:10;" points="2284.5,34 
		2284.5,44 2295,34 	"/>
	
		<circle style="fill:none;stroke:#B9CDD5;stroke-width:2;stroke-linecap:round;stroke-miterlimit:10;" cx="2293.5" cy="19.5" r="8.5"/>
	<path style="fill:none;stroke:#B9CDD5;stroke-width:2;stroke-linecap:round;stroke-miterlimit:10;" d="M2287,24.2
		c1.3-1.9,3.8-3.2,6.6-3.2c2.6,0,5,1.1,6.4,2.8"/>
	<circle style="fill:none;stroke:#B9CDD5;stroke-width:2;stroke-linecap:round;stroke-miterlimit:10;" cx="2293.8" cy="16" r="2"/>
	
		<line style="fill:none;stroke:#B9CDD5;stroke-width:2;stroke-linecap:round;stroke-miterlimit:10;" x1="2308" y1="13" x2="2325" y2="13"/>
	
		<line style="fill:none;stroke:#B9CDD5;stroke-width:2;stroke-linecap:round;stroke-miterlimit:10;" x1="2308" y1="19" x2="2325" y2="19"/>
	
		<line style="fill:none;stroke:#B9CDD5;stroke-width:2;stroke-linecap:round;stroke-miterlimit:10;" x1="2308" y1="25" x2="2317" y2="25"/>
</g>
<g>
	<path style="fill:none;stroke:#B9CDD5;stroke-width:2;stroke-linecap:round;stroke-miterlimit:10;" d="M2425,8.6
		c-10.9,0-20.3,6.8-24,16.4c3.7,9.6,13.1,16.4,24,16.4s20.3-6.8,24-16.4C2445.3,15.4,2435.9,8.6,2425,8.6L2425,8.6z M2425,35.9
		L2425,35.9c-6.1,0-10.9-4.8-10.9-10.9c0-6.1,4.8-10.9,10.9-10.9 M2425,14.1c6.1,0,10.9,4.8,10.9,10.9c0,6.1-4.8,10.9-10.9,10.9
		 M2425,18.5c-3.7,0-6.6,2.8-6.6,6.5c0,3.7,2.8,6.5,6.6,6.5c3.7,0,6.5-2.8,6.5-6.5C2431.5,21.3,2428.7,18.5,2425,18.5L2425,18.5z
		 M2425,18.5"/>
</g>
<g>
	<g>
		<path style="fill:none;stroke:#B9CDD5;stroke-width:2;stroke-linecap:round;stroke-miterlimit:10;" d="M2567.5,28.8l-2.8-1.6
			c0.1-0.7,0.1-1.4,0.1-2.1s0-1.4-0.1-2.1l2.8-1.6c0.6-0.3,1-0.9,1.2-1.6c0.2-0.7,0.1-1.4-0.3-2l-5.4-9.4c-0.5-0.8-1.3-1.3-2.3-1.3
			c-0.5,0-0.9,0.1-1.3,0.3l-2.8,1.6c-1.1-0.8-2.4-1.6-3.7-2.1V3.6c0-1.4-1.2-2.6-2.6-2.6h-10.8c-1.4,0-2.6,1.2-2.6,2.6v3.2
			c-1.3,0.6-2.6,1.3-3.7,2.1l-2.8-1.6c-0.4-0.2-0.8-0.3-1.3-0.3c-0.9,0-1.8,0.5-2.3,1.3l-5.4,9.4c-0.3,0.6-0.4,1.3-0.3,2
			c0.2,0.7,0.6,1.2,1.2,1.6l2.8,1.6c-0.1,0.7-0.1,1.4-0.1,2.1s0,1.4,0.1,2.1l-2.8,1.6c-0.6,0.3-1,0.9-1.2,1.6
			c-0.2,0.7-0.1,1.4,0.3,2l5.4,9.4c0.5,0.8,1.3,1.3,2.3,1.3c0.5,0,0.9-0.1,1.3-0.3l2.8-1.6c1.1,0.8,2.4,1.6,3.7,2.1v3.2
			c0,0.7,0.3,1.3,0.8,1.8c0.5,0.5,1.1,0.8,1.8,0.8h10.8c1.4,0,2.6-1.2,2.6-2.6v-3.2c1.3-0.6,2.6-1.3,3.7-2.1l2.8,1.6
			c0.4,0.2,0.8,0.3,1.3,0.3c0.9,0,1.8-0.5,2.3-1.3l5.4-9.4c0.3-0.6,0.4-1.3,0.3-2C2568.6,29.7,2568.1,29.1,2567.5,28.8L2567.5,28.8z
			 M2545,39.1c-2.8,0-5.5-0.8-7.7-2.3l4.8-4.8c1,0.4,2.1,0.7,3.2,0.7h0c2.2,0,4.2-0.8,5.7-2.4c2.1-2.1,2.9-5.2,2-8
			c0-0.2-0.2-0.3-0.3-0.3c-0.2,0-0.3,0-0.5,0.1l-5.1,5.1c-0.3-0.1-1.1-0.5-2.5-2c-1.4-1.4-1.9-2.2-2-2.5l5.1-5.1
			c0.1-0.1,0.2-0.3,0.1-0.5c0-0.2-0.2-0.3-0.3-0.3c-0.7-0.2-1.5-0.3-2.3-0.3c-2.2,0-4.2,0.8-5.7,2.4c-1.5,1.5-2.4,3.6-2.4,5.7
			c0,1.1,0.2,2.2,0.7,3.2l-4.8,4.8c-1.4-2.2-2.2-4.8-2.2-7.6c0-7.8,6.3-14.1,14.1-14.1c7.8,0,14.1,6.3,14.1,14.1
			S2552.8,39.1,2545,39.1L2545,39.1z M2545,39.1"/>
	</g>
</g>
<g>
	<g>
		<path style="fill:none;stroke:#B9CDD5;stroke-width:2;stroke-linecap:round;stroke-miterlimit:10;" d="M2382,8
			c-9.4-9.4-24.6-9.4-33.9,0c-9,9-9.4,23.4-1,32.9l0.2,0.2c-0.9,2-2.5,4.4-4.9,5.6c-0.8,0.4-0.6,1.6,0.3,1.8
			c2.7,0.4,6.6-0.1,10.2-2.8l0.1,0c9.2,5.4,21.2,4.2,29.1-3.7C2391.3,32.6,2391.3,17.4,2382,8L2382,8z M2376.8,33.8
			c-0.6,0.6-1.3,1.2-1.9,1.9c-0.9,1-2,1.3-3.2,1.2c-1.8-0.1-3.5-0.7-5.1-1.5c-3.6-1.7-6.6-4.1-9.2-7.2c-1.9-2.2-3.4-4.7-4.5-7.5
			c-0.5-1.3-0.9-2.7-0.7-4.2c0.1-0.9,0.4-1.6,1.1-2.3c0.7-0.7,1.4-1.4,2.1-2.1c0.9-0.9,2.1-0.9,3,0c0.6,0.6,1.1,1.1,1.7,1.7
			c0.5,0.5,1.1,1.1,1.6,1.6c0.9,1,0.9,2.1,0,3c-0.7,0.7-1.4,1.4-2.1,2c-0.2,0.2-0.2,0.3-0.1,0.5c0.5,1.1,1.1,2.1,1.9,3
			c1.7,2.1,2.9,3.3,5.2,4.7c0.4,0.3,0.9,0.5,1.4,0.7c0.2,0.1,0.4,0.1,0.6-0.1c0.7-0.7,1.4-1.4,2.1-2.1c0.9-0.9,2.1-0.9,3,0
			c1.1,1.1,2.2,2.2,3.3,3.3C2377.8,31.7,2377.8,32.9,2376.8,33.8L2376.8,33.8z M2378,25.7"/>
	</g>
</g>
<g>
	<path style="fill:none;stroke:#B9CDD5;stroke-width:2;stroke-linecap:round;stroke-miterlimit:10;" d="M1184,21h3.2
		c1,0,1.8,0.8,1.8,1.8v24.3c0,1-0.8,1.8-1.8,1.8h-44.3c-1,0-1.8-0.8-1.8-1.8V22.8c0-1,0.8-1.8,1.8-1.8h2.2"/>
	
		<line style="fill:none;stroke:#B9CDD5;stroke-width:2;stroke-linecap:round;stroke-miterlimit:10;" x1="1143" y1="21" x2="1165" y2="35"/>
	
		<line style="fill:none;stroke:#B9CDD5;stroke-width:2;stroke-linecap:round;stroke-miterlimit:10;" x1="1187" y1="22" x2="1143" y2="49"/>
	
		<line style="fill:none;stroke:#B9CDD5;stroke-width:2;stroke-linecap:round;stroke-miterlimit:10;" x1="1184" y1="7" x2="1184" y2="23"/>
	<path style="fill:none;stroke:#B9CDD5;stroke-width:2;stroke-linecap:round;stroke-miterlimit:10;" d="M1146,22V2.8
		c0-1,0.8-1.8,1.8-1.8h30.2"/>
	
		<line style="fill:none;stroke:#B9CDD5;stroke-width:2;stroke-linecap:round;stroke-miterlimit:10;" x1="1178.7" y1="1" x2="1184" y2="6.3"/>
	<g>
		<path style="fill:none;stroke:#B9CDD5;stroke-width:2;stroke-linecap:round;stroke-miterlimit:10;" d="M1167.6,21h2.7
			c1.1,0,2-0.4,2.7-1.1c0.7-0.7,1.1-1.6,1.1-2.7c0-0.9-0.3-1.7-0.8-2.4l0,0c-0.6-0.7-1.3-1.1-2.1-1.3c0.3-0.4,0.4-0.9,0.4-1.4
			c0-0.7-0.2-1.3-0.7-1.8c-0.5-0.5-1.1-0.7-1.8-0.7c-0.6,0-1.2,0.2-1.7,0.6c-0.4-0.9-1-1.7-1.9-2.3c-0.9-0.6-1.8-0.9-2.8-0.9
			c-1.4,0-2.6,0.5-3.6,1.5c-1,1-1.5,2.2-1.5,3.6c0,0.1,0,0.2,0,0.4c-0.8,0.4-1.4,0.9-1.9,1.6c-0.5,0.7-0.7,1.5-0.7,2.4
			c0,1.2,0.4,2.3,1.3,3.1c0.9,0.9,1.9,1.3,3.1,1.3h8.5 M1167.6,21 M1173.3,14.8"/>
	</g>
</g>
<g>
	<path style="fill:none;stroke:#B9CDD5;stroke-width:2;stroke-linecap:round;stroke-miterlimit:10;" d="M1238.8,17.3v28.6
		c0,1.7-1.4,3.2-3.2,3.2h-28.7c-1.7,0-3.2-1.4-3.2-3.2V11.2c0-1.7,1.4-3.2,3.2-3.2h23.1"/>
	
		<circle style="fill:none;stroke:#B9CDD5;stroke-width:2;stroke-linecap:round;stroke-miterlimit:10;" cx="1238.8" cy="8.5" r="7.5"/>
	<circle style="fill:#BBCED6;" cx="1238.8" cy="8.5" r="2.5"/>
	<path style="fill:none;stroke:#B9CDD5;stroke-width:2;stroke-linecap:round;stroke-miterlimit:10;" d="M1234.8,15v22.5
		c0,0.8-0.7,1.5-1.5,1.5h-24c-0.8,0-1.5-0.7-1.5-1.5v-24c0-0.8,0.7-1.5,1.5-1.5h22.5"/>
	
		<line style="fill:none;stroke:#B9CDD5;stroke-width:2;stroke-linecap:round;stroke-miterlimit:10;" x1="1207.8" y1="44" x2="1224.8" y2="44"/>
	
		<line style="fill:none;stroke:#B9CDD5;stroke-width:2;stroke-linecap:round;stroke-miterlimit:10;" x1="1227.8" y1="44" x2="1233.8" y2="44"/>
	<path style="fill:none;stroke:#B9CDD5;stroke-width:2;stroke-linecap:round;stroke-miterlimit:10;" d="M1211,38.6
		c-0.1-0.7-0.2-1.4-0.2-2.1c0-5.8,4.7-10.5,10.5-10.5s10.5,4.7,10.5,10.5c0,0.7-0.1,1.4-0.2,2.1"/>
	
		<circle style="fill:none;stroke:#B9CDD5;stroke-width:2;stroke-linecap:round;stroke-miterlimit:10;" cx="1221.9" cy="18.9" r="3.9"/>
</g>
<g>
	<circle style="fill:none;stroke:#B9CDD5;stroke-width:2;stroke-linecap:round;stroke-miterlimit:10;" cx="1326" cy="36" r="5"/>
	<circle style="fill:none;stroke:#B9CDD5;stroke-width:2;stroke-linecap:round;stroke-miterlimit:10;" cx="1345" cy="36" r="5"/>
	<circle style="fill:none;stroke:#B9CDD5;stroke-width:2;stroke-linecap:round;stroke-miterlimit:10;" cx="1364" cy="36" r="5"/>
	
		<line style="fill:none;stroke:#B9CDD5;stroke-width:2;stroke-linecap:round;stroke-miterlimit:10;" x1="1331" y1="36" x2="1339" y2="36"/>
	
		<line style="fill:none;stroke:#B9CDD5;stroke-width:2;stroke-linecap:round;stroke-miterlimit:10;stroke-dasharray:3,3;" x1="1350" y1="36" x2="1359" y2="36"/>
	<polyline style="fill:none;stroke:#B9CDD5;stroke-width:2;stroke-linecap:round;stroke-miterlimit:10;" points="1345,31 1345,9 
		1357,9 1353.5,12.5 1357,16 1346,16 	"/>
	<circle style="fill:#BACCD5;" cx="1326" cy="36" r="2"/>
	<circle style="fill:#BACCD5;" cx="1345" cy="36" r="2"/>
	<circle style="fill:#BACCD5;" cx="1364" cy="36" r="2"/>
</g>
<g>
	<ellipse style="fill:#BACCD5;" cx="1385.4" cy="11.7" rx="0.9" ry="0.9"/>
	<ellipse style="fill:#BACCD5;" cx="1387.7" cy="11.7" rx="0.9" ry="0.9"/>
	<ellipse style="fill:#BACCD5;" cx="1390" cy="11.7" rx="0.9" ry="0.9"/>
	<path style="fill:none;stroke:#B9CDD5;stroke-width:2;stroke-miterlimit:10;" d="M1427.5,41.8h-45.1c-0.8,0-1.5-0.7-1.5-1.5V9.6
		c0-0.8,0.7-1.5,1.5-1.5h45.1c0.8,0,1.5,0.7,1.5,1.5v30.7C1429,41.2,1428.3,41.8,1427.5,41.8z"/>
	<line style="fill:none;stroke:#B9CDD5;stroke-width:2;stroke-miterlimit:10;" x1="1381" y1="15.2" x2="1429" y2="15.2"/>
	
		<line style="fill:none;stroke:#B9CDD5;stroke-width:2;stroke-linecap:round;stroke-miterlimit:10;" x1="1386.6" y1="19.8" x2="1423.5" y2="19.8"/>
	
		<line style="fill:none;stroke:#B9CDD5;stroke-width:2;stroke-linecap:round;stroke-miterlimit:10;" x1="1386.6" y1="24.8" x2="1423.5" y2="24.8"/>
	
		<line style="fill:none;stroke:#B9CDD5;stroke-width:2;stroke-linecap:round;stroke-miterlimit:10;" x1="1386.6" y1="29.8" x2="1423.5" y2="29.8"/>
	<path style="fill:none;stroke:#B9CDD5;stroke-width:2;stroke-linecap:round;stroke-miterlimit:10;" d="M1401,37.8h-12.4
		c-1.1,0-2-0.9-2-2v0c0-1.1,0.9-2,2-2h12.4c1.1,0,2,0.9,2,2v0C1403,36.9,1402.1,37.8,1401,37.8z"/>
</g>
<g>
	<path style="fill:none;stroke:#B9CDD5;stroke-width:2;stroke-linecap:round;stroke-miterlimit:10;" d="M1549,14.6v25.8
		c0,0.8-0.7,1.5-1.5,1.5h-45.1c-0.8,0-1.5-0.7-1.5-1.5V9.6c0-0.8,0.7-1.5,1.5-1.5h16.5l3.8,3.8l1.5,1.5l1,1L1549,14.6z"/>
	
		<line style="fill:none;stroke:#B9CDD5;stroke-width:2;stroke-linecap:round;stroke-miterlimit:10;" x1="1507" y1="29.8" x2="1543" y2="29.8"/>
	
		<line style="fill:none;stroke:#B9CDD5;stroke-width:2;stroke-linecap:round;stroke-miterlimit:10;" x1="1507" y1="34.8" x2="1536" y2="34.8"/>
	<polyline style="fill:none;stroke:#B9CDD5;stroke-width:2;stroke-linecap:round;stroke-miterlimit:10;" points="1522,10.3 
		1546,10.3 1546,13.6 	"/>
</g>
<g>
	
		<path style="fill:none;stroke:#B9CDD5;stroke-width:2;stroke-linecap:round;stroke-linejoin:round;stroke-miterlimit:10;stroke-dasharray:5,7;" d="
		M1607.5,45.8h-45.1c-0.8,0-1.5-0.7-1.5-1.5V5.6c0-0.8,0.7-1.5,1.5-1.5h45.1c0.8,0,1.5,0.7,1.5,1.5v38.7
		C1609,45.2,1608.3,45.8,1607.5,45.8z"/>
	<g>
		<path style="fill:none;stroke:#B9CDD5;stroke-width:2;stroke-linecap:round;stroke-miterlimit:10;" d="M1596.9,38.2h-6.9v-3.2
			c-1.9,2.4-4.3,3.6-7.1,3.6c-2.8,0-5.2-0.8-7.1-2.4s-2.9-3.8-2.9-6.5c0-2.7,1-4.7,2.9-6.1c2-1.3,4.7-2,8.1-2h5.5v-0.1
			c0-2.8-1.5-4.2-4.5-4.2c-1.3,0-2.6,0.3-4.1,0.8c-1.4,0.5-2.6,1.1-3.6,1.9l-3.3-4.8c3.5-2.5,7.4-3.8,11.9-3.8
			c3.2,0,5.8,0.8,7.9,2.4c2,1.6,3,4.1,3,7.6V38.2z M1589.5,28.2v-1.3h-4.6c-2.9,0-4.4,0.9-4.4,2.8c0,1,0.4,1.7,1.1,2.2
			c0.7,0.5,1.7,0.8,3,0.8c1.3,0,2.5-0.4,3.5-1.2C1589,30.6,1589.5,29.5,1589.5,28.2z"/>
	</g>
</g>
<g>
	<path style="fill:none;stroke:#B9CDD5;stroke-width:2;stroke-linecap:round;stroke-miterlimit:10;" d="M1667.4,49h-25.8
		c-0.9,0-1.6-0.7-1.6-1.6V14.6c0-0.9,0.7-1.6,1.6-1.6h25.8c0.9,0,1.6,0.7,1.6,1.6v32.7C1669,48.3,1668.3,49,1667.4,49z"/>
	<path style="fill:none;stroke:#B9CDD5;stroke-width:2;stroke-linecap:round;stroke-miterlimit:10;" d="M1640,37h-17.4
		c-0.9,0-1.6-0.7-1.6-1.6V2.6c0-0.9,0.7-1.6,1.6-1.6h25.8c0.9,0,1.6,0.7,1.6,1.6v9.4"/>
	<g>
		<g>
			<path style="fill:#B9CDD5;" d="M1656,26l6.2,14h-2.5l-1.4-3.2h-7l-1.4,3.2h-2.5l6.2-14H1656 M1652.2,34.6h5.1l-2.5-5.8
				L1652.2,34.6 M1657.3,24h-1.3h-2.5h-1.3l-0.5,1.2l-6.2,14l-1.2,2.8h3.1h2.5h1.3l0.5-1.2l0.9-2h4.4l0.9,2l0.5,1.2h1.3h2.5h3.1
				l-1.2-2.8l-6.2-14L1657.3,24L1657.3,24z"/>
		</g>
	</g>
	
		<line style="fill:none;stroke:#B9CDD5;stroke-width:2;stroke-linecap:round;stroke-miterlimit:10;" x1="1640" y1="20.3" x2="1669" y2="20.3"/>
	
		<line style="fill:none;stroke:#B9CDD5;stroke-width:2;stroke-linecap:round;stroke-miterlimit:10;" x1="1621" y1="8.3" x2="1650" y2="8.3"/>
	<circle style="fill:#BACCD5;" cx="1643.8" cy="16.9" r="0.9"/>
	<circle style="fill:#BACCD5;" cx="1646" cy="16.9" r="0.9"/>
	<circle style="fill:#BACCD5;" cx="1648.3" cy="16.9" r="0.9"/>
	<circle style="fill:#BACCD5;" cx="1624.8" cy="4.9" r="0.9"/>
	<circle style="fill:#BACCD5;" cx="1627" cy="4.9" r="0.9"/>
	<circle style="fill:#BACCD5;" cx="1629.3" cy="4.9" r="0.9"/>
	
		<line style="fill:none;stroke:#B9CDD5;stroke-width:2;stroke-linecap:round;stroke-miterlimit:10;" x1="1625" y1="14" x2="1635" y2="14"/>
	
		<line style="fill:none;stroke:#B9CDD5;stroke-width:2;stroke-linecap:round;stroke-miterlimit:10;" x1="1625" y1="19.7" x2="1635" y2="19.7"/>
	
		<line style="fill:none;stroke:#B9CDD5;stroke-width:2;stroke-linecap:round;stroke-miterlimit:10;" x1="1625" y1="25.3" x2="1635" y2="25.3"/>
	
		<line style="fill:none;stroke:#B9CDD5;stroke-width:2;stroke-linecap:round;stroke-miterlimit:10;" x1="1625" y1="31" x2="1631" y2="31"/>
</g>
<g>
	<g>
		<path style="fill:none;stroke:#B9CDD5;stroke-width:2;stroke-linecap:round;stroke-linejoin:round;stroke-miterlimit:10;" d="
			M1716.7,30.3c4.5-7.4,3.6-17.2-2.8-23.7c-7.5-7.5-19.7-7.5-27.2,0c-7.5,7.5-7.5,19.7,0,27.2c6.4,6.4,16.2,7.3,23.7,2.8l11,11
			c1.8,1.8,4.6,1.8,6.4,0c1.8-1.8,1.8-4.6,0-6.4L1716.7,30.3z M1709.9,29.9c-5.3,5.3-14,5.3-19.3,0c-5.3-5.3-5.3-14,0-19.3
			c5.3-5.3,14-5.3,19.3,0C1715.2,15.9,1715.2,24.6,1709.9,29.9L1709.9,29.9z M1702.5,17.8h5.8v4.4h-5.8v5.8h-4.4v-5.8h-5.8v-4.4h5.8
			V12h4.4L1702.5,17.8L1702.5,17.8z M1702.5,17.8"/>
	</g>
</g>
<g>
	<ellipse style="fill:#BACCD5;" cx="1745.4" cy="11.7" rx="0.9" ry="0.9"/>
	<ellipse style="fill:#BACCD5;" cx="1747.7" cy="11.7" rx="0.9" ry="0.9"/>
	<ellipse style="fill:#BACCD5;" cx="1749.9" cy="11.7" rx="0.9" ry="0.9"/>
	<path style="fill:none;stroke:#B9CDD5;stroke-width:2;stroke-miterlimit:10;" d="M1787.5,41.8h-45c-0.8,0-1.5-0.7-1.5-1.5V9.6
		c0-0.8,0.7-1.5,1.5-1.5h45c0.8,0,1.5,0.7,1.5,1.5v30.7C1788.9,41.2,1788.3,41.8,1787.5,41.8z"/>
	<line style="fill:none;stroke:#B9CDD5;stroke-width:2;stroke-miterlimit:10;" x1="1741" y1="15.2" x2="1788.9" y2="15.2"/>
	<polyline style="fill:none;stroke:#B9CDD5;stroke-width:2;stroke-linecap:round;stroke-miterlimit:10;" points="1741,36.5 
		1765,36.5 1772.5,30.2 1779.9,37.3 1788.6,28.8 	"/>
	<polyline style="fill:none;stroke:#B9CDD5;stroke-width:2;stroke-linecap:round;stroke-miterlimit:10;" points="1741,29.2 
		1746.6,29.2 1750,32.5 1758.4,24.3 1762,27.8 1770.1,19.8 1777.3,26.8 1785,19.3 1788.5,22.7 	"/>
</g>
<g>
	<g>
		<path style="fill:none;stroke:#BCCED6;stroke-width:2;stroke-miterlimit:10;" d="M1807.9,35v-6.8c0-3.5,2.8-6.3,6.2-6.3h21.7
			c3.4,0,6.2,2.8,6.2,6.3v14.3c0,3.5-2.8,6.3-6.2,6.3h-21.7c-3.4,0-6.2-2.8-6.2-6.3V35"/>
		<path style="fill:none;stroke:#BCCED6;stroke-width:2;stroke-miterlimit:10;" d="M1814.1,22.5V12.2c0-6.1,4.9-11.1,10.9-11.1l0,0
			c6,0,10.9,5,10.9,11.1v10.7"/>
	</g>
	<g>
		<path style="fill:none;stroke:#B9CDD5;stroke-width:2;stroke-linecap:round;stroke-miterlimit:10;" d="M1825,28.4
			c-4.6,0-8.6,2.9-10.2,7c1.6,4.1,5.5,7,10.2,7s8.6-2.9,10.2-7C1833.6,31.3,1829.6,28.4,1825,28.4L1825,28.4z M1825,32.6
			c-1.6,0-2.8,1.2-2.8,2.8c0,1.6,1.2,2.8,2.8,2.8c1.6,0,2.8-1.2,2.8-2.8C1827.8,33.8,1826.6,32.6,1825,32.6L1825,32.6z M1825,32.6"
			/>
	</g>
</g>
<g>
	<path style="fill:none;stroke:#B9CDD5;stroke-width:2;stroke-linecap:round;stroke-miterlimit:10;" d="M1981.1,41.1
		c-0.1-0.6-0.1-1.2-0.1-1.8c0-6.4,5.1-11.5,11.5-11.5S2004,33,2004,39.3c0,0.5,0,1-0.1,1.5"/>
	<path style="fill:none;stroke:#B9CDD5;stroke-width:2;stroke-linecap:round;stroke-miterlimit:10;" d="M1994.8,28.1
		c1.9-3.7,5.8-6.2,10.2-6.2c4.5,0,8.3,2.5,10.2,6.2"/>
	<path style="fill:none;stroke:#B9CDD5;stroke-width:2;stroke-linecap:round;stroke-miterlimit:10;" d="M2006.1,41.2
		c-0.1-0.6-0.1-1.2-0.1-1.8c0-6.4,5.1-11.5,11.5-11.5S2029,33,2029,39.3c0,0.6,0,1.2-0.1,1.8"/>
	
		<line style="fill:none;stroke:#B9CDD5;stroke-width:2;stroke-linecap:round;stroke-miterlimit:10;" x1="1996.6" y1="41.2" x2="2028.8" y2="41.2"/>
	
		<line style="fill:none;stroke:#B9CDD5;stroke-width:2;stroke-linecap:round;stroke-miterlimit:10;" x1="1981" y1="41.2" x2="1996.6" y2="41.2"/>
	
		<circle style="fill:none;stroke:#B9CDD5;stroke-width:2;stroke-linecap:round;stroke-miterlimit:10;" cx="2004.5" cy="13.3" r="4.5"/>
	
		<circle style="fill:none;stroke:#B9CDD5;stroke-width:2;stroke-linecap:round;stroke-miterlimit:10;" cx="1989.5" cy="19.3" r="4.5"/>
	
		<circle style="fill:none;stroke:#B9CDD5;stroke-width:2;stroke-linecap:round;stroke-miterlimit:10;" cx="2019.5" cy="19.3" r="4.5"/>
</g>
<g>
	<path style="fill:none;stroke:#B9CDD5;stroke-width:2;stroke-linecap:round;stroke-miterlimit:10;" d="M1465,1
		c-13.2,0-24,10.8-24,24c0,13.2,10.8,24,24,24s24-10.8,24-24C1489,11.8,1478.2,1,1465,1L1465,1z M1481.6,15.4h-7
		c-0.7-3.1-1.9-5.8-3.4-8.6C1475.6,8.4,1479.4,11.3,1481.6,15.4L1481.6,15.4z M1465,5.8c1.9,2.9,3.6,6,4.6,9.6h-9.1
		C1461.4,12,1463.1,8.7,1465,5.8L1465,5.8z M1446.5,29.8c-0.5-1.4-0.7-3.1-0.7-4.8c0-1.7,0.2-3.4,0.7-4.8h8.2
		c-0.2,1.7-0.2,3.1-0.2,4.8c0,1.7,0.2,3.1,0.2,4.8H1446.5z M1448.4,34.6h7c0.7,3.1,1.9,5.8,3.4,8.6
		C1454.4,41.6,1450.6,38.7,1448.4,34.6L1448.4,34.6z M1455.4,15.4h-7c2.4-4.1,6-7,10.3-8.6C1457.3,9.6,1456.1,12.3,1455.4,15.4
		L1455.4,15.4z M1465,44.2c-1.9-2.9-3.6-6-4.6-9.6h9.1C1468.6,38,1466.9,41.3,1465,44.2L1465,44.2z M1470.5,29.8h-11
		c-0.2-1.7-0.5-3.1-0.5-4.8c0-1.7,0.2-3.1,0.5-4.8h11.3c0.2,1.7,0.5,3.1,0.5,4.8C1471.2,26.7,1470.8,28.1,1470.5,29.8L1470.5,29.8z
		 M1471.2,43.2c1.4-2.6,2.6-5.5,3.4-8.6h7C1479.4,38.7,1475.6,41.6,1471.2,43.2L1471.2,43.2z M1475.6,29.8c0.2-1.7,0.2-3.1,0.2-4.8
		c0-1.7-0.2-3.1-0.2-4.8h8.2c0.5,1.4,0.7,3.1,0.7,4.8c0,1.7-0.2,3.4-0.7,4.8H1475.6z M1475.6,29.8"/>
</g>
<g>
	<path style="fill:none;stroke:#B9CDD5;stroke-width:2;stroke-linecap:round;stroke-miterlimit:10;" d="M767.8,36H722
		c-0.5,0-0.8-0.4-0.8-0.8V4.8c0-0.5,0.4-0.8,0.8-0.8h45.7c0.5,0,0.8,0.4,0.8,0.8v30.3C768.6,35.6,768.2,36,767.8,36z"/>
	<path style="fill:none;stroke:#B9CDD5;stroke-width:2;stroke-linecap:round;stroke-miterlimit:10;" d="M765.2,36v4.2
		c0,0.5-0.4,0.8-0.8,0.8h-38.9c-0.5,0-0.8-0.4-0.8-0.8V36"/>
	<path style="fill:none;stroke:#B9CDD5;stroke-width:2;stroke-linecap:round;stroke-miterlimit:10;" d="M761.5,41.6v3.5
		c0,0.5-0.4,0.8-0.8,0.8h-31.5c-0.5,0-0.8-0.4-0.8-0.8v-3.5"/>
	<polyline style="fill:none;stroke:#B9CDD5;stroke-width:2;stroke-miterlimit:10;" points="729.1,35.8 748.6,16.3 767.7,35.4 	"/>
	<polyline style="fill:none;stroke:#B9CDD5;stroke-width:2;stroke-miterlimit:10;" points="753.8,20.6 762.1,13.1 768.8,19.8 	"/>
	<circle style="fill:none;stroke:#B9CDD5;stroke-width:2;stroke-miterlimit:10;" cx="733.1" cy="14.5" r="4"/>
</g>
<g>
	<path style="fill:none;stroke:#B9CDD5;stroke-width:2;stroke-linecap:round;stroke-miterlimit:10;" d="M626,49h-2
		c-6.6,0-12-5.4-12-12V13c0-6.6,5.4-12,12-12h2c6.6,0,12,5.4,12,12v24C638,43.6,632.6,49,626,49z"/>
	
		<polyline style="fill:none;stroke:#B9CDD5;stroke-width:2;stroke-linecap:round;stroke-linejoin:round;stroke-miterlimit:10;" points="
		625,26 625,41 621,37 	"/>
	
		<polyline style="fill:none;stroke:#B9CDD5;stroke-width:2;stroke-linecap:round;stroke-linejoin:round;stroke-miterlimit:10;" points="
		625,26 625,41 629,37 	"/>
	
		<line style="fill:none;stroke:#B9CDD5;stroke-width:2;stroke-linecap:round;stroke-linejoin:round;stroke-miterlimit:10;" x1="625" y1="18" x2="625" y2="11"/>
</g>
<g>
	<path style="fill:none;stroke:#B9CDD5;stroke-width:2;stroke-linecap:round;stroke-miterlimit:10;" d="M1951,33.7l2.6-2.6
		c0.7-0.7,0.7-1.8,0-2.6l-12.1-12.1c-0.7-0.7-1.8-0.7-2.6,0l-2.6,2.6c-0.7,0.7-0.7,1.8,0,2.6l12.1,12.1
		C1949.2,34.4,1950.3,34.4,1951,33.7L1951,33.7z M1951,33.7"/>
	<g>
		<path style="fill:none;stroke:#B9CDD5;stroke-width:2;stroke-linecap:round;stroke-miterlimit:10;" d="M1930.9,22.3
			c-1.5-1.5-2.4-3.5-2.4-5.7c0-4.4,3.7-8.1,8.1-8.1c2.2,0,4.2,0.9,5.7,2.4l4.6,4.6c0.7,0.7,1.8,0.7,2.6,0l2.6-2.6
			c0.7-0.7,0.7-1.8,0-2.6l-4.6-4.6c-2.9-2.9-6.8-4.6-11-4.6c-8.4,0-15.4,7-15.4,15.4c0,4,1.6,8.1,4.6,11l4.6,4.6
			c0.7,0.7,1.8,0.7,2.6,0l2.6-2.6c0.7-0.7,0.7-1.8,0-2.6L1930.9,22.3z M1930.9,22.3"/>
		<path style="fill:none;stroke:#B9CDD5;stroke-width:2;stroke-linecap:round;stroke-miterlimit:10;" d="M1964.2,22.5l-4.6-4.6
			c-0.7-0.7-1.8-0.7-2.6,0l-2.6,2.6c-0.7,0.7-0.7,1.8,0,2.6l4.6,4.6c1.5,1.5,2.4,3.5,2.4,5.7c0,4.4-3.7,8.1-8.1,8.1
			c-2.2,0-4.2-0.9-5.7-2.4l-4.6-4.6c-0.7-0.7-1.8-0.7-2.6,0L1938,37c-0.7,0.7-0.7,1.8,0,2.6l4.6,4.6c2.9,2.9,6.8,4.6,11,4.6
			c8.4,0,15.4-7,15.4-15.4C1968.8,29.3,1967.2,25.5,1964.2,22.5L1964.2,22.5z M1964.2,22.5"/>
	</g>
</g>
<g>
	<path style="fill:none;stroke:#BCCED6;stroke-width:2;stroke-miterlimit:10;" d="M2508.5,22.8c0-0.8-0.6-1.5-1.4-1.7l-4.4-0.7
		c-0.4-1.7-1.1-3.2-2-4.7l2.6-3.6c0.5-0.7,0.4-1.6-0.2-2.2l-1.6-1.5l-1.6-1.5c-0.6-0.5-1.5-0.6-2.2-0.1l-3.6,2.6
		c-1.5-0.9-3.1-1.5-4.7-1.9l-0.7-4.4c-0.1-0.8-0.8-1.4-1.7-1.4h-4.4c-0.8,0-1.5,0.6-1.7,1.4l-0.7,4.4c-1.7,0.4-3.3,1.1-4.8,2
		l-3.6-2.5c-0.7-0.5-1.6-0.4-2.2,0.2l-1.5,1.6l-1.6,1.5c-0.6,0.6-0.7,1.5-0.2,2.2l2.6,3.6c-0.9,1.5-1.5,3.1-1.9,4.7l-4.3,0.7
		c-0.8,0.1-1.4,0.8-1.4,1.7v4.4c0,0.8,0.6,1.5,1.4,1.7l4.4,0.7c0.4,1.6,1.1,3.2,2,4.7l-2.5,3.6c-0.5,0.7-0.4,1.6,0.2,2.2l1.6,1.5
		l1.6,1.5c0.6,0.6,1.5,0.7,2.2,0.2l3.6-2.6c1.5,0.9,3.1,1.5,4.7,1.9l0.7,4.3c0.1,0.8,0.8,1.4,1.7,1.4h4.4c0.8,0,1.5-0.6,1.7-1.4
		l0.7-4.4c1.6-0.4,3.2-1.1,4.6-1.9l3.6,2.6c0.7,0.5,1.6,0.4,2.2-0.2l1.5-1.6l1.5-1.6c0.6-0.6,0.7-1.5,0.2-2.2l-2.6-3.6
		c0.9-1.5,1.5-3.1,1.9-4.7l4.4-0.7c0.8-0.1,1.4-0.8,1.4-1.7V25L2508.5,22.8z M2486.1,29.8l-3.8,3.7l-3.7-3.7l-3.6-3.6l3.8-3.7
		l3.6,3.6l8.6-8.5l3.7,3.7L2486.1,29.8z M2486.1,29.8"/>
</g>
<g>
	<g>
		<path style="fill:none;stroke:#B9CDD5;stroke-width:2;stroke-linecap:round;stroke-linejoin:round;stroke-miterlimit:10;" d="
			M2119.3,27.2c0,1.7,1.4,3.2,3.2,3.2c1.2,0,2.3-0.7,2.8-1.7l0,0l5.8-10.4l-10.2,6.2l0,0C2120,25,2119.3,26,2119.3,27.2L2119.3,27.2
			z M2119.3,27.2"/>
	</g>
	<path style="fill:none;stroke:#B9CDD5;stroke-width:2;stroke-linecap:round;stroke-miterlimit:10;" d="M2101,25
		c0,13.2,10.9,23.8,24,23.8c12.8,0,23.4-10.4,24-22.8h-5.7c-0.6,9.5-8.5,17.1-18.1,17.1c-10,0-18.5-8.1-18.5-18.2
		c0-9.5,7.9-17.3,16.4-18.1V1.2C2110.8,1.9,2101,12.3,2101,25"/>
	<path style="fill:none;stroke:#B9CDD5;stroke-width:2;stroke-linecap:round;stroke-miterlimit:10;" d="M2148.9,22.2
		c-1.3-11-10.8-19.9-21.8-21.1L2127,7c8.1,0.9,14.8,7.2,16.1,15.2L2148.9,22.2z"/>
</g>
<g>
	
		<circle style="fill:none;stroke:#B9CDD5;stroke-width:2;stroke-linecap:round;stroke-miterlimit:10;" cx="1872.5" cy="24.7" r="11.3"/>
	
		<circle style="fill:none;stroke:#B9CDD5;stroke-width:2;stroke-linecap:round;stroke-miterlimit:10;" cx="1872.5" cy="19.6" r="2.9"/>
	
		<circle style="fill:none;stroke:#B9CDD5;stroke-width:2;stroke-linecap:round;stroke-miterlimit:10;" cx="1900.3" cy="9.5" r="8.5"/>
	<path style="fill:none;stroke:#B9CDD5;stroke-width:2;stroke-linecap:round;stroke-miterlimit:10;" d="M1894.4,15.7
		c0-0.1,0-0.3,0-0.4c0-2.7,2.7-4.8,6-4.8s6,2.2,6,4.8c0,0.1,0,0.2,0,0.3"/>
	
		<circle style="fill:none;stroke:#B9CDD5;stroke-width:2;stroke-linecap:round;stroke-miterlimit:10;" cx="1900.3" cy="5.7" r="2.2"/>
	
		<circle style="fill:none;stroke:#B9CDD5;stroke-width:2;stroke-linecap:round;stroke-miterlimit:10;" cx="1900.3" cy="40.5" r="8.5"/>
	<path style="fill:none;stroke:#B9CDD5;stroke-width:2;stroke-linecap:round;stroke-miterlimit:10;" d="M1894.4,46.7
		c0-0.1,0-0.3,0-0.4c0-2.7,2.7-4.8,6-4.8s6,2.2,6,4.8c0,0.1,0,0.2,0,0.3"/>
	
		<circle style="fill:none;stroke:#B9CDD5;stroke-width:2;stroke-linecap:round;stroke-miterlimit:10;" cx="1900.3" cy="36.7" r="2.2"/>
	
		<line style="fill:none;stroke:#B9CDD5;stroke-width:2;stroke-linecap:round;stroke-miterlimit:10;" x1="1881.8" y1="17" x2="1891.8" y2="12"/>
	
		<line style="fill:none;stroke:#B9CDD5;stroke-width:2;stroke-linecap:round;stroke-miterlimit:10;stroke-dasharray:2,3;" x1="1900.8" y1="19" x2="1900.8" y2="32"/>
	<path style="fill:none;stroke:#B9CDD5;stroke-width:2;stroke-linecap:round;stroke-miterlimit:10;" d="M1891.8,38.9"/>
	<path style="fill:none;stroke:#B9CDD5;stroke-width:2;stroke-linecap:round;stroke-miterlimit:10;" d="M1891.8,39.5l-11.4-6.8
		c0-0.1,0-0.2,0-0.3c0-3.6-3.6-6.4-8-6.4s-8,2.9-8,6.4c0,0.2,0,0.4,0,0.6"/>
</g>
<g>
	<g>
		<g>
			<path style="fill:none;stroke:#B9CDD5;stroke-width:2;stroke-linecap:round;stroke-linejoin:round;stroke-miterlimit:10;" d="
				M965.6,8.9l-4.5,9.7c-0.2,0.5,0.2,1,0.7,1l17.1-1.7c0.2,0,0.5-0.2,0.5-0.4l5.5-12.4l-18.8,3.4C965.9,8.6,965.7,8.7,965.6,8.9
				L965.6,8.9z M984.9,5.1l5.8,12.8c0.1,0.2,0.3,0.4,0.6,0.4l17,1.4c0.5,0,0.9-0.5,0.7-1l-4.4-9.7c-0.1-0.2-0.3-0.3-0.5-0.4
				L984.9,5.1z M984.9,5.1"/>
		</g>
	</g>
	
		<polyline style="fill:none;stroke:#B9CDD5;stroke-width:2;stroke-linecap:round;stroke-linejoin:round;stroke-miterlimit:10;" points="
		964.3,19.4 964.3,38.5 985.4,44.9 1006,39.8 1006,20.5 	"/>
	
		<line style="fill:none;stroke:#B9CDD5;stroke-width:2;stroke-linecap:round;stroke-linejoin:round;stroke-miterlimit:10;" x1="985.4" y1="7.6" x2="985.4" y2="43.6"/>
	
		<ellipse style="fill:none;stroke:#B9CDD5;stroke-width:2;stroke-linecap:round;stroke-linejoin:round;stroke-miterlimit:10;" cx="974" cy="29.6" rx="5" ry="6.5"/>
	
		<line style="fill:none;stroke:#B9CDD5;stroke-width:2;stroke-linecap:round;stroke-miterlimit:10;" x1="995" y1="42.1" x2="1005.5" y2="31.6"/>
	
		<line style="fill:none;stroke:#B9CDD5;stroke-width:2;stroke-linecap:round;stroke-miterlimit:10;" x1="987" y1="43.1" x2="1006" y2="24.1"/>
</g>
<g>
	<path style="fill:none;stroke:#B9CDD5;stroke-width:2;stroke-miterlimit:10;" d="M310.7,25"/>
	<path style="fill:none;stroke:#B9CDD5;stroke-width:2;stroke-miterlimit:10;" d="M310.7,25V2.7c0-0.8,0.8-1.5,1.7-1.5h32.4
		c0.9,0,1.7,0.7,1.7,1.5v44.6c0,0.8-0.8,1.5-1.7,1.5h-32.4c-0.9,0-1.7-0.7-1.7-1.5v-2.6"/>
	<line style="fill:none;stroke:#B9CDD5;stroke-width:2;stroke-miterlimit:10;" x1="310.7" y1="8.3" x2="346.5" y2="8.3"/>
	<circle style="fill:#BACCD5;" cx="314.3" cy="4.8" r="0.9"/>
	<circle style="fill:#BACCD5;" cx="316.5" cy="4.8" r="0.9"/>
	<circle style="fill:#BACCD5;" cx="318.8" cy="4.8" r="0.9"/>
	
		<line style="fill:none;stroke:#B9CDD5;stroke-width:2;stroke-linecap:round;stroke-miterlimit:10;" x1="315.3" y1="14.8" x2="342.5" y2="14.8"/>
	
		<line style="fill:none;stroke:#B9CDD5;stroke-width:2;stroke-linecap:round;stroke-miterlimit:10;" x1="318.1" y1="19.8" x2="339.5" y2="19.8"/>
	<path style="fill:none;stroke:#B9CDD5;stroke-width:2;stroke-linecap:round;stroke-miterlimit:10;" d="M317.2,44.3h-12.9
		c-0.5,0-0.8-0.4-0.8-0.8V26.1c0-0.5,0.4-0.8,0.8-0.8h12.9c0.5,0,0.8,0.4,0.8,0.8v17.4C318.1,44,317.7,44.3,317.2,44.3z"/>
	<g>
		
			<path style="fill:none;stroke:#B9CDD5;stroke-width:2;stroke-linecap:round;stroke-linejoin:round;stroke-dasharray:8.8182,3.9192;" d="
			M341.3,44.3h-17.7c-0.6,0-1.2-0.4-1.2-0.8V26.1c0-0.5,0.5-0.8,1.2-0.8h17.7c0.6,0,1.2,0.4,1.2,0.8v17.4
			C342.5,44,342,44.3,341.3,44.3z"/>
	</g>
	
		<line style="fill:none;stroke:#B9CDD5;stroke-width:2;stroke-linecap:round;stroke-miterlimit:10;" x1="306.5" y1="29.9" x2="314.5" y2="29.9"/>
	
		<line style="fill:none;stroke:#B9CDD5;stroke-width:2;stroke-linecap:round;stroke-miterlimit:10;" x1="306.5" y1="34.9" x2="314.5" y2="34.9"/>
	
		<line style="fill:none;stroke:#B9CDD5;stroke-width:2;stroke-linecap:round;stroke-miterlimit:10;" x1="306.5" y1="39.9" x2="314.5" y2="39.9"/>
	<circle style="fill:none;stroke:#B9CDD5;stroke-width:2;stroke-linecap:round;stroke-miterlimit:10;" cx="332.5" cy="34.9" r="4"/>
</g>
<g>
	
		<line style="fill:none;stroke:#B9CDD5;stroke-width:2;stroke-linecap:round;stroke-miterlimit:10;" x1="74" y1="49" x2="96" y2="49"/>
	<path style="fill:none;stroke:#B9CDD5;stroke-width:2;stroke-miterlimit:10;" d="M87.1,7.5h19.6c1.3,0,2.3,1,2.3,2.3v30.1
		c0,1.3-1,2.3-2.3,2.3H63.4c-1.3,0-2.3-1-2.3-2.3V9.8c0-1.3,1-2.3,2.3-2.3h19.2"/>
	<path style="fill:none;stroke:#B9CDD5;stroke-width:2;stroke-miterlimit:10;" d="M87.1,7.5"/>
	<path style="fill:none;stroke:#B9CDD5;stroke-width:2;stroke-miterlimit:10;" d="M82.6,7.5"/>
	<polyline style="fill:none;stroke:#B9CDD5;stroke-width:2;stroke-miterlimit:10;" points="87.1,11.2 105.3,11.2 105.3,34 64.7,34 
		64.7,11.2 82.6,11.2 	"/>
	<path style="fill:none;stroke:#B9CDD5;stroke-width:2;stroke-miterlimit:10;" d="M85,46.5"/>
	<path style="fill:none;stroke:#B9CDD5;stroke-width:2;stroke-miterlimit:10;" d="M85,42.5"/>
	<g>
		
			<line style="fill:none;stroke:#B9CDD5;stroke-width:2;stroke-linecap:round;stroke-miterlimit:10;" x1="80.4" y1="42.9" x2="78.6" y2="48"/>
		
			<line style="fill:none;stroke:#B9CDD5;stroke-width:2;stroke-linecap:round;stroke-miterlimit:10;" x1="89.6" y1="42.9" x2="91.4" y2="48"/>
	</g>
	<polyline style="fill:none;stroke:#B9CDD5;stroke-width:2;stroke-linecap:round;stroke-miterlimit:10;" points="92.8,16.8 
		84.8,24.8 76.9,16.8 81.8,16.8 81.8,1 87.8,1 87.8,16.8 92.8,16.8 84.8,24.8 76.9,16.8 	"/>
	
		<line style="fill:none;stroke:#B9CDD5;stroke-width:2;stroke-linecap:round;stroke-linejoin:round;stroke-miterlimit:10;stroke-dasharray:9,4;" x1="83.1" y1="38.1" x2="87.1" y2="38.1"/>
</g>
<g>
	<path style="fill:none;stroke:#B9CDD5;stroke-width:2;stroke-linecap:round;stroke-miterlimit:10;" d="M823,43.9h-16.1
		c-0.5,0-0.8-0.4-0.8-0.8V25.8c0-0.5,0.4-0.8,0.8-0.8H823c0.5,0,0.8,0.4,0.8,0.8v17.3C823.9,43.5,823.5,43.9,823,43.9z"/>
	<path style="fill:none;stroke:#B9CDD5;stroke-width:2;stroke-miterlimit:10;" d="M791,25"/>
	<path style="fill:none;stroke:#B9CDD5;stroke-width:2;stroke-miterlimit:10;" d="M791,25V2.7c0-0.8,0.8-1.5,1.7-1.5h33.3
		c1,0,1.7,0.7,1.7,1.5v44.6c0,0.8-0.8,1.5-1.7,1.5h-33.3c-1,0-1.7-0.7-1.7-1.5v-2.6"/>
	<line style="fill:none;stroke:#B9CDD5;stroke-width:2;stroke-miterlimit:10;" x1="791" y1="8.3" x2="827.9" y2="8.3"/>
	<circle style="fill:#BACCD5;" cx="794.7" cy="4.8" r="0.9"/>
	<circle style="fill:#BACCD5;" cx="796.9" cy="4.8" r="0.9"/>
	<circle style="fill:#BACCD5;" cx="799.1" cy="4.8" r="0.9"/>
	
		<line style="fill:none;stroke:#B9CDD5;stroke-width:2;stroke-linecap:round;stroke-miterlimit:10;" x1="795.7" y1="14.8" x2="823.9" y2="14.8"/>
	
		<line style="fill:none;stroke:#B9CDD5;stroke-width:2;stroke-linecap:round;stroke-miterlimit:10;" x1="798.8" y1="19.8" x2="820.8" y2="19.8"/>
	
		<circle style="fill:none;stroke:#B9CDD5;stroke-width:2;stroke-linecap:round;stroke-miterlimit:10;" cx="791.5" cy="34.4" r="9.4"/>
	
		<line style="fill:none;stroke:#B9CDD5;stroke-width:2;stroke-linecap:round;stroke-miterlimit:10;" x1="791.3" y1="35.1" x2="791.3" y2="30.3"/>
	
		<line style="fill:none;stroke:#B9CDD5;stroke-width:2;stroke-linecap:round;stroke-miterlimit:10;" x1="791.3" y1="35.1" x2="794.9" y2="38.6"/>
	
		<polyline style="fill:none;stroke:#B9CDD5;stroke-width:2;stroke-linecap:round;stroke-linejoin:round;stroke-miterlimit:10;" points="
		806.7,38.7 811.2,34.2 820.9,43.9 	"/>
	
		<circle style="fill:none;stroke:#B9CDD5;stroke-width:2;stroke-linecap:round;stroke-linejoin:round;stroke-miterlimit:10;" cx="817.9" cy="30.9" r="2"/>
	
		<polyline style="fill:none;stroke:#B9CDD5;stroke-width:2;stroke-linecap:round;stroke-linejoin:round;stroke-miterlimit:10;" points="
		817.9,39.9 820.9,36.9 823.9,39.9 	"/>
</g>
<g>
	<path style="fill:none;stroke:#B9CDD5;stroke-width:2;stroke-linecap:round;stroke-linejoin:round;stroke-miterlimit:10;" d="
		M1301.1,42.9h-32.1c-1,0-1.8-0.8-1.8-1.8V8.9c0-1,0.8-1.8,1.8-1.8h32.1c1,0,1.8,0.8,1.8,1.8v32.1
		C1302.9,42.1,1302.1,42.9,1301.1,42.9z"/>
	<path style="fill:none;stroke:#B9CDD5;stroke-width:2;stroke-linecap:round;stroke-linejoin:round;stroke-miterlimit:10;" d="
		M1296.6,38.8h-23.2c-1.2,0-2.2-1-2.2-2.2V13.4c0-1.2,1-2.2,2.2-2.2h23.2c1.2,0,2.2,1,2.2,2.2v23.2
		C1298.8,37.8,1297.8,38.8,1296.6,38.8z"/>
	<g>
		
			<line style="fill:none;stroke:#B9CDD5;stroke-width:2;stroke-linecap:round;stroke-miterlimit:10;" x1="1304.1" y1="14.8" x2="1308.5" y2="14.8"/>
		
			<line style="fill:none;stroke:#B9CDD5;stroke-width:2;stroke-linecap:round;stroke-miterlimit:10;" x1="1299.3" y1="25" x2="1308.5" y2="25"/>
		
			<line style="fill:none;stroke:#B9CDD5;stroke-width:2;stroke-linecap:round;stroke-miterlimit:10;" x1="1304.1" y1="35.2" x2="1308.5" y2="35.2"/>
		
			<line style="fill:none;stroke:#B9CDD5;stroke-width:2;stroke-linecap:round;stroke-miterlimit:10;" x1="1261.5" y1="14.8" x2="1266.3" y2="14.8"/>
		
			<line style="fill:none;stroke:#B9CDD5;stroke-width:2;stroke-linecap:round;stroke-miterlimit:10;" x1="1261.5" y1="25" x2="1270.7" y2="25"/>
		
			<line style="fill:none;stroke:#B9CDD5;stroke-width:2;stroke-linecap:round;stroke-miterlimit:10;" x1="1261.5" y1="35.2" x2="1266.3" y2="35.2"/>
	</g>
	<g>
		<g>
			
				<line style="fill:none;stroke:#B9CDD5;stroke-width:2;stroke-linecap:round;stroke-miterlimit:10;" x1="1274.8" y1="6.9" x2="1274.8" y2="1.5"/>
			
				<line style="fill:none;stroke:#B9CDD5;stroke-width:2;stroke-linecap:round;stroke-miterlimit:10;" x1="1285" y1="10.7" x2="1285" y2="1.5"/>
			
				<line style="fill:none;stroke:#B9CDD5;stroke-width:2;stroke-linecap:round;stroke-miterlimit:10;" x1="1295.2" y1="6.9" x2="1295.2" y2="1.5"/>
		</g>
		<g>
			
				<line style="fill:none;stroke:#B9CDD5;stroke-width:2;stroke-linecap:round;stroke-miterlimit:10;" x1="1274.8" y1="48.5" x2="1274.8" y2="43.5"/>
			
				<line style="fill:none;stroke:#B9CDD5;stroke-width:2;stroke-linecap:round;stroke-miterlimit:10;" x1="1285" y1="48.5" x2="1285" y2="39.3"/>
			
				<line style="fill:none;stroke:#B9CDD5;stroke-width:2;stroke-linecap:round;stroke-miterlimit:10;" x1="1295.2" y1="48.5" x2="1295.2" y2="43.5"/>
		</g>
	</g>
	
		<circle style="fill:none;stroke:#B9CDD5;stroke-width:2;stroke-linecap:round;stroke-linejoin:round;stroke-miterlimit:10;" cx="1285" cy="25" r="6.8"/>
	<circle style="fill:#BBCED6;" cx="1285.1" cy="25" r="2.5"/>
</g>
</svg>
