<?xml version="1.0" encoding="utf-8"?>
<svg width="16" height="16" viewBox="0 0 16 16" xmlns="http://www.w3.org/2000/svg">
  <defs>
    <style>
      .cls-1 {
        fill: #bcced6;
        fill-rule: evenodd;
      }
    </style>
  </defs>
  <path id="Twitter_copy_3" data-name="Twitter copy 3" class="cls-1" d="M 16 2.24 C 15.4 2.505 14.763 2.68 14.11 2.757 C 14.797 2.346 15.312 1.7 15.561 0.94 C 14.914 1.322 14.207 1.593 13.47 1.74 C 11.74 -0.104 8.662 0.617 7.931 3.038 C 7.838 3.346 7.791 3.665 7.79 3.987 C 7.79 4.238 7.82 4.489 7.88 4.734 C 5.239 4.602 2.778 3.356 1.11 1.304 C 0.246 2.806 0.692 4.721 2.13 5.688 C 1.608 5.67 1.097 5.529 0.64 5.276 L 0.64 5.319 C 0.641 6.884 1.746 8.231 3.28 8.538 C 2.997 8.613 2.704 8.652 2.41 8.653 C 2.202 8.652 1.995 8.633 1.79 8.594 C 2.222 9.931 3.455 10.847 4.86 10.874 C 3.696 11.785 2.259 12.278 0.78 12.274 C 0.52 12.273 0.259 12.258 0 12.228 C 6.05 16.104 14.028 11.978 14.36 4.801 C 14.367 4.654 14.371 4.508 14.37 4.362 C 14.37 4.22 14.37 4.078 14.36 3.937 C 15.003 3.472 15.558 2.898 16 2.24 Z"/>
</svg>