<?xml version="1.0" encoding="utf-8"?>
<svg width="16" height="16" viewBox="0 0 16 16" xmlns="http://www.w3.org/2000/svg">
  <defs>
    <style>
      .cls-1 {
        fill: #bcced6;
        fill-rule: evenodd;
      }
    </style>
  </defs>
  <path id="LinkedIn_copy_3" data-name="LinkedIn copy 3" class="cls-1" d="M1239.6,653.221V653.2c-0.01.009-.01,0.017-0.02,0.025h0.02Zm6.21-7.216h-13.63a1.159,1.159,0,0,0-1.18,1.147v13.706a1.159,1.159,0,0,0,1.18,1.146h13.63a1.168,1.168,0,0,0,1.19-1.146V647.152A1.168,1.168,0,0,0,1245.81,646.005Zm-9.96,13.393h-2.42v-7.225h2.42V659.4Zm-1.21-8.211h-0.02A1.376,1.376,0,1,1,1234.64,651.187Zm9.92,8.211h-2.42v-3.866c0-.97-0.35-1.633-1.22-1.633a1.315,1.315,0,0,0-1.24.878,1.514,1.514,0,0,0-.08.586V659.4h-2.42s0.03-6.547,0-7.225h2.42V653.2a2.4,2.4,0,0,1,2.18-1.193c1.59,0,2.78,1.032,2.78,3.252V659.4Z" transform="translate(-1231 -646)"/>
</svg>