<svg xmlns="http://www.w3.org/2000/svg" width="100" height="100" viewBox="0 0 100 100">
    <g fill="none" fill-rule="nonzero">
        <path fill="#BBCBD3" d="M50 99.58A48 48 0 0 1 15 85 48 48 0 0 1 .42 50 48 48 0 0 1 15 15 48 48 0 0 1 50 .42a47.39 47.39 0 0 1 16.32 2.92 2.55 2.55 0 0 1 .94 4.19l-5.19 5.19a2.54 2.54 0 0 1-2.4.66A40.09 40.09 0 0 0 50 12.23a36.57 36.57 0 0 0-26.74 11A36.57 36.57 0 0 0 12.23 50a36.57 36.57 0 0 0 11 26.74A36.57 36.57 0 0 0 50 87.77a36.57 36.57 0 0 0 26.74-11 36.43 36.43 0 0 0 11-25.26A2.54 2.54 0 0 1 90.28 49h7.4a1.9 1.9 0 0 1 1.89 1.92A47.89 47.89 0 0 1 85 85a48 48 0 0 1-35 14.58zm0-97.16a46 46 0 0 0-33.62 14A46 46 0 0 0 2.42 50a46 46 0 0 0 14 33.63A46 46 0 0 0 50 97.58a46 46 0 0 0 33.63-14A45.94 45.94 0 0 0 97.57 51h-7.29a.55.55 0 0 0-.54.55 38.36 38.36 0 0 1-11.59 26.6A38.5 38.5 0 0 1 50 89.77a38.5 38.5 0 0 1-28.15-11.62A38.5 38.5 0 0 1 10.23 50a38.5 38.5 0 0 1 11.62-28.15A38.5 38.5 0 0 1 50 10.23a42 42 0 0 1 10.14 1.21.53.53 0 0 0 .5-.13l5.19-5.19a.53.53 0 0 0 .14-.5.55.55 0 0 0-.35-.4A45.39 45.39 0 0 0 50 2.42zm-4.9 67.33a2.53 2.53 0 0 1-1.8-.75L23.74 49.44a2.55 2.55 0 0 1 0-3.56l4.63-4.79a2.54 2.54 0 0 1 3.62 0l12.73 12.72a.54.54 0 0 0 .76 0l39.63-39.4a2.55 2.55 0 0 1 3.59 0L93.3 19a2.54 2.54 0 0 1 0 3.59L46.9 69a2.53 2.53 0 0 1-1.8.75zM30.17 42.31a.54.54 0 0 0-.38.17l-4.63 4.79a.54.54 0 0 0 0 .76l19.56 19.56a.54.54 0 0 0 .76 0l46.4-46.4a.54.54 0 0 0 0-.76l-4.6-4.6a.54.54 0 0 0-.76 0l-39.63 39.4a2.55 2.55 0 0 1-3.59 0L30.55 42.47a.54.54 0 0 0-.38-.16z"/>
        <path fill="#BACCD5" d="M32.55 42.45l-3-1-5 6v2l20 19h2l46-47v-2l-6-5-2 3-38 37-1 1z" opacity=".2"/>
    </g>
</svg>
