<svg xmlns="http://www.w3.org/2000/svg" width="50" height="50" viewBox="0 0 50 50">
    <g fill="none" fill-rule="evenodd">
        <path fill="#BECED6" fill-rule="nonzero" d="M25 1.5A23.5 23.5 0 0 1 43.12 40 23.5 23.5 0 0 1 1.5 25C1.506 12.024 12.024 1.506 25 1.5zM25 0C13.354-.005 3.247 8.033.63 19.38-1.988 30.73 3.577 42.382 14.048 47.479c10.471 5.098 23.075 2.29 30.392-6.772 7.317-9.06 7.408-21.973.22-31.136A24.89 24.89 0 0 0 25 0z"/>
        <path fill="#BECED6" fill-rule="nonzero" d="M25 1.5a23.29 23.29 0 0 1 17.48 7.8 25.48 25.48 0 0 1-5.86 2.81A36.6 36.6 0 0 1 25 14a36.56 36.56 0 0 1-11.62-1.84A25.28 25.28 0 0 1 7.52 9.3 23.28 23.28 0 0 1 25 1.5zM25 0A24.89 24.89 0 0 0 5.34 9.57a25.38 25.38 0 0 0 7.56 4A37.76 37.76 0 0 0 25 15.45a37.76 37.76 0 0 0 12.1-1.92 25.38 25.38 0 0 0 7.56-4A24.89 24.89 0 0 0 25 0zM25 36.84a36.85 36.85 0 0 1 11.41 1.76A26.66 26.66 0 0 1 42 41.2a23.51 23.51 0 0 1-34 0 26.66 26.66 0 0 1 5.62-2.6A36.85 36.85 0 0 1 25 36.84zm0-1.5a38 38 0 0 0-11.88 1.84 26.21 26.21 0 0 0-7.4 3.74 25 25 0 0 0 38.56 0 26.21 26.21 0 0 0-7.4-3.74A38 38 0 0 0 25 35.34z"/>
        <path fill="#BECED6" fill-rule="nonzero" d="M25 2.06c6.61 0 12.2 10.5 12.2 22.94 0 12.44-5.59 22.94-12.2 22.94-6.61 0-12.2-10.5-12.2-22.94 0-12.44 5.59-22.94 12.2-22.94zm0-1.5C17.43.56 11.3 11.5 11.3 25c0 13.5 6.13 24.44 13.7 24.44 7.57 0 13.7-10.94 13.7-24.44C38.7 11.5 32.57.56 25 .56z"/>
        <path stroke="#BECED6" stroke-linecap="round" stroke-width="1.5" d="M25 1.56v47.69M1.16 25.41h47.68"/>
    </g>
</svg>
