<?xml version="1.0" encoding="UTF-8"?>
<svg width="21px" height="22px" viewBox="0 0 21 22" version="1.1" xmlns="http://www.w3.org/2000/svg" xmlns:xlink="http://www.w3.org/1999/xlink">
    <!-- Generator: sketchtool 51 (57462) - http://www.bohemiancoding.com/sketch -->
    <title>38121197-5709-457C-86A9-60AB81934788</title>
    <desc>Created with sketchtool.</desc>
    <defs></defs>
    <g id="Page-1" stroke="none" stroke-width="1" fill="none" fill-rule="evenodd">
        <g id="Podcasts---subscribe-button-hover" transform="translate(-1025.000000, -398.000000)" fill="#FFFFFF" fill-rule="nonzero">
            <g id="Group-10" transform="translate(869.000000, 379.000000)">
                <g id="Group-5" transform="translate(136.000000, 0.000000)">
                    <g id="Google-Play" transform="translate(20.000000, 18.000000)">
                        <path d="M4.11,1.35 C3.26423311,0.880039155 2.23576689,0.880039155 1.39,1.35 L11.39,10.6 L14.76,7.23 L4.11,1.35 Z" id="Shape"></path>
                        <path d="M0.38,2.3 C0.13253939,2.70690327 0.00112822488,3.17375873 0,3.65 L0,20.35 C0.00081135361,20.8109869 0.125121309,21.263337 0.36,21.66 L10.44,11.58 L0.38,2.3 Z" id="Shape"></path>
                        <path d="M19.24,9.7 L16,7.93 L12.39,11.54 L16.81,15.62 L19.21,14.29 C20.0581654,13.838431 20.5881264,12.9558845 20.5881264,11.995 C20.5881264,11.0341155 20.0581654,10.151569 19.21,9.7 L19.24,9.7 Z" id="Shape"></path>
                        <path d="M11.45,12.51 L1.34,22.62 C1.76884336,22.8674023 2.25491214,22.9983996 2.75,23 C3.22658345,22.9976986 3.69469228,22.8737875 4.11,22.64 L15.58,16.32 L11.45,12.51 Z" id="Shape"></path>
                    </g>
                </g>
            </g>
        </g>
    </g>
</svg>