<?xml version="1.0" encoding="utf-8"?>
<!-- Generator: Adobe Illustrator 22.1.0, SVG Export Plug-In . SVG Version: 6.00 Build 0)  -->
<svg version="1.1" id="Layer_1" xmlns="http://www.w3.org/2000/svg" height="30px" xmlns:xlink="http://www.w3.org/1999/xlink" x="0px" y="0px"
	 viewBox="0 0 104.4 24" style="enable-background:new 0 0 104.4 24;" xml:space="preserve">
<style type="text/css">
	.st0{fill:#BCCED6;}
</style>
<g>
	<path class="st0" d="M61.7,8c-1.1-2.3-3.8-2.5-5.3-0.5c-0.8,1-1.1,2.3-1.4,3.5c-0.2,1.4-0.6,2.7-1.2,3.9c-0.3,0.6-0.6,1.2-1.1,1.6
		c-0.2,0.3-0.5,0.3-0.8,0.1c-0.6-0.5-1-2.1-0.7-2.8c1.5-3,2.4-6.2,2.6-9.5c0.1-1,0-2-0.6-2.9c-0.7-1.3-2-1.3-2.9-0.2
		c-0.5,0.6-0.9,1.3-1.1,2.1c-1.1,3.5-1.2,7.2-0.5,10.8c0.2,1.3-0.2,2-1.1,2.6c-0.1,0.1-0.3,0.2-0.4,0.3c-1,0.6-1.7,0.4-2.2-0.6
		c-0.3-0.6-0.5-1.3-0.6-1.9c-0.1-0.3,0-0.6,0.1-0.9c1.5-2.8,2.6-5.8,2.7-9c0-1-0.1-2.1-0.6-3c-0.6-0.9-1.5-1.1-2.4-0.5
		c-0.3,0.2-0.5,0.5-0.8,0.8c-1,1.3-1.3,2.9-1.5,4.5c-0.3,2.8-0.2,5.6,0.2,8.4c0,0.2,0,0.3-0.1,0.5c-0.9,1-2,1.9-3.4,2.2
		c-1,0.2-1.7-0.1-2.2-1c-0.4-0.6-0.5-1.3-0.5-2c-0.1-1-0.1-1,0.8-0.9c0.1,0,0.3,0,0.4,0c2.2-0.3,3.4-1.7,3.3-3.9
		c0-1.4-0.7-2.4-1.9-2.8c-1.1-0.4-2.5,0-3.3,1c-0.6,0.7-1,1.5-1.3,2.4c-0.1,0.4-0.3,0.8-0.4,1.2c-0.4-0.2-0.8-0.4-1.2-0.5
		c-0.4-0.1-0.5-0.4-0.5-0.8C32,7.4,32,4.8,32.2,2.2c0.1-1.4-0.6-2-2-2.1c-0.4,0-0.7,0.1-0.7,0.7c0.2,2.8,0.1,5.7,0.1,8.5
		c0,0.5-0.1,0.5-0.6,0.5c-0.8-0.1-1.7-0.3-2.5-0.3C26,9.5,26,9.3,26,8.8c0.1-1.3,0.1-2.5,0.2-3.8c0.1-1.7-0.9-2.1-2.1-2.2
		c-0.5,0-0.6,0.1-0.6,0.6c0.1,1.8,0.1,3.6,0.1,5.3c0,0.9,0,0.9-0.9,1.1c-0.7,0.2-1.3,0.4-2,0.7c-0.2,0.1-0.3,0.1-0.5,0.3
		c-0.5,0.4-0.5,1.1-0.2,1.7c0.3,0.6,0.8,0.2,1.1,0.1c0.7-0.3,1.5-0.6,2.3-0.9c0,0.3,0,0.5,0,0.7c-0.1,2.9-0.2,5.8-0.2,8.7
		c0,1,0.2,2,1.2,2.5l0,0c0,0,0.3,0.2,0.6,0.3c0.3,0.1,0.9-0.2,0.9-0.2c0.1-0.1,0.1-0.3,0.1-0.4c-0.1-0.7-0.1-1.5-0.2-2.2
		c-0.1-3.2-0.1-6.3,0-9.5c0-0.2,0.1-0.4,0.3-0.4c0.9,0,1.8-0.2,2.8-0.1c0.5,0,0.6,0.2,0.6,0.6c-0.1,1.8-0.1,3.7-0.1,5.5
		c0,1.5,0.7,2.1,2.2,2.1c0.4,0,0.5-0.1,0.5-0.5c-0.2-2-0.2-4-0.2-6c0-1.2,0-1.1,1.1-0.7c0.4,0.2,0.5,0.4,0.5,0.8c0,0.7,0,1.3,0.1,2
		c0.2,1.3,0.7,2.4,1.8,3.2c1.4,1.1,2.9,0.9,4.5,0.2c1.1-0.5,1.9-1.2,2.7-2.1c0.2,0.4,0.3,0.7,0.5,1c1,1.6,2.3,2,3.9,1.4
		c0.5-0.2,0.9-0.4,1.3-0.7c0.4-0.3,0.8-0.7,1.2-1.1c0.3,0.6,0.7,1.1,1.2,1.6c1,0.8,2.1,0.6,2.9-0.6c0.6-0.8,1.1-1.7,1.5-2.8
		c0.2,0.9,0.4,1.6,0.7,2.2c0.9,1.9,3.7,2.2,4.9,0.4c0.2-0.4,0.5-0.8,0.7-1.2c0.9-2,1.1-4.1,0.9-6.2C62.3,9.6,62.1,8.8,61.7,8z
		 M35.9,11.9c0.2-1.1,0.4-2.2,0.9-3.3c0.2-0.4,0.4-1,0.9-1c0.6,0,0.6,0.6,0.7,1.1c0.5,1.5-0.3,3.2-1.7,3.5c-0.1,0-0.3,0-0.3,0
		C36,12.3,35.8,12.3,35.9,11.9z M44.9,4c0.1-0.3,0.2-0.5,0.4-0.8c0.1-0.1,0.2-0.3,0.4-0.3c0.2,0,0.2,0.2,0.3,0.4
		c0.2,0.8,0.1,1.6,0,2.4c-0.2,1.7-0.7,3.4-1.3,5.1c-0.1,0.3-0.2,0.6-0.6,1C44.1,9,44.1,6.5,44.9,4z M51.5,3.8c0.1-0.4,0.2-0.7,0.4-1
		c0.1-0.1,0.1-0.2,0.3-0.2c0.2,0,0.2,0.2,0.2,0.3c0,0.1,0.1,0.3,0.1,0.5c0.1,3-0.4,5.9-1.7,8.6C50.7,9.2,50.7,6.4,51.5,3.8z
		 M59.5,16.5c-0.1,0.2-0.2,0.5-0.4,0.6c-0.4,0.5-0.9,0.5-1.2-0.1c-0.5-0.8-0.6-1.7-0.7-2.6c0-0.4,0-0.9,0-1.3c0-1.5,0.1-3,0.8-4.4
		c0.1-0.2,0.2-0.4,0.4-0.6c0.7-0.7,1.4-0.6,1.8,0.3c0.4,0.9,0.5,1.8,0.5,2.7C60.5,13,60.3,14.8,59.5,16.5z"/>
	<path class="st0" d="M102.8,3.9c-0.7,0-0.9,0.1-0.9,0.9c0,1.6,0,3.2,0,4.9c0,0.5-0.2,0.7-0.6,0.6c-0.5,0-1,0-1.4,0
		c-0.5,0-0.6-0.2-0.6-0.6c0-1.6,0-3.3,0-4.9c0-0.7-0.1-0.8-0.8-0.8c-0.3,0-0.5,0-0.8,0c-0.8,0-0.9,0.1-0.9,0.9c0,2.2,0,4.4,0,6.7
		c0,2,0,3.9,0,5.9c0,1.8-0.2,1.7,1.7,1.6c0.8,0,0.9-0.1,0.9-0.9c0-1.7,0-3.4,0-5c0-0.5,0.2-0.6,0.6-0.6c0.5,0,1,0,1.5,0
		c0.4,0,0.6,0.1,0.6,0.6c0,1.5,0,2.9,0,4.4c0,1.8-0.1,1.6,1.7,1.6c0.8,0,0.9-0.1,0.9-0.9c0-4.2,0-8.4,0-12.5
		C104.4,3.8,104.6,3.9,102.8,3.9z"/>
	<path class="st0" d="M77.6,12.2c0.6-0.3,1-0.9,1.2-1.6c0.4-1.3,0.3-2.5,0.1-3.8c-0.3-2-1.3-2.9-3.4-2.9c-1.1,0-2.1,0-3.2,0
		c-0.7,0-0.9,0.1-0.9,0.9c0,2.2,0,4.4,0,6.7c0,2.2,0,4.5,0,6.7c0,0.7,0.2,0.8,0.8,0.8c0.3,0,0.6,0,0.9,0c0.8,0,0.9-0.1,0.9-0.9
		c0-1.6,0-3.2,0-4.9c0-0.5,0.2-0.6,0.7-0.5c0.3,0.1,0.3,0.3,0.4,0.6c0.4,1.4,0.7,2.8,1.1,4.1c0.5,1.7,0.2,1.6,2.1,1.6
		c0.7,0,0.8-0.1,0.6-0.8c-0.5-1.8-1.1-3.6-1.6-5.3C77.3,12.6,77.3,12.3,77.6,12.2z M76.5,9.6c-0.2,0.9-1.3,1.5-2.2,1.1
		c-0.2-0.1-0.2-0.3-0.2-0.5c0-0.6,0-1.3,0-1.9c0-0.6,0-1.2,0-1.9C74,6.1,74.2,6,74.5,6c0,0,0,0,0.1,0c1.5-0.1,1.9,0.3,2,1.8
		C76.6,8.4,76.6,9,76.5,9.6z"/>
	<path class="st0" d="M92.7,10.5c-0.6-0.6-1.2-1.1-1.7-1.8c-0.4-0.5-0.6-1-0.5-1.7c0-0.7,0.5-1.2,1.2-1.2c0.6-0.1,1,0.2,1.2,1
		C93,7.2,93,7.6,93,8c0,0.5,0.2,0.7,0.7,0.7c0.4,0,0.7,0,1.1,0c0.4,0,0.6-0.2,0.6-0.6c0-0.8-0.1-1.6-0.3-2.3
		c-0.2-0.6-0.6-1.1-1.1-1.5c-1.3-0.8-3.2-0.8-4.5,0.1c-1,0.7-1.6,2.4-1.3,3.9c0.3,1.3,1,2.3,1.9,3.3c0.7,0.7,1.6,1.4,2.2,2.2
		c0.5,0.6,0.8,1.2,0.8,2c0,0.8-0.4,1.4-1,1.4c-1,0.1-1.4-0.2-1.7-1.1c-0.1-0.4-0.1-0.9-0.1-1.3c0-0.6-0.2-0.8-0.8-0.7
		c-0.1,0-0.2,0-0.3,0c-1.2,0-1.2,0-1.2,1.3c0,2.8,1.5,4.3,4.3,4.1c1.5-0.1,2.7-1.1,3.1-2.5c0.4-1.5,0.1-2.8-0.7-4.1
		C94.1,11.9,93.4,11.2,92.7,10.5z"/>
	<path class="st0" d="M86.3,16.8c-1,0-1.9,0-2.9,0c-0.4,0-0.6-0.1-0.6-0.5c0-1.2,0-2.3,0-3.5c0-0.4,0.1-0.6,0.5-0.5
		c0.4,0,0.7,0,1.1,0c1.4,0,1.4,0,1.4-1.4c0-0.5-0.2-0.7-0.7-0.7c-0.6,0-1.2,0-1.7,0c-0.3,0-0.5-0.1-0.5-0.5c0-1,0-2,0-3.1
		c0-0.4,0.1-0.5,0.5-0.5c0.7,0,1.5,0,2.2,0c1.4,0,1.4,0,1.4-1.4c0-0.7-0.1-0.8-0.9-0.8c-1.6,0-3.2,0-4.9,0c-0.7,0-0.9,0.1-0.9,0.9
		c0,2.2,0,4.4,0,6.6c0,2.2,0,4.4,0,6.7c0,0.8,0.1,0.9,0.9,1c1.5,0,2.9,0,4.4,0c1.5,0,1.4,0,1.4-1.5C87.1,17,86.8,16.8,86.3,16.8z"/>
	<path class="st0" d="M69.5,3.9c-1.7,0-3.3,0-5,0c-0.7,0-0.9,0.1-0.9,0.9c0,2.2,0,4.4,0,6.7c0,2,0,3.9,0,5.9c0,1.8-0.1,1.7,1.7,1.7
		c0.7,0,0.8-0.1,0.8-0.8c0-1.8,0-3.5,0-5.3c0-0.4,0.1-0.6,0.5-0.5c0.4,0,0.8,0,1.2,0c1.5,0,1.5,0,1.4-1.4c0-0.5-0.2-0.7-0.7-0.7
		c-0.6,0-1.2,0-1.7,0c-0.5,0-0.7-0.1-0.6-0.6c0-1,0-1.9,0-2.9c0-0.4,0.1-0.6,0.6-0.6c0.7,0,1.5,0,2.2,0c1.3,0,1.4,0,1.4-1.3
		C70.3,4,70.2,3.9,69.5,3.9z"/>
	<path class="st0" d="M16.2,5.4c0.1,0.3,0.4,0.5,0.4,0.9c-0.4-0.1-0.6-0.5-0.9-0.7C13.2,3,8.5,2.4,5.5,4c-3,1.6-4.8,4-5,7.4
		c-0.1,0.9,0,1.8-0.3,2.7c0,0.1-0.4,0.9-0.1,1.8c0,0,0,0.1,0,0.1c0,0,0,0,0,0l0,0c0.2,0.6,0.7,1,1.3,1.1c1.1,0.3,2,0.8,3,1.3
		c0.4,0.2,0.8,0.3,1.2,0.5c3,0.8,5.7,0.2,8.2-1.6c2-1.4,3.2-3.4,3.6-5.8c0,0,0,0,0,0c0,0,0,0,0,0c0.4-1.6,0.3-3.2,0.3-4.8
		C17.7,5.9,17.1,5.4,16.2,5.4z M10,5.9C9,5.9,8.1,6,7.2,6.4C6.6,6.6,6.5,6.1,6.3,5.8C6.1,5.4,6.4,5.2,6.7,5.1
		c1.5-0.6,3.1-0.6,4.6-0.3c1,0.2,2,0.5,2.9,1.1c0.1,0,0.1,0.1,0.3,0.3C12.9,6,11.4,5.8,10,5.9z"/>
</g>
</svg>
