<?xml version="1.0" encoding="UTF-8"?>
<svg width="20px" height="25px" viewBox="0 0 20 25" version="1.1" xmlns="http://www.w3.org/2000/svg" xmlns:xlink="http://www.w3.org/1999/xlink">
    <!-- Generator: sketchtool 51 (57462) - http://www.bohemiancoding.com/sketch -->
    <title>1A9E801D-527B-4B02-975D-D84E0A28F671</title>
    <desc>Created with sketchtool.</desc>
    <defs></defs>
    <g id="Page-1" stroke="none" stroke-width="1" fill="none" fill-rule="evenodd">
        <g id="Podcasts---subscribe-button-hover" transform="translate(-956.000000, -394.000000)" fill="#FFFFFF" fill-rule="nonzero">
            <g id="Group-10" transform="translate(869.000000, 379.000000)">
                <g id="Group-6" transform="translate(68.000000, 0.000000)">
                    <g id="ITunes" transform="translate(19.000000, 15.000000)">
                        <path d="M16.7103707,13.05 C16.7359108,11.1396491 17.7353242,9.37464744 19.3603707,8.37 C18.3282531,6.89995511 16.6655551,6.0000985 14.8703707,5.94 C12.9603707,5.75 11.1403707,7.07 10.1703707,7.07 C9.20037072,7.07 7.70037072,6 6.12037072,6 C3.99111791,6.04697543 2.04634111,7.21916966 1.01037072,9.08 C-1.12962928,12.84 0.480370718,18.4 2.59037072,21.45 C3.59037072,22.94 4.86037072,24.62 6.47037072,24.56 C8.08037072,24.5 8.61037072,23.56 10.4703707,23.56 C12.3303707,23.56 12.8703707,24.56 14.4703707,24.56 C16.0703707,24.56 17.2003707,23.04 18.2303707,21.56 C18.992131,20.4652947 19.5916626,19.2662314 20.0103707,18 C18.0239409,17.1529866 16.7282178,15.2094019 16.7103707,13.05 Z M13.6203707,3.92 C14.549771,2.83465413 15.0101718,1.42467693 14.9003707,0 C13.5002616,0.134313354 12.2048147,0.799929751 11.2803707,1.86 C10.361471,2.90331819 9.90342983,4.27383508 10.0103707,5.66 C11.4184258,5.67121198 12.7519838,5.02844437 13.6203707,3.92 Z" id="Shape"></path>
                    </g>
                </g>
            </g>
        </g>
    </g>
</svg>