<svg xmlns="http://www.w3.org/2000/svg" width="70" height="70" viewBox="0 0 70 70">
    <g fill="none" fill-rule="evenodd">
        <path fill="#BBCED6" fill-rule="nonzero" d="M61.6 33.86L63 33l-1.4.86zM7 33l1.4.85L7 33zM8.4 29.4v4.46L7 33.02V29.4zM35.07 48.22l-.07.05-.07-.05-1.29.78L8.4 33.86v-1.64L35 48.18z"/>
        <path fill="#BBCED6" fill-rule="nonzero" d="M69.93 30.18a2.78 2.78 0 0 0-1.46-1.87A2.68 2.68 0 0 0 67.2 28H63V7l-7-7H9.8A2.81 2.81 0 0 0 7 2.8V28H2.8c-.443 0-.88.11-1.27.32a1.09 1.09 0 0 0-.2.11A2.78 2.78 0 0 0 0 30.8v36.4A2.81 2.81 0 0 0 2.8 70h64.4a2.82 2.82 0 0 0 2.73-2.18 2.56 2.56 0 0 0 .07-.62V30.8a2.56 2.56 0 0 0-.07-.62zM63 29.4h3.31l-.44.27L63 31.38V29.4zM2.79 67.52l-1 .62a1.38 1.38 0 0 1-.36-.93V30.8c0-.344.128-.676.36-.93l1 .62L7 33v-1.62l-2.86-1.71-.44-.27h4.7V2.8a1.4 1.4 0 0 1 1.4-1.4h45.62l6.18 6.18v24.64L35 48.18h.07-.14l-1.29.82L2.79 67.52zm65.81-.32a1.4 1.4 0 0 1-1.4 1.4H3.7L35 49.82l1.36-.82L61.6 33.86 63 33l4.21-2.53 1-.62c.232.254.36.586.36.93l.03 36.42z"/>
        <path fill="#BBCED6" fill-rule="nonzero" d="M35.07 48.22l-.07.05-.07-.05.07-.04zM14 9.1v20.3h20.3V9.1H14zM15.4 28V10.5h17.5V28H15.4z"/>
        <path stroke="#BBCED6" stroke-linecap="round" stroke-width="2" d="M39.9 9.8h15.4M39.9 16.1h15.4M39.9 22.4h15.4M39.9 28.7h8.4"/>
        <path fill="#BBCED6" fill-rule="nonzero" d="M31.49 28a7.35 7.35 0 0 0-14.69 0v.32c.004.335.03.669.08 1h1.42a5.8 5.8 0 0 1-.1-1V28a6 6 0 0 1 11.89 0v.32a6.5 6.5 0 0 1-.09 1h1.41a7.41 7.41 0 0 0 .08-1c.01-.11.01-.22 0-.32zM24.15 11.9a3.85 3.85 0 1 0 0 7.7 3.85 3.85 0 0 0 0-7.7zm0 6.3a2.45 2.45 0 1 1 0-4.9 2.45 2.45 0 0 1 0 4.9z"/>
        <path fill="#BBCED6" fill-rule="nonzero" d="M14 28.32h20.3v1.08H14z" opacity=".3"/>
        <path fill="#BBCED6" fill-rule="nonzero" d="M69.93 28.32V69.3H1.33V28.32H8.4v3.9L35 48.18l26.6-15.96v-3.9z" opacity=".2"/>
        <circle cx="24.15" cy="15.75" r="3.85" fill="#BBCED6" fill-rule="nonzero" opacity=".3"/>
        <path fill="#BBCED6" fill-rule="nonzero" d="M14 9.9v19.5h20.3V9.9H14zm1.4.6h17.5V28h-1.41a7.35 7.35 0 0 0-14.69 0h-1.4V10.5z" opacity=".3"/>
    </g>
</svg>
