<svg id="Layer_1" data-name="Layer 1" xmlns="http://www.w3.org/2000/svg" viewBox="0 0 70 70"><defs><style>.cls-1,.cls-4{fill:none;}.cls-2,.cls-3{fill:#baccd5;}.cls-3{opacity:0.2;isolation:isolate;}.cls-4{stroke:#baccd5;stroke-width:1.4px;}</style></defs><title>Artboard 1@1x-100</title><path class="cls-1" d="M34.49,36.05a16.17,16.17,0,0,1-13.24-6.7v2.72a18.16,18.16,0,0,0,26.6-.13V29.18A16.2,16.2,0,0,1,34.49,36.05Z"/><path class="cls-1" d="M34.6,1.4A18.27,18.27,0,0,0,16.34,19.6a19,19,0,0,0,3.51,10.8V27.09c-.7-2.25-1.76-4.79-1.76-7.49A16.46,16.46,0,0,1,51,19.6a13.06,13.06,0,0,1-1.73,7.25v3.38A18.58,18.58,0,0,0,52.74,19.6,18.16,18.16,0,0,0,34.6,1.4Z"/><path class="cls-1" d="M31.71,20.33,27,17h5.77l1.93-5.78L36.58,17h5.78l-4.75,3.35L39.41,26l-4.75-3.46L29.91,26Z"/><path class="cls-1" d="M34.6,4.55a15.14,15.14,0,0,0-15,15.14,15.35,15.35,0,0,0,1.74,7.09,15.46,15.46,0,0,0,13.3,7.9,15.05,15.05,0,1,0,0-30.1Zm9,23.62H24.75V9.27h18.9Z"/><path class="cls-2" d="M34.6,3.15A16.46,16.46,0,0,0,20,27.09a17,17,0,0,0,1.4,2.26A16.42,16.42,0,0,0,48,29.18a16.26,16.26,0,0,0,3.09-9.57A16.47,16.47,0,0,0,34.61,3.15Zm0,31.5a15.08,15.08,0,0,1-13.24-7.9,1,1,0,0,0-.07-.15,15,15,0,1,1,13.31,8Z"/><path class="cls-3" d="M22,33.6V62l5.6-1.4V37.1S23.35,35,22,33.6Z"/><path class="cls-2" d="M34.6,0A19.63,19.63,0,0,0,19.9,32.61,5.75,5.75,0,0,0,21.25,34V62.71l5.6-1.4V62l8,8,7.35-7.35V61.31l5.6,1.4V33.92a6.65,6.65,0,0,0,1.45-1.45A19.56,19.56,0,0,0,34.6,0ZM26.85,59.87l-4.2,1V35.21a27.5,27.5,0,0,0,4.2,2.44Zm14,2.2L34.9,68l-6.65-6.65V38.18a19.56,19.56,0,0,0,12.6,0Zm5.6-1.15-4.2-1V37.59a27.26,27.26,0,0,0,4.2-2.48Zm1.51-29a18.16,18.16,0,0,1-25.67,1c-.32-.3-.63-.6-.93-.92A18.06,18.06,0,0,1,20,30.4a18.21,18.21,0,1,1,29.4-.18A17.81,17.81,0,0,1,48,31.94Z"/><path class="cls-3" d="M47.15,33.6V62l-5.6-1.4V37.1S45.75,35,47.15,33.6Z"/><path class="cls-4" d="M42.36,17H36.58l-1.92-5.8L32.73,17H27l4.75,3.36L29.91,26l4.75-3.46L39.41,26l-1.8-5.67Z"/><path class="cls-3" d="M37.5,20.33,39.29,26l-4.75-3.46L29.79,26l1.8-5.67L26.84,17h5.78l1.92-5.78L36.47,17h5.77Z"/></svg>