<svg xmlns="http://www.w3.org/2000/svg" width="70" height="70" viewBox="0 0 70 70">
    <g fill="none" fill-rule="evenodd">
        <path fill="#BECED6" fill-rule="nonzero" d="M46.15 15.45c.35 0 .684.139.927.386s.374.58.363.925v50.705H22.56V16.761c0-.703.578-1.272 1.29-1.272h22.3v-.04zm0-1.44h-22.3c-.74 0-1.45.29-1.973.806a2.731 2.731 0 0 0-.817 1.945v52.253h27.88V16.761c0-1.52-1.25-2.751-2.79-2.751zM65.21 39.052c.193 0 .35.155.35.345v28.07H53.23v-28.03a.333.333 0 0 1 .1-.247.343.343 0 0 1 .25-.098h11.63v-.04zm0-1.44H53.58c-1.022 0-1.85.817-1.85 1.825v29.577h15.33V39.437c0-1.008-.828-1.824-1.85-1.824z"/>
        <path fill="#BECED6" fill-rule="nonzero" d="M37.92 9.268c1.404 0 2.544 1.12 2.55 2.504v2.09H29.53v-2.09c.006-1.385 1.146-2.504 2.55-2.504h5.84zm0-1.48h-5.84c-2.21 0-4 1.766-4 3.944v3.57H42v-3.53c0-2.178-1.79-3.944-4-3.944l-.08-.04z"/>
        <path fill="#BCCED6" fill-rule="nonzero" d="M32.08 7.789h5.85c2.21 0 4 1.765 4 3.943v3.57H28v-3.53c0-2.178 1.79-3.944 4-3.944l.08-.04z" opacity=".2"/>
        <path stroke="#BECED6" stroke-linecap="round" stroke-width="1.5" d="M35 .917v6.872M59.39 34.586v3.43M.85 68.255h68.3"/>
        <path fill="#BECED6" fill-rule="nonzero" d="M29.32 19.57v2.544h-2.58V19.57h2.58zm1.5-1.478h-5.58v5.501h5.58v-5.501zM43.26 19.57v2.544h-2.58V19.57h2.58zm1.5-1.478h-5.58v5.501h5.58v-5.501zM36.29 19.57v2.544h-2.58V19.57h2.58zm1.5-1.478h-5.58v5.501h5.58v-5.501zM29.32 26.442v2.544h-2.58v-2.544h2.58zm1.5-1.479h-5.58v5.502h5.58v-5.502zM43.26 26.442v2.544h-2.58v-2.544h2.58zm1.5-1.479h-5.58v5.502h5.58v-5.502zM36.29 26.442v2.544h-2.58v-2.544h2.58zm1.5-1.479h-5.58v5.502h5.58v-5.502zM29.32 33.314v2.544h-2.58v-2.544h2.58zm1.5-1.479h-5.58v5.502h5.58v-5.502zM43.26 33.314v2.544h-2.58v-2.544h2.58zm1.5-1.479h-5.58v5.502h5.58v-5.502zM60.68 42.937v2.533h-2.57v-2.533h2.57zm1.5-1.48h-5.57v5.492h5.57v-5.491zM60.68 49.808v2.534h-2.57v-2.534h2.57zm1.5-1.478h-5.57v5.491h5.57V48.31v.02zM60.68 56.68v2.534h-2.57V56.68h2.57zm1.5-1.479h-5.57v5.492h5.57v-5.492z"/>
        <path fill="#BCCED6" fill-rule="nonzero" d="M65.21 37.573H53.58c-.498 0-.974.198-1.322.548a1.81 1.81 0 0 0-.528 1.316v29.577h15.33V39.437a1.81 1.81 0 0 0-.528-1.316 1.863 1.863 0 0 0-1.322-.548zm-3 23.12h-5.6v-5.482h5.57l.03 5.482zm0-6.901h-5.6V48.31h5.57l.03 5.482zm0-6.902h-5.6v-5.432h5.57l.03 5.432zM16.42 37.573H4.79c-.498 0-.974.198-1.322.548a1.81 1.81 0 0 0-.528 1.316v29.577h15.33V39.437a1.81 1.81 0 0 0-.528-1.316 1.863 1.863 0 0 0-1.322-.548zm-3 23.12h-5.6v-5.482h5.57l.03 5.482zm0-6.901h-5.6V48.31h5.57l.03 5.482zm0-6.902h-5.6v-5.432h5.57l.03 5.432z" opacity=".2"/>
        <path fill="#BECED6" fill-rule="nonzero" d="M16.42 39.052a.343.343 0 0 1 .25.098.333.333 0 0 1 .1.247v28.07H4.44v-28.03c0-.092.037-.18.103-.244a.353.353 0 0 1 .247-.101h11.63v-.04zm0-1.44H4.79c-.49 0-.961.193-1.308.535a1.811 1.811 0 0 0-.542 1.29v29.577h15.33V39.437c0-1.008-.828-1.824-1.85-1.824z"/>
        <path stroke="#BECED6" stroke-linecap="round" stroke-width="1.5" d="M10.61 34.586v3.43"/>
        <path fill="#BECED6" fill-rule="nonzero" d="M11.89 42.937v2.533H9.32v-2.533h2.57zm1.5-1.48H7.82v5.492h5.57v-5.491zM11.89 49.808v2.534H9.32v-2.534h2.57zm1.5-1.478H7.82v5.491h5.57V48.31v.02zM11.89 56.68v2.534H9.32V56.68h2.57zm1.5-1.479H7.82v5.492h5.57v-5.492zM36.29 33.314v2.544h-2.58v-2.544h2.58zm1.5-1.479h-5.58v5.502h5.58v-5.502zM29.32 40.186v2.544h-2.58v-2.544h2.58zm1.5-1.479h-5.58v5.501h5.58v-5.501zM43.26 40.186v2.544h-2.58v-2.544h2.58zm1.5-1.479h-5.58v5.501h5.58v-5.501zM36.29 40.186v2.544h-2.58v-2.544h2.58zm1.5-1.479h-5.58v5.501h5.58v-5.501zM29.32 47.058V49.6h-2.58v-2.543h2.58zm1.5-1.48h-5.58v5.502h5.58V45.58zM43.26 47.058V49.6h-2.58v-2.543h2.58zm1.5-1.48h-5.58v5.502h5.58V45.58zM36.29 47.058V49.6h-2.58v-2.543h2.58zm1.5-1.48h-5.58v5.502h5.58V45.58zM29.32 53.93v2.533h-2.58V53.93h2.58zm1.5-1.48h-5.58v5.492h5.58v-5.491zM43.26 53.93v2.533h-2.58V53.93h2.58zm1.5-1.48h-5.58v5.492h5.58v-5.491zM36.29 53.93v2.533h-2.58V53.93h2.58zm1.5-1.48h-5.58v5.492h5.58v-5.491zM36.29 60.801v6.665h-2.58v-6.665h2.58zm1.5-1.478h-5.58v9.622h5.58v-9.622z"/>
    </g>
</svg>
