<svg xmlns="http://www.w3.org/2000/svg" viewBox="0 0 63 70"><defs><style>.cls-1,.cls-2,.cls-3{fill:#bcced6;}.cls-2{opacity:0.2;}.cls-3{opacity:0.3;}.cls-4{fill:none;stroke:#bcced6;stroke-miterlimit:10;stroke-width:1.4px;}</style></defs><title>Asset 5</title><g id="Layer_2" data-name="Layer 2"><g id="Layer_1-2" data-name="Layer 1"><path class="cls-1" d="M56,14a.73.73,0,0,1-.75.7H21.75a.7.7,0,1,1,0-1.4h33.5A.73.73,0,0,1,56,14Z"/><path class="cls-1" d="M48.3,21a.7.7,0,0,1-.7.7H28a.7.7,0,0,1,0-1.4H47.6A.7.7,0,0,1,48.3,21Z"/><circle class="cls-1" cx="22.05" cy="3.85" r="1.05"/><circle class="cls-1" cx="25.55" cy="3.85" r="1.05"/><circle class="cls-1" cx="29.05" cy="3.85" r="1.05"/><rect class="cls-1" x="15.4" y="6.3" width="46.2" height="1.4"/><path class="cls-1" d="M16.18,50.58a3.27,3.27,0,0,0-2.18.85A3.23,3.23,0,0,0,15.4,57a3.24,3.24,0,1,0,.78-6.38Zm0,5.07a1.75,1.75,0,0,1-.78-.18,1.83,1.83,0,0,1,0-3.31,1.74,1.74,0,0,1,.78-.18,1.84,1.84,0,1,1,0,3.67Z"/><path class="cls-1" d="M15.4,43.4v1.4H40.6V61.6H42V43.4Zm0,0v1.4H40.6V61.6H42V43.4Zm0,0v1.4H40.6V61.6H42V43.4ZM0,43.4V70H42V43.4ZM40.6,68.6H1.4V44.8H40.6ZM15.4,43.4v1.4H40.6V61.6H42V43.4Zm0,0v1.4H40.6V61.6H42V43.4Z"/><path class="cls-1" d="M47.6,28v1.4h2.8V28ZM42,28v1.4h2.8V28Zm-5.6,0v1.4h2.8V28Zm-5.6,0v1.4h2.8V28Zm-5.6,0v1.4H28V28ZM21,28v1.4h1.4V28Zm0,4.2V35h1.4V32.2Zm0,5.6v2.8h1.4V37.8Zm0,5.6v1.4h1.4V43.4ZM42,49v1.4h2.8V49Zm5.6,0v1.4h2.8V49Zm5.6,0v1.4H56V49Zm1.4-4.2v2.8H56V44.8Zm0-5.6V42H56V39.2Zm0-5.6v2.8H56V33.6ZM53.2,28v1.4h1.4v1.4H56V28Z"/><path class="cls-1" d="M57.4,0H19.6A5.62,5.62,0,0,0,14,5.6V44.8h1.4V2.8a1.4,1.4,0,0,1,1.4-1.4H60.2a1.4,1.4,0,0,1,1.4,1.4V60.2a1.4,1.4,0,0,1-1.4,1.4H40.6V63H57.4A5.62,5.62,0,0,0,63,57.4V5.6A5.62,5.62,0,0,0,57.4,0Zm-42,52.16V50.67a3.24,3.24,0,0,0-1.4.75V56.2a3.24,3.24,0,0,0,1.4.75V55.47a1.83,1.83,0,0,1,0-3.31Z"/><polygon class="cls-2" points="56 28 56 50.4 40.6 50.4 40.6 44.8 21 44.8 21 28 56 28"/><path class="cls-3" d="M56,14a.73.73,0,0,1-.75.7H21.75a.7.7,0,1,1,0-1.4h33.5A.73.73,0,0,1,56,14Z"/><path class="cls-3" d="M16.18,50.58a3.27,3.27,0,0,0-2.18.85A3.23,3.23,0,0,0,15.4,57a3.24,3.24,0,1,0,.78-6.38Zm0,5.07a1.75,1.75,0,0,1-.78-.18,1.83,1.83,0,0,1,0-3.31,1.74,1.74,0,0,1,.78-.18,1.84,1.84,0,1,1,0,3.67Z"/><polygon class="cls-2" points="39.24 69.49 12.97 69.19 14.35 67.16 15.33 65.74 16.33 64.3 18.08 61.77 18.19 61.61 19.04 60.38 19.06 60.35 25.83 50.58 32.61 60.38 33.58 61.77 36.7 66.28 39.24 69.49"/><polyline class="cls-4" points="12.7 69.49 25.9 50.4 38.96 69.3"/><polyline class="cls-4" points="4.88 69.19 11.65 59.41 15.65 65.21"/><polygon class="cls-2" points="4.88 69.19 11.65 59.41 15.65 65.21 12.95 69.33 4.88 69.19"/><path class="cls-1" d="M60.2,0H16.8A2.81,2.81,0,0,0,14,2.8v42h1.4V2.8a1.4,1.4,0,0,1,1.4-1.4H60.2a1.4,1.4,0,0,1,1.4,1.4V60.2a1.4,1.4,0,0,1-1.4,1.4H40.6V63H60.2A2.81,2.81,0,0,0,63,60.2V2.8A2.81,2.81,0,0,0,60.2,0Z"/><rect class="cls-2" x="15.4" y="0.82" width="46.73" height="6.18"/></g></g></svg>