<svg xmlns="http://www.w3.org/2000/svg" width="61" height="72" viewBox="0 0 61 72">
    <g fill="none" fill-rule="evenodd" stroke="#F3BF00" stroke-width="1.5" transform="translate(1 1)">
        <path d="M51.589.11H8.094a7.525 7.525 0 0 0-7.46 7.575V40.55c0 6.358 4.835 13.249 14.445 20.475a99.808 99.808 0 0 0 13.913 8.64 1.918 1.918 0 0 0 1.808 0 100.625 100.625 0 0 0 13.905-8.662c9.48-7.233 14.446-14.124 14.446-20.482V7.707A7.511 7.511 0 0 0 51.77.11h-.182z"/>
        <rect width="34.716" height="30.049" x="12.272" y="23.224" rx="3.376"/>
        <path d="M41.92 23.224v-5.833c-.163-6.671-5.617-11.995-12.29-11.995-6.673 0-12.128 5.324-12.29 11.995v5.833"/>
        <path d="M38.077 22.604v-5.469a8.447 8.447 0 0 0-16.887-.488v5.957M12.272 46.995h34.715"/>
        <circle cx="29.575" cy="34.949" r="8.364"/>
        <path d="M23.333 40.513a8.342 8.342 0 0 1 11.776-.73c.259.228.502.471.73.73"/>
        <circle cx="29.626" cy="32.689" r="2.851"/>
    </g>
</svg>
