<svg xmlns="http://www.w3.org/2000/svg" width="70" height="47" viewBox="0 0 70 47">
    <g fill="none" fill-rule="evenodd">
        <path fill="#BECED6" fill-rule="nonzero" d="M34.27 40.5a2 2 0 0 1 2 2v.54a2.05 2.05 0 0 1-2 2.05H19.54a2.05 2.05 0 0 1-2-2.05v-.54a2 2 0 0 1 2-2h14.73zm0-1.5H19.54A3.54 3.54 0 0 0 16 42.54v.54a3.55 3.55 0 0 0 3.54 3.55h14.73a3.55 3.55 0 0 0 3.54-3.55v-.54A3.54 3.54 0 0 0 34.27 39z"/>
        <path stroke="#BCCED6" stroke-linecap="round" stroke-width="1.5" d="M22 43h9.73"/>
        <path fill="#BECED6" fill-rule="nonzero" d="M56.32 40.5a2 2 0 0 1 2 2v.54a2.05 2.05 0 0 1-2 2.05H41.55a2.05 2.05 0 0 1-2-2.05v-.54a2 2 0 0 1 2-2h14.77zm0-1.5H41.55A3.54 3.54 0 0 0 38 42.54v.54a3.55 3.55 0 0 0 3.55 3.55h14.77a3.55 3.55 0 0 0 3.54-3.55v-.54a3.54 3.54 0 0 0-3.54-3.5V39z"/>
        <path stroke="#BCCED6" stroke-linecap="round" stroke-width="1.5" d="M44 43h9.73"/>
        <rect width="21.81" height="7.63" x="38" y="39" fill="#BCCED6" fill-rule="nonzero" opacity=".2" rx="3.54"/>
        <path stroke="#BECED6" stroke-width="1.5" d="M38.02 43H38M8 13.86V3.42A2.42 2.42 0 0 1 10.41 1H59.7a7.48 7.48 0 0 1 7.48 7.52v32a2.42 2.42 0 0 1-2.43 2.42h-6.21M8 30v10.45a2.41 2.41 0 0 0 2.41 2.42h5.37"/>
        <path fill="#BECED6" fill-rule="nonzero" d="M8.08 15.51a6.57 6.57 0 0 1 4.78 11.09 6.58 6.58 0 0 1-9.57 0 6.59 6.59 0 0 1 4.79-11.1v.01zm0-1.51a8.08 8.08 0 1 0 0 16.16 8.08 8.08 0 0 0 0-16.16z"/>
        <path fill="#BECED6" fill-rule="nonzero" d="M8.08 15.51a6.57 6.57 0 0 1 4.78 11.09 6.58 6.58 0 0 1-9.57 0 6.59 6.59 0 0 1 4.79-11.1v.01zm0-1.51a8.08 8.08 0 1 0 0 16.16 8.08 8.08 0 0 0 0-16.16z"/>
        <path fill="#BECED6" fill-rule="nonzero" d="M7.88 25.5a5 5 0 0 1 3.92 2.05 6.59 6.59 0 0 1-7.86 0 5 5 0 0 1 3.93-2.05h.01zM7.87 24A6.75 6.75 0 0 0 2 27.85a8.08 8.08 0 0 0 11.8 0 6.78 6.78 0 0 0-5.88-3.81L7.87 24z"/>
        <path fill="#BCCED6" fill-rule="nonzero" d="M13.8 27.81a8.08 8.08 0 0 1-11.8 0A6.75 6.75 0 0 1 7.88 24a6.78 6.78 0 0 1 5.92 3.81z" opacity=".2"/>
        <path fill="#BECED6" fill-rule="nonzero" d="M7.7 18.5a1.19 1.19 0 1 1-1.19 1.18A1.18 1.18 0 0 1 7.7 18.5zm0-1.5a2.69 2.69 0 1 0 2.68 2.68c0-1.48-1.2-2.68-2.68-2.68z"/>
        <circle cx="7.69" cy="19.69" r="2.69" fill="#BCCED6" fill-rule="nonzero" opacity=".2"/>
        <path fill="#BECED6" fill-rule="nonzero" d="M60.06 1.5a6.59 6.59 0 0 1 6.58 6.58 6.58 6.58 0 1 1-13.15 0 6.58 6.58 0 0 1 6.57-6.58zm0-1.5a8.09 8.09 0 1 0 8.12 8.08A8.07 8.07 0 0 0 60.1 0h-.04z"/>
        <g fill-rule="nonzero" opacity=".2">
            <path fill="#BCCED6" d="M60.33 15.66a7.33 7.33 0 0 1 0-14.66 7.34 7.34 0 0 1 7.34 7.33 7.35 7.35 0 0 1-7.34 7.33z"/>
            <path fill="#BCCED6" d="M60.06 1.5a6.59 6.59 0 0 1 6.58 6.58 6.58 6.58 0 1 1-13.15 0 6.58 6.58 0 0 1 6.57-6.58zm0-1.5a8.09 8.09 0 1 0 8.12 8.08A8.07 8.07 0 0 0 60.1 0h-.04z"/>
            <path fill="#BECED6" d="M60.06 1.5a6.59 6.59 0 0 1 6.58 6.58 6.58 6.58 0 1 1-13.15 0 6.58 6.58 0 0 1 6.57-6.58zm0-1.5a8.09 8.09 0 1 0 8.12 8.08A8.07 8.07 0 0 0 60.1 0h-.04z"/>
        </g>
        <path stroke="#BCCED6" stroke-linecap="round" stroke-width="1.5" d="M22 12h18.31M22 20h32.06M22 25h32.06M22 29h18.31M56 7.93l3.54 3.54L69.02 2"/>
    </g>
</svg>
