<svg xmlns="http://www.w3.org/2000/svg" viewBox="0 0 56 70"><defs><style>.cls-1,.cls-2{fill:#bcced6;}.cls-2{opacity:0.2;}</style></defs><title>Asset 3</title><g id="Layer_2" data-name="Layer 2"><g id="Layer_1-2" data-name="Layer 1"><path class="cls-1" d="M47.2,14A19.78,19.78,0,0,1,29.55,3.09L28,0,26.45,3.09A19.72,19.72,0,0,1,8.81,14H0v2.31A62.1,62.1,0,0,0,6.85,44.68a64.62,64.62,0,0,0,20.71,25l.36.27L28,70A64.72,64.72,0,0,0,49.39,44.16a.94.94,0,0,0,.1-.21A61.65,61.65,0,0,0,56,16.37V14Zm7.4,2.35a60.56,60.56,0,0,1-6.36,27l-.06.1v0l0,0,0,.07A63.62,63.62,0,0,1,28,68.28,63.37,63.37,0,0,1,8.12,44.08v0h0A61,61,0,0,1,1.4,16.31V15.4H8.81A21,21,0,0,0,27.71,3.72L28,3.13l.29.58A21.08,21.08,0,0,0,47.2,15.43h7.4Z"/><path class="cls-1" d="M43.39,18.19A15.87,15.87,0,0,1,29.24,9.42L28,6.94,26.76,9.42a15.8,15.8,0,0,1-14.15,8.74H5.56V20A49.85,49.85,0,0,0,11,42.76a51.86,51.86,0,0,0,16.6,20l.29.21.06,0A51.92,51.92,0,0,0,45.15,42.34a1.74,1.74,0,0,0,.08-.17,49.37,49.37,0,0,0,5.22-22.1V18.2ZM49,20.07A48.27,48.27,0,0,1,44,41.54l-.06.11v0h0l0,.06A50.61,50.61,0,0,1,28,61.33,50.58,50.58,0,0,1,12.31,42.16v0A48.6,48.6,0,0,1,7,20v-.45h5.66A17.1,17.1,0,0,0,28,10.07a17.18,17.18,0,0,0,15.39,9.52H49Z"/><path class="cls-1" d="M19.6,32.2v14H36.4v-14ZM35,44.8H21V33.6H35Z"/><path class="cls-1" d="M28.7,21.7H27.3A6.3,6.3,0,0,0,21,28v5.6H35V28A6.3,6.3,0,0,0,28.7,21.7ZM22.4,32.2V28a4.91,4.91,0,0,1,4.9-4.9h1.4A4.91,4.91,0,0,1,33.6,28v4.2Z"/><rect class="cls-1" x="27.3" y="37.8" width="1.4" height="5.6" rx="0.7" ry="0.7"/><path class="cls-1" d="M28,35a2.1,2.1,0,0,0-.7,4.07,2,2,0,0,0,1.4,0A2.1,2.1,0,0,0,28,35Zm0,2.8a.7.7,0,1,1,.7-.7A.7.7,0,0,1,28,37.8Z"/><path class="cls-2" d="M35,32.2V28a6.3,6.3,0,0,0-6.3-6.3H27.3A6.3,6.3,0,0,0,21,28v4.2H19.6v14H36.4v-14ZM22.4,28a4.91,4.91,0,0,1,4.9-4.9h1.4A4.91,4.91,0,0,1,33.6,28v4.2H22.4ZM28,37.8a.7.7,0,1,1,.7-.7A.7.7,0,0,1,28,37.8Z"/><path class="cls-2" d="M47.2,14A19.78,19.78,0,0,1,29.55,3.09L28,0,26.45,3.09A19.72,19.72,0,0,1,8.81,14H0v2.31A62.1,62.1,0,0,0,6.85,44.68a64.62,64.62,0,0,0,20.71,25l.36.27L28,70A64.72,64.72,0,0,0,49.39,44.16a.94.94,0,0,0,.1-.21A61.65,61.65,0,0,0,56,16.37V14ZM12.31,42.16v0A48.6,48.6,0,0,1,7,20v-.45h5.66A17.1,17.1,0,0,0,28,10.07a17.18,17.18,0,0,0,15.39,9.52H49v.47A48.27,48.27,0,0,1,44,41.54l-.06.11v0h0l0,.06A50.61,50.61,0,0,1,28,61.33,50.58,50.58,0,0,1,12.31,42.16Z"/></g></g></svg>