<svg xmlns="http://www.w3.org/2000/svg" viewBox="0 0 68.58 68.58"><defs><style>.cls-1,.cls-2{fill:#bcced6;}.cls-1{opacity:0.2;}.cls-3{fill:none;stroke:#242935;stroke-miterlimit:10;stroke-width:1.37px;}</style></defs><title>Asset 2</title><g id="Layer_2" data-name="Layer 2"><g id="Layer_1-2" data-name="Layer 1"><polygon class="cls-1" points="58.1 2.69 65.74 10.54 67.5 8.85 67.27 3.88 63.45 0.8 59.05 1.14 58.1 2.69"/><rect class="cls-1" x="28.81" y="-5.98" width="10.96" height="80.54" transform="translate(-14.2 34.29) rotate(-45)"/><path class="cls-2" d="M34.27,42l-1,1L14.06,62.24l-.26.25-1.07.36L2.17,66.36,5.68,55.8,6,54.73l.26-.25L25.54,35.23l1-1-1-1-1,1L4.84,54h0l-.23.71L0,68.53l13.82-4.6.71-.23h0L34.27,44l1-1ZM66.52,2A7,7,0,0,0,64.25.5,6.88,6.88,0,0,0,56.82,2L34.26,24.57l-1,1,1,1,1-1L57.78,3l.1-.09,0,0,.18-.17a5.47,5.47,0,0,1,3.57-1.32A5.38,5.38,0,0,1,65,2.53a4,4,0,0,1,.52.45A4,4,0,0,1,66,3.5a5.47,5.47,0,0,1-.16,6.92l-.1.12-.14.15,0,.05L43,33.3l-1,1,1,1,1-1L66.52,11.71A6.86,6.86,0,0,0,66.52,2Z"/><polygon class="cls-2" points="30.88 38.63 29.91 39.6 10.18 59.33 9.2 58.35 28.93 38.62 29.91 37.66 30.88 38.63"/><polygon class="cls-2" points="61.48 6.07 62.46 7.04 61.49 8.02 39.6 29.91 38.63 30.88 37.66 29.91 38.62 28.93 60.52 7.04 61.48 6.07"/><polygon class="cls-2" points="13.81 63.93 12.73 62.85 5.68 55.8 4.6 54.71 4.83 54.01 4.83 54 5.33 53.51 6.3 54.47 9.69 57.87 10.66 58.84 14.06 62.24 15.02 63.2 14.53 63.7 14.52 63.7 13.81 63.93"/><path class="cls-3" d="M16.23,23.38"/><path class="cls-3" d="M16.23,70"/><path class="cls-2" d="M26.51,34.26l-1,1,3.39,3.39.49.49,1-1Zm0,0-1,1,3.39,3.39,1-1ZM9.69,0,0,9.69,24.57,34.26l1,1,3.39,3.39.49.49.49.49L33.3,43l1,1L58.89,68.58l9.69-9.69ZM26.51,34.26l-1-1L1.94,9.69,9.69,1.94l23.6,23.6,1,1L66.64,58.89l-7.75,7.75Zm0,0-1,1,3.39,3.39,1-1Zm0,0-1,1,3.39,3.39.49.49,1-1Z"/><polygon class="cls-2" points="65.85 10.44 65.74 10.54 65.6 10.69 64.88 11.4 61.49 8.02 60.52 7.04 57.13 3.65 57.88 2.89 57.92 2.86 58.09 2.68 58.1 2.69 61.48 6.07 62.46 7.04 65.85 10.44"/><rect class="cls-2" x="9.17" y="7.07" width="6.85" height="1.37" transform="translate(26.99 4.33) rotate(135)"/><rect class="cls-2" x="57.39" y="55.28" width="6.85" height="1.37" transform="translate(143.39 52.54) rotate(135)"/><rect class="cls-2" x="43.61" y="41.51" width="6.85" height="1.37" transform="translate(110.13 38.77) rotate(135)"/><rect class="cls-2" x="29.84" y="27.73" width="6.85" height="1.37" transform="translate(76.88 24.99) rotate(135)"/><rect class="cls-2" x="22.95" y="20.84" width="6.85" height="1.37" transform="translate(60.25 18.1) rotate(135)"/><rect class="cls-2" x="36.72" y="34.62" width="6.85" height="1.37" transform="translate(93.5 31.88) rotate(135)"/><rect class="cls-2" x="50.5" y="48.39" width="6.85" height="1.37" transform="translate(126.76 45.65) rotate(135)"/><rect class="cls-2" x="16.06" y="13.96" width="6.85" height="1.37" transform="translate(43.62 11.21) rotate(135)"/><polygon class="cls-1" points="5.68 55.8 2.17 66.36 12.73 62.85 5.68 55.8"/></g></g></svg>