<svg id="Warstwa_1" data-name="Warstwa 1" xmlns="http://www.w3.org/2000/svg" viewBox="0 0 50 50"><defs><style>.cls-1,.cls-3{fill:none;stroke:#b9cdd5;stroke-miterlimit:10;stroke-width:1.5px;}.cls-2{fill:#bcced6;}.cls-3{stroke-linecap:round;}.cls-4{fill:#b9cdd5;}</style></defs><title>collaboration</title><g id="Layer_2" data-name="Layer 2"><g id="Layer_1-2" data-name="Layer 1-2"><circle class="cls-1" cx="44.43" cy="35.58" r="4.58"/><path class="cls-1" d="M40.1,35.58H2.81A1.87,1.87,0,0,1,1,33.66H1V9.12A1.87,1.87,0,0,1,2.81,7.2h40a1.87,1.87,0,0,1,1.83,1.91h0V30.79"/><circle class="cls-2" cx="44.55" cy="35.66" r="1.7"/><circle class="cls-3" cx="11.97" cy="21.49" r="7.15"/><path class="cls-3" d="M7.67,26.23a5.12,5.12,0,0,1,8.61,0"/><path class="cls-4" d="M12,18.13a1,1,0,1,1-1,1,1,1,0,0,1,1-1m0-1.5a2.48,2.48,0,1,0,2.48,2.48h0A2.48,2.48,0,0,0,12,16.63Z"/><line class="cls-3" x1="23.96" y1="16.49" x2="38.85" y2="16.49"/><line class="cls-3" x1="23.96" y1="26.49" x2="38.85" y2="26.49"/><line class="cls-3" x1="23.96" y1="21.49" x2="34.51" y2="21.49"/></g></g></svg>