<svg xmlns="http://www.w3.org/2000/svg" width="18" height="20" viewBox="0 0 18 20">
    <g fill="#8B98A9" fill-rule="nonzero">
        <path d="M3.574 1.174a2.435 2.435 0 0 0-2.365 0l8.695 8.043 2.93-2.93-9.26-5.113zM.33 2A2.27 2.27 0 0 0 0 3.174v14.522c0 .4.109.794.313 1.139l8.765-8.765L.33 2zM16.73 8.435l-2.817-1.54-3.14 3.14 3.844 3.548 2.087-1.157a2.26 2.26 0 0 0 0-3.991h.026zM9.957 10.878L1.165 19.67a2.47 2.47 0 0 0 1.226.33c.415-.002.822-.11 1.183-.313l9.974-5.496-3.591-3.313z"/>
    </g>
</svg>
