<svg xmlns="http://www.w3.org/2000/svg" width="13" height="20" viewBox="0 0 13 20">
    <path fill="#8B98A9" fill-rule="nonzero" d="M11.944.003L9.202 0c-3.08 0-5.07 1.933-5.07 4.922v2.27H1.379a.42.42 0 0 0-.434.408v3.288c0 .225.194.407.432.407h2.755v8.297a.42.42 0 0 0 .432.408H8.16a.42.42 0 0 0 .43-.408v-8.297h3.224a.42.42 0 0 0 .43-.407l.001-3.288a.398.398 0 0 0-.126-.288.443.443 0 0 0-.305-.12H8.59V5.267c0-.925.234-1.395 1.507-1.395h1.847a.42.42 0 0 0 .43-.409V.412a.42.42 0 0 0-.429-.409h-.001z"/>
</svg>
