<svg xmlns="http://www.w3.org/2000/svg" height="13" width="15" viewBox="0 0 12 11">
    <path fill="#FFF" fill-rule="nonzero" d="M12 6.744V11H9.428V7.03c0-.998-.372-1.68-1.303-1.68-.71 0-1.134.46-1.32.903-.067.16-.085.38-.085.602V11H4.147s.035-6.725 0-7.422H6.72V4.63l-.017.024h.017V4.63c.342-.505.952-1.227 2.318-1.227C10.731 3.403 12 4.464 12 6.744zM1.456 0C.576 0 0 .554 0 1.282c0 .713.559 1.283 1.422 1.283h.017c.897 0 1.455-.57 1.455-1.283C2.877.554 2.336 0 1.456 0zM.153 11h2.572V3.578H.153V11z"/>
</svg>
