<svg xmlns="http://www.w3.org/2000/svg" width="70" height="70" viewBox="0 0 70 70">
    <g fill="#BBCED6" fill-rule="nonzero" transform="translate(-1)">
        <path d="M45.1 70a.7.7 0 0 1-.7-.7V56c-.08-3 1.36-6.16 3.18-10.11 2.2-4.77 4.93-10.7 5.77-18.66a.7.7 0 1 1 1.39.15c-.86 8.19-3.65 14.24-5.89 19.1-1.75 3.79-3.13 6.78-3.06 9.51V69.3a.7.7 0 0 1-.69.7zM31.53 0h1.07a21.24 21.24 0 0 0-3 1.46C18.09 2.57 8.7 13.15 8.7 25.55a.7.7 0 0 1-.06.27c-3.57 8.67-5.33 13.59-6 15.48h6.2a.7.7 0 0 1 .7.7v12.6a2.11 2.11 0 0 0 2.1 2.1h7a3.5 3.5 0 0 1 3.5 3.5v9.1a.7.7 0 0 1-1.4 0v-9.1a2.11 2.11 0 0 0-2.1-2.1h-7a3.5 3.5 0 0 1-3.5-3.5V42.7H1.7a.69.69 0 0 1-.7-.91s1.57-5 6.26-16.38C7.38 11.62 18.44 0 31.53 0z"/>
        <path d="M70.86 42.53a.68.68 0 0 1-.56.29h-6.48V54.6a3.5 3.5 0 0 1-3.5 3.5h-7a2.11 2.11 0 0 0-2.1 2.1v9.1a.7.7 0 0 1-1.4 0v-9.1a3.5 3.5 0 0 1 3.5-3.5h7a2.11 2.11 0 0 0 2.1-2.1V42.12a.7.7 0 0 1 .7-.7h6.21c-.64-1.91-2.39-6.9-6-15.6a.7.7 0 0 1-.06-.27C63.3 12.46 52.84 1.4 40.46 1.4a19.35 19.35 0 0 0-3.14.25c-.45.07-.88.15-1.32.25-10 2.31-17.5 12.19-17.5 24a.7.7 0 1 1-1.4 0c0-11.3 6.56-20.9 15.69-24.46A19.74 19.74 0 0 1 36 .48 20.87 20.87 0 0 1 40.46 0C53.55 0 64.62 11.62 64.7 25.41c4.7 11.42 6.25 16.45 6.27 16.5a.7.7 0 0 1-.11.62z"/>
        <path d="M44.07 18.95l-1 1c.266.401.494.826.68 1.27l1.06-1a9.58 9.58 0 0 0-.74-1.27zm1.29 2.65l-1.14 1.14a8.55 8.55 0 0 1 .18 1.76 8.42 8.42 0 1 1-2.2-5.66l1-1a9.83 9.83 0 1 0 2.16 3.75v.01z"/>
        <path d="M36 29l-5.39-6.16a.7.7 0 0 1 1.05-.92L36 27l12.8-12.79a.707.707 0 1 1 1 1L36 29z"/>
        <circle cx="35.97" cy="24.45" r="9.79" opacity=".2"/>
    </g>
</svg>
