<svg xmlns="http://www.w3.org/2000/svg" width="7" height="12" viewBox="0 0 7 12">
    <path fill="#FFF" fill-rule="nonzero" d="M6.599.002L4.954 0C3.106 0 1.912 1.16 1.912 2.953v1.362H.26A.252.252 0 0 0 0 4.56v1.973c0 .135.116.244.259.244h1.653v4.978c0 .136.116.245.259.245h2.158c.142 0 .258-.11.258-.245V6.777h1.934c.143 0 .258-.11.258-.244L6.78 4.56a.239.239 0 0 0-.076-.173.266.266 0 0 0-.183-.072H4.587V3.16c0-.555.14-.837.904-.837h1.108c.142 0 .258-.11.258-.245V.247A.252.252 0 0 0 6.6.002z"/>
</svg>
