<svg xmlns="http://www.w3.org/2000/svg" viewBox="0 0 57.4 70"><defs><style>.cls-1,.cls-2{fill:#bcced6;}.cls-2{opacity:0.2;}</style></defs><title>Asset 1</title><g id="Layer_2" data-name="Layer 2"><g id="Layer_1-2" data-name="Layer 1"><path class="cls-1" d="M50.4,14a.73.73,0,0,1-.75.7H16.15a.7.7,0,1,1,0-1.4h33.5A.73.73,0,0,1,50.4,14Z"/><path class="cls-1" d="M42.7,21a.7.7,0,0,1-.7.7H22.4a.7.7,0,0,1,0-1.4H42A.7.7,0,0,1,42.7,21Z"/><path class="cls-1" d="M43.4,53.9a.7.7,0,0,1-.7.7H23.1a.7.7,0,1,1,0-1.4H42.7A.7.7,0,0,1,43.4,53.9Z"/><circle class="cls-1" cx="16.45" cy="3.85" r="1.05"/><circle class="cls-1" cx="19.95" cy="3.85" r="1.05"/><circle class="cls-1" cx="23.45" cy="3.85" r="1.05"/><rect class="cls-1" x="9.8" y="6.3" width="46.2" height="1.4"/><path class="cls-1" d="M49,45.64l0-.06-.78-1.13L37.8,30.8l-9,11.65L27.9,43.7l-1.74,2.5-1,1.4H44.8c1.41,0,3.91-.53,4.9-1.4C49.9,46,48.87,45.84,49,45.64Zm-21.17.56L28.72,45l.86-1.25L37.8,33.26l9.4,12.19.52.76Z"/><path class="cls-1" d="M31.18,46.2H21.47l4-6.22L27.9,43.7,28.72,45l.86-1.25-.82-1.27L25.49,37.4,19.9,46.05l-.1.15-.69,1.07A5.6,5.6,0,0,0,21,47.6H32.08Z"/><path class="cls-1" d="M29.4,30.8a2.8,2.8,0,1,0,2.8,2.8A2.8,2.8,0,0,0,29.4,30.8Zm0,4.2a1.4,1.4,0,1,1,1.4-1.4A1.4,1.4,0,0,1,29.4,35Z"/><path class="cls-1" d="M15.4,27.3V47.6h35V27.3Zm1.4,18.9V28.7H49V46.2Z"/><path class="cls-2" d="M15.4,27.3V47.6h35V27.3Zm1.4,1.4H49V45.58l-.78-1.13L37.8,30.8l-9,11.65L25.49,37.4,19.9,46.05l-.1.15h-3Z"/><path class="cls-1" d="M50.4,60.2v1.4h1.4V60.2Zm0,4.2v2.8A1.4,1.4,0,0,1,49,68.6H2.8a1.4,1.4,0,0,1-1.4-1.4V9.1A1.4,1.4,0,0,1,2.8,7.7H5.6V6.3H2.8A2.81,2.81,0,0,0,0,9.1V67.2A2.81,2.81,0,0,0,2.8,70H49a2.81,2.81,0,0,0,2.8-2.8V64.4ZM8.4,6.3V7.7H9.8V6.3Z"/><path class="cls-1" d="M8.4,4.2V8.4H9.8V4.2Zm2.8,56a1.4,1.4,0,0,1-1.4-1.4V4.2H8.4V58.8a2.81,2.81,0,0,0,2.8,2.8H47.6V60.2Zm0,0a1.4,1.4,0,0,1-1.4-1.4V4.2H8.4V58.8a2.81,2.81,0,0,0,2.8,2.8H50.4V60.2Zm0,0a1.4,1.4,0,0,1-1.4-1.4V4.2H8.4V58.8a2.81,2.81,0,0,0,2.8,2.8H50.4V60.2ZM56.7,1a2.78,2.78,0,0,0-2.1-1H11.2A2.81,2.81,0,0,0,8.4,2.8v56a2.81,2.81,0,0,0,2.8,2.8H54.6a2.81,2.81,0,0,0,2.8-2.8V2.8A2.77,2.77,0,0,0,56.7,1ZM56,58.8a1.4,1.4,0,0,1-1.4,1.4H11.2a1.4,1.4,0,0,1-1.4-1.4V2.8a1.4,1.4,0,0,1,1.4-1.4H54.6A1.4,1.4,0,0,1,56,2.8ZM11.2,60.2a1.4,1.4,0,0,1-1.4-1.4V4.2H8.4V58.8a2.81,2.81,0,0,0,2.8,2.8H50.4V60.2ZM8.4,4.2V7.7H9.8V4.2Zm2.8,56a1.4,1.4,0,0,1-1.4-1.4V4.2H8.4V58.8a2.81,2.81,0,0,0,2.8,2.8H47.6V60.2Z"/><path class="cls-1" d="M53.2,60.2V63a1.4,1.4,0,0,1-1.4,1.4H7A1.4,1.4,0,0,1,5.6,63V5.6A1.4,1.4,0,0,1,7,4.2H9.8V2.8H7A2.81,2.81,0,0,0,4.2,5.6V63A2.81,2.81,0,0,0,7,65.8H51.8A2.81,2.81,0,0,0,54.6,63V60.2Z"/><path class="cls-2" d="M56.7,1V6.3H8.4V2.8A2.81,2.81,0,0,1,11.2,0H54.6A2.78,2.78,0,0,1,56.7,1Z"/></g></g></svg>