<svg xmlns="http://www.w3.org/2000/svg" width="70" height="70" viewBox="0 0 70 70">
    <g fill="none" fill-rule="evenodd">
        <path fill="#BCCED6" fill-rule="nonzero" d="M61.42.12a8.58 8.58 0 0 0-7.79 12.15c.1.21.21.42.32.63.11.21.24.4.37.59a8.46 8.46 0 0 0 1.74 1.89c.404.318.832.606 1.28.86a8.62 8.62 0 0 0 8.17 0 10.22 10.22 0 0 0 1.28-.86A8.57 8.57 0 0 0 61.42.12zm4.88 13.81a6.08 6.08 0 0 1-1.14.88 6.84 6.84 0 0 1-1.15.57 7.06 7.06 0 0 1-5.17 0 6.84 6.84 0 0 1-1.15-.57 6.08 6.08 0 0 1-1.14-.88 6.39 6.39 0 0 1-1-1.14 5.94 5.94 0 0 1-.38-.59 5.12 5.12 0 0 1-.31-.62 7.18 7.18 0 1 1 11.44 2.35zM56.52 42.93a13.44 13.44 0 0 0-10.13 4.6l-.46.56-.42.56c-.33.474-.631.968-.9 1.48-.11.21-.22.42-.31.63-.09.21-.2.43-.28.64a13.27 13.27 0 0 0-1 5 13.41 13.41 0 0 0 5.08 10.52c.399.329.82.63 1.26.9a13.49 13.49 0 0 0 14.33 0 11.1 11.1 0 0 0 1.26-.9 13.47 13.47 0 0 0-8.43-24v.01zm8 22.51a14.3 14.3 0 0 1-1.17.92 12.08 12.08 0 0 1-13.67 0 12.78 12.78 0 0 1-1.17-.92 12 12 0 0 1-3.26-13.37l.27-.65c.1-.22.21-.43.31-.63a13 13 0 0 1 .92-1.47c.14-.19.28-.38.43-.56a12.07 12.07 0 1 1 17.35 16.68h-.01zM32.77 25.75l-.37-.59-.4-.58a17.65 17.65 0 1 0-3.3 24.09 17.38 17.38 0 0 0 3.4-3.61c.14-.2.28-.4.4-.59.12-.19.26-.39.37-.6a17 17 0 0 0 .81-1.52c.1-.22.2-.43.28-.65a6.47 6.47 0 0 0 .26-.66 17.44 17.44 0 0 0 1.1-6.16 17.64 17.64 0 0 0-2.55-9.13zM33 40.38a6 6 0 0 1-.26.66c-.08.21-.17.43-.27.65a16.9 16.9 0 0 1-.8 1.52l-.19.29a15.89 15.89 0 0 1-3.15 3.67c-.15.14-.31.27-.47.4-.16.13-.46.36-.7.53l-.19.14-.19.13a15.77 15.77 0 0 1-2.92 1.56c-.2.09-.38.16-.58.23l-.6.2c-.16.05-.33.11-.51.15l-.19.06-.39.1-.59.13c-.17 0-.34.07-.52.09-.18.02-.24 0-.37.06l-.56.08-.63.06H16.35l-.61-.09h-.56l-.37-.06a5.12 5.12 0 0 1-.54-.1 10.2 10.2 0 0 1-1.09-.27l-.51-.15-.59-.2c-.2-.07-.39-.14-.59-.23a15.68 15.68 0 0 1-2.91-1.56l-.19-.13-.19-.14c-.24-.17-.47-.35-.7-.53a6 6 0 0 1-.48-.4 16.25 16.25 0 1 1 23.74-21.9l.41.58c.13.2.26.39.38.59A16.3 16.3 0 0 1 33 40.38z"/>
        <path fill="#BCCED6" fill-rule="nonzero" d="M17.48 25.76a5.41 5.41 0 1 0 5.41 5.4 5.4 5.4 0 0 0-5.41-5.4zm0 9.41a4 4 0 1 1 0-8 4 4 0 0 1 0 8zM28.29 47.18c-1.61-4.93-5.76-8.45-10.64-8.45-4.88 0-9.02 3.52-10.65 8.45-.15.48-.29 1-.4 1.49a17.67 17.67 0 0 0 22.07 0 12.08 12.08 0 0 0-.38-1.49zm-1.17.93l-.19.14-.19.13a15.77 15.77 0 0 1-2.92 1.56c-.2.09-.38.16-.58.23l-.6.2-.51.15-.19.06-.39.1-.55.12c-.17 0-.34.07-.52.09-.18.02-.24 0-.37.06l-.56.08-.63.06H16.35l-.61-.09h-.56l-.37-.06a5.12 5.12 0 0 1-.54-.1 10.2 10.2 0 0 1-1.09-.27l-.51-.15-.59-.2c-.2-.07-.39-.14-.59-.23a15.68 15.68 0 0 1-2.91-1.56l-.19-.13a1.33 1.33 0 0 1-.19-.14c1.33-4.73 5.11-8 9.45-8 4.34 0 8.14 3.25 9.47 8v-.05zM61.42 4.26a2.63 2.63 0 1 0 0 5.26 2.63 2.63 0 0 0 0-5.26zm0 3.85a1.23 1.23 0 1 1 0-2.46 1.23 1.23 0 0 1 0 2.46zM66.3 13.93a5.21 5.21 0 0 0-9.75 0 6.35 6.35 0 0 0-.49 1.45h2.78a6.84 6.84 0 0 1-1.15-.57 3.87 3.87 0 0 1 7.47 0 6.84 6.84 0 0 1-1.15.57h2.78a6.35 6.35 0 0 0-.49-1.45zm-1 1.45a3.77 3.77 0 0 0-.18-.57 6.84 6.84 0 0 1-1.15.57 7.06 7.06 0 0 1-5.17 0 6.84 6.84 0 0 1-1.15-.57 5.44 5.44 0 0 0-.19.57 7.7 7.7 0 0 0-.16.86 8.62 8.62 0 0 0 8.17 0 6 6 0 0 0-.13-.86h-.04zM56.52 49.44a4.1 4.1 0 0 0-3.33 1.71 3.79 3.79 0 0 0-.38.6 4.73 4.73 0 0 0-.25.66 4.07 4.07 0 0 0-.17 1.16 4.13 4.13 0 1 0 4.13-4.13zm0 6.86a2.74 2.74 0 0 1-2.73-2.73 2.61 2.61 0 0 1 .05-.48 2.49 2.49 0 0 1 .21-.67c.102-.212.23-.41.38-.59a2.73 2.73 0 1 1 2.09 4.48v-.01zM64.53 65.44a8.75 8.75 0 0 0-8-6.09 8.75 8.75 0 0 0-8 6.09 12 12 0 0 0-.42 1.48c.399.329.82.63 1.26.9a10 10 0 0 1 .33-1.46c1-3.27 3.7-5.61 6.83-5.61s5.82 2.34 6.84 5.61a10 10 0 0 1 .33 1.46 11.1 11.1 0 0 0 1.26-.9 12 12 0 0 0-.43-1.48z"/>
        <path d="M31.17 25.86l1.22-.7L53.95 12.9l1.21-.69 1.36-.77"/>
        <path fill="#BCCED6" fill-rule="nonzero" d="M55.55 12.79l-1.23.7-21.55 12.26-1.22.7c-.12-.2-.25-.39-.38-.59l-.41-.58 1.23-.7 21.64-12.31 1.23-.69c.09.213.193.42.31.62.115.204.242.401.38.59z"/>
        <path d="M31.3 43.84l1.25.66 11.75 6.26.23.13 1 .53"/>
        <path fill="#BCCED6" fill-rule="nonzero" d="M45.84 50.79c-.1.2-.21.41-.31.63l-.27.65-1.15-.62-.11-.05-11.73-6.25-.18-.09-1.09-.57c.1-.22.19-.44.27-.65l.14-.33a2.08 2.08 0 0 0 .12-.32h.07l1.18.63 11.75 6.26.38.2.93.51z"/>
        <circle cx="61.42" cy="6.88" r="2.63" fill="#BCCED6" fill-rule="nonzero" opacity=".2"/>
        <path fill="#BCCED6" fill-rule="nonzero" d="M60.65 53.57a4.13 4.13 0 0 1-8.26 0c0-.393.058-.784.17-1.16a4.73 4.73 0 0 1 .25-.66 3.79 3.79 0 0 1 .38-.6 4.12 4.12 0 0 1 7.46 2.42z" opacity=".2"/>
        <path fill="#BCCED6" fill-rule="nonzero" d="M17.48 25.76a5.41 5.41 0 1 0 5.41 5.4 5.4 5.4 0 0 0-5.41-5.4zm0 0a5.41 5.41 0 1 0 5.41 5.4 5.4 5.4 0 0 0-5.41-5.4zm39 17.17a13.44 13.44 0 0 0-10.13 4.6l-.46.56-.42.56c-.33.474-.631.968-.9 1.48l-11.71-6.26a17 17 0 0 0 .81-1.52c.1-.22.2-.43.28-.65a6.47 6.47 0 0 0 .26-.66 17.44 17.44 0 0 0 1.1-6.16 17.64 17.64 0 0 0-2.54-9.13l21.55-12.26a8.46 8.46 0 0 0 1.74 1.89c.404.318.832.606 1.28.86a8.62 8.62 0 0 0 8.17 0 10.22 10.22 0 0 0 1.28-.86 8.57 8.57 0 1 0-13.16-3.11L32 24.58a17.65 17.65 0 1 0-3.3 24.09 17.38 17.38 0 0 0 3.4-3.61l.18.09L44 51.4a13.27 13.27 0 0 0-1 5 13.41 13.41 0 0 0 5.1 10.52c.399.329.82.63 1.26.9a13.49 13.49 0 0 0 14.33 0 11.1 11.1 0 0 0 1.26-.9 13.47 13.47 0 0 0-8.43-24l-.04.01zM54.25 8.69a7.18 7.18 0 0 1 14.35 0 7.08 7.08 0 0 1-2.3 5.24 5.21 5.21 0 0 0-9.75 0 6.39 6.39 0 0 1-1-1.14 5.94 5.94 0 0 1-.38-.59 5.12 5.12 0 0 1-.31-.62 7.12 7.12 0 0 1-.61-2.89zm-26 38.49c-1.61-4.93-5.76-8.45-10.64-8.45-4.88 0-8.98 3.52-10.61 8.45a16.25 16.25 0 1 1 23.74-21.9l.41.58c.13.2.26.39.38.59A16.3 16.3 0 0 1 33 40.38a6 6 0 0 1-.26.66c-.08.21-.17.43-.27.65a16.9 16.9 0 0 1-.8 1.52h-.07a2.08 2.08 0 0 1-.12.32 15.89 15.89 0 0 1-3.19 3.65h-.04zm36.28 18.26a8.75 8.75 0 0 0-8-6.09 8.75 8.75 0 0 0-8 6.09 12 12 0 0 1-3.26-13.37l.27-.65c.1-.22.21-.43.31-.63a13 13 0 0 1 1.35-2.03c.15-.18.31-.37.48-.55a12.07 12.07 0 1 1 16.85 17.23zM61.42 9.51a2.63 2.63 0 1 0 .02-5.26 2.63 2.63 0 0 0-.02 5.26zM17.48 25.76a5.41 5.41 0 1 0 5.41 5.4 5.4 5.4 0 0 0-5.41-5.4z" opacity=".2"/>
    </g>
</svg>
