<svg xmlns="http://www.w3.org/2000/svg" width="61" height="70" viewBox="0 0 61 70">
    <g fill="none" fill-rule="evenodd" transform="translate(1 1)">
        <path stroke="#BECED6" stroke-width="1.5" d="M50.2 7H1"/>
        <circle cx="8.05" cy="4.05" r="1.05" fill="#BCCED6" fill-rule="nonzero"/>
        <circle cx="12.05" cy="4.05" r="1.05" fill="#BCCED6" fill-rule="nonzero"/>
        <circle cx="15.05" cy="4.05" r="1.05" fill="#BCCED6" fill-rule="nonzero"/>
        <path fill="#BCCED6" fill-rule="nonzero" d="M49.75 5.96l-.5-3.56A1.42 1.42 0 0 0 47.81 1H2.14A1.42 1.42 0 0 0 .7 2.4v3.47a.7.7 0 0 0 0 1.4h48.55a.71.71 0 0 0 .72-.7c0-.36.18-.61-.22-.61z" opacity=".2"/>
        <path stroke="#BECED6" stroke-width="1.5" d="M50 50.8V64a4 4 0 0 1-4 4H4a4 4 0 0 1-4-4V4a4 4 0 0 1 4-4h42a4 4 0 0 1 4 4v30"/>
        <path fill="#BECED6" fill-rule="nonzero" d="M32.27 56.5a2 2 0 0 1 2 2v.54a2 2 0 0 1-2 2.05H17.55a2.05 2.05 0 0 1-2.05-2.05v-.54a2.05 2.05 0 0 1 2.05-2h14.72zm0-1.5H17.55A3.55 3.55 0 0 0 14 58.55v.54a3.55 3.55 0 0 0 3.55 3.55h14.72a3.54 3.54 0 0 0 3.52-3.55v-.54A3.54 3.54 0 0 0 32.25 55h.02z"/>
        <path stroke="#BCCED6" stroke-linecap="round" stroke-width="1.5" d="M21 59h9.74"/>
        <rect width="21.81" height="7.63" x="14" y="55" fill="#BCCED6" fill-rule="nonzero" opacity=".2" rx="3.54"/>
        <path stroke="#BCCED6" stroke-linecap="round" stroke-width="1.5" d="M8 14h35M15 20h18.9"/>
        <path stroke="#BCCED6" stroke-width="1.5" d="M42 34v-2M42 28v-2h-2"/>
        <path stroke="#BCCED6" stroke-dasharray="4.23" stroke-width="1.5" d="M36.26 26H13"/>
        <path stroke="#BCCED6" stroke-width="1.5" d="M10 26H8v2"/>
        <path stroke="#BCCED6" stroke-dasharray="4.2" stroke-width="1.5" d="M8 33V39.3"/>
        <path stroke="#BCCED6" stroke-width="1.5" d="M8 41v2h2"/>
        <path stroke="#BCCED6" stroke-dasharray="4.27" stroke-width="1.5" d="M15 43h6.4"/>
        <path stroke="#BCCED6" stroke-width="1.5" d="M23 43h2"/>
        <path stroke="#BECED6" stroke-width="1.5" d="M29.14 35h29.7v16.6H25V38.94"/>
        <circle cx="25.14" cy="34.14" r="4.14" stroke="#BECED6" stroke-width="1.5"/>
        <circle cx="25.14" cy="34.14" r="4.14" fill="#BCCED6" fill-rule="nonzero" opacity=".2"/>
        <circle cx="25.05" cy="34.05" r="1.05" fill="#BCCED6" fill-rule="nonzero"/>
        <path stroke="#BCCED6" stroke-linecap="round" stroke-width="1.5" d="M31 41h22.09M31 45h13.96"/>
    </g>
</svg>
