<svg xmlns="http://www.w3.org/2000/svg" width="21" height="18" viewBox="0 0 21 18">
    <path fill="#8B98A9" fill-rule="evenodd" d="M20.545 2.47c-.75.34-1.543.563-2.357.662A4.2 4.2 0 0 0 19.992.805a8.128 8.128 0 0 1-2.604 1.025A4.033 4.033 0 0 0 12.885.797a4.208 4.208 0 0 0-2.595 3.911c0 .324.035.645.107.96a11.552 11.552 0 0 1-8.46-4.405C.848 3.187 1.403 5.647 3.207 6.88a4.003 4.003 0 0 1-1.859-.525v.055c0 2.002 1.379 3.727 3.292 4.125a4.003 4.003 0 0 1-1.853.073c.536 1.714 2.076 2.887 3.833 2.922a8.107 8.107 0 0 1-6.075 1.745 11.408 11.408 0 0 0 6.288 1.892 11.45 11.45 0 0 0 8.279-3.484 12.047 12.047 0 0 0 3.395-8.49c0-.183 0-.363-.014-.545a8.455 8.455 0 0 0 2.052-2.178z"/>
</svg>
