<svg xmlns="http://www.w3.org/2000/svg" width="21" height="20" viewBox="0 0 21 20">
    <path fill="#8B98A9" fill-rule="nonzero" d="M20.455 12.073v7.094h-4.287V12.55c0-1.663-.62-2.8-2.171-2.8-1.184 0-1.89.767-2.2 1.505-.112.267-.142.633-.142 1.003v6.909H7.367s.058-11.209 0-12.37h4.288V8.55l-.028.04h.028v-.04c.57-.842 1.587-2.045 3.863-2.045 2.822 0 4.937 1.768 4.937 5.568zM2.882.833C1.415.833.455 1.757.455 2.97c0 1.188.932 2.138 2.37 2.138h.028c1.495 0 2.425-.95 2.425-2.138C5.25 1.757 4.348.833 2.882.833zM.71 19.167h4.287V6.797H.71v12.37z"/>
</svg>
