<svg id="Layer_1" data-name="Layer 1" xmlns="http://www.w3.org/2000/svg" viewBox="0 0 24.5 26.03"><defs><style>.cls-1{fill:#8B98A9;}</style></defs><title>
Buffer</title><path class="cls-1" d="M.29,6.63,12,12.29a.45.45,0,0,0,.42,0L24.21,6.63a.48.48,0,0,0,0-.88L12.46.05a.45.45,0,0,0-.42,0L.29,5.72A.5.5,0,0,0,.29,6.63Z"/><path class="cls-1" d="M.29,13.49,12,19.15a.45.45,0,0,0,.42,0l11.75-5.66a.48.48,0,0,0,0-.88l-2.47-1.2-7.87,3.77a3.75,3.75,0,0,1-1.62.35,4.2,4.2,0,0,1-1.62-.35l-7.88-3.8L.29,12.57A.51.51,0,0,0,.29,13.49Z"/><path class="cls-1" d="M24.21,19.43l-2.47-1.19L13.87,22a3.62,3.62,0,0,1-1.62.36A4.21,4.21,0,0,1,10.63,22L2.75,18.24.29,19.43a.48.48,0,0,0,0,.88L12,26a.45.45,0,0,0,.42,0l11.75-5.62A.51.51,0,0,0,24.21,19.43Z"/></svg>
