<svg xmlns="http://www.w3.org/2000/svg" width="12" height="21" viewBox="0 0 12 21">
    <path fill="#273245" fill-rule="nonzero" d="M11.498.503L8.757.5c-3.08 0-5.07 1.933-5.07 4.922v2.27H.933A.42.42 0 0 0 .5 8.1v3.288c0 .225.193.407.432.407h2.755v8.297a.42.42 0 0 0 .431.408h3.597a.42.42 0 0 0 .43-.408v-8.297h3.223a.42.42 0 0 0 .43-.407L11.8 8.1a.398.398 0 0 0-.127-.288.443.443 0 0 0-.305-.12H8.145V5.767c0-.925.233-1.395 1.507-1.395h1.846a.42.42 0 0 0 .43-.409V.912A.42.42 0 0 0 11.5.503h-.002z"/>
</svg>
