<svg xmlns="http://www.w3.org/2000/svg" width="51" height="70" viewBox="0 0 51 70">
    <g fill="none" fill-rule="evenodd" stroke="#6F4FF6" stroke-width="1.5">
        <path d="M1 49.167v-9.492c0-4.817 3.967-8.783 8.783-8.925h30.742c4.958 0 8.783 3.967 8.783 8.925v20.117c0 4.958-3.966 8.925-8.783 8.925h-30.6C4.967 68.717 1 64.75 1 59.933V49.167"/>
        <path d="M9.5 31.175v-14.45C9.5 8.225 16.3 1.142 24.8 1c8.5.142 15.442 7.083 15.442 15.725v15.158"/>
        <path stroke-linecap="round" d="M25.367 39.25c-6.375 0-12.184 3.967-14.45 9.917 2.975 7.933 11.9 12.041 19.833 8.925a15.402 15.402 0 0 0 8.925-8.925c-2.267-5.95-7.933-9.917-14.308-9.917zm0 5.95c-2.125 0-3.967 1.7-3.967 3.967 0 2.125 1.7 3.966 3.967 3.966 2.125 0 3.966-1.7 3.966-3.966 0-2.125-1.7-3.967-3.825-3.967h-.141z"/>
    </g>
</svg>
