<svg xmlns="http://www.w3.org/2000/svg" width="100" height="98" viewBox="0 0 100 98">
    <g fill="none" fill-rule="evenodd">
        <path stroke="#BCCED6" stroke-linecap="round" stroke-width="2" d="M95.7 65.4l1.4.9c.5.3.7 1 .4 1.6L84.9 94c-.2.4-.7.7-1.1.7-.1 0-.3 0-.4-.1l-7.9-2.7-2 4.2c-.2.3-.4.6-.8.7h-.3c-.2 0-.5-.1-.7-.2l-14.8-9.5c-.5-.3-.7-1-.4-1.6l16.8-34.7c.3-.6.9-.8 1.5-.6l14.7 5.1c1.2-8.8-.4-17.9-4.8-25.6C78.8 19.3 68.3 12 56.7 10c-12-2.1-24.5 1.5-33.5 9.6-9.1 8.1-14 20.2-13.3 32.3.1 1.1.2 2.2.4 3.4L25 50.2c.6-.2 1.3.1 1.5.6l16.8 34.7c.3.6.1 1.3-.5 1.6L28 96.6c-.2.1-.4.2-.7.2H27c-.3-.1-.6-.3-.8-.7l-2-4.2-7.9 2.7c-.1 0-.3.1-.4.1-.5 0-.9-.3-1.1-.7L2.2 68c-.3-.6-.1-1.3.5-1.6l1.3-.9c-1.5-4.2-2.3-8.6-2.6-13.1-.8-14.7 5.2-29.3 16.1-39.1C28.5 3.5 43.6-.8 58.1 1.7 72.2 4.1 84.9 13 92 25.4c6.9 12.1 8.2 27 3.7 40zM18.7 52.3l19.1 38.1M80.8 52.3L61.7 90.4"/>
        <path fill="#BCCED6" fill-rule="nonzero" d="M37.8 89.2L19.6 52.3l5.8-1.7 17.4 35.5-4.1 3.1zM61.6 89.2l18.2-36.9-5.9-1.7-17.3 35.5 4.1 3.1z" opacity=".2"/>
    </g>
</svg>
