<svg xmlns="http://www.w3.org/2000/svg" width="70" height="53" viewBox="0 0 70 53">
    <g fill="none" fill-rule="nonzero">
        <path fill="#BBCED6" d="M19.35 35.43a2 2 0 0 1-.22.41 3 3 0 0 1-.3.37c.11-.11.227-.214.35-.31a3 3 0 0 1 .38-.25l-.21-.22zm1 1l-.06.09a.35.35 0 0 0-.06.09A2.77 2.77 0 0 1 20 37l-.16.17a2.24 2.24 0 0 1 .78-.51l-.27-.23zm4.39 4.38l-.8-.81-.21-.2a2.42 2.42 0 0 1-.52.76l-.34.35 1 1 .34-.35.17-.16a2.39 2.39 0 0 1 .59-.36l-.23-.23zm-5.42-5.43a2 2 0 0 1-.22.41 3 3 0 0 1-.3.37c.11-.11.227-.214.35-.31a3 3 0 0 1 .38-.25l-.21-.22zm1 1l-.06.09a.35.35 0 0 0-.06.09c-.054.152-.12.3-.2.44l-.16.17a2.24 2.24 0 0 1 .78-.51l-.3-.28zm3.34 3.35a2.42 2.42 0 0 1-.52.76 4 4 0 0 1 .73-.56l-.21-.2zm1 1a4 4 0 0 1-.57.73l.17-.16a2.39 2.39 0 0 1 .59-.36l-.19-.21zm3.66 3.7l-.2-.2a2.93 2.93 0 0 1-.36.6l-.13.14a3.17 3.17 0 0 1 .57-.45l.13-.08-.01-.01zm.83.83a3.68 3.68 0 0 1-.54.69l.17-.16a2.44 2.44 0 0 1 .59-.36l-.22-.17zm-9.81-9.82a2 2 0 0 1-.22.41 3 3 0 0 1-.3.37c.11-.11.227-.214.35-.31a3 3 0 0 1 .38-.25l-.21-.22zm1 1l-.06.09a.35.35 0 0 0-.06.09A2.77 2.77 0 0 1 20 37l-.16.17a2.24 2.24 0 0 1 .78-.51l-.28-.22zm3.34 3.35a2.42 2.42 0 0 1-.52.76 4 4 0 0 1 .73-.56l-.21-.2zm1 1a4 4 0 0 1-.57.73l.17-.16a2.39 2.39 0 0 1 .59-.36l-.19-.21zm3.64 3.64l-.2-.2a2.93 2.93 0 0 1-.36.6l-.13.14a3.17 3.17 0 0 1 .57-.45l.13-.08-.01-.01zm.83.83a3.68 3.68 0 0 1-.54.69l.17-.16a2.44 2.44 0 0 1 .59-.36l-.22-.17zm-9.81-9.82a2 2 0 0 1-.22.41 3 3 0 0 1-.3.37c.11-.11.227-.214.35-.31a3 3 0 0 1 .38-.25l-.21-.22zm1 1a.69.69 0 0 0-.06.1.35.35 0 0 0-.06.09A2.77 2.77 0 0 1 20 37l-.16.17a2.11 2.11 0 0 1 .37-.3 2.75 2.75 0 0 1 .4-.22l-.27-.21zm3.35 3.36a2.42 2.42 0 0 1-.52.76 4 4 0 0 1 .73-.56l-.21-.2zm1 1a4 4 0 0 1-.57.73l.17-.16a2.39 2.39 0 0 1 .59-.36l-.19-.21zm3.36 3.36a2.93 2.93 0 0 1-.36.6l-.13.14a3.17 3.17 0 0 1 .57-.45l.12-.08-.2-.21zm1 1a3.68 3.68 0 0 1-.54.69l.15-.13a2.44 2.44 0 0 1 .59-.36l-.2-.2zm-9.81-9.82a2 2 0 0 1-.22.41 3 3 0 0 1-.3.37c.11-.11.227-.214.35-.31a3 3 0 0 1 .38-.25l-.21-.22zm0 0a2 2 0 0 1-.22.41 3 3 0 0 1-.3.37c.11-.11.227-.214.35-.31a3 3 0 0 1 .38-.25l-.21-.22zM35.69 11.2l-1.08-1.08-6.66.77L27 10l-1.67-1.68-1-1-17 17 7.31 7.31 1 1a6.51 6.51 0 0 1 1.15-.9l-.84-.85-.2-.19-4.13-4.13-2.29-2.24L9 24 24 9l.31.31 1.78 1.76 1.37 1.36 6.66-.78.55.55 1 1 1-1-.98-1zM19.12 35.85a3 3 0 0 1-.3.37c.11-.11.227-.214.35-.31a3 3 0 0 1 .38-.25l-.2-.22a2 2 0 0 1-.23.41zm.22-.41a2 2 0 0 1-.22.41 3 3 0 0 1-.3.37c.11-.11.227-.214.35-.31a3 3 0 0 1 .38-.25l-.21-.22zm9.81 9.82a3.68 3.68 0 0 1-.54.69l.15-.13a2.44 2.44 0 0 1 .59-.36l-.2-.2zm-1-1a2.93 2.93 0 0 1-.36.6l-.13.14a3.17 3.17 0 0 1 .57-.45l.12-.08-.2-.21zm-3.36-3.36a4 4 0 0 1-.57.73l.17-.16a2.39 2.39 0 0 1 .59-.36l-.19-.21zm-1-1a2.42 2.42 0 0 1-.52.76 4 4 0 0 1 .73-.56l-.21-.2zm-3.35-3.36a.69.69 0 0 0-.06.1.35.35 0 0 0-.06.09A2.77 2.77 0 0 1 20 37l-.16.17a2.11 2.11 0 0 1 .37-.3 2.75 2.75 0 0 1 .4-.22l-.17-.11zm-1-1a2 2 0 0 1-.22.41 3 3 0 0 1-.3.37c.11-.11.227-.214.35-.31a3 3 0 0 1 .38-.25l-.21-.22zm9.81 9.82a3.68 3.68 0 0 1-.54.69l.17-.16a2.44 2.44 0 0 1 .59-.36l-.22-.17zm-.93-.93l-.2-.2a2.93 2.93 0 0 1-.36.6l-.13.14a3.17 3.17 0 0 1 .57-.45l.13-.08-.01-.01zm-3.55-3.56a4 4 0 0 1-.57.73l.17-.16a2.39 2.39 0 0 1 .59-.36l-.19-.21zm-1-1a2.42 2.42 0 0 1-.52.76 4 4 0 0 1 .73-.56l-.21-.2zm-3.34-3.35l-.06.09a.35.35 0 0 0-.06.09 2.77 2.77 0 0 1-.31.3l-.16.17a2.24 2.24 0 0 1 .78-.51l-.19-.14zm-1-1a2 2 0 0 1-.22.41 3 3 0 0 1-.3.37c.11-.11.227-.214.35-.31a3 3 0 0 1 .38-.25l-.21-.22zm9.81 9.82a3.68 3.68 0 0 1-.54.69l.17-.16a2.44 2.44 0 0 1 .59-.36l-.22-.17zm-.92-.91l-.2-.2a2.93 2.93 0 0 1-.36.6l-.13.14a3.17 3.17 0 0 1 .57-.45l.13-.08-.01-.01zm-3.55-3.56a4 4 0 0 1-.57.73l.17-.16a2.39 2.39 0 0 1 .59-.36l-.19-.21zm-1-1a2.42 2.42 0 0 1-.52.76 4 4 0 0 1 .73-.56l-.21-.2zm-3.34-3.35l-.06.09a.35.35 0 0 0-.06.09 2.77 2.77 0 0 1-.31.3l-.16.17a2.24 2.24 0 0 1 .78-.51l-.19-.14zm-1-1a2 2 0 0 1-.22.41 3 3 0 0 1-.3.37c.11-.11.227-.214.35-.31a3 3 0 0 1 .38-.25l-.21-.22zm38.97-1.6l-18-18-1 1 1 1 14.49 14.46 2.53 2.53A2.892 2.892 0 0 1 53.33 39l-11-11-1 1 10.03 10a2.892 2.892 0 0 1-4.09 4.09l-1.44-1.44-8.53-8.52-1 1 8.56 8.56a2.89 2.89 0 0 1-2.08 4.89 2.89 2.89 0 0 1-2-.85l-8.15-8.2-.35-.35-1 1 7 7.07a2.89 2.89 0 0 1-4.09 4.08l-.6-.61-1-1a2.24 2.24 0 0 1-.52.78l-.34.34 1 1 .52.51a4.28 4.28 0 0 0 6.07 0 4.27 4.27 0 0 0 1.25-3 4.14 4.14 0 0 0 2.26.66A4.29 4.29 0 0 0 47 44.66a4.29 4.29 0 0 0 6.56-3.81 4.28 4.28 0 0 0 4.78-6.94l.06.01zM29.16 45.26l-.83-.82-.2-.2a2.93 2.93 0 0 1-.36.6l-.13.14-.34.34 1 1 .3-.32.17-.16a2.44 2.44 0 0 1 .59-.36l-.2-.22zm-4.39-4.39a4 4 0 0 1-.57.73l.17-.16a2.39 2.39 0 0 1 .59-.36l-.19-.21zm-1-1a2.42 2.42 0 0 1-.52.76 4 4 0 0 1 .73-.56l-.21-.2zm-3.34-3.35l-.06.09a.35.35 0 0 0-.06.09 2.77 2.77 0 0 1-.31.3l-.16.17a2.24 2.24 0 0 1 .78-.51l-.19-.14zm-1-1a2 2 0 0 1-.22.41 3 3 0 0 1-.3.37c.11-.11.227-.214.35-.31a3 3 0 0 1 .38-.25l-.21-.22zm.2.22l-.2-.22a2 2 0 0 1-.22.41 3 3 0 0 1-.3.37l-.34.35 1 1 .34-.35a2.24 2.24 0 0 1 .78-.51l-1.06-1.05zm-.2-.22a2 2 0 0 1-.22.41 3 3 0 0 1-.3.37c.11-.11.227-.214.35-.31a3 3 0 0 1 .38-.25l-.21-.22zm1 1l-.06.09a.35.35 0 0 0-.06.09 2.77 2.77 0 0 1-.31.3l-.16.17a2.24 2.24 0 0 1 .78-.51l-.19-.14zm3.34 3.35a2.42 2.42 0 0 1-.52.76 4 4 0 0 1 .73-.56l-.21-.2zm1 1a4 4 0 0 1-.57.73l.17-.16a2.39 2.39 0 0 1 .59-.36l-.19-.21zm3.55 3.56l-.2-.2a2.93 2.93 0 0 1-.36.6l-.13.14a3.17 3.17 0 0 1 .57-.45l.13-.08-.01-.01zm.83.83a3.68 3.68 0 0 1-.54.69l.17-.16a2.44 2.44 0 0 1 .59-.36l-.22-.17z"/>
        <path fill="#BBCED6" d="M19.81 31.82a3.79 3.79 0 0 0-2.69-1.11 3.69 3.69 0 0 0-1.21.19 3.74 3.74 0 0 0-.76.36 2.83 2.83 0 0 0-.5.37 1.39 1.39 0 0 0-.22.19l-.34.35-.34.34A3.8 3.8 0 0 0 16.44 39a3.76 3.76 0 0 0 2.64-1.12l.34-.34.34-.35L20 37a3.53 3.53 0 0 0 .29-.36.35.35 0 0 1 .06-.09.69.69 0 0 1 .06-.1 3.65 3.65 0 0 0 .49-1.32 3.8 3.8 0 0 0-1.06-3.34l-.03.03zm-1.67 5.08a2.41 2.41 0 1 1-3.4-3.41l.34-.33.35-.35.11-.1.06-.06a2.44 2.44 0 0 1 .59-.36 2.41 2.41 0 0 1 3.15 3.14 2 2 0 0 1-.22.41 3 3 0 0 1-.3.37l-.34.35-.34.34z"/>
        <path fill="#BBCED6" d="M24.2 36.22a3.79 3.79 0 0 0-3.34-1.06 3.65 3.65 0 0 1-.49 1.32l.2.2a2.62 2.62 0 0 1 .92-.18 2.4 2.4 0 0 1 2.22 3.33l.21.2a3.61 3.61 0 0 1 1.32-.5 3.77 3.77 0 0 0-1.04-3.31zm0 0a3.79 3.79 0 0 0-3.34-1.06 3.65 3.65 0 0 1-.49 1.32l.2.2a2.62 2.62 0 0 1 .92-.18 2.4 2.4 0 0 1 2.22 3.33l.21.2a3.61 3.61 0 0 1 1.32-.5 3.77 3.77 0 0 0-1.04-3.31zm0 0a3.79 3.79 0 0 0-4.66-.56 3 3 0 0 0-.38.25c-.123.096-.24.2-.35.31l-.34.35-.34.33a3.71 3.71 0 0 0-1.12 2.64 3.8 3.8 0 0 0 3.8 3.81 4 4 0 0 0 .65-.06 3.82 3.82 0 0 0 2-1.06l.34-.33.34-.35a4 4 0 0 0 .57-.73 3.65 3.65 0 0 0 .49-1.32 3.77 3.77 0 0 0-1-3.28zm-1.67 5.07a2.48 2.48 0 0 1-3.41 0 2.41 2.41 0 0 1-.7-1.71 2.38 2.38 0 0 1 .7-1.7l.34-.34.34-.35a2.11 2.11 0 0 1 .37-.3 2.75 2.75 0 0 1 .4-.22 2.62 2.62 0 0 1 .92-.18 2.4 2.4 0 0 1 2.22 3.33 2.42 2.42 0 0 1-.52.76l-.34.35-.32.36zm1.67-5.07a3.79 3.79 0 0 0-3.34-1.06 3.65 3.65 0 0 1-.49 1.32l.2.2a2.62 2.62 0 0 1 .92-.18 2.4 2.4 0 0 1 2.22 3.33l.21.2a3.61 3.61 0 0 1 1.32-.5 3.77 3.77 0 0 0-1.04-3.31zm0 0a3.79 3.79 0 0 0-3.34-1.06 3.65 3.65 0 0 1-.49 1.32l.2.2a2.62 2.62 0 0 1 .92-.18 2.4 2.4 0 0 1 2.22 3.33l.21.2a3.61 3.61 0 0 1 1.32-.5 3.77 3.77 0 0 0-1.04-3.31z"/>
        <path fill="#BBCED6" d="M27.6 45l.13-.14-.13.14zm1-4.39a3.81 3.81 0 0 0-2.69-1.11 3.93 3.93 0 0 0-.64.06 3.65 3.65 0 0 1-.49 1.32l.2.21a2.41 2.41 0 0 1 3.34 2.22c0 .319-.06.634-.18.93l.2.2a3.75 3.75 0 0 1 1.32-.49 3.3 3.3 0 0 0 .06-.64 3.79 3.79 0 0 0-1.13-2.71l.01.01zm-1 4.39l.13-.14-.13.14zm1-4.39a3.81 3.81 0 0 0-2.69-1.11 3.93 3.93 0 0 0-.64.06 3.65 3.65 0 0 1-.49 1.32l.2.21a2.41 2.41 0 0 1 3.34 2.22c0 .319-.06.634-.18.93l.2.2a3.75 3.75 0 0 1 1.32-.49 3.3 3.3 0 0 0 .06-.64 3.79 3.79 0 0 0-1.13-2.71l.01.01zm-1 4.37l.13-.14-.13.16v-.02zm1-4.37a3.81 3.81 0 0 0-2.69-1.11 3.93 3.93 0 0 0-.64.06 3.61 3.61 0 0 0-1.32.5 4 4 0 0 0-.73.56l-.34.35-.34.34a3.71 3.71 0 0 0-1.06 2 3.79 3.79 0 0 0 3.74 4.44c.215.001.43-.02.64-.06a3.81 3.81 0 0 0 2.05-1l.34-.34.34-.34a3.68 3.68 0 0 0 .54-.69c.253-.401.42-.85.49-1.32a3.3 3.3 0 0 0 .06-.64 3.79 3.79 0 0 0-1.09-2.76l.01.01zm-5.07 5.08a2.41 2.41 0 0 1 0-3.4l.34-.33.34-.35.17-.16a2.39 2.39 0 0 1 .59-.36 2.41 2.41 0 0 1 3.34 2.22c0 .319-.06.634-.18.93a2.93 2.93 0 0 1-.36.6l-.17.16-.34.34-.34.34a2.41 2.41 0 0 1-3.4 0l.01.01zM27.6 45l.13-.14-.13.14zm1-4.39a3.81 3.81 0 0 0-2.69-1.11 3.93 3.93 0 0 0-.64.06 3.65 3.65 0 0 1-.49 1.32l.2.21a2.41 2.41 0 0 1 3.34 2.22c0 .319-.06.634-.18.93l.2.2a3.75 3.75 0 0 1 1.32-.49 3.3 3.3 0 0 0 .06-.64 3.79 3.79 0 0 0-1.13-2.71l.01.01zm-1 4.39l.13-.14-.13.14zm1-4.39a3.81 3.81 0 0 0-2.69-1.11 3.93 3.93 0 0 0-.64.06 3.65 3.65 0 0 1-.49 1.32l.2.21a2.41 2.41 0 0 1 3.34 2.22c0 .319-.06.634-.18.93l.2.2a3.75 3.75 0 0 1 1.32-.49 3.3 3.3 0 0 0 .06-.64 3.79 3.79 0 0 0-1.13-2.71l.01.01zm-1 4.39l.13-.14-.13.14z"/>
        <path fill="#BBCED6" d="M33 45a3.83 3.83 0 0 0-3.34-1.06 3.75 3.75 0 0 0-1.32.49l-.12.08a3.17 3.17 0 0 0-.57.45l-.34.34-.34.34a3.71 3.71 0 0 0-1.12 2.64 3.76 3.76 0 0 0 1.11 2.69 3.79 3.79 0 0 0 5.38 0l.34-.34.34-.35a3.72 3.72 0 0 0 .57-.73A3.81 3.81 0 0 0 33 45zm-1 4.39l-.68.68a2.46 2.46 0 0 1-3.4 0 2.39 2.39 0 0 1-.71-1.7c0-.636.255-1.245.71-1.69l.34-.34.34-.34.15-.13a2.44 2.44 0 0 1 .59-.36 2.47 2.47 0 0 1 .92-.18 2.41 2.41 0 0 1 2.23 3.33 2.24 2.24 0 0 1-.49.73zM45.87 7.61l-1 1-1.75 1.75-4.36-.76a2.5 2.5 0 0 0-2.17.69l-.91.91-1 1 1 1 1-1 .91-.92a1.06 1.06 0 0 1 .94-.3l5.08.87 2.27-2.27.58-.58 14.91 14.92-.57.58-5.91 5.9-14.48-14.47-1 1 1 1 14.48 14.45 1-1 5.91-5.9 1-1L45.87 7.61z"/>
        <path fill="#BBCED6" d="M40.41 17.91l-3.83 3.83A8.16 8.16 0 0 1 28.67 28h-.58a1.07 1.07 0 0 1-1-1.32l2.2-9 5.41-5.48 1 1-5.16 5.16-2 8.25h.16a6.77 6.77 0 0 0 6.58-5.34v-.21l4.13-4.12 1 .97zM22.38 0L0 22.38 5.63 28l2.7-2.7 1-1 15-15 1-1L28 5.63 22.38 0zm2 7.33l-17 17L5.63 26 2 22.38 22.38 2 26 5.63l-1.62 1.7zM47.57 0l-5.64 5.64 3 3 1 1L60.79 24.5l1 1 2.58 2.58L70 22.44 47.57 0zm15.2 24.5L45.87 7.61l-2-2L47.57 2 68 22.44l-3.65 3.65-1.58-1.59z"/>
        <path fill="#BACCD5" d="M47.57 0l-5.64 5.64 3 3-1.75 1.75-4.42-.79a2.5 2.5 0 0 0-2.17.69l-.91.91-1.08-1.08-6.66.77L27 10l-1.67-1.68L28 5.63 22.38 0 0 22.38 5.63 28l2.7-2.7 6.32 6.32a1.39 1.39 0 0 0-.22.19l-.34.35-.34.34a3.8 3.8 0 0 0 2.69 6.5 4 4 0 0 0 .64-.06 3.93 3.93 0 0 0-.06.64 3.8 3.8 0 0 0 3.8 3.81 4 4 0 0 0 .65-.06 3.79 3.79 0 0 0 3.74 4.44c.215.001.43-.02.64-.06a3.76 3.76 0 0 0 1.05 3.33 3.79 3.79 0 0 0 5.38 0l.34-.34.52.51a4.28 4.28 0 0 0 6.07 0 4.27 4.27 0 0 0 1.25-3 4.14 4.14 0 0 0 2.26.66A4.29 4.29 0 0 0 47 44.66a4.29 4.29 0 0 0 6.56-3.81 4.28 4.28 0 0 0 4.78-6.94l-2.53-2.53 5.91-5.9 2.58 2.58 5.7-5.62L47.57 0zM7.35 24.32L5.63 26 2 22.38 22.38 2 26 5.63l-1.7 1.69-16.95 17zm50.06 10.59A2.889 2.889 0 0 1 53.33 39l-11-11-1 1 10.03 10a2.892 2.892 0 0 1-4.09 4.09l-1.44-1.44-8.53-8.52-1 1 8.56 8.56a2.89 2.89 0 0 1-2.08 4.89 2.89 2.89 0 0 1-2-.85l-8.15-8.2-.35-.35-1 1 7 7.07a2.89 2.89 0 0 1-4.09 4.08l-.6-.61a3.8 3.8 0 0 0-3.9-5.71 3.3 3.3 0 0 0 .06-.64 3.81 3.81 0 0 0-3.81-3.81 3.93 3.93 0 0 0-.64.06 3.8 3.8 0 0 0-4.39-4.39 3.79 3.79 0 0 0-3.74-4.44 3.69 3.69 0 0 0-1.21.19l-.2-.19-4.13-4.13-2.3-2.34 15-15 1.78 1.76 1.37 1.36 6.66-.78.55.55-5.44 5.44-2.2 9a1.07 1.07 0 0 0 1 1.32h.58a8.16 8.16 0 0 0 7.9-6.25l3.83-3.83 14.53 14.49 2.52 2.53zm5.36-10.41L45.87 7.61l-2-2L47.57 2 68 22.44l-3.65 3.65-1.58-1.59z" opacity=".2"/>
        <path fill="#BACCD5" d="M25.33 8.32L27.04 10l-.92 1.06-1.78-1.76L9.33 24.32l2.26 2.26-1.25.73-2.01-2-2.7 2.7L0 22.38 22.38 0l5.64 5.63z" opacity=".2"/>
    </g>
</svg>
