<?xml version="1.0" encoding="UTF-8"?>
<svg width="60px" height="70px" viewBox="0 0 60 70" version="1.1" xmlns="http://www.w3.org/2000/svg" xmlns:xlink="http://www.w3.org/1999/xlink">
    <!-- Generator: Sketch 49.3 (51167) - http://www.bohemiancoding.com/sketch -->
    <title>templates copy</title>
    <desc>Created with Sketch.</desc>
    <defs></defs>
    <g id="Page-1" stroke="none" stroke-width="1" fill="none" fill-rule="evenodd">
        <g id="Builder---desktop" transform="translate(-869.000000, -863.000000)">
            <g id="templates-copy" transform="translate(870.000000, 864.000000)">
                <rect id="Rectangle-path" fill="#BCCED6" fill-rule="nonzero" opacity="0.2" x="8.47" y="0.54" width="49.45" height="4.9"></rect>
                <rect id="Rectangle-path" stroke="#BCCED6" stroke-width="1.39" x="8.47" y="0" width="49.45" height="59.36" rx="1.39"></rect>
                <path d="M52.58,59.74 L52.58,62.4 C52.58,63.1731986 51.9531986,63.8 51.18,63.8 L5.67,63.8 C4.89680135,63.8 4.27,63.1731986 4.27,62.4 L4.27,4.82 C4.27,4.04680135 4.89680135,3.42 5.67,3.42 L7.77,3.42" id="Shape" stroke="#BCCED6" stroke-width="1.39"></path>
                <path d="M3.57,7.62 L1.47,7.62 C0.704544969,7.61992189 0.0809350679,8.23462308 0.07,9 L0.07,66.6 C0.07,67.3731986 0.69680135,68 1.47,68 L47,68 C47.7731986,68 48.4,67.3731986 48.4,66.6 L48.4,63.94" id="Shape" stroke="#BCCED6" stroke-width="1.39"></path>
                <path d="M8.47,5.44 L57.93,5.44" id="Shape" stroke="#BCCED6" stroke-width="1.39"></path>
                <path d="M17.84,3.42 C17.4534007,3.42 17.14,3.10659932 17.14,2.72 C17.14,2.33340068 17.4534007,2.02 17.84,2.02 C18.2265993,2.02 18.54,2.33340068 18.54,2.72 C18.54,3.10659932 18.2265993,3.42 17.84,3.42" id="Shape" fill="#BCCED6" fill-rule="nonzero"></path>
                <path d="M15,3.42 C14.6134007,3.42 14.3,3.10659932 14.3,2.72 C14.3,2.33340068 14.6134007,2.02 15,2.02 C15.3865993,2.02 15.7,2.33340068 15.7,2.72 C15.7,3.10659932 15.3865993,3.42 15,3.42" id="Shape" fill="#BCCED6" fill-rule="nonzero"></path>
                <path d="M12.25,3.42 C11.9660016,3.42405753 11.7077032,3.25610466 11.5961986,2.99488008 C11.4846941,2.7336555 11.5420896,2.43094768 11.7414772,2.22867037 C11.9408648,2.02639306 12.2427155,1.96464826 12.5055174,2.07238282 C12.7683192,2.18011738 12.939971,2.43597264 12.94,2.72 C12.9400391,3.10272752 12.6326885,3.41453247 12.25,3.42" id="Shape" fill="#BCCED6" fill-rule="nonzero"></path>
                <rect id="Rectangle-path" stroke="#BCCED6" stroke-width="1.39" x="13.05" y="25.04" width="40.23" height="22.39"></rect>
                <path d="M16.4,12.53 L50,12.53" id="Shape" stroke="#BCCED6" stroke-width="1.27" stroke-linecap="round" stroke-linejoin="round"></path>
                <path d="M23.86,18.83 L42.53,18.83" id="Shape" stroke="#BCCED6" stroke-width="1.27" stroke-linecap="round" stroke-linejoin="round"></path>
                <path d="M24.71,53.38 L42.16,53.38" id="Shape" stroke="#BCCED6" stroke-width="1.39" stroke-linecap="round" stroke-linejoin="round"></path>
                <polygon id="Shape" stroke="#BCCED6" stroke-width="1.39" stroke-linecap="round" points="53.28 38.86 44.36 29.94 26.87 47.43 53.03 47.43 53.28 47.43"></polygon>
                <polygon id="Shape" fill="#BCCED6" fill-rule="nonzero" opacity="0.2" points="53.28 38.86 44.36 29.94 26.87 47.43 53.03 47.43 53.28 47.43"></polygon>
                <polygon id="Shape" fill="#BCCED6" fill-rule="nonzero" opacity="0.2" points="18.91 47.43 29.41 36.93 33.39 40.91 26.87 47.43"></polygon>
                <polygon id="Shape" stroke="#BCCED6" stroke-width="1.39" points="18.91 47.43 29.41 36.93 33.39 40.91 26.87 47.43"></polygon>
                <circle id="Oval" stroke="#BCCED6" stroke-width="1.39" stroke-linecap="round" stroke-linejoin="round" cx="23.48" cy="31.68" r="2.55"></circle>
                <circle id="Oval" fill="#BCCED6" fill-rule="nonzero" opacity="0.2" cx="23.48" cy="31.68" r="2.55"></circle>
                <path d="M52.58,59.36 L52.58,62.36 C52.58,63.1331986 51.9531986,63.76 51.18,63.76 L48.38,63.76 L48.38,66.56 C48.3907473,66.9347394 48.2507497,67.2981336 47.9913589,67.5688023 C47.7319681,67.839471 47.3748574,67.9947985 47,68 L1.47,68 C0.69680135,68 0.07,67.3731986 0.07,66.6 L0.07,9 C0.07,8.62869691 0.217499577,8.27260144 0.480050506,8.01005051 C0.742601436,7.74749958 1.09869691,7.6 1.47,7.6 L4.27,7.6 L4.27,4.82 C4.27,4.04680135 4.89680135,3.42 5.67,3.42 L8.47,3.42 L8.47,58 C8.47,58.7676758 9.0923242,59.39 9.86,59.39 L52.58,59.36 Z" id="Shape" fill="#BBCDD6" fill-rule="nonzero" opacity="0.2"></path>
            </g>
        </g>
    </g>
</svg>