<svg xmlns="http://www.w3.org/2000/svg" width="64" height="70" viewBox="0 0 64 70">
    <g fill="none" fill-rule="evenodd">
        <path fill="#BCCED6" fill-rule="nonzero" d="M42.49 61.62h18.23c.103.01.207.01.31 0 .414-.1.75-.396.9-.789a.974.974 0 0 0 .07-.454V3.59a1.062 1.062 0 0 0-.07-.296 1.284 1.284 0 0 0-.9-.789 1.572 1.572 0 0 0-.31 0H18.18c-1.1 0-1.31 0-1.69.257A1.235 1.235 0 0 0 16 3.825v39.95h-1.5V3.825a2.736 2.736 0 0 1 1.1-2.297c.356-.281.78-.468 1.23-.542.45-.03.9-.03 1.35 0h41.87c.449-.025.899.005 1.34.089.89.218 1.614.851 1.94 1.695.155.42.216.867.18 1.312v55.93c.035.442-.026.886-.18 1.302a2.797 2.797 0 0 1-1.94 1.706 6.176 6.176 0 0 1-1.39.079H42.49v-1.48z"/>
        <path stroke="#BCCED6" stroke-width="1.5" d="M15.77 7.887h46.9"/>
        <path stroke="#BCCED6" stroke-linecap="round" stroke-width="1.5" d="M21.37 14.789h35M29.07 21.69h18.9"/>
        <path stroke="#BCCED6" stroke-width="1.5" d="M42.3 49.986h2"/>
        <path stroke="#BCCED6" stroke-dasharray="3.16" stroke-width="1.5" d="M47.46 49.986h4.74"/>
        <path stroke="#BCCED6" stroke-width="1.5" d="M53.79 49.986h2v-1.972"/>
        <path stroke="#BCCED6" stroke-dasharray="3.4" stroke-width="1.5" d="M55.79 44.662V32.93"/>
        <path stroke="#BCCED6" stroke-width="1.5" d="M55.79 31.254v-1.972h-2"/>
        <path stroke="#BCCED6" stroke-dasharray="4.23" stroke-width="1.5" d="M49.56 29.282H26.3"/>
        <path stroke="#BCCED6" stroke-width="1.5" d="M24.19 29.282h-2v1.972"/>
        <path stroke="#BCCED6" stroke-dasharray="3.56" stroke-width="1.5" d="M22.19 34.763v5.265"/>
        <path stroke="#BCCED6" stroke-width="1.5" d="M22.19 41.773v1.972"/>
        <path fill="#BCCED6" fill-rule="nonzero" d="M41 45.254V68.52H2V45.254h39zm1.5-1.48H.5V70h42V43.775z"/>
        <path fill="#BCCED6" fill-rule="nonzero" d="M16.06 52.254c.983 0 1.78.785 1.78 1.754 0 .97-.797 1.755-1.78 1.755s-1.78-.785-1.78-1.755c0-.465.188-.911.521-1.24.334-.33.787-.514 1.259-.514zm0-1.48c-1.811 0-3.28 1.448-3.28 3.234s1.469 3.234 3.28 3.234c1.811 0 3.28-1.448 3.28-3.234s-1.469-3.233-3.28-3.233z"/>
        <path fill="#BCCED6" fill-rule="nonzero" d="M24.99 51.366l-9.8 13.803-3.5-5.521L4.55 70l33.74-.69-12.7-18.634z" opacity=".2"/>
        <path stroke="#BCCED6" stroke-width="1.5" d="M12.39 69.497l13.2-18.82 13.15 18.82M4.55 69.31l6.84-9.741 3.98 5.679"/>
        <path fill="#BCCED6" fill-rule="nonzero" d="M56.49 50.676h-14v-6.901h-21V28.592h35z" opacity=".2"/>
        <ellipse cx="21.84" cy="24.782" fill="#BCCED6" fill-rule="nonzero" rx="1.05" ry="1.035"/>
        <ellipse cx="25.34" cy="24.782" fill="#BCCED6" fill-rule="nonzero" rx="1.05" ry="1.035"/>
        <ellipse cx="28.84" cy="24.782" fill="#BCCED6" fill-rule="nonzero" rx="1.05" ry="1.035"/>
        <path fill="#BCCED6" fill-rule="nonzero" d="M62.28 6.763v-3.45A1.32 1.32 0 0 0 61 1.972H16.32a1.318 1.318 0 0 0-1.24 1.38v3.45a.664.664 0 0 0-.62.691.645.645 0 0 0 .165.472c.116.13.28.208.455.218h47.2a.664.664 0 0 0 .455-.218c.117-.13.176-.3.165-.472a.644.644 0 0 0-.15-.498.663.663 0 0 0-.47-.232z" opacity=".2"/>
    </g>
</svg>
