<svg id="Warstwa_1" data-name="Warstwa 1" xmlns="http://www.w3.org/2000/svg" viewBox="0 0 50 50"><defs><style>.cls-1,.cls-2{fill:none;stroke:#bcced6;stroke-miterlimit:10;stroke-width:1.5px;}.cls-2{stroke-linecap:round;}</style></defs><title>access</title><path class="cls-1" d="M46.25,33.83V11.64a4,4,0,0,0-4-4H39.5v.61a4,4,0,0,1-4,4h-1a4,4,0,0,1-4-4V7.64H16.65v.61a4,4,0,0,1-4,4H11.5a4,4,0,0,1-4-4V7.64H4.75a4,4,0,0,0-4,4V40.25a4,4,0,0,0,4,4H32.38"/><line class="cls-1" x1="0.98" y1="16.63" x2="46.48" y2="16.63"/><rect class="cls-2" x="10.68" y="0.75" width="3" height="8.81" rx="1.5" ry="1.5"/><rect class="cls-2" x="33.47" y="0.75" width="3" height="8.81" rx="1.5" ry="1.5"/><rect class="cls-1" x="6.98" y="22.81" width="5.4" height="5.69"/><rect class="cls-1" x="16.31" y="22.81" width="5.4" height="5.69"/><rect class="cls-1" x="25.65" y="22.81" width="5.4" height="5.69"/><rect class="cls-1" x="25.65" y="31.81" width="5.4" height="5.69"/><rect class="cls-1" x="34.98" y="22.81" width="5.4" height="5.69"/><rect class="cls-1" x="6.98" y="31.81" width="5.4" height="5.69"/><rect class="cls-1" x="16.31" y="31.81" width="5.4" height="5.69"/><circle class="cls-2" cx="40.39" cy="40.39" r="8.86"/><path class="cls-2" d="M40.41,34.69v5.72h4.73"/></svg>