<svg xmlns="http://www.w3.org/2000/svg" width="73" height="101" viewBox="0 0 73 101">
    <g fill="none" fill-rule="evenodd">
        <path stroke="#BCCED6" stroke-linecap="round" stroke-width="2" d="M69.3 99.1H3.1C2 99.1 1 98.2 1 97V3.4c0-1.1.9-2.1 2.1-2.1h66.1c1.1 0 2.1.9 2.1 2.1V97c0 1.1-.9 2.1-2 2.1z"/>
        <path stroke="#BCCED6" stroke-linecap="round" stroke-width="2" d="M30.6 11h34.6v74.2H6.8V11h8.6"/>
        <path stroke="#BCCED6" stroke-linecap="round" stroke-width="2" d="M16 2v29.9l7-3.9M30 2v29.9L23 28M16 40h40M16 50h40M16 60h40M16 70h29"/>
        <circle cx="36" cy="92" r="3" stroke="#BCCED6" stroke-linecap="round" stroke-width="2"/>
        <path fill="#BCCED6" fill-rule="nonzero" d="M69.3 1.3H3.1C2 1.3 1 2.2 1 3.4V97c0 1.1.9 2.1 2.1 2.1h66.1c1.1 0 2.1-.9 2.1-2.1V3.4c0-1.2-.9-2.1-2-2.1zm-4.1 83.9H6.8V11h9.6V1.8H30V11h35.2v74.2z" opacity=".2"/>
    </g>
</svg>
