<svg xmlns="http://www.w3.org/2000/svg" width="21" height="19" viewBox="0 0 21 19">
    <path fill="#273245" fill-rule="nonzero" d="M20.5 11.573v7.094h-4.287V12.05c0-1.663-.62-2.8-2.171-2.8-1.184 0-1.89.767-2.2 1.505-.112.267-.142.633-.142 1.003v6.909H7.412s.058-11.209 0-12.37H11.7V8.05l-.028.04h.028v-.04c.57-.842 1.587-2.045 3.863-2.045 2.822 0 4.937 1.768 4.937 5.568zM2.927.333C1.46.333.5 1.257.5 2.47c0 1.188.932 2.138 2.37 2.138h.028c1.495 0 2.425-.95 2.425-2.138C5.295 1.257 4.393.333 2.927.333zM.755 18.667h4.287V6.297H.755v12.37z"/>
</svg>
