<svg xmlns="http://www.w3.org/2000/svg" width="93" height="100" viewBox="0 0 93 100">
    <g fill="none" fill-rule="evenodd">
        <path stroke="#BCCED6" stroke-linecap="round" stroke-width="2" d="M79.4 37.1v59.8c0 1.1-.9 2-2 2H10.8c-1.1 0-2-.9-2-2V48.2M8.8 35.2V3.1c0-1.1.9-2 2-2h66.7c1.1 0 2 .9 2 2v18.5"/>
        <path stroke="#BCCED6" stroke-width="2" d="M8.8 8.9h70.6"/>
        <path fill="#BCCED6" fill-rule="nonzero" d="M22.2 6c-.6 0-1-.4-1-1s.4-1 1-1 1 .4 1 1-.5 1-1 1M18.2 6c-.6 0-1-.4-1-1s.4-1 1-1 1 .4 1 1-.5 1-1 1M14.2 6c-.6 0-1-.4-1-1s.4-1 1-1 1 .4 1 1-.5 1-1 1"/>
        <path fill="#BCCED6" fill-rule="nonzero" d="M8.8 1.9h70.7v7H8.8z" opacity=".2"/>
        <path stroke="#BCCED6" stroke-width="2" d="M15.3 15.6h58.4V57H15.3zM15.2 48.9h58.5"/>
        <path stroke="#BCCED6" stroke-linecap="round" stroke-linejoin="round" stroke-width="2" d="M21.6 66.7h45.9M30.4 75.7h28.2"/>
        <path stroke="#BCCED6" stroke-width="2" d="M53.7 92.5H34.5c-2.2 0-4-1.8-4-4s1.8-4 4-4h19.2c2.2 0 4 1.8 4 4s-1.8 4-4 4z"/>
        <path fill="#BCCED6" fill-rule="nonzero" d="M53.7 92.5H34.5c-2.2 0-4-1.8-4-4s1.8-4 4-4h19.2c2.2 0 4 1.8 4 4s-1.8 4-4 4z" opacity=".2"/>
        <path stroke="#BCCED6" stroke-linecap="round" stroke-linejoin="round" stroke-width="2" d="M1.3 48.9l19.8-19.8 9.6 9.6 8-8 7.3 7.2 11.3-11.2 12.2 12.2 21.8-21.8h-7.2"/>
        <path stroke="#BCCED6" stroke-linecap="round" stroke-width="2" d="M91.3 24.1v-7"/>
        <path fill="#BCCED6" fill-rule="nonzero" d="M72.9 48.2H15.8v-13l4.7-5.5 9.9 9.8.9-.6 7.6-7.1 6.7 6.7 11.5-10.7 12.4 12 3.7-3.1z" opacity=".2"/>
    </g>
</svg>
