<svg xmlns="http://www.w3.org/2000/svg" width="17" height="20" viewBox="0 0 17 20">
    <path fill="#8B98A9" fill-rule="nonzero" d="M13.607 10.626a4.552 4.552 0 0 1 2.158-3.81 4.658 4.658 0 0 0-3.656-1.98c-1.556-.154-3.038.921-3.827.921-.79 0-2.012-.871-3.298-.871A4.886 4.886 0 0 0 .823 7.394C-.92 10.455.39 14.983 2.109 17.466 2.924 18.68 3.958 20.048 5.27 20c1.31-.05 1.742-.815 3.257-.815 1.514 0 1.954.815 3.257.815 1.303 0 2.223-1.238 3.062-2.443a11.27 11.27 0 0 0 1.45-2.899 4.422 4.422 0 0 1-2.688-4.03zM11.09 3.192A4.389 4.389 0 0 0 12.133 0a4.479 4.479 0 0 0-2.948 1.515 4.194 4.194 0 0 0-1.034 3.094 3.697 3.697 0 0 0 2.94-1.417z"/>
</svg>
