<svg xmlns="http://www.w3.org/2000/svg" width="12" height="10" viewBox="0 0 12 10">
    <path fill="#FFF" fill-rule="evenodd" d="M12 1.182c-.45.204-.926.338-1.414.397A2.52 2.52 0 0 0 11.668.183a4.877 4.877 0 0 1-1.562.615 2.42 2.42 0 0 0-2.702-.62 2.525 2.525 0 0 0-1.557 2.347c0 .194.021.387.064.576A6.931 6.931 0 0 1 .835.458c-.653 1.154-.32 2.63.762 3.37a2.402 2.402 0 0 1-1.115-.315v.033c0 1.201.827 2.236 1.975 2.475a2.402 2.402 0 0 1-1.112.044c.322 1.028 1.246 1.732 2.3 1.753A4.864 4.864 0 0 1 0 8.865 6.844 6.844 0 0 0 3.773 10 6.87 6.87 0 0 0 8.74 7.91a7.228 7.228 0 0 0 2.037-5.094c0-.11 0-.218-.008-.327.483-.357.9-.8 1.231-1.307z"/>
</svg>
