<?xml version="1.0" encoding="UTF-8"?>
<svg width="27px" height="29px" viewBox="0 0 27 29" version="1.1" xmlns="http://www.w3.org/2000/svg" xmlns:xlink="http://www.w3.org/1999/xlink">
    <!-- Generator: Sketch 51.2 (57519) - http://www.bohemiancoding.com/sketch -->
    <title>3</title>
    <desc>Created with Sketch.</desc>
    <defs></defs>
    <g id="Page-1" stroke="none" stroke-width="1" fill="none" fill-rule="evenodd">
        <g id="Group-10-Copy" transform="translate(-107.000000, -1.000000)" fill="#273245" fill-rule="nonzero">
            <g id="Group-5" transform="translate(107.000000, 1.000000)">
                <g id="3">
                    <path d="M5.36086957,0.760869565 C4.25769536,0.147877159 2.91621768,0.147877159 1.81304348,0.760869565 L14.8565217,12.826087 L19.2521739,8.43043478 L5.36086957,0.760869565 Z" id="Shape"></path>
                    <path d="M0.495652174,2 C0.172877466,2.53074339 0.00147159767,3.13968529 0,3.76086957 L0,25.5434783 C0.00105828732,26.1447655 0.163201708,26.7347874 0.469565217,27.2521739 L13.6173913,14.1043478 L0.495652174,2 Z" id="Shape"></path>
                    <path d="M25.0956522,11.6521739 L20.8695652,9.34347826 L16.1608696,14.0521739 L21.926087,19.373913 L25.0565217,17.6391304 C26.1628244,17.0501274 26.854078,15.8989798 26.854078,14.6456522 C26.854078,13.3923245 26.1628244,12.241177 25.0565217,11.6521739 L25.0956522,11.6521739 Z" id="Shape"></path>
                    <path d="M14.9347826,15.3173913 L1.74782609,28.5043478 C2.307187,28.8270465 2.94118975,28.9979125 3.58695652,29 C4.20858711,28.9969982 4.81916384,28.835375 5.36086957,28.5304348 L20.3217391,20.2869565 L14.9347826,15.3173913 Z" id="Shape"></path>
                </g>
            </g>
        </g>
    </g>
</svg>
