<?xml version="1.0" encoding="utf-8"?>
<svg viewBox="0 0 100 100" xmlns="http://www.w3.org/2000/svg">
  <style type="text/css">
	.st0{opacity:0.2;fill:#BCCED6;}
	.st1{fill:#BCCED6;}
	.st2{fill:none;stroke:#242935;stroke-width:2;stroke-miterlimit:10;}
</style>
  <g transform="matrix(1, 0, 0, 1, 0.000006, -0.000001)">
    <polygon class="st0" points="84.8,3.9 95.9,15.4 98.5,12.9 98.2,5.7 92.6,1.2 86.2,1.7 &#9;"/>
    <rect x="42" y="-8.7" transform="matrix(0.7071 -0.7071 0.7071 0.7071 -20.7252 50.035)" class="st0" width="16" height="117.5"/>
    <path class="st1" d="M50,61.3l-1.4,1.4L20.5,90.8l-0.4,0.4l-1.6,0.5L3.2,96.8l5.1-15.4l0.5-1.6l0.4-0.4l28.1-28.1l1.4-1.4l-1.4-1.4&#10;&#9;&#9;L35.8,50L7.1,78.8l0,0v0l-0.3,1L0,100l20.2-6.7l1-0.3h0l0,0L50,64.1l1.4-1.4L50,61.3z M97.1,2.9c-1-1-2.1-1.7-3.3-2.2&#10;&#9;&#9;C92.5,0.2,91.3,0,90,0c-2.6,0-5.1,1-7.1,2.9L50,35.8l-1.4,1.4l1.4,1.4l1.4-1.4L84.3,4.3c0,0,0.1-0.1,0.1-0.1l0.1,0&#10;&#9;&#9;c0.1-0.1,0.2-0.2,0.3-0.2C86.2,2.7,88.1,2,90,2c1.8,0,3.5,0.6,4.9,1.7c0.3,0.2,0.5,0.4,0.8,0.7c0.2,0.2,0.5,0.5,0.7,0.8&#10;&#9;&#9;c2.3,3,2.2,7.2-0.2,10.1c0,0.1-0.1,0.1-0.1,0.2l-0.2,0.2c0,0,0,0.1-0.1,0.1L62.7,48.6L61.3,50l1.4,1.4l1.4-1.4l32.9-32.9&#10;&#9;&#9;C101,13.2,101,6.8,97.1,2.9z"/>
    <polygon class="st1" points="45.1,56.4 43.6,57.8 14.8,86.6 13.4,85.1 42.2,56.4 43.6,55 &#9;"/>
    <polygon class="st1" points="89.7,8.9 91.1,10.3 89.7,11.7 57.8,43.6 56.4,45.1 55,43.6 56.4,42.2 88.3,10.3 &#9;"/>
    <polygon class="st1" points="20.2,93.3 18.6,91.7 8.3,81.4 6.7,79.8 7.1,78.8 7.1,78.8 7.8,78.1 9.2,79.5 14.1,84.4 15.6,85.9 &#10;&#9;&#9;20.5,90.8 21.9,92.2 21.2,92.9 21.2,92.9 &#9;"/>
    <path class="st2" d="M23.7,34.1"/>
    <path class="st2" d="M23.7,102.1"/>
    <g>
      <path class="st1" d="M38.7,50l-1.4,1.4l4.9,5l0.7,0.7l1.4-1.4L38.7,50z M38.7,50l-1.4,1.4l4.9,5l1.4-1.4L38.7,50z M14.1,0L0,14.1&#10;&#9;&#9;&#9;L35.8,50l1.4,1.4l4.9,5l0.7,0.7l0.7,0.7l5,5l1.4,1.4l35.9,35.9l14.1-14.1L14.1,0z M38.7,50l-1.4-1.4L2.8,14.1L14.1,2.8l34.4,34.4&#10;&#9;&#9;&#9;l1.4,1.4l47.2,47.2L85.9,97.2L38.7,50z M38.7,50l-1.4,1.4l4.9,5l1.4-1.4L38.7,50z M38.7,50l-1.4,1.4l4.9,5l0.7,0.7l1.4-1.4&#10;&#9;&#9;&#9;L38.7,50z"/>
    </g>
    <polygon class="st1" points="96.1,15.2 95.9,15.4 95.7,15.6 94.7,16.6 89.7,11.7 88.3,10.3 83.4,5.3 84.5,4.2 84.5,4.2 84.8,3.9 &#10;&#9;&#9;84.8,3.9 89.7,8.9 91.1,10.3 &#9;"/>
    <rect x="13.4" y="10.3" transform="matrix(-0.7071 0.7071 -0.7071 -0.7071 39.3848 6.3137)" class="st1" width="10" height="2"/>
    <rect x="83.7" y="80.7" transform="matrix(-0.7071 0.7071 -0.7071 -0.7071 209.2419 76.6708)" class="st1" width="10" height="2"/>
    <rect x="63.6" y="60.6" transform="matrix(-0.7071 0.7071 -0.7071 -0.7071 160.7113 56.5688)" class="st1" width="10" height="2"/>
    <rect x="43.5" y="40.5" transform="matrix(-0.7071 0.7071 -0.7071 -0.7071 112.1807 36.4668)" class="st1" width="10" height="2"/>
    <rect x="33.5" y="30.4" transform="matrix(-0.7071 0.7071 -0.7071 -0.7071 87.9154 26.4157)" class="st1" width="10" height="2"/>
    <rect x="53.6" y="50.5" transform="matrix(-0.7071 0.7071 -0.7071 -0.7071 136.446 46.5178)" class="st1" width="10" height="2"/>
    <rect x="73.7" y="70.6" transform="matrix(-0.7071 0.7071 -0.7071 -0.7071 184.9766 66.6198)" class="st1" width="10" height="2"/>
    <rect x="23.4" y="20.4" transform="matrix(-0.7071 0.7071 -0.7071 -0.7071 63.6501 16.3647)" class="st1" width="10" height="2"/>
    <polygon class="st0" points="8.3,81.4 3.2,96.8 18.6,91.7 &#9;"/>
  </g>
</svg>