<?xml version="1.0" encoding="UTF-8"?>
<svg width="25px" height="30px" viewBox="0 0 25 30" version="1.1" xmlns="http://www.w3.org/2000/svg" xmlns:xlink="http://www.w3.org/1999/xlink">
    <!-- Generator: Sketch 51.2 (57519) - http://www.bohemiancoding.com/sketch -->
    <title>Shape</title>
    <desc>Created with Sketch.</desc>
    <defs></defs>
    <g id="Page-1" stroke="none" stroke-width="1" fill="none" fill-rule="evenodd">
        <g id="Group-10-Copy" transform="translate(-62.000000, 0.000000)" fill="#273245" fill-rule="nonzero">
            <g id="2" transform="translate(62.000000, 0.000000)">
                <g id="ITunes">
                    <path d="M20.4103927,15.9395402 C20.4415879,13.606198 21.6622921,11.4503885 23.6471576,10.2232913 C22.3865078,8.42774801 20.355654,7.32864451 18.1629786,7.25523897 C15.8300651,7.02316903 13.6070794,8.63544436 12.4223013,8.63544436 C11.2375233,8.63544436 9.40539221,7.32852421 7.4755475,7.32852421 C4.87483404,7.38590097 2.4994434,8.81764328 1.23408771,11.0905 C-1.37975259,15.6830418 0.586734739,22.4741409 3.16393242,26.1994741 C4.38535312,28.0193909 5.93655741,30.0713777 7.90304474,29.9980924 C9.86953207,29.9248072 10.516885,28.7766717 12.7887275,28.7766717 C15.0605701,28.7766717 15.7201372,29.9980924 17.6744104,29.9980924 C19.6286835,29.9980924 21.0088889,28.141533 22.2669522,26.3338303 C23.197382,24.9967346 23.9296623,23.5321739 24.441081,21.9855726 C22.0148145,20.9510129 20.4321915,18.5770783 20.4103927,15.9395402 Z M16.6362028,4.78796915 C17.7713916,3.46230524 18.3337345,1.74012989 18.1996213,0 C16.489499,0.164053111 14.9072133,0.977050758 13.7780783,2.27184251 C12.6557152,3.54617294 12.0962542,5.22015064 12.226874,6.91324117 C13.9467016,6.92693571 15.5755371,6.14184605 16.6362028,4.78796915 Z" id="Shape"></path>
                </g>
            </g>
        </g>
    </g>
</svg>
