<svg xmlns="http://www.w3.org/2000/svg" width="70" height="71" viewBox="0 0 70 71">
    <g fill="none" fill-rule="evenodd">
        <path stroke="#BCCED6" stroke-linecap="round" stroke-width="1.39" d="M12.11 24.34C5.572 25.128.771 30.861 1.144 37.437c.373 6.575 5.79 11.729 12.376 11.773H26M12.11 24.34a13 13 0 0 1 1.41-.08M43 19.49a8 8 0 0 1 4.91-1.62A8.59 8.59 0 0 1 54.42 32"/>
        <path stroke="#BCCED6" stroke-width="1.39" d="M41.66 20.69a8.72 8.72 0 0 1 1.34-1.2"/>
        <path stroke="#BCCED6" stroke-linecap="round" stroke-width="1.39" d="M55 31.34a9.93 9.93 0 0 1 4.56-1 9.44 9.44 0 1 1 0 18.87H44M12.11 24.34a15.53 15.53 0 0 1-1.48-6.64 15.7 15.7 0 1 1 31.37 0 15.4 15.4 0 0 1-.39 3.48M28.76 30.5h12.47v12.47H28.76z"/>
        <path fill="#BCCED6" fill-rule="nonzero" d="M41.23 42.98H28.76V30.5h12.47z" opacity=".2"/>
        <path stroke="#BCCED6" stroke-linecap="round" stroke-width="1.39" d="M32.92 34.66h4.16v4.16h-4.16zM32.92 70V42.97M37.07 70V42.97M28.76 42.98v17.26H1.05M41.24 42.98v17.26h27.71"/>
        <path stroke="#BCCED6" stroke-width="1.39" d="M26.68 30.5h-2.77M22.52 30.5h-1.38M26.68 34.66h-2.77M22.52 34.66h-1.38M26.68 38.82h-2.77M22.52 38.82h-1.38M26.68 42.97h-2.77M22.52 42.97h-1.38M41.23 28.42v-2.77M41.23 24.26v-1.38M37.07 28.42v-2.77M37.07 24.26v-1.38M32.92 28.42v-2.77M32.92 24.26v-1.38M28.76 28.42v-2.77M28.76 24.26v-1.38M43.31 30.5h2.77M47.47 30.5h1.38M43.31 34.66h2.77M47.47 34.66h1.38M43.31 38.82h2.77M47.47 38.82h1.38M43.31 42.97h2.77M47.47 42.97h1.38"/>
    </g>
</svg>
