<svg xmlns="http://www.w3.org/2000/svg" viewBox="0 0 70 70"><defs><style>.cls-1{fill:#bdccd4;}.cls-2,.cls-3{fill:#bcced6;}.cls-3{opacity:0.2;}</style></defs><title>Asset 6</title><g id="Layer_2" data-name="Layer 2"><g id="Layer_1-2" data-name="Layer 1"><path class="cls-1" d="M68.6,7V9.8H1.4V7H68.6M70,5.6H0v5.6H70V5.6Z"/><path class="cls-1" d="M3.5,9.8v1.4h63V9.8Z"/><rect class="cls-2" x="34.18" width="1.52" height="5.6"/><path class="cls-1" d="M66.5,11.2V43.4A5.6,5.6,0,0,1,60.9,49h-18l2,2.63L56.7,67V69.3a.7.7,0,1,1-1.4,0V67.44L43.13,51.63,41.1,49H28.88l-2,2.63L14.7,67.44V69.3a.7.7,0,0,1-1.4,0V67L25.1,51.63l2-2.62H9.1a5.6,5.6,0,0,1-5.6-5.6V11.2H4.9v35a1.4,1.4,0,0,0,1.4,1.4H63.7a1.4,1.4,0,0,0,1.4-1.4v-35Z"/><path class="cls-1" d="M58.41,26.58a2.78,2.78,0,0,0-1-1A2.74,2.74,0,0,0,56,25.2a2.8,2.8,0,0,0-2.79,2.6,1.83,1.83,0,0,0,0,.2,2.79,2.79,0,0,0,2.1,2.71,2.74,2.74,0,0,0,1.4,0A2.79,2.79,0,0,0,58.8,28,2.74,2.74,0,0,0,58.41,26.58ZM56,29.4a1.41,1.41,0,0,1-1.37-1.12,1.23,1.23,0,0,1,0-.28,1.37,1.37,0,0,1,.48-1A1.36,1.36,0,0,1,56,26.6a1.24,1.24,0,0,1,.36,0,1.43,1.43,0,0,1,1,1,1.24,1.24,0,0,1,0,.36A1.4,1.4,0,0,1,56,29.4Z"/><path class="cls-1" d="M12.6,35a1.19,1.19,0,0,1,0-.36l-1.06-1.06A2.72,2.72,0,0,0,11.2,35a2.79,2.79,0,0,0,2.1,2.71V36.4H14A1.4,1.4,0,0,1,12.6,35Zm0,0a1.19,1.19,0,0,1,0-.36l-1.06-1.06A2.72,2.72,0,0,0,11.2,35a2.79,2.79,0,0,0,2.1,2.71V36.4H14A1.4,1.4,0,0,1,12.6,35Zm4-.92a2.73,2.73,0,0,0-.78-1.17A2.77,2.77,0,0,0,14,32.2a2.72,2.72,0,0,0-1.41.39,2.61,2.61,0,0,0-1,1A2.72,2.72,0,0,0,11.2,35a2.79,2.79,0,0,0,2.1,2.71,2.74,2.74,0,0,0,1.4,0A2.79,2.79,0,0,0,16.8,35,2.66,2.66,0,0,0,16.64,34.08ZM14,36.4A1.4,1.4,0,0,1,12.6,35a1.19,1.19,0,0,1,0-.36,1.4,1.4,0,0,1,1-1,1.19,1.19,0,0,1,.36,0,1.31,1.31,0,0,1,.62.15,1.38,1.38,0,0,1,.78,1.16.4.4,0,0,1,0,.09A1.4,1.4,0,0,1,14,36.4ZM12.6,35a1.19,1.19,0,0,1,0-.36l-1.06-1.06A2.72,2.72,0,0,0,11.2,35a2.79,2.79,0,0,0,2.1,2.71V36.4H14A1.4,1.4,0,0,1,12.6,35Zm0,0a1.19,1.19,0,0,1,0-.36l-1.06-1.06A2.72,2.72,0,0,0,11.2,35a2.79,2.79,0,0,0,2.1,2.71V36.4H14A1.4,1.4,0,0,1,12.6,35Z"/><path class="cls-1" d="M35,18.2A2.8,2.8,0,0,0,32.2,21a2.66,2.66,0,0,0,.16.92,2.76,2.76,0,0,0,1.94,1.79,2.74,2.74,0,0,0,1.4,0,2.8,2.8,0,0,0,2.09-2.51,1.83,1.83,0,0,0,0-.2A2.8,2.8,0,0,0,35,18.2ZM36.4,21a1.37,1.37,0,0,1-.48,1,1.36,1.36,0,0,1-.92.36,1.34,1.34,0,0,1-.62-.15,1.39,1.39,0,0,1-.77-1.16.4.4,0,0,1,0-.09,1.4,1.4,0,0,1,2.77-.28A1.23,1.23,0,0,1,36.4,21Z"/><rect class="cls-2" x="13.3" y="36.4" width="1.4" height="11.9"/><rect class="cls-2" x="34.3" y="23.1" width="1.4" height="25.2"/><rect class="cls-2" x="55.3" y="30.1" width="1.4" height="18.2"/><path class="cls-1" d="M13.64,33.65a1.4,1.4,0,0,0-1,1L3.5,25.49v-2l1.4,1.4,7.69,7.69Z"/><path class="cls-1" d="M34.38,22.25l-1.25.83-16.49,11-1.25.83a1.38,1.38,0,0,0-.78-1.16l1.25-.83,16.5-11,1.25-.83A1.39,1.39,0,0,0,34.38,22.25Z"/><path class="cls-1" d="M54.6,28a1.23,1.23,0,0,0,0,.28l-1.42-.48L37.35,22.52,35.92,22a1.37,1.37,0,0,0,.48-1,1.23,1.23,0,0,0,0-.28l1.42.48,15.86,5.28,1.43.48A1.37,1.37,0,0,0,54.6,28Z"/><path class="cls-1" d="M66.5,16.51v2l-9.15,9.15a1.43,1.43,0,0,0-1-1l1.06-1.06,7.68-7.68Z"/><circle class="cls-1" cx="14" cy="69.3" r="0.7"/><circle class="cls-1" cx="56" cy="69.3" r="0.7"/><path class="cls-2" d="M65.1,12.28V46.2a1.4,1.4,0,0,1-1.4,1.4H6.3a1.4,1.4,0,0,1-1.4-1.4V12.28A2.78,2.78,0,0,0,3.5,14.7V46.2A2.81,2.81,0,0,0,6.3,49H63.7a2.81,2.81,0,0,0,2.8-2.8V14.7A2.78,2.78,0,0,0,65.1,12.28Z"/><path class="cls-3" d="M57.42,25.59A2.74,2.74,0,0,0,56,25.2a2.8,2.8,0,0,0-2.35,1.28L37.79,21.2a1.83,1.83,0,0,0,0-.2,2.8,2.8,0,1,0-5.6,0,2.66,2.66,0,0,0,.16.92l-16.5,11A2.77,2.77,0,0,0,14,32.2a2.72,2.72,0,0,0-1.41.39L4.9,24.91v2l7.75,7.75a1.4,1.4,0,0,1,1-1,1.19,1.19,0,0,1,.36,0,1.31,1.31,0,0,1,.62.15,1.38,1.38,0,0,1,.78,1.16l1.25-.83,16.49-11,1.25-.83a1.39,1.39,0,0,1-.77-1.16.4.4,0,0,1,0-.09,1.4,1.4,0,0,1,2.77-.28,1.23,1.23,0,0,1,0,.28,1.37,1.37,0,0,1-.48,1l1.43.48L53.21,27.8l1.42.48a1.23,1.23,0,0,1,0-.28,1.37,1.37,0,0,1,.48-1A1.36,1.36,0,0,1,56,26.6a1.24,1.24,0,0,1,.36,0,1.43,1.43,0,0,1,1,1l7.75-7.75v-2Zm0,0A2.74,2.74,0,0,0,56,25.2a2.8,2.8,0,0,0-2.35,1.28L37.79,21.2a1.83,1.83,0,0,0,0-.2,2.8,2.8,0,1,0-5.6,0,2.66,2.66,0,0,0,.16.92l-16.5,11A2.77,2.77,0,0,0,14,32.2a2.72,2.72,0,0,0-1.41.39L4.9,24.91v2l7.75,7.75a1.4,1.4,0,0,1,1-1,1.19,1.19,0,0,1,.36,0,1.31,1.31,0,0,1,.62.15,1.38,1.38,0,0,1,.78,1.16l1.25-.83,16.49-11,1.25-.83a1.39,1.39,0,0,1-.77-1.16.4.4,0,0,1,0-.09,1.4,1.4,0,0,1,2.77-.28,1.23,1.23,0,0,1,0,.28,1.37,1.37,0,0,1-.48,1l1.43.48L53.21,27.8l1.42.48a1.23,1.23,0,0,1,0-.28,1.37,1.37,0,0,1,.48-1A1.36,1.36,0,0,1,56,26.6a1.24,1.24,0,0,1,.36,0,1.43,1.43,0,0,1,1,1l7.75-7.75v-2ZM1.62,11.17v0H3.5v35A2.81,2.81,0,0,0,6.3,49H27.12l-2,2.63h1.76l2-2.62H41.1l2,2.63H44.9l-2-2.62H63.7a2.81,2.81,0,0,0,2.8-2.8v-35H70v0Zm12,22.48a1.19,1.19,0,0,1,.36,0,1.31,1.31,0,0,1,.62.15,1.38,1.38,0,0,1,.78,1.16.4.4,0,0,1,0,.09,1.4,1.4,0,0,1-2.8,0,1.19,1.19,0,0,1,0-.36A1.4,1.4,0,0,1,13.64,33.65ZM33.6,21a1.4,1.4,0,0,1,2.77-.28,1.23,1.23,0,0,1,0,.28,1.37,1.37,0,0,1-.48,1,1.36,1.36,0,0,1-.92.36,1.34,1.34,0,0,1-.62-.15,1.39,1.39,0,0,1-.77-1.16A.4.4,0,0,1,33.6,21Zm21,7a1.37,1.37,0,0,1,.48-1A1.36,1.36,0,0,1,56,26.6a1.24,1.24,0,0,1,.36,0,1.43,1.43,0,0,1,1,1,1.24,1.24,0,0,1,0,.36,1.4,1.4,0,0,1-2.77.28A1.23,1.23,0,0,1,54.6,28ZM65.1,17.91l-7.68,7.68A2.74,2.74,0,0,0,56,25.2a2.8,2.8,0,0,0-2.35,1.28L37.79,21.2a1.83,1.83,0,0,0,0-.2,2.8,2.8,0,1,0-5.6,0,2.66,2.66,0,0,0,.16.92l-16.5,11A2.77,2.77,0,0,0,14,32.2a2.72,2.72,0,0,0-1.41.39L4.9,24.91V11.2H65.1Zm-7.68,7.68A2.74,2.74,0,0,0,56,25.2a2.8,2.8,0,0,0-2.35,1.28L37.79,21.2a1.83,1.83,0,0,0,0-.2,2.8,2.8,0,1,0-5.6,0,2.66,2.66,0,0,0,.16.92l-16.5,11A2.77,2.77,0,0,0,14,32.2a2.72,2.72,0,0,0-1.41.39L4.9,24.91v2l7.75,7.75a1.4,1.4,0,0,1,1-1,1.19,1.19,0,0,1,.36,0,1.31,1.31,0,0,1,.62.15,1.38,1.38,0,0,1,.78,1.16l1.25-.83,16.49-11,1.25-.83a1.39,1.39,0,0,1-.77-1.16.4.4,0,0,1,0-.09,1.4,1.4,0,0,1,2.77-.28,1.23,1.23,0,0,1,0,.28,1.37,1.37,0,0,1-.48,1l1.43.48L53.21,27.8l1.42.48a1.23,1.23,0,0,1,0-.28,1.37,1.37,0,0,1,.48-1A1.36,1.36,0,0,1,56,26.6a1.24,1.24,0,0,1,.36,0,1.43,1.43,0,0,1,1,1l7.75-7.75v-2Z"/></g></g></svg>