<svg xmlns="http://www.w3.org/2000/svg" width="100" height="100" viewBox="0 0 100 100">
    <g fill="none" fill-rule="evenodd" transform="translate(-1 1)">
        <circle cx="70.01" cy="29.09" r="29.09" stroke="#3d84fe" stroke-width="2"/>
        <path stroke="#3d84fe" stroke-width="2" d="M3.23 89.914L40.395 52.75l5.954 5.953L9.183 95.868a4.22 4.22 0 0 1-5.946.007 4.22 4.22 0 0 1 0-5.968l-.007.007z"/>
        <path stroke="#3d84fe" stroke-width="2" d="M43.38 55.72l6.54-6.54"/>
        <path stroke="#3d84fe" stroke-linecap="round" stroke-width="2" d="M7.94 15.89h25.33M17.95 25.89h15.32M57.1 70.39h25.34M57.1 80.39h15.33"/>
        <path stroke="#3d84fe" stroke-width="2" d="M62.92 15.24a10.35 10.35 0 0 1 7.58-2.74 11.41 11.41 0 0 1 7.28 2.12 7.29 7.29 0 0 1 2.66 6 7.61 7.61 0 0 1-.62 3.16 8.34 8.34 0 0 1-1.48 2.31c-.58.62-1.36 1.36-2.33 2.21a18.8 18.8 0 0 0-2.85 3 5.18 5.18 0 0 0-.92 3.11h-5.41a9.05 9.05 0 0 1 .54-3.28 8.23 8.23 0 0 1 1.32-2.31 28.94 28.94 0 0 1 2-2.14A15 15 0 0 0 73 24.3a4.28 4.28 0 0 0 .71-2.52 3 3 0 0 0-1-2.47 4.23 4.23 0 0 0-2.78-.82c-2.667 0-4.063 1.473-4.19 4.42h-5.61c0-3.273.93-5.83 2.79-7.67zM72 41.49a3.68 3.68 0 0 1 1 2.69 3.75 3.75 0 0 1-1 2.71 3.68 3.68 0 0 1-5.2 0 3.72 3.72 0 0 1-1-2.68 3.66 3.66 0 0 1 1-2.69 3.8 3.8 0 0 1 5.2 0v-.03z"/>
    </g>
</svg>
