<svg id="Warstwa_1" data-name="Warstwa 1" xmlns="http://www.w3.org/2000/svg" viewBox="0 0 50 50"><defs><style>.cls-1,.cls-2{fill:none;stroke-miterlimit:10;stroke-width:1.5px;}.cls-1{stroke:#bcced6;}.cls-2{stroke:#b9cdd5;stroke-linecap:round;}</style></defs><title>Obszar roboczy 60</title><g id="Layer_2" data-name="Layer 2"><g id="Layer_1-2" data-name="Layer 1-2"><path class="cls-1" d="M7.92,35V28.26A6.25,6.25,0,0,1,14.13,22H35.86a6.25,6.25,0,0,1,6.21,6.29h0V42.54a6.25,6.25,0,0,1-6.21,6.29H14.17a6.25,6.25,0,0,1-6.25-6.25s0,0,0,0V35"/><path class="cls-1" d="M14.17,22.5V12.23A11,11,0,0,1,25,1.17h0A11,11,0,0,1,35.87,12.23V22"/><path class="cls-2" d="M25,28.42a10.88,10.88,0,0,0-10.16,7,10.86,10.86,0,0,0,20.33,0,10.89,10.89,0,0,0-10.16-7Z"/></g></g><circle class="cls-2" cx="25" cy="35.42" r="2.81"/></svg>