<svg xmlns="http://www.w3.org/2000/svg" width="70" height="70" viewBox="0 0 70 70">
    <g fill="none" fill-rule="evenodd" transform="translate(1)">
        <path stroke="#BBCDD6" stroke-linecap="round" stroke-linejoin="round" stroke-width="1.5" d="M.1 11.4h4.7v4.7H.1zM63.4 11.4h4.7v4.7h-4.7zM.1 53.9h4.7v4.7H.1zM63.4 53.9h4.7v4.7h-4.7z"/>
        <path fill="#BBCDD6" fill-rule="nonzero" d="M.1 11.4h4.7v4.7H.1zM63.4 11.4h4.7v4.7h-4.7zM.1 53.9h4.7v4.7H.1zM63.4 53.9h4.7v4.7h-4.7z" opacity=".2"/>
        <path stroke="#BBCDD6" stroke-linecap="round" stroke-linejoin="round" stroke-width="1.5" d="M5.5 13.7h57M5.5 56.3h57M2.5 16.7v36.7M65.7 16.7v36.7"/>
        <path fill="#BBCDD6" fill-rule="nonzero" d="M28.5 28.9a17.36 17.36 0 0 0-1 6.1 20.51 20.51 0 0 0 1 6.1 16.38 16.38 0 0 0 4.7 7c.3.2.6.5.9.7a13.58 13.58 0 0 1-7.9-2.6 15.33 15.33 0 0 1-2.9-2.8 14.12 14.12 0 0 1-2.8-8.4 13.48 13.48 0 0 1 2.8-8.4 16 16 0 0 1 2.6-2.6 14.39 14.39 0 0 1 8.1-2.8c-.4.3-.7.6-1.1.9a17.79 17.79 0 0 0-4.4 6.8zM39.8 28.9a17.36 17.36 0 0 1 1 6.1 20.51 20.51 0 0 1-1 6.1 15.48 15.48 0 0 1-4.7 6.9c-.3.2-.6.5-.9.7a13.58 13.58 0 0 0 7.9-2.6 15.33 15.33 0 0 0 2.9-2.8 14 14 0 0 0 0-16.8 16 16 0 0 0-2.6-2.6 14.39 14.39 0 0 0-8.1-2.8c.4.3.7.6 1.1.9a16.7 16.7 0 0 1 4.4 6.9z" opacity=".2"/>
        <path stroke="#BBCDD6" stroke-width="1.5" d="M34.1 48.5a3.59 3.59 0 0 1-1-.7A16.77 16.77 0 0 1 27.4 35a16.34 16.34 0 0 1 5.5-12.6c.4-.3.7-.6 1.1-.9h.1"/>
        <path stroke="#BBCDD6" stroke-width="1.5" d="M34.1 48.5a3.59 3.59 0 0 0 1-.7A16.7 16.7 0 0 0 40.7 35a16.34 16.34 0 0 0-5.5-12.6c-.4-.3-.7-.6-1.1-.9H34"/>
        <path stroke="#BBCDD6" stroke-width="1.5" d="M23.2 26.6A21.22 21.22 0 0 0 34 29.7a20 20 0 0 0 10.8-3.1M23.2 43.4A21.22 21.22 0 0 1 34 40.3a20 20 0 0 1 10.8 3.1M20.4 35h27.3M34.1 21.5v27"/>
        <circle cx="34.2" cy="35.1" r="13.6" stroke="#BBCDD6" stroke-linecap="round" stroke-linejoin="round" stroke-width="1.5"/>
        <path stroke="#BBCDD6" stroke-linecap="round" stroke-linejoin="round" stroke-width="1.5" d="M10.5 56.3v-6"/>
        <path stroke="#BBCDD6" stroke-dasharray="10.18" stroke-linecap="round" stroke-linejoin="round" stroke-width="1.5" d="M10.5 40.1V24.8"/>
        <path stroke="#BBCDD6" stroke-linecap="round" stroke-linejoin="round" stroke-width="1.5" d="M10.5 19.7v-6M58 56.3v10.9a1.79 1.79 0 0 1-1.8 1.8H12.3a1.79 1.79 0 0 1-1.8-1.8V56.3M58 13.7v6"/>
        <path stroke="#BBCDD6" stroke-dasharray="10.18" stroke-linecap="round" stroke-linejoin="round" stroke-width="1.5" d="M58 29.9v15.3"/>
        <path stroke="#BBCDD6" stroke-linecap="round" stroke-linejoin="round" stroke-width="1.5" d="M58 50.3v6M10.5 13.7v-11A1.79 1.79 0 0 1 12.3.9h43.9A1.79 1.79 0 0 1 58 2.7v11M10.5 6.4H58"/>
        <path fill="#BBCDD6" fill-rule="nonzero" d="M10.5 1.3h47.1v4.9H10.5z" opacity=".2"/>
        <path fill="#BBCDD6" fill-rule="nonzero" d="M20.3 4.4a.7.7 0 1 1 .7-.7.68.68 0 0 1-.7.7M17.5 4.4a.7.7 0 1 1 .7-.7.68.68 0 0 1-.7.7M14.7 4.4a.7.7 0 1 1 .7-.7.68.68 0 0 1-.7.7"/>
        <path stroke="#BBCDD6" stroke-linecap="round" stroke-linejoin="round" stroke-width="1.5" d="M20.5 62.8h27.3"/>
    </g>
</svg>
