<svg xmlns="http://www.w3.org/2000/svg" width="52" height="96" viewBox="0 0 52 96">
    <g fill="none" fill-rule="evenodd">
        <path stroke="#BCCED6" stroke-linecap="round" stroke-linejoin="round" stroke-width="2" d="M26 64.6c4.8 0 8.9-1.7 12.4-5.1 3.4-3.4 5.1-7.6 5.1-12.4v-28c0-4.8-1.7-8.9-5.1-12.4-3.5-3.4-7.6-5.1-12.4-5.1-4.8 0-8.9 1.7-12.4 5.1-3.4 3.4-5.1 7.5-5.1 12.4v28c0 4.8 1.7 8.9 5.1 12.4 3.5 3.4 7.6 5.1 12.4 5.1z"/>
        <path stroke="#BCCED6" stroke-linecap="round" stroke-linejoin="round" stroke-width="2" d="M8.5 20.3h8.1c1.3 0 2.4 1.1 2.4 2.4 0 1.3-1.1 2.4-2.4 2.4H8.5M8.5 31h8.1c1.3 0 2.4 1.1 2.4 2.4 0 1.3-1.1 2.4-2.4 2.4H8.5M8.5 41.6h8.1c1.3 0 2.4 1.1 2.4 2.4 0 1.3-1.1 2.4-2.4 2.4H8.5M43.1 46.5H35c-1.3 0-2.4-1.1-2.4-2.4 0-1.3 1.1-2.4 2.4-2.4h8.1M43.1 35.8H35c-1.3 0-2.4-1.1-2.4-2.4 0-1.3 1.1-2.4 2.4-2.4h8.1M43.1 25.1H35c-1.3 0-2.4-1.1-2.4-2.4 0-1.3 1.1-2.4 2.4-2.4h8.1"/>
        <path fill="#BCCED6" fill-rule="nonzero" d="M8.5 20.3h8.1c1.3 0 2.4 1.1 2.4 2.4 0 1.3-1.1 2.4-2.4 2.4H8.5M8.5 31h8.1c1.3 0 2.4 1.1 2.4 2.4 0 1.3-1.1 2.4-2.4 2.4H8.5M8.5 41.6h8.1c1.3 0 2.4 1.1 2.4 2.4 0 1.3-1.1 2.4-2.4 2.4H8.5M43.1 46.5H35c-1.3 0-2.4-1.1-2.4-2.4 0-1.3 1.1-2.4 2.4-2.4h8.1M43.1 35.8H35c-1.3 0-2.4-1.1-2.4-2.4 0-1.3 1.1-2.4 2.4-2.4h8.1M43.1 25.1H35c-1.3 0-2.4-1.1-2.4-2.4 0-1.3 1.1-2.4 2.4-2.4h8.1" opacity=".2"/>
        <path stroke="#BCCED6" stroke-linecap="round" stroke-linejoin="round" stroke-width="2" d="M1.3 47.5h3.1M47.3 47.5h3.1M50.7 47.5c0 13.6-11 24.7-24.7 24.7S1.3 61.2 1.3 47.5M9.9 94.5h32.2M26 72.2v22.3"/>
    </g>
</svg>
