<svg xmlns="http://www.w3.org/2000/svg" viewBox="0 0 72 100"><defs><style>.cls-1,.cls-2{fill:#bcced6;}.cls-2{opacity:0.2;}</style></defs><title>Asset 1</title><g id="Layer_2" data-name="Layer 2"><g id="Layer_1-2" data-name="Layer 1"><path class="cls-1" d="M68,0H4A4,4,0,0,0,0,4V96a4,4,0,0,0,4,4H68a4,4,0,0,0,4-4V4A4,4,0,0,0,68,0Zm2,96a2,2,0,0,1-2,2H4a2,2,0,0,1-2-2V4A2,2,0,0,1,4,2H68a2,2,0,0,1,2,2Z"/><path class="cls-1" d="M29,10v2H64V84H8V12h9V10H6V86H66V10Z"/><path class="cls-1" d="M36,88a4,4,0,1,0,4,4A4,4,0,0,0,36,88Zm0,6a2,2,0,1,1,2-2A2,2,0,0,1,36,94Z"/><path class="cls-1" d="M15,0V34l8-5,8,5V0ZM29,30.39,24.06,27.3,23,26.64l-1.06.66L17,30.39V2H29Z"/><path class="cls-1" d="M57,40a1,1,0,0,1-1,1H16a1,1,0,0,1,0-2H56A1,1,0,0,1,57,40Z"/><path class="cls-1" d="M57,50a1,1,0,0,1-1,1H16a1,1,0,0,1,0-2H56A1,1,0,0,1,57,50Z"/><path class="cls-1" d="M56,60a1,1,0,0,1-1,1H16a1,1,0,0,1,0-2H55A1,1,0,0,1,56,60Z"/><path class="cls-1" d="M46,70a1,1,0,0,1-1,1H16a1,1,0,0,1,0-2H45A1,1,0,0,1,46,70Z"/><path class="cls-2" d="M46,70a1,1,0,0,1-1,1H16a1,1,0,0,1,0-2H45A1,1,0,0,1,46,70Z"/><path class="cls-2" d="M56,60a1,1,0,0,1-1,1H16a1,1,0,0,1,0-2H55A1,1,0,0,1,56,60Z"/><path class="cls-2" d="M57,50a1,1,0,0,1-1,1H16a1,1,0,0,1,0-2H56A1,1,0,0,1,57,50Z"/><path class="cls-2" d="M15,40a1,1,0,0,1,1-1H56a1,1,0,0,1,0,2H16A1,1,0,0,1,15,40Z"/><path class="cls-2" d="M68,0H4A4,4,0,0,0,0,4V96a4,4,0,0,0,4,4H68a4,4,0,0,0,4-4V4A4,4,0,0,0,68,0ZM23,29l8,5V12H64V84H8V12h7V34ZM38,92a2,2,0,1,1-2-2A2,2,0,0,1,38,92ZM29,2V30.39L24.06,27.3,23,26.64l-1.06.66L17,30.39V2Z"/></g></g></svg>