<svg xmlns="http://www.w3.org/2000/svg" width="80" height="100" viewBox="0 0 80 100">
    <g fill="none" fill-rule="evenodd">
        <path stroke="#BCCED6" stroke-width="2" d="M78.2 63.1v23.6c0 6.8-5.9 12.2-13.2 12.2H31.6c-7.3 0-13.2-5.5-13.2-12.2V30.1"/>
        <path stroke="#BCCED6" stroke-linecap="round" stroke-width="2" d="M63.2 63.5v-7.2c0-4.1 3.4-7.5 7.5-7.5s7.5 3.4 7.5 7.5v7.2"/>
        <path stroke="#BCCED6" stroke-linecap="round" stroke-width="2" d="M48.3 63.5v-7.2c0-4.1 3.4-7.5 7.5-7.5s7.5 3.4 7.5 7.5v7.2M33.3 63.5v-7.2c0-4.1 3.4-7.5 7.5-7.5s7.5 3.4 7.5 7.5v7.2M18.3 32.9v-7.2c0-4.1 3.4-7.5 7.5-7.5s7.5 3.4 7.5 7.5v37.9M42.9 19c.6 1.9 1 3.9 1 6 0 6.1-3 11.5-7.7 14.8M8.7 18.2C11.4 11.5 18 6.8 25.6 6.8c3.4 0 6.5.9 9.2 2.5M13.8 38.8c-2.4-2.1-4.3-4.8-5.4-7.9M25.8 13c6.6 0 12 5.4 12 12 0 1.1-.2 2.2-.4 3.2M17.4 47.5C10.6 45 5.3 39.5 3 32.6"/>
        <path stroke="#BCCED6" stroke-linecap="round" stroke-width="2" d="M38.5 4.6C45.3 8.9 49.8 16.4 49.8 25c0 10.3-6.5 19.1-15.6 22.5M2 27.6c-.1-.9-.1-1.7-.1-2.6 0-12.7 9.9-23.1 22.3-23.9"/>
        <path fill="#BCCED6" fill-rule="nonzero" d="M75.7 51.5L73 49.7h-4.6l-3.4 3-2.6 1.4-3.4-4-5-.4-3.8 2.4-1 2.1-2.5-1.2-3.3-3.3h-4.2L35.8 51l-1.9 4.7.3 4.4-.4 3.5-.5.1V27c0-4.1-3.4-8.5-7.5-8.5h-1c-4.1 0-6.4 4.4-6.4 8.5v62.3c0 4.1 3.3 7.4 7.4 7.4l4.1 1.2h37.5l4.5-1.2 4.5-5.5 1.1-4V55.9l-1.8-4.4z" opacity=".2"/>
    </g>
</svg>
