<?xml version="1.0" encoding="UTF-8"?>
<svg width="30px" height="25px" viewBox="0 0 30 25" version="1.1" xmlns="http://www.w3.org/2000/svg" xmlns:xlink="http://www.w3.org/1999/xlink">
    <!-- Generator: Sketch 51.2 (57519) - http://www.bohemiancoding.com/sketch -->
    <title>Shape</title>
    <desc>Created with Sketch.</desc>
    <defs></defs>
    <g id="Page-1" stroke="none" stroke-width="1" fill="none" fill-rule="evenodd">
        <g id="Group-10-Copy" fill="#273245" fill-rule="nonzero">
            <g id="1">
                <g id="Email">
                    <path d="M27.0408979,0.000233759769 C27.8315793,-0.0101096133 28.5878246,0.323235316 29.1136051,0.913861257 C29.6784164,1.47246858 29.9973876,2.23309221 29.9999601,3.02747711 L29.9999601,21.0545749 C30.0041107,21.8543007 29.6843803,22.6216536 29.1136051,23.181827 C28.5878246,23.7724529 27.8315793,24.1057978 27.0408979,24.0954545 L2.95931342,24.0954545 C2.16863198,24.1057978 1.41238677,23.7724529 0.886606268,23.181827 C0.310456629,22.6253049 -0.010276357,21.8555458 0.000251233333,21.0545749 L0.000251233333,3.02747711 C-0.00333338188,2.2318555 0.316597388,1.46894366 0.886606268,0.913861257 C1.41238677,0.323235316 2.16863198,-0.0101096133 2.95931342,0.000233759769 L27.0408979,0.000233759769 Z M27.0408979,6.05472046 L27.0408979,3.02747711 L15.0001057,10.568313 L2.95931342,3.02747711 L2.95931342,6.05472046 L15.0001057,13.5273752 L27.0408979,6.05472046 Z" id="Shape"></path>
                </g>
            </g>
        </g>
    </g>
</svg>
