<svg id="Warstwa_1" data-name="Warstwa 1" xmlns="http://www.w3.org/2000/svg" viewBox="0 0 50 50"><defs><style>.cls-1,.cls-2{fill:none;stroke:#b9cdd5;stroke-linecap:round;stroke-width:1.5px;}.cls-1{stroke-linejoin:round;}.cls-2{stroke-miterlimit:10;}.cls-3{fill:#bbced6;}</style></defs><title>integration</title><g id="Layer_2" data-name="Layer 2"><g id="Layer_1-2" data-name="Layer 1-2"><rect class="cls-1" x="7.1" y="6.44" width="35.8" height="35.8" rx="1.83" ry="1.83"/><rect class="cls-1" x="11.19" y="10.53" width="27.62" height="27.62" rx="2.24" ry="2.24"/><line class="cls-2" x1="44.08" y1="14.11" x2="48.48" y2="14.11"/><line class="cls-2" x1="39.3" y1="24.34" x2="48.48" y2="24.34"/><line class="cls-2" x1="44.08" y1="34.57" x2="48.48" y2="34.57"/><line class="cls-2" x1="1.52" y1="14.11" x2="6.25" y2="14.11"/><line class="cls-2" x1="1.52" y1="24.34" x2="10.71" y2="24.34"/><line class="cls-2" x1="1.52" y1="34.57" x2="6.25" y2="34.57"/><line class="cls-2" x1="14.77" y1="6.25" x2="14.77" y2="0.86"/><line class="cls-2" x1="25" y1="10.05" x2="25" y2="0.86"/><line class="cls-2" x1="35.23" y1="6.25" x2="35.23" y2="0.86"/><line class="cls-2" x1="14.77" y1="47.82" x2="14.77" y2="42.82"/><line class="cls-2" x1="25" y1="47.82" x2="25" y2="38.64"/><line class="cls-2" x1="35.23" y1="47.82" x2="35.23" y2="42.82"/><circle class="cls-1" cx="25" cy="24.34" r="6.78"/><circle class="cls-3" cx="25.08" cy="24.32" r="2.5"/></g></g></svg>