<svg xmlns="http://www.w3.org/2000/svg" viewBox="0 0 70 39.2"><defs><style>.cls-1,.cls-2{fill:#bcced6;}.cls-2{opacity:0.2;}</style></defs><title>Asset 4</title><g id="Layer_2" data-name="Layer 2"><g id="Layer_1-2" data-name="Layer 1"><path class="cls-1" d="M35,0A35,35,0,0,0,0,35a.7.7,0,1,0,1.4,0,33.6,33.6,0,0,1,67.2,0A.7.7,0,0,0,70,35,35,35,0,0,0,35,0Z"/><path class="cls-1" d="M51.67,18.26l-19,13.23-.27.2a4.18,4.18,0,0,0-1.58,2.81,3,3,0,0,0,0,.5,3.83,3.83,0,0,0,.06.7A4.19,4.19,0,0,0,35,39.2a3.76,3.76,0,0,0,.49,0,4.16,4.16,0,0,0,2.77-1.53l0,0,.35-.51,1-1.39,12.1-17.4.08-.11ZM39.08,34,37.9,35.7l-.46.67a2.48,2.48,0,0,1-.31.45,2.82,2.82,0,0,1-2.13,1,2.78,2.78,0,0,1-2.7-2.1c0-.08,0-.17-.06-.26a2.19,2.19,0,0,1,0-.44,2.81,2.81,0,0,1,1.06-2.2l.2-.14L36,30.92,46.18,23.8Z"/><rect class="cls-1" x="34.3" y="2.8" width="1.4" height="6.3" rx="0.7" ry="0.7"/><path class="cls-1" d="M9.1,35a.7.7,0,0,1-.7.7H3.5a.7.7,0,0,1,0-1.4H8.4A.7.7,0,0,1,9.1,35Z"/><path class="cls-1" d="M67.2,35a.7.7,0,0,1-.7.7H61.6a.7.7,0,1,1,0-1.4h4.9A.7.7,0,0,1,67.2,35Z"/><rect class="cls-1" x="13.76" y="11.31" width="1.4" height="6.3" rx="0.7" ry="0.7" transform="translate(34.91 14.46) rotate(135)"/><rect class="cls-1" x="54.84" y="11.31" width="1.4" height="6.3" rx="0.7" ry="0.7" transform="translate(84.59 63.96) rotate(-135)"/><rect class="cls-1" x="45.65" y="5.11" width="1.4" height="6.3" rx="0.7" ry="0.7" transform="translate(85.79 33.97) rotate(-157)"/><rect class="cls-1" x="23.42" y="4.92" width="1.4" height="6.3" rx="0.7" ry="0.7" transform="translate(49.5 6.51) rotate(158)"/><rect class="cls-1" x="7.56" y="20.5" width="1.4" height="6.3" rx="0.7" ry="0.7" transform="translate(33.26 25.29) rotate(113)"/><rect class="cls-1" x="61.23" y="20.97" width="1.4" height="6.3" rx="0.7" ry="0.7" transform="translate(62.77 90.58) rotate(-112)"/><path class="cls-2" d="M51.71,18.3,39.61,35.7H37.9L39.08,34l7.1-10.21L36,30.92l-2.51,1.74-.2.14A2.81,2.81,0,0,0,32.2,35a2.19,2.19,0,0,0,0,.44c0,.09,0,.17.06.26H10.86A24.22,24.22,0,0,1,35,11.47a23.94,23.94,0,0,1,16.71,6.8Z"/></g></g></svg>