<svg xmlns="http://www.w3.org/2000/svg" width="171" height="35" preserveAspectRatio="xMidYMid"><defs><style>.cls-1 { fill: #1d2939; fill-rule: evenodd; }</style></defs><path d="M171 20.63c0 .28-.25.5-.53.5h-11.64c.06 2.84 2.13 4.67 5 4.67 2.1 0 3.42-1 4.14-1.83.2-.2.5-.25.73-.1l1.4 1.06c.24.17.3.5.13.72-.95 1.3-3.02 3.05-6.46 3.05-5.03 0-8.37-3.48-8.37-8.3 0-4.94 3.43-8.43 7.85-8.43 4.88 0 7.75 3.33 7.75 8.34 0 .1 0 .22 0 .33zm-7.72-5.88c-2.32 0-4.1 1.6-4.33 4.1h8.62c-.12-2.63-1.97-4.1-4.3-4.1zm-18.6 20.16c-1.97 0-4-.56-5.42-1.28-.24-.12-.35-.4-.25-.67l.7-1.6c.1-.28.43-.4.7-.28.85.4 2.42.98 4.24.98 2.68 0 5.06-1.73 5.06-4.75v-1.07c-.37.52-1.97 2.47-5.16 2.47-4.63 0-7.72-3.45-7.72-8.33 0-4.9 3.22-8.4 7.8-8.4 3 0 4.74 1.8 5.24 2.54v-1.48c0-.34.3-.58.63-.5l2.12.43c.24.05.42.26.42.5V26.2c0 5.98-3.68 8.7-8.37 8.7zm.3-19.96c-2.78 0-4.8 2.2-4.8 5.4 0 3.27 2.08 5.4 4.83 5.4 2.9 0 4.8-2.26 4.8-5.4 0-3.27-2.04-5.4-4.82-5.4zM133.53 28.3h-2c-.24 0-.45-.16-.5-.4l-.2-.8c-.82.93-2.12 1.6-4.13 1.6-3.4 0-6.08-2.1-6.08-5.3 0-3.1 2.53-5.26 6.24-5.26 1.85 0 3.24.6 3.86 1.16v-1.5c0-1.83-1.3-2.93-3.43-2.93-1.58 0-2.97.48-4.08 1.03-.25.12-.55.02-.7-.22l-.8-1.44c-.13-.25-.05-.56.2-.7 1.33-.76 3.3-1.57 5.7-1.57 4.8 0 6.43 2.57 6.43 6.05v9.76c0 .3-.23.53-.52.53zm-6.15-7.75c-2.04 0-3.4 1.16-3.4 2.75 0 1.6 1.4 2.75 3.43 2.75 2 0 3.4-1.1 3.4-2.75 0-1.68-1.38-2.75-3.42-2.75zm-16.45 8.15c-3.06 0-4.8-1.83-5.22-2.5v8.18c0 .3-.22.52-.52.52h-2.3c-.3 0-.53-.23-.53-.52V13c0-.32.3-.56.63-.5l2.13.45c.25.05.43.26.43.5v1.03c.43-.58 2.07-2.5 5.2-2.5 4.6 0 7.86 3.48 7.86 8.33 0 4.95-3.07 8.4-7.67 8.4zm-.55-13.76c-2.97 0-4.8 2.44-4.8 5.37 0 3.46 2.14 5.44 4.83 5.44 2.82 0 4.8-2.23 4.8-5.43 0-3.26-2.08-5.36-4.82-5.36zM98.58 28.3H96.6c-.24 0-.46-.16-.5-.4l-.2-.8c-.83.93-2.13 1.6-4.14 1.6-3.4 0-6.08-2.1-6.08-5.3 0-3.1 2.53-5.26 6.24-5.26 1.85 0 3.24.6 3.86 1.16v-1.5c0-1.83-1.3-2.93-3.43-2.93-1.57 0-2.96.48-4.06 1.03-.27.12-.57.02-.7-.22l-.8-1.44c-.15-.25-.06-.56.2-.7 1.3-.76 3.3-1.57 5.7-1.57 4.78 0 6.42 2.57 6.42 6.05v9.76c0 .3-.24.53-.53.53zm-6.14-7.75c-2.03 0-3.4 1.16-3.4 2.75 0 1.6 1.4 2.75 3.44 2.75 1.97 0 3.4-1.1 3.4-2.75 0-1.68-1.4-2.75-3.44-2.75zm-10.3 7.97c-3.92 0-5.1-2.6-5.1-6.5v-6.9h-1.26c-.3 0-.53-.23-.53-.52v-1.7c0-.3.24-.53.53-.53h1.26v-2.7c0-.32.3-.56.64-.5l2.28.46c.24.05.42.26.42.5v2.24h2.75c.3 0 .52.24.52.52v1.7c0 .3-.23.52-.52.52h-2.75v7.42c0 2.47.96 3.02 2.75 3.02.1 0 .2 0 .3 0 .35 0 .35.4.35.4v1.98c0 .27-.2.5-.47.52-.27.03-.66.06-1.16.06zm-14.07.18c-2.97 0-4.67-1.43-5.56-2.76-.14-.23-.1-.53.13-.7l1.3-1.03c.23-.17.56-.13.74.1.74.9 1.8 1.65 3.55 1.65 1.42 0 2.47-.7 2.47-1.98 0-3.05-7.85-1.95-7.85-7.48 0-2.82 2.4-4.53 5.53-4.53 2.67 0 4.24 1.37 5 2.53.15.23.08.55-.16.7l-1.48.98c-.22.15-.53.1-.7-.1-.5-.67-1.36-1.4-2.85-1.4-1.24 0-2.17.65-2.17 1.75 0 3.05 7.88 1.77 7.88 7.4 0 2.95-2.53 4.87-5.83 4.87zm-8.5-.4h-2.3c-.3 0-.52-.23-.52-.52v-9.33c0-2.2-1.4-3.48-3.25-3.48-2.13 0-3.52 1.55-3.52 3.72v9.08c0 .3-.23.53-.52.53h-2.32c-.3 0-.52-.23-.52-.52v-14.9c0-.28.23-.5.52-.5h2.25c.3 0 .52.22.52.5v1.57c.7-1.25 2.38-2.48 4.54-2.48 4.17 0 5.62 3.27 5.62 6.75v9.06c0 .3-.23.53-.52.53zm-17.33 0h-2.37c-.3 0-.53-.23-.53-.52V6.56c0-.33.3-.58.63-.5l2.37.45c.25.05.43.27.43.52v20.76c0 .3-.24.53-.53.53zM10.52 35c-.32.05-.62-.2-.62-.52V.52c0-.32.3-.57.6-.5L32.4 3.53c.25.04.44.26.44.52v26.6c0 .25-.2.46-.44.5L10.52 35zM30.05 6.83c0-.26-.2-.48-.46-.5L14.14 4.4c-.3-.03-.6.22-.6.53V30.4c0 .32.3.56.6.52l15.44-2.18c.25-.03.45-.25.45-.5V6.83zM5.55 32.12c-.3.05-.6-.2-.6-.5V3.1c0-.32.3-.56.6-.52l1.7.23c.26.05.45.27.45.52v28.04c0 .26-.2.48-.45.5l-1.7.26zM.6 29.42c-.32.05-.6-.2-.6-.5V5.66c0-.3.27-.56.58-.52l1.7.17c.27.04.47.26.47.53v22.9c0 .26-.2.48-.47.52l-1.7.18z" class="cls-1"/></svg>