<svg xmlns="http://www.w3.org/2000/svg" width="266" height="40" viewBox="0 0 266 40">
    <g fill="#FFF" fill-rule="nonzero">
        <path d="M67.682 19.995c1.943 0 3.159-1.048 3.159-2.669 0-1.637-1.185-2.652-3.16-2.652h-3.964v5.32h3.965zM61 12.006h6.871a6.076 6.076 0 0 1 4.376 1.604c.84.93 1.3 2.163 1.28 3.438.101 2.351-1.458 4.432-3.681 4.911L74 28h-3.16l-3.79-5.566h-3.333V28H61V12.006zM80 12h11.885v2.508h-9.061v4.164h8.027v2.508h-8.027v4.312H92V28H80zM107.266 21.766l-2.808-6.348-2.808 6.348h5.616zM103.171 12h2.658L113 28h-3.026l-1.671-3.841h-7.69L98.943 28H96l7.171-16zM117 12h2.75v13.443H128V28h-11zM134.078 14.607H129V12h13v2.607h-5.078V28h-2.844zM151.14 21.689L145 12h3.196l4.336 7.082L156.899 12H160l-6.123 9.623V28h-2.738zM163.05 25.534l1.112-1.297a7.703 7.703 0 0 0 5.436 2.161c2.144 0 3.552-1.12 3.552-2.657 0-1.457-.802-2.274-4.158-2.962-3.667-.785-5.37-1.937-5.37-4.515 0-2.45 2.21-4.258 5.255-4.258a8.453 8.453 0 0 1 5.632 1.873l-1.048 1.36a7.119 7.119 0 0 0-4.6-1.648c-2.08 0-3.405 1.12-3.405 2.53 0 1.472.818 2.304 4.338 3.04 3.52.737 5.206 2.034 5.206 4.42 0 2.673-2.276 4.418-5.452 4.418A9.465 9.465 0 0 1 163 25.502M181 12h1.826v7.115h9.348V12H194v16h-1.826v-7.197h-9.348V28H181zM209.565 22.19l-3.606-8.14-3.622 8.14h7.228zM205.147 12h1.625L214 28h-1.884l-1.852-4.2h-8.544l-1.884 4.2H198l7.147-16zM225.62 20.2c2.353 0 4.044-1.229 4.044-3.277 0-1.967-1.482-3.147-4.011-3.147h-4.833v6.555l4.8-.131zm-6.604-8.193h6.75a6.14 6.14 0 0 1 4.462 1.638 4.45 4.45 0 0 1 1.208 3.147c-.01 2.447-1.87 4.474-4.269 4.653L232 28h-2.175l-4.559-6.21h-4.494V28H219l.016-15.993zM238 12h11.882v1.656h-10.028v5.459h8.966v1.64h-8.966v5.606H250V28h-12zM254.016 25.533l1.114-1.297a7.686 7.686 0 0 0 5.484 2.162c2.145 0 3.552-1.12 3.552-2.658 0-1.457-.802-2.274-4.158-2.962-3.667-.785-5.37-1.938-5.37-4.516 0-2.45 2.21-4.259 5.256-4.259a8.45 8.45 0 0 1 5.615 1.922l-1.048 1.36a7.115 7.115 0 0 0-4.6-1.697c-2.08 0-3.405 1.121-3.405 2.53 0 1.473.818 2.306 4.338 3.043 3.52.736 5.206 2.033 5.206 4.419 0 2.674-2.276 4.42-5.452 4.42A9.464 9.464 0 0 1 254 25.5M44.639 30.145a.324.324 0 0 0-.357-.243 4.112 4.112 0 0 0-1.021.21l-18.33 4.911a9.413 9.413 0 0 1-2.334.259 9.43 9.43 0 0 1-2.334-.259L1.901 30.096a4.096 4.096 0 0 0-1.021-.21.324.324 0 0 0-.357.242c0 .259.146.42 1.07.808l18.573 8.077a6.29 6.29 0 0 0 4.765-.065l18.573-8.076c.924-.404 1.135-.55 1.07-.808M43.358 4.573L25.093.825a13.007 13.007 0 0 0-2.512-.21 13.007 13.007 0 0 0-2.512.21L1.82 4.573c-1.005.21-1.248.34-1.216.614.033.275.47.323.86.323h.486l18.119-.792h4.975l18.185.744h.486c.389 0 .81 0 .859-.324.048-.323-.227-.42-1.216-.613M44.639 21.147c0-.275-.373-.275-.503-.275a6.976 6.976 0 0 0-.859 0l-18.2 2.601c-.812.102-1.63.15-2.447.145a18.845 18.845 0 0 1-2.431-.145l-18.217-2.52a7.008 7.008 0 0 0-.875 0c-.13 0-.454 0-.503.275-.048.274.195.42 1.151.71l18.379 5.509c.808.217 1.643.32 2.48.307a8.974 8.974 0 0 0 2.48-.307l18.378-5.509c.972-.29 1.199-.436 1.15-.71M43.358 11.923l-18.281.145h-5.008l-18.152-.145h-.113c-.86 0-1.183 0-1.183.323s.308.42 1.231.582l18.217 3.085c.831.126 1.671.185 2.512.178.84.007 1.68-.052 2.512-.178l18.233-3.085c.94-.162 1.264-.275 1.232-.582-.033-.307-.325-.323-1.2-.323"/>
    </g>
</svg>
