<svg xmlns="http://www.w3.org/2000/svg" width="288" height="60" viewBox="0 0 288 60">
    <g fill="#FFF" fill-rule="nonzero">
        <path d="M232.55 1.14l-9.04 4.91v40.13h9.04zM288 12.74h-5.9V4.46l-9.04 4.91v36.96h9.04v-26.1h5.9zM155.07 19.67c-4.89 0-8.44 3.69-8.44 9.72 0 6.03 3.54 9.71 8.44 9.71 4.9 0 8.43-3.68 8.43-9.71 0-6.03-3.54-9.72-8.43-9.72m0-7.83c10 0 17.62 7.08 17.62 17.55s-7.61 17.54-17.62 17.54c-10.01 0-17.57-7.11-17.57-17.54s7.55-17.57 17.57-17.57M118.62 45.2a59.65 59.65 0 0 1-13.86 1.73c-9.72 0-15.82-3-15.82-13V12.59h9.11v20.64c0 4.29 1.88 6.25 6.63 6.25a30.19 30.19 0 0 0 4.82-.45V12.59h9.12V45.2zM137.38 12.59h-5.91V4.31l-9.03 4.91v36.96h9.03v-26.1h5.91zM187.68 39.03a7.51 7.51 0 0 1-3.08-.69V20.61a15.13 15.13 0 0 1 3.84-.64c5.57 0 9.41 3.24 9.41 9 0 6.93-4.37 10-10.17 10m.9-27.19a31.87 31.87 0 0 0-13.08 2.85V59.3l9.11-5v-8.04a9.92 9.92 0 0 0 3.76.68c11.68 0 18.68-6.56 18.68-18.23 0-10.61-7.46-16.86-18.45-16.86M209.98 12.59h9.04v33.59h-9.04zM209.07 5.49a5.42 5.42 0 1 1 5.43 5.33 5.41 5.41 0 0 1-5.41-5.34M252.84 19.67c-4.9 0-8.44 3.69-8.44 9.72 0 6.03 3.54 9.71 8.44 9.71 4.9 0 8.43-3.69 8.43-9.71 0-6.02-3.54-9.72-8.43-9.72m0-7.83c10 0 17.62 7.08 17.62 17.55s-7.61 17.54-17.62 17.54c-10.01 0-17.55-7.11-17.55-17.54s7.53-17.57 17.55-17.57M76.57 32.02h-3c-4.22 0-6.7 1.21-6.7 4.07 0 2.86 2.33 4.15 5.95 4.15a16.9 16.9 0 0 0 3.75-.42v-7.8zm0-7.83c0-3.24-2.71-4.6-6-4.6a18.25 18.25 0 0 0-9.71 2.79v-7.83a23 23 0 0 1 11.27-2.73c7.68 0 13.37 3 13.37 12v21.7a63 63 0 0 1-12.62 1.3c-8.51 0-15.06-2.56-15.06-10.31 0-7 5.65-10.31 15.06-10.31h3.69v-2.01zM0 19.32l4.74 8.79h34.51l4.62-8.79zM4.62 31.19l4.74 8.79h25.26l4.63-8.79z"/>
    </g>
</svg>
