<svg xmlns="http://www.w3.org/2000/svg" width="264" height="60" viewBox="0 0 264 60">
    <g fill="#FFF" fill-rule="nonzero">
        <path d="M258.083 0H264v.005L245.879 40h-4.82L232 20h5.964l5.517 12.228zM104.064 5h11.561v10.766h-11.56V5zM13.11 58.76h12.078l13.11-39.661H26.733L19.37 44.583h-.15L11.856 19.1H0l13.11 39.66zm42.42-32.145c4.05 0 6.85 3.175 7.29 7.823H47.429c.884-4.726 3.314-7.823 8.101-7.823zm.59 24.553c-5.082 0-8.174-3.485-8.765-8.83H74.53c.074-8.52-2.06-15.336-6.556-19.596-3.165-3.1-7.364-4.804-12.665-4.804-11.342 0-19.223 9.064-19.223 20.915 0 11.929 7.513 21.07 19.959 21.07 4.714 0 8.468-1.318 11.562-3.566 3.314-2.398 5.67-5.885 6.334-9.371H62.893c-1.103 2.635-3.387 4.182-6.775 4.182zm21.136 7.591h11.49V40.557c0-8.287 4.712-11.93 11.928-10.922h.221V19.179c-.589-.233-1.251-.31-2.356-.31-4.49 0-7.51 2.169-10.089 6.815h-.222v-6.585H77.255v39.66zm26.81 0h11.56V19.1h-11.56v39.66zm14.729 0h32.257v-9.528h-18.267v-.23l17.457-20.604v-9.298h-31.447v9.528h17.673v.233l-17.673 20.761v9.138zm52.655-7.666c-5.45 0-8.32-4.804-8.32-12.085 0-7.359 2.87-12.086 8.32-12.086 5.452 0 8.472 4.727 8.472 12.086 0 7.281-3.02 12.085-8.472 12.085zm.075-33.079c-12.004 0-20.032 9.065-20.032 20.994C151.492 50.86 159.52 60 171.524 60c12.003 0 20.031-9.14 20.031-20.992 0-11.93-8.028-20.994-20.03-20.994zM194.06 58.76h11.489V36.683c0-5.034 2.797-8.597 6.92-8.597 3.978 0 6.04 2.942 6.04 7.126V58.76H230V32.887c0-8.751-5.008-14.949-13.11-14.949-5.157 0-8.763 2.325-11.487 6.585h-.222V19.1H194.06v39.66z"/>
    </g>
</svg>
