<svg xmlns="http://www.w3.org/2000/svg" width="50" height="50" viewBox="0 0 50 50">
    <g fill="#BECED6" fill-rule="nonzero">
        <path d="M25 1.5c12.972.017 23.483 10.528 23.5 23.5a23.58 23.58 0 0 1-5.4 15l-.28.32a23.47 23.47 0 0 1-35.56 0c-.1-.11-.2-.21-.3-.34A23.6 23.6 0 0 1 1.5 25C1.506 12.024 12.024 1.506 25 1.5zM25 0A25 25 0 0 0 5.72 40.92c.11.14.23.27.36.41a25 25 0 0 0 37.84 0c.13-.14.25-.27.36-.41A25 25 0 0 0 25 0z"/>
        <path d="M25 9.74a6.8 6.8 0 0 1 6.78 6.78 6.78 6.78 0 0 1-13.56 0A6.8 6.8 0 0 1 25 9.74zm0-1.5a8.29 8.29 0 1 0 6.51 3.17A8.24 8.24 0 0 0 25 8.24zM25 30.23a18.84 18.84 0 0 1 15 7.29 18.25 18.25 0 0 1 2.2 3.53 23.48 23.48 0 0 1-34.31 0A19.11 19.11 0 0 1 25 30.23zm0-1.5a20.4 20.4 0 0 0-16.13 7.86 20 20 0 0 0-2.79 4.74 25 25 0 0 0 37.84 0 20 20 0 0 0-2.79-4.74A20.4 20.4 0 0 0 25 28.73z"/>
    </g>
</svg>
