<svg xmlns="http://www.w3.org/2000/svg" width="70" height="70" viewBox="0 0 70 70">
    <g fill="none" fill-rule="nonzero">
        <path fill="#BDCCD4" d="M68.6 7v2.8H1.4V7h67.2zM70 5.6H0v5.6h70V5.6z"/>
        <path fill="#BDCCD4" d="M3.5 9.8v1.4h63V9.8z"/>
        <path fill="#BCCED6" d="M34.18 0h1.52v5.6h-1.52z"/>
        <path fill="#BDCCD4" d="M66.5 11.2v32.2a5.6 5.6 0 0 1-5.6 5.6h-18l2 2.62L56.7 67v2.3a.7.7 0 1 1-1.4 0v-1.86L43.13 51.62 41.1 49H28.88l-2 2.62L14.7 67.44v1.86a.7.7 0 0 1-1.4 0V67l11.8-15.38 2-2.62h-18a5.6 5.6 0 0 1-5.6-5.6V11.2h1.4v35a1.4 1.4 0 0 0 1.4 1.4h57.4a1.4 1.4 0 0 0 1.4-1.4v-35h1.4z"/>
        <path fill="#BDCCD4" d="M58.41 26.58a2.8 2.8 0 0 0-5.2 1.22 1.41 1.41 0 0 0 0 .2 2.8 2.8 0 0 0 3.5 2.71 2.8 2.8 0 0 0 1.7-4.13zM56 29.4a1.4 1.4 0 0 1-1.37-1.12 1.27 1.27 0 0 1 0-.28c.01-.387.184-.75.48-1a1.31 1.31 0 0 1 .89-.4 1 1 0 0 1 .36 0c.488.13.87.512 1 1a1 1 0 0 1 0 .36A1.4 1.4 0 0 1 56 29.4zM12.6 35a1 1 0 0 1 .05-.36l-1.06-1A2.72 2.72 0 0 0 11.2 35a2.8 2.8 0 0 0 2.1 2.71V36.4h.7a1.4 1.4 0 0 1-1.4-1.4zm0 0a1 1 0 0 1 .05-.36l-1.06-1A2.72 2.72 0 0 0 11.2 35a2.8 2.8 0 0 0 2.1 2.71V36.4h.7a1.4 1.4 0 0 1-1.4-1.4zm4-.92A2.79 2.79 0 0 0 14 32.2a2.72 2.72 0 0 0-1.41.39 2.53 2.53 0 0 0-1 1A2.72 2.72 0 0 0 11.2 35a2.8 2.8 0 0 0 5.27 1.322 2.79 2.79 0 0 0 .17-2.242h-.04zM14 36.4a1.4 1.4 0 0 1-1.4-1.4 1 1 0 0 1 .05-.36 1.38 1.38 0 0 1 1-1c.12-.02.24-.02.36 0 .216-.001.429.05.62.15a1.37 1.37 0 0 1 .77 1.25A1.4 1.4 0 0 1 14 36.4zM12.6 35a1 1 0 0 1 .05-.36l-1.06-1A2.72 2.72 0 0 0 11.2 35a2.8 2.8 0 0 0 2.1 2.71V36.4h.7a1.4 1.4 0 0 1-1.4-1.4zm0 0a1 1 0 0 1 .05-.36l-1.06-1A2.72 2.72 0 0 0 11.2 35a2.8 2.8 0 0 0 2.1 2.71V36.4h.7a1.4 1.4 0 0 1-1.4-1.4zM35 18.2a2.79 2.79 0 0 0-2.64 3.72c.156.447.421.85.77 1.17a2.82 2.82 0 0 0 2.57.62 2.82 2.82 0 0 0 1.65-1.19 2.77 2.77 0 0 0 .44-1.32 1.41 1.41 0 0 0 0-.2A2.8 2.8 0 0 0 35 18.2zm1.4 2.8a1.35 1.35 0 0 1-.48 1 1.36 1.36 0 0 1-1.54.21 1.35 1.35 0 0 1-.77-1.25 1.4 1.4 0 0 1 2.77-.28c.02.105.027.213.02.32z"/>
        <path fill="#BCCED6" d="M13.3 36.4h1.4v11.9h-1.4zM34.3 23.1h1.4v25.2h-1.4zM55.3 30.1h1.4v18.2h-1.4z"/>
        <path fill="#BDCCD4" d="M13.64 33.65a1.38 1.38 0 0 0-1 1L3.5 25.49v-2l1.4 1.4 7.69 7.68 1.05 1.08zM34.38 22.25l-1.25.84-16.49 11-1.25.83a1.37 1.37 0 0 0-.77-1.16l1.24-.84 16.5-11 1.25-.83c.022.5.318.946.77 1.16zM54.6 28a1.27 1.27 0 0 0 0 .28l-1.42-.48-15.83-5.28-1.43-.52c.296-.25.47-.613.48-1a1.27 1.27 0 0 0 0-.28l1.42.48 15.86 5.28 1.43.48A1.35 1.35 0 0 0 54.6 28zM66.5 16.51v2l-9.15 9.15a1.41 1.41 0 0 0-1-1l1.06-1.06 7.68-7.68 1.41-1.41z"/>
        <circle cx="14" cy="69.3" r="1" fill="#BDCCD4"/>
        <circle cx="56" cy="69.3" r="1" fill="#BDCCD4"/>
        <path fill="#BCCED6" d="M65.1 12.28V46.2a1.4 1.4 0 0 1-1.4 1.4H6.3a1.4 1.4 0 0 1-1.4-1.4V12.28a2.8 2.8 0 0 0-1.4 2.42v31.5A2.81 2.81 0 0 0 6.3 49h57.4a2.81 2.81 0 0 0 2.8-2.8V14.7a2.8 2.8 0 0 0-1.4-2.42z"/>
        <path fill="#BCCED6" d="M57.42 25.59a2.79 2.79 0 0 0-3.77.89L37.79 21.2a1.41 1.41 0 0 0 0-.2 2.8 2.8 0 1 0-5.44.92l-16.5 11A2.79 2.79 0 0 0 14 32.2a2.72 2.72 0 0 0-1.41.39L4.9 24.91v2l7.75 7.75a1.38 1.38 0 0 1 1-1c.12-.02.24-.02.36 0 .216-.001.429.05.62.15.449.218.744.662.77 1.16l1.25-.83 16.49-11 1.25-.84a1.35 1.35 0 0 1-.77-1.25 1.4 1.4 0 0 1 2.77-.28c.01.093.01.187 0 .28a1.35 1.35 0 0 1-.48 1l1.43.48 15.87 5.27 1.42.48a1.27 1.27 0 0 1 0-.28c.01-.387.184-.75.48-1a1.31 1.31 0 0 1 .89-.4 1 1 0 0 1 .36 0c.488.13.87.512 1 1l7.75-7.75v-2l-7.69 7.74zm0 0a2.79 2.79 0 0 0-3.77.89L37.79 21.2a1.41 1.41 0 0 0 0-.2 2.8 2.8 0 1 0-5.44.92l-16.5 11A2.79 2.79 0 0 0 14 32.2a2.72 2.72 0 0 0-1.41.39L4.9 24.91v2l7.75 7.75a1.38 1.38 0 0 1 1-1c.12-.02.24-.02.36 0 .216-.001.429.05.62.15.449.218.744.662.77 1.16l1.25-.83 16.49-11 1.25-.84a1.35 1.35 0 0 1-.77-1.25 1.4 1.4 0 0 1 2.77-.28c.01.093.01.187 0 .28a1.35 1.35 0 0 1-.48 1l1.43.48 15.87 5.27 1.42.48a1.27 1.27 0 0 1 0-.28c.01-.387.184-.75.48-1a1.31 1.31 0 0 1 .89-.4 1 1 0 0 1 .36 0c.488.13.87.512 1 1l7.75-7.75v-2l-7.69 7.74zM1.62 11.17H3.5v35A2.81 2.81 0 0 0 6.3 49h20.82l-2 2.62h1.77l2-2.62H41.1l2 2.62h1.8l-2-2.62h20.8a2.81 2.81 0 0 0 2.8-2.8v-35H70l-68.38-.03zm12 22.48c.12-.02.24-.02.36 0 .216-.001.429.05.62.15a1.37 1.37 0 0 1 .77 1.25 1.4 1.4 0 0 1-2.8 0 1 1 0 0 1 .05-.36 1.38 1.38 0 0 1 1.02-1.04h-.02zM33.6 21a1.4 1.4 0 0 1 2.77-.28c.01.093.01.187 0 .28a1.35 1.35 0 0 1-.48 1 1.36 1.36 0 0 1-1.54.21 1.35 1.35 0 0 1-.77-1.16.28.28 0 0 1 .02-.05zm21 7c.01-.387.184-.75.48-1a1.31 1.31 0 0 1 .92-.4 1 1 0 0 1 .36 0c.488.13.87.512 1 1a1 1 0 0 1 0 .36 1.4 1.4 0 0 1-2.77.28c-.004-.08 0-.16.01-.24zm10.5-10.09l-7.68 7.68a2.79 2.79 0 0 0-3.77.89L37.79 21.2a1.41 1.41 0 0 0 0-.2 2.8 2.8 0 1 0-5.44.92l-16.5 11A2.79 2.79 0 0 0 14 32.2a2.72 2.72 0 0 0-1.41.39L4.9 24.91V11.2h60.2v6.71zm-7.68 7.68a2.79 2.79 0 0 0-3.77.89L37.79 21.2a1.41 1.41 0 0 0 0-.2 2.8 2.8 0 1 0-5.44.92l-16.5 11A2.79 2.79 0 0 0 14 32.2a2.72 2.72 0 0 0-1.41.39L4.9 24.91v2l7.75 7.75a1.38 1.38 0 0 1 1-1c.12-.02.24-.02.36 0 .216-.001.429.05.62.15.449.218.744.662.77 1.16l1.25-.83 16.49-11 1.25-.84a1.35 1.35 0 0 1-.77-1.25 1.4 1.4 0 0 1 2.77-.28c.01.093.01.187 0 .28a1.35 1.35 0 0 1-.48 1l1.43.48 15.87 5.27 1.42.48a1.27 1.27 0 0 1 0-.28c.01-.387.184-.75.48-1a1.31 1.31 0 0 1 .89-.4 1 1 0 0 1 .36 0c.488.13.87.512 1 1l7.75-7.75v-2l-7.69 7.74z" opacity=".2"/>
    </g>
</svg>
