<svg xmlns="http://www.w3.org/2000/svg" width="54" height="70" viewBox="0 0 54 70">
    <g fill="none" fill-rule="evenodd" transform="translate(0 1)">
        <path fill="#BCCED6" fill-rule="nonzero" d="M20 24.4h16.6V41a2.54 2.54 0 0 1-2.5 2.5H17.4V27a2.65 2.65 0 0 1 2.6-2.6z" opacity=".2"/>
        <path fill="#BCCED6" fill-rule="nonzero" d="M28.4.5v6.2h8z" opacity=".3"/>
        <path stroke="#BCCDD6" stroke-width="1.5" d="M36.4 25.2V6.7L28.5.5H2.3A1.35 1.35 0 0 0 1 1.9v40.3a1.37 1.37 0 0 0 1.4 1.4h16"/>
        <path stroke="#BCCDD6" stroke-width="1.5" d="M28.4.5v6.2h8"/>
        <path fill="#BCCED6" fill-rule="nonzero" d="M45 24.4v6.2h8z" opacity=".3"/>
        <path stroke="#BCCDD6" stroke-width="1.5" d="M17.6 43.1v23a1.37 1.37 0 0 0 1.4 1.4h32.7a1.37 1.37 0 0 0 1.4-1.4V30.6l-7.9-6.2H36"/>
        <path stroke="#BCCDD6" stroke-width="1.5" d="M45 24.4v6.2h8"/>
        <path stroke="#BCCED6" stroke-linecap="round" stroke-width="1.5" d="M21.6 14.9h11.6M22.3 55.2h11.6M32.5 28.5l-10.9 11"/>
        <circle cx="23.7" cy="30.4" r="1.9" stroke="#BCCED6" stroke-linecap="round" stroke-width="1.5"/>
        <circle cx="30.5" cy="37.4" r="1.9" stroke="#BCCED6" stroke-linecap="round" stroke-width="1.5"/>
        <path stroke="#BCCED6" stroke-dasharray="3.87" stroke-width="1.5" d="M17.5 39.5V27.2a2.69 2.69 0 0 1 2.7-2.7H34M36.6 28.5v12.4a2.69 2.69 0 0 1-2.7 2.7H20.2"/>
        <path stroke="#BCCDD6" stroke-width="1.5" d="M5.3 20.1l6-14.1 6.1 14.1M7.9 14.9h6.9M44.8 48.6h-5.2v6.3h5.2a3.05 3.05 0 0 0 3.1-3.1 3.14 3.14 0 0 0-3.1-3.2zM44.8 55h-5.2v6.3h5.2a3.05 3.05 0 0 0 3.1-3.1 3.14 3.14 0 0 0-3.1-3.2z"/>
    </g>
</svg>
