<svg xmlns="http://www.w3.org/2000/svg" width="70" height="71" viewBox="0 0 70 71">
    <g fill="#B8CAD4" fill-rule="nonzero">
        <path d="M58.14 70.07H11.87A2.84 2.84 0 0 1 9 67.23V2.91A2.84 2.84 0 0 1 11.87.07h46.27A2.85 2.85 0 0 1 61 2.91v64.32a2.84 2.84 0 0 1-2.86 2.84zM11.87 1.48c-.79 0-1.43.64-1.43 1.43v64.32a1.43 1.43 0 0 0 1.43 1.43h46.27a1.43 1.43 0 0 0 1.43-1.43V2.91c0-.79-.64-1.43-1.43-1.43H11.87z"/>
        <path d="M9.67 66.11a.7.7 0 0 1-.67-.59L.42 11.75A2.5 2.5 0 0 1 .9 9.83a2.89 2.89 0 0 1 1.93-1.12l6.68-.9a.71.71 0 1 1 .19 1.4l-6.7.9a1.48 1.48 0 0 0-1 .56 1.12 1.12 0 0 0-.22.86l8.56 53.76a.7.7 0 0 1-.59.81l-.08.01zM60.33 66.11h-.11a.7.7 0 0 1-.59-.81l8.56-53.76a1.12 1.12 0 0 0-.22-.86 1.48 1.48 0 0 0-1-.56l-6.69-.9a.7.7 0 0 1-.61-.79.71.71 0 0 1 .8-.61l6.68.9a2.89 2.89 0 0 1 1.95 1.11 2.5 2.5 0 0 1 .48 1.92L61 65.52a.7.7 0 0 1-.67.59zM52.13 29.78a17 17 0 0 1-3.46 8.35l-5.78-5.78A8.67 8.67 0 0 0 44 29.78h8.18-.05zm.75-1.41h-9.44a.77.77 0 0 0-.76.64 7.73 7.73 0 0 1-1.24 3 .79.79 0 0 0 .09 1l6.64 6.64a.78.78 0 0 0 .55.23.78.78 0 0 0 .56-.28 18.53 18.53 0 0 0 4.32-10.38.75.75 0 0 0-.2-.59.73.73 0 0 0-.57-.26h.05z"/>
        <path d="M32.86 10.51v8.18a9.17 9.17 0 1 0 6.94 16.75l5.78 5.79a17.23 17.23 0 1 1-12.72-30.72zM33.51 9h-.09A18.64 18.64 0 1 0 47 41.87a.79.79 0 0 0 .27-.56.74.74 0 0 0-.23-.58l-6.64-6.64a.78.78 0 0 0-.55-.23.74.74 0 0 0-.44.14 7.77 7.77 0 1 1-5.81-14 .77.77 0 0 0 .64-.76V9.81a.77.77 0 0 0-.74-.78l.01-.03z"/>
        <path d="M37.23 10.51a17.18 17.18 0 0 1 14.9 14.9H44a9.21 9.21 0 0 0-6.72-6.72v-8.18h-.05zM36.6 9a.78.78 0 0 0-.78.78v9.42c0 .375.27.697.64.76a7.8 7.8 0 0 1 6.22 6.22.77.77 0 0 0 .76.64h9.39a.76.76 0 0 0 .57-.25.81.81 0 0 0 .21-.59A18.58 18.58 0 0 0 36.66 9h-.06z"/>
        <path d="M36.46 20a7.8 7.8 0 0 1 6.22 6.22.77.77 0 0 0 .76.64h9.39a.76.76 0 0 0 .57-.25.81.81 0 0 0 .21-.59A18.58 18.58 0 0 0 36.66 9a.77.77 0 0 0-.84.77v9.43a.77.77 0 0 0 .64.8z" opacity=".2"/>
        <path d="M53.61 55.12H17.38a.7.7 0 0 1-.7-.71.7.7 0 0 1 .7-.7h36.23a.7.7 0 0 1 .7.7.7.7 0 0 1-.7.71zM35.49 60.71H17.38a.7.7 0 0 1-.7-.7.7.7 0 0 1 .7-.71h18.11a.71.71 0 0 1 .71.71.7.7 0 0 1-.71.7z"/>
        <path d="M9.67 9.44l-.91-.38-6.7 1.03-.58 1.3 7.4 45.95.47-.66zM60.52 9.44l.91-.38 6.7 1.03.59 1.3-7.41 45.95-.47-.66z" opacity=".2"/>
    </g>
</svg>
