<svg xmlns="http://www.w3.org/2000/svg" width="70" height="70" viewBox="0 0 70 70">
    <g fill="none" fill-rule="nonzero">
        <path fill="#BDCCD4" d="M28 49.3v9.5H.7a.7.7 0 0 0 0 1.4h28.7V49.3H28zM69.3 58.8H42v-9.5h-1.4v10.9h28.7a.7.7 0 1 0 0-1.4zM33.6 49v20.3a.7.7 0 1 1-1.4 0V49h1.4zM37.8 49v20.3a.7.7 0 0 1-1.4 0V49h1.4z"/>
        <path fill="#BCCED6" d="M12.26 23.44v1.4h45.48v-1.4H12.26zm0 0v1.4h45.48v-1.4H12.26zm0 0v1.4h45.48v-1.4H12.26zm0 0v1.4h45.48v-1.4H12.26zm0 0v1.4h45.48v-1.4H12.26zm30.06 0H27.68v1.4h14.64v-.7c0-.23.02-.47 0-.7zm24.88 0H2.8a2.81 2.81 0 0 0-2.8 2.8v17.5c.005.344.076.683.21 1a2.84 2.84 0 0 0 1.25 1.4c.408.233.87.354 1.34.35h64.4a2.65 2.65 0 0 0 1.34-.35 2.84 2.84 0 0 0 1.25-1.4 2.66 2.66 0 0 0 .21-1v-17.5a2.81 2.81 0 0 0-2.8-2.8zm0 21.7H2.8a1.34 1.34 0 0 1-.92-.35 1.39 1.39 0 0 1-.48-1V26.24a1.4 1.4 0 0 1 1.4-1.4h64.4a1.4 1.4 0 0 1 1.4 1.4v17.5a1.39 1.39 0 0 1-.48 1 1.34 1.34 0 0 1-.92.4zm-54.94-21.7v1.4h45.48v-1.4H12.26zm0 0v1.4h45.48v-1.4H12.26zm0 0v1.4h45.48v-1.4H12.26zm0 0v1.4h45.48v-1.4H12.26zm0 0v1.4h45.48v-1.4H12.26z"/>
        <path fill="#BCCED6" d="M68.12 44.79a1.34 1.34 0 0 1-.92.35H2.8a1.34 1.34 0 0 1-.92-.35H0v2.1a2.8 2.8 0 0 0 2.8 2.8h64.4a2.8 2.8 0 0 0 2.8-2.8v-2.1h-1.88zm.48 2.1a1.4 1.4 0 0 1-1.4 1.4H2.8a1.4 1.4 0 0 1-1.4-1.4v-.7h67.2v.7zM59.5 35a.7.7 0 0 1-.7.7H11.2a.7.7 0 1 1 0-1.4h47.6a.7.7 0 0 1 .7.7z"/>
        <path fill="#BCCED6" d="M53.16 34.29h-1.77l1.1 1.4h1.78l-1.11-1.4zm-36.32 0l-1.1 1.4h1.77l1.1-1.4h-1.77zM57 18.7l-3.33-.4a20.75 20.75 0 0 0-1.33-3.22l2.07-2.64a2.48 2.48 0 0 0-.2-3.26L50 5a2.46 2.46 0 0 0-1.75-.7 2.59 2.59 0 0 0-1.53.5l-2.67 2.03a18.64 18.64 0 0 0-3.22-1.32l-.4-3.33A2.48 2.48 0 0 0 38 0h-6a2.48 2.48 0 0 0-2.44 2.17l-.4 3.34a18.42 18.42 0 0 0-3.23 1.32l-2.63-2a2.41 2.41 0 0 0-1.53-.53A2.46 2.46 0 0 0 20 5l-4.19 4.18a2.48 2.48 0 0 0-.19 3.27l2.07 2.64a17.63 17.63 0 0 0-1.33 3.22L13 18.7a2.5 2.5 0 0 0-2.17 2.46v3.68h1.4v-3.68a1.09 1.09 0 0 1 .94-1.06l3.32-.4.9-.1.28-.87a15.94 15.94 0 0 1 1.23-3l.42-.81-.56-.71-2.07-2.63a1.12 1.12 0 0 1 .08-1.43L21 5.94a1 1 0 0 1 .74-.3c.242.001.478.082.67.23l2.63 2.06.71.56.8-.42a16.94 16.94 0 0 1 3-1.23l.87-.27.11-.91.47-3.33a1.09 1.09 0 0 1 1-.93h6a1.08 1.08 0 0 1 1 .94l.4 3.33.11.9.87.27a18.28 18.28 0 0 1 3 1.23l.8.42.71-.56 2.62-2.06a1.09 1.09 0 0 1 1.49.07l4.23 4.22c.37.39.407.987.09 1.42l-2.07 2.64-.55.7.41.79a20 20 0 0 1 1.24 3l.27.86.89.1 3.34.41c.508.07.897.488.93 1v3.69h1.4v-3.62A2.49 2.49 0 0 0 57 18.7zM39.14 45.14L39 46a.86.86 0 0 1-.06.23.89.89 0 0 1-.23.35h1.6c0-.12 0-.24.07-.35a.2.2 0 0 0 0-.07l.12-1-1.36-.02zm-8.11 1a.72.72 0 0 1-.07-.25l-.1-.8h-1.41l.12 1a.2.2 0 0 0 0 .07c0 .11 0 .23.07.35h1.61a.79.79 0 0 1-.25-.32l.03-.05z"/>
        <path fill="#BCCED6" d="M43.72 23.44a8.75 8.75 0 0 0-17.44 0v1.4h1.4v-.7-.7a7.35 7.35 0 0 1 14.64 0v1.4h1.4v-.7c0-.23.02-.47 0-.7z"/>
        <path fill="#BCCED6" d="M59.5 35a.7.7 0 0 1-.7.7H11.2a.7.7 0 1 1 0-1.4h47.6a.7.7 0 0 1 .7.7z" opacity=".2"/>
        <path fill="#BCCED6" d="M42.32 23.44H27.68v1.4h14.64v-.7c0-.23.02-.47 0-.7zM70 26.24a2.81 2.81 0 0 0-2.8-2.8h-8.06v-2.29A2.49 2.49 0 0 0 57 18.7l-3.33-.4a20.75 20.75 0 0 0-1.33-3.22l2.07-2.64a2.48 2.48 0 0 0-.2-3.26L50 5a2.46 2.46 0 0 0-1.75-.7 2.59 2.59 0 0 0-1.53.5l-2.67 2.03a18.64 18.64 0 0 0-3.22-1.32l-.4-3.33A2.48 2.48 0 0 0 38 0h-6a2.48 2.48 0 0 0-2.44 2.17l-.4 3.34a18.42 18.42 0 0 0-3.23 1.32l-2.63-2a2.41 2.41 0 0 0-1.53-.53A2.46 2.46 0 0 0 20 5l-4.19 4.18a2.48 2.48 0 0 0-.19 3.27l2.07 2.64a17.63 17.63 0 0 0-1.33 3.22L13 18.7a2.5 2.5 0 0 0-2.17 2.46v2.28H2.8a2.81 2.81 0 0 0-2.8 2.8v17.5c.005.344.076.683.21 1H0v2.1a2.8 2.8 0 0 0 2.8 2.8h64.4a2.8 2.8 0 0 0 2.8-2.8v-2.1h-.21a2.66 2.66 0 0 0 .21-1v-17.5zm-35-9.45a7.37 7.37 0 0 1 7.32 6.65H27.68A7.37 7.37 0 0 1 35 16.79zm32.2 28.35H2.8a1.34 1.34 0 0 1-.92-.35 1.39 1.39 0 0 1-.48-1V26.24a1.4 1.4 0 0 1 1.4-1.4h64.4a1.4 1.4 0 0 1 1.4 1.4v17.5a1.39 1.39 0 0 1-.48 1 1.34 1.34 0 0 1-.92.4z" opacity=".2"/>
    </g>
</svg>
