<svg xmlns="http://www.w3.org/2000/svg" width="56" height="70" viewBox="0 0 56 70">
    <g fill="none" fill-rule="evenodd" transform="translate(0 -1)">
        <path d="M19.29 65.12c-.92-1.6-2.17-3.5-3.49-5.51-1.8-2.76-3.8-5.85-5.7-9.12-1.51-2.65-.64-4.13 0-4.78a3.43 3.43 0 0 1 4.75-.05l.09.1L21 52.69v-23.3a3.5 3.5 0 0 1 7 0v8.52c0-1.14 1.64-1.91 3-1.91a3.35 3.35 0 0 1 3.32 3.42v.64a3.45 3.45 0 0 1 3-1.92 3.35 3.35 0 0 1 3.32 3.42v1.19a3.47 3.47 0 0 1 3-1.92 3.35 3.35 0 0 1 3.32 3.42v11.21c0 3.19-2.1 11.34-2.9 14.14h9.07a1.86 1.86 0 0 0 1.53-1.75V8.7H1.4v59.15c0 .77.5 1.75 1.27 1.75h18.66c0-.7-.06-.31-.1-.38-.67-1.41-1.49-3.34-1.94-4.1z"/>
        <path fill="#BACCD5" fill-rule="nonzero" d="M54.6 3.45c0-.77-.76-1.05-1.53-1.05H2.67c-.77 0-1.27.28-1.27 1.05V7.3h53.2V3.45zM7.92 5.55a1 1 0 1 1 .163-1.993A1 1 0 0 1 7.92 5.55zm3.5 0a1 1 0 1 1 0-2 1 1 0 0 1 0 2zm3.5 0a1 1 0 1 1 0-2 1 1 0 0 1 0 2z" opacity=".2"/>
        <path fill="#BACCD5" fill-rule="nonzero" d="M1.4 7.3h53.2v1.4H1.4z"/>
        <path fill="#BACCD5" fill-rule="nonzero" d="M1.4 7.3h53.2v1.4H1.4z" opacity=".2"/>
        <circle cx="7.92" cy="4.5" r="1.05" fill="#BACCD5" fill-rule="nonzero"/>
        <circle cx="7.92" cy="4.5" r="1.05" fill="#BACCD5" fill-rule="nonzero" opacity=".2"/>
        <circle cx="11.42" cy="4.5" r="1.05" fill="#BACCD5" fill-rule="nonzero"/>
        <circle cx="11.42" cy="4.5" r="1.05" fill="#BACCD5" fill-rule="nonzero" opacity=".2"/>
        <circle cx="14.92" cy="4.5" r="1.05" fill="#BACCD5" fill-rule="nonzero"/>
        <circle cx="14.92" cy="4.5" r="1.05" fill="#BACCD5" fill-rule="nonzero" opacity=".2"/>
        <path fill="#BACCD5" fill-rule="nonzero" d="M53.07 1h-2.8A5.44 5.44 0 0 1 56 6.25v-2.8C56 1.91 54.61 1 53.07 1zM5.47 1h-2.8A2.42 2.42 0 0 0 0 3.45v2.8A5.22 5.22 0 0 1 5.47 1zM55.17 7.65a.7.7 0 0 0-.7-.7v1.4a.7.7 0 0 0 .7-.7zM.57 7.65a.71.71 0 0 0 .7.7V7a.71.71 0 0 0-.7.65z"/>
        <path d="M20.3 31.1v1.6a6.66 6.66 0 0 0 3.5.85 8.86 8.86 0 0 0 3.5-.85v-1.6h1.4v.69a8.81 8.81 0 0 0 2.74-5.94 7.7 7.7 0 1 0-15.39 0 6.69 6.69 0 0 0 2.85 5.94v-.69h1.4z"/>
        <path fill="#BACCD5" fill-rule="nonzero" d="M32.84 25.85a9.1 9.1 0 1 0-18.19 0 8.55 8.55 0 0 0 4.25 7.66v-1.72a6.7 6.7 0 0 1-2.9-5.94 7.71 7.71 0 0 1 15.41 0 8.82 8.82 0 0 1-2.75 5.94v1.72a10.18 10.18 0 0 0 4.18-7.66z"/>
        <path d="M14.73 25.85a9 9 0 0 1 18 0 8.67 8.67 0 0 1-5.47 8.3v3.76A3.82 3.82 0 0 1 30.61 36a3.56 3.56 0 0 1 3.69 3.42v.64a3.82 3.82 0 0 1 3.31-1.92 3.56 3.56 0 0 1 3.69 3.42v1.19a3.85 3.85 0 0 1 3.31-1.92 3.57 3.57 0 0 1 3.69 3.42v11.21c0 3.19-2.31 11.34-3.19 14.14h8a1.86 1.86 0 0 0 1.53-1.75V8.35s.7-.32.7-.7c0-.38-.7-.7-.7-.7v-3.5c0-.77-.76-1.05-1.53-1.05H2.67c-.77 0-1.27.28-1.27 1.05V7c-.7 0-.7.32-.7.7 0 .38 0 .7.7.7v59.5c0 .77.5 1.75 1.27 1.75h17.68c0-.7-.07-.31-.11-.38-.73-1.41-1.64-3.25-2.12-4-1-1.6-2.37-3.54-3.81-5.55-2-2.76-4.2-5.88-6.23-9.15-1.65-2.65-.71-4.14 0-4.79a3.9 3.9 0 0 1 2.6-1 4 4 0 0 1 2.59.94l.25.09 6.78 6.93V34.17a8.77 8.77 0 0 1-5.57-8.32z"/>
        <path d="M23.69 26a3.6 3.6 0 0 1 3.67 3.1 4.9 4.9 0 1 0-7.34 0 3.59 3.59 0 0 1 3.67-3.1z"/>
        <path d="M23.8 27.33a2 2 0 0 0-2.1 2.06v.84a4.43 4.43 0 0 0 4.2 0v-.82a2 2 0 0 0-2.1-2.08z"/>
        <path fill="#BACCD5" fill-rule="nonzero" d="M23.67 16.75a9 9 0 0 0-8.94 9.1 8.77 8.77 0 0 0 5.57 8.32V31a5.3 5.3 0 0 1-2.77-5.1 6.22 6.22 0 0 1 12.44 0 6.84 6.84 0 0 1-2.67 5.07v3.23a8.63 8.63 0 0 0 5.43-8.3 9.06 9.06 0 0 0-9.06-9.15z" opacity=".2"/>
        <path fill="#BACCD5" fill-rule="nonzero" d="M29.93 25.85a6.29 6.29 0 0 0-6.28-6.3 6.17 6.17 0 0 0-6.13 6.3A5.31 5.31 0 0 0 20.3 31v-1.61c0-.1-.13-.19-.12-.28a4.93 4.93 0 0 1-1.33-3.26 4.87 4.87 0 1 1 8.47 3.22v1.85a6.8 6.8 0 0 0 2.61-5.07z"/>
        <path d="M54.6 7V3.45c0-.77-.76-1.05-1.53-1.05H2.67c-.77 0-1.27.28-1.27 1.05V7c-.7 0-.7.32-.7.7 0 .38 0 .7.7.7v59.5c0 .77.5 1.75 1.27 1.75h17.68c0-.7-.07-.31-.11-.38-.73-1.41-1.64-3.25-2.12-4-1-1.6-2.37-3.54-3.81-5.55-2-2.76-4.2-5.88-6.23-9.15-1.65-2.65-.71-4.14 0-4.79a3.9 3.9 0 0 1 2.6-1 4 4 0 0 1 2.59.94l.25.09 6.78 6.93V29.39c0-.1-.13-.19-.12-.28a3.62 3.62 0 0 1 7.17 0c0 .11-.05.21-.05.32v8.52A3.82 3.82 0 0 1 30.61 36a3.56 3.56 0 0 1 3.69 3.42v.64a3.82 3.82 0 0 1 3.31-1.92 3.56 3.56 0 0 1 3.69 3.42v1.19a3.85 3.85 0 0 1 3.31-1.92 3.57 3.57 0 0 1 3.69 3.42v11.21c0 3.19-2.31 11.34-3.19 14.14h8a1.86 1.86 0 0 0 1.53-1.75V8.35s.7-.32.7-.7c0-.38-.74-.65-.74-.65z"/>
        <path fill="#BACCD5" fill-rule="nonzero" d="M50.27 1H5.47A5.22 5.22 0 0 0 0 6.25v61.6C0 69.39 1.13 71 2.67 71H22.4v-.35L22 69.6a1.89 1.89 0 0 0-.4-1c-.75-1.44-1.67-3.31-2.18-4.12-1-1.62-2.4-3.58-3.88-5.64-1.94-2.71-4.15-5.81-6.16-9-.61-1-1.14-2.33-.23-3.16a2.33 2.33 0 0 1 1.56-.59 2.41 2.41 0 0 1 1.52.55l7 7.3a1.6 1.6 0 0 0 1.55.33 1.34 1.34 0 0 0 .95-1.12V29.39a2.1 2.1 0 1 1 4.2 0v15.35a1.42 1.42 0 0 0 2.8 0v-5.33a2.1 2.1 0 1 1 4.2 0v7.47a1.42 1.42 0 0 0 2.8 0v-5.33a2.1 2.1 0 1 1 4.2 0V49a1.42 1.42 0 0 0 2.8 0v-4.76a2.1 2.1 0 1 1 4.2 0v11.22c0 2.87-2.28 10.66-3.38 14L43.18 71h9.89A3.24 3.24 0 0 0 56 67.85V6.25A5.44 5.44 0 0 0 50.27 1zm4.33 7.35v59.5a1.86 1.86 0 0 1-1.53 1.75h-8c.93-2.8 3.23-10.95 3.23-14.14V44.24a3.57 3.57 0 0 0-3.69-3.42 3.85 3.85 0 0 0-3.31 1.92v-1.19a3.56 3.56 0 0 0-3.69-3.42 3.82 3.82 0 0 0-3.31 1.92v-.64A3.56 3.56 0 0 0 30.61 36a3.82 3.82 0 0 0-3.31 1.92v-8.53-.32A3.57 3.57 0 0 0 23.67 26a3.41 3.41 0 0 0-3.5 3.14c0 .09.13.18.13.28v23.3l-6.78-6.93-.18-.1a4 4 0 0 0-2.63-.93 3.94 3.94 0 0 0-2.61 1c-.71.65-1.66 2.13 0 4.78 2 3.27 4.24 6.36 6.22 9.12 1.44 2 2.8 3.91 3.81 5.51.49.76 1.39 2.69 2.12 4.1 0 .07.07-.32.11.38H2.67c-.77 0-1.27-1-1.27-1.75V8.35c-.7 0-.7-.32-.7-.7 0-.38 0-.7.7-.7v-3.5c0-.77.5-1.05 1.27-1.05h50.4c.77 0 1.53.28 1.53 1.05V7s.7.32.7.7c0 .38-.7.65-.7.65z"/>
    </g>
</svg>
