<svg xmlns="http://www.w3.org/2000/svg" width="70" height="70" viewBox="0 0 70 70">
    <g fill="none" fill-rule="nonzero">
        <path fill="#BBCBD3" d="M32.29 51.94h-6.92V24.18H15.05v-6.35h27.61v6.35H32.29v27.76zm-5.52-1.4h4.12V22.78h10.37v-3.55H16.45v3.55h10.32v27.76zM49.69 52.17c-2.85 0-5.89-1.6-5.89-6.1v-8.92h-2.62v-4.4h2.62v-5.08h5.37v5.08h5.47v4.4h-5.47v8.19c0 1.67.56 1.81 1.29 1.81a5.93 5.93 0 0 0 2.48-.73l.72-.35 1.43 4.36-.48.28a9.55 9.55 0 0 1-4.92 1.46zm-7.11-16.42h2.62v10.32c0 4.24 3.14 4.7 4.49 4.7a7.92 7.92 0 0 0 3.72-1L52.82 48a6 6 0 0 1-2.36.55c-1.79 0-2.69-1.08-2.69-3.21v-9.59h5.47v-1.6h-5.47v-5.08H45.2v5.08h-2.62v1.6z"/>
        <path fill="#BACCD5" d="M53.85 65.22h-8a.7.7 0 0 1 0-1.4h8a.7.7 0 0 1 0 1.4zm-14.85 0h-8a.7.7 0 0 1 0-1.4h8a.7.7 0 0 1 0 1.4zm-14.84 0h-8a.7.7 0 0 1 0-1.4h8a.7.7 0 0 1 0 1.4zM4.8 54.05a.7.7 0 0 1-.7-.7v-7.82a.7.7 0 0 1 1.4 0v7.82a.7.7 0 0 1-.7.7zm0-14.44a.7.7 0 0 1-.7-.7v-7.82a.7.7 0 0 1 1.4 0v7.82a.7.7 0 0 1-.7.7zm0-14.44a.7.7 0 0 1-.7-.7v-7.82a.7.7 0 0 1 1.4 0v7.82a.7.7 0 0 1-.7.7zM53.85 6.18h-8a.7.7 0 0 1 0-1.4h8a.7.7 0 0 1 0 1.4zM39 6.18h-8a.7.7 0 0 1 0-1.4h8a.7.7 0 0 1 0 1.4zm-14.84 0h-8a.7.7 0 0 1 0-1.4h8a.7.7 0 0 1 0 1.4zM65.2 54.05a.7.7 0 0 1-.7-.7v-7.82a.7.7 0 0 1 1.4 0v7.82a.7.7 0 0 1-.7.7zm0-14.44a.7.7 0 0 1-.7-.7v-7.82a.7.7 0 0 1 1.4 0v7.82a.7.7 0 0 1-.7.7zm0-14.44a.7.7 0 0 1-.7-.7v-7.82a.7.7 0 0 1 1.4 0v7.82a.7.7 0 0 1-.7.7zM13.36 14.7H1.54C.69 14.7 0 14.01 0 13.16v-11A1.54 1.54 0 0 1 1.54.65h11.82c.845 0 1.53.685 1.53 1.53v11a1.53 1.53 0 0 1-1.53 1.52zM1.54 2.05a.13.13 0 0 0-.14.13v11c0 .077.063.14.14.14h11.82a.13.13 0 0 0 .13-.14v-11a.13.13 0 0 0-.13-.13H1.54zM68.46 14.74H56.64a1.53 1.53 0 0 1-1.53-1.54v-11A1.53 1.53 0 0 1 56.64.69h11.82A1.54 1.54 0 0 1 70 2.23v11a1.54 1.54 0 0 1-1.54 1.51zM56.64 2.09a.13.13 0 0 0-.13.14v11a.13.13 0 0 0 .13.14h11.82a.14.14 0 0 0 .14-.14v-11a.14.14 0 0 0-.14-.14H56.64zM68.46 69.35H56.64a1.53 1.53 0 0 1-1.53-1.53v-11a1.53 1.53 0 0 1 1.53-1.54h11.82A1.54 1.54 0 0 1 70 56.84v11a1.54 1.54 0 0 1-1.54 1.51zM56.64 56.7a.13.13 0 0 0-.13.14v11c0 .072.058.13.13.13h11.82a.13.13 0 0 0 .14-.13v-11a.14.14 0 0 0-.14-.14H56.64zM13.36 69.35H1.54A1.54 1.54 0 0 1 0 67.82v-11a1.54 1.54 0 0 1 1.54-1.52h11.82a1.53 1.53 0 0 1 1.53 1.54v11a1.53 1.53 0 0 1-1.53 1.51zM1.54 56.7a.14.14 0 0 0-.14.14v11a.13.13 0 0 0 .14.13h11.82a.13.13 0 0 0 .13-.13v-11a.13.13 0 0 0-.13-.14H1.54z"/>
        <g fill="#BACCD5" opacity=".2">
            <path d="M31.59 23.48v27.76h-5.52V23.48H15.75v-4.95H42v4.95zM54.25 50.11a8.88 8.88 0 0 1-4.56 1.36c-2.79 0-5.19-1.6-5.19-5.4v-9.62h-2.62v-3h2.62v-5.08h4v5.08h5.47v3h-5.5v8.89c0 1.91.73 2.51 2 2.51a6.5 6.5 0 0 0 2.78-.8l1 3.06z"/>
        </g>
    </g>
</svg>
