<svg xmlns="http://www.w3.org/2000/svg" width="40" height="40" viewBox="0 0 40 40">
    <g fill="none" fill-rule="evenodd">
        <path fill="#BBCED5" d="M20 0c11.046 0 20 8.954 20 20s-8.954 20-20 20S0 31.046 0 20 8.954 0 20 0zm0 .9A19.1 19.1 0 1 1 .9 20C.901 9.452 9.452.901 20 .9z"/>
        <path stroke="#BCCED6" stroke-width="1.3" d="M16.087 18.733c.03.019.059.039.086.06a5.187 5.187 0 1 1-7.613 1.933c1.193-2.393 5.74-8.686 5.74-8.686h4.827l-3.04 6.693zm12.28 0c.026.02.06.04.086.06a5.18 5.18 0 1 1-7.62 1.933c1.2-2.393 5.747-8.686 5.747-8.686h4.82s-3.04 6.693-3.033 6.693z"/>
        <path fill="#BBCED5" d="M16.087 18.733c.03.019.059.039.086.06a5.187 5.187 0 1 1-7.613 1.933c1.193-2.393 5.74-8.686 5.74-8.686h4.827l-3.04 6.693zm12.28 0c.026.02.06.04.086.06a5.18 5.18 0 1 1-7.62 1.933c1.2-2.393 5.747-8.686 5.747-8.686h4.82s-3.04 6.693-3.033 6.693z" opacity=".2"/>
    </g>
</svg>
