<svg xmlns="http://www.w3.org/2000/svg" width="70" height="52" viewBox="0 0 70 52">
    <g fill="none" fill-rule="evenodd">
        <path stroke="#BCCED6" stroke-linecap="round" stroke-linejoin="round" stroke-width="1.5" d="M1 22.404L22.404 1l4.738 4.738L5.738 27.142z"/>
        <path fill="#BCCED6" fill-rule="nonzero" d="M1 22.404L22.404 1l4.738 4.738L5.738 27.142z" opacity=".2"/>
        <path stroke="#BCCED6" stroke-linecap="round" stroke-linejoin="round" stroke-width="1.5" d="M43 5.738L47.738 1l21.404 21.404-4.738 4.738zM13.872 32.802l.93-.93a3 3 0 0 1 4.23 0 3 3 0 0 1 0 4.23l-.93.93a3 3 0 0 1-4.23 0 3 3 0 0 1 0-4.23z"/>
        <path stroke="#BCCED6" stroke-linecap="round" stroke-linejoin="round" stroke-width="1.5" d="M17.877 36.802l.92-.93a3 3 0 0 1 4.23 0 3 3 0 0 1 0 4.23l-.93.93a3 3 0 0 1-4.23 0 3 3 0 0 1 .01-4.23zM22.877 41.802l.92-.93a3 3 0 0 1 4.23 0 3 3 0 0 1 0 4.23l-.93.93a3 3 0 0 1-4.23 0 3 3 0 0 1 .01-4.23z"/>
        <path stroke="#BCCED6" stroke-linecap="round" stroke-linejoin="round" stroke-width="1.5" d="M26.867 45.802l.93-.93a3 3 0 0 1 4.23 0 3 3 0 0 1 0 4.23l-.93.92a3 3 0 0 1-4.23 0 3 3 0 0 1 0-4.22z"/>
        <path fill="#BCCED6" fill-rule="nonzero" d="M13.872 32.802l.93-.93a3 3 0 0 1 4.23 0 3 3 0 0 1 0 4.23l-.93.93a3 3 0 0 1-4.23 0 3 3 0 0 1 0-4.23z" opacity=".2"/>
        <path fill="#BCCED6" fill-rule="nonzero" d="M17.877 36.802l.92-.93a3 3 0 0 1 4.23 0 3 3 0 0 1 0 4.23l-.93.93a3 3 0 0 1-4.23 0 3 3 0 0 1 .01-4.23zM22.877 41.802l.92-.93a3 3 0 0 1 4.23 0 3 3 0 0 1 0 4.23l-.93.93a3 3 0 0 1-4.23 0 3 3 0 0 1 .01-4.23z" opacity=".2"/>
        <path fill="#BCCED6" fill-rule="nonzero" d="M26.867 45.802l.93-.93a3 3 0 0 1 4.23 0 3 3 0 0 1 0 4.23l-.93.92a3 3 0 0 1-4.23 0 3 3 0 0 1 0-4.22z" opacity=".2"/>
        <path stroke="#BCCED6" stroke-linecap="round" stroke-linejoin="round" stroke-width="1.5" d="M52 38.05l.56.57a3.88 3.88 0 0 0 5.48 0 3.21 3.21 0 0 0 0-4.52l-1.1-1.1M36 23l15.84 15.83M56.65 33.65L40 17"/>
        <path stroke="#BCCED6" stroke-linecap="round" stroke-linejoin="round" stroke-width="1.5" d="M46 42.22l.57.55a3.81 3.81 0 0 0 5.39.1 3.44 3.44 0 0 0 .17-4.69L50.94 37M36 33l9.08 9.09M39 45.92l.56.57a3.82 3.82 0 0 0 5.39.09 3.13 3.13 0 0 0-.07-4.44L43.79 41M32 49.31l.57.56a4 4 0 0 0 5.61-.13 3.27 3.27 0 0 0 .08-4.64l-1.1-1.1M30 37l9.09 9.08M9 25l6.69 6.7M25 8l2.84 2.83 6.58-.6 1.29 1.28M61.06 25L55 31.05"/>
        <path stroke="#BCCED6" stroke-linecap="round" stroke-linejoin="round" stroke-width="1.5" d="M44.49 9l-2 1.93-4.8-.72s-1.23.13-1.4.51l-7.34 7.2-1.95 9.2c6.38.81 8.23-6 8.23-6l4.11-4"/>
        <path fill="#BCCED6" fill-rule="nonzero" d="M42.82 11.27L45.33 9 60.5 24.2l-6.19 6.46L39.82 16.5l-4.46 4.1s-1.31 3.49-2.36 4c-1.05.51-2.79 2.1-5 2v-1.79l1.81-6.82 7-7.11.94-.28 2.26.35 2.81.32z" opacity=".2"/>
    </g>
</svg>
