<svg xmlns="http://www.w3.org/2000/svg" width="168" height="30" viewBox="0 0 168 30">
    <g fill="#B8CFD7" fill-rule="evenodd">
        <path d="M56.03 11.41a.464.464 0 0 1-.241.282.454.454 0 0 1-.369.012 6.998 6.998 0 0 0-2.466-.518c-1.408 0-2.737.429-2.737 1.858 0 .772.423 1.171 1.779 1.6l.977.313c1.975.627 2.822 1.541 2.822 3.3 0 3.056-2.115 5.141-5.95 5.141a11.616 11.616 0 0 1-3.887-.627.54.54 0 0 1-.326-.66l.45-1.584a.46.46 0 0 1 .245-.28.451.451 0 0 1 .37-.003c.967.414 2.001.643 3.05.676 1.72 0 2.933-.6 2.933-2 0-.828-.564-1.141-1.834-1.54l-1.072-.33c-1.89-.627-2.738-1.772-2.738-3.597 0-3.112 2.568-4.795 5.95-4.795 1.074.02 2.137.212 3.151.568.267.095.41.387.326.66l-.433 1.524zM62.693 3.26c.126 0 .244.056.324.154.08.098.111.227.087.35l-2.076 10.86a25.736 25.736 0 0 0 5.162-5.111c.192-.253.49-.4.805-.4h2.258c.1.003.19.06.234.15a.273.273 0 0 1-.022.28 32.04 32.04 0 0 1-4.97 5.652l2.858 7.289a.354.354 0 0 1-.037.327.344.344 0 0 1-.289.152H64.63a.73.73 0 0 1-.681-.482l-1.955-5.428c-.593.399-1.157.742-1.63.99l-.834 4.408a.618.618 0 0 1-.6.505h-2.062a.415.415 0 0 1-.323-.154.426.426 0 0 1-.087-.351L60.04 3.755a.615.615 0 0 1 .603-.505l2.05.01zM73.241 9.114c.125 0 .244.056.324.154.08.097.111.226.087.35l-1.398 7.286a9.56 9.56 0 0 0-.225 1.884c0 .855.479 1.43 1.606 1.43a5.07 5.07 0 0 0 3.357-1.4l1.792-9.206a.621.621 0 0 1 .603-.505h2.062c.125 0 .243.058.322.155.078.098.11.226.086.35l-1.851 9.602c-.225 1.112-.48 2.37-.704 3.369-1.072 4.51-3.102 6.51-7.169 6.51a9.937 9.937 0 0 1-2.558-.33.555.555 0 0 1-.394-.66l.352-1.458a.492.492 0 0 1 .59-.373c.612.153 1.24.235 1.87.244 2.398 0 3.806-1.026 4.314-3.824l.2-1.06a6.424 6.424 0 0 1-4.058 1.542c-2.369 0-3.636-1.198-3.636-3.112.045-1.25.205-2.493.479-3.712l1.284-6.722a.618.618 0 0 1 .603-.504l2.062-.01zM91.844 11.42a.464.464 0 0 1-.241.282.454.454 0 0 1-.368.012 6.995 6.995 0 0 0-2.467-.518c-1.408 0-2.734.429-2.734 1.858 0 .772.42 1.17 1.776 1.6l.977.313c1.975.627 2.82 1.541 2.82 3.3 0 3.056-2.116 5.141-5.95 5.141a11.597 11.597 0 0 1-3.888-.627.54.54 0 0 1-.326-.66l.453-1.584a.46.46 0 0 1 .245-.28.451.451 0 0 1 .37-.004c.967.415 2.001.645 3.05.677 1.721 0 2.933-.6 2.933-2 0-.828-.564-1.141-1.831-1.54l-1.075-.33c-1.887-.628-2.734-1.773-2.734-3.597 0-3.112 2.564-4.795 5.95-4.795 1.073.02 2.136.212 3.15.568a.536.536 0 0 1 .327.66l-.437 1.524zM103.878 11.73a.424.424 0 0 1-.234.268.416.416 0 0 1-.353-.007 5.97 5.97 0 0 0-2.538-.538c-2.988 0-4.794 2.6-4.794 5.91.03 1.98.734 3.3 2.933 3.3a8.377 8.377 0 0 0 2.91-.495.322.322 0 0 1 .311.041c.09.067.14.176.132.289l-.192 1.65a.843.843 0 0 1-.55.702c-1.094.377-2.242.564-3.396.551-3.666 0-5.387-2.111-5.387-5.61 0-4.949 2.764-9.162 8.065-9.162a8.112 8.112 0 0 1 3.259.627.606.606 0 0 1 .326.722l-.492 1.752z"/>
        <path fill-rule="nonzero" d="M106.126 10.14a.742.742 0 0 1 .492-.686 15.069 15.069 0 0 1 4.539-.799c2.819 0 4.653.855 4.653 3.34a9.53 9.53 0 0 1-.225 1.827l-1.098 5.854c-.17.878-.084 1.37.29 1.56a.585.585 0 0 1 .372.598l-.166.822a.817.817 0 0 1-.613.66 5 5 0 0 1-1.01.112c-1.271 0-1.89-.6-1.975-1.65h-.085a5.303 5.303 0 0 1-4.004 1.65c-2.395 0-3.946-1.228-3.946-3.683 0-3.3 2.606-5.682 8.403-5.682h.763c.08-.385.128-.777.14-1.171 0-1.142-.564-1.65-2.34-1.65a12.12 12.12 0 0 0-3.77.713.342.342 0 0 1-.311-.047.351.351 0 0 1-.145-.283l.036-1.485zm5.4 6.14c-2.849 0-4.937.941-4.937 3.026 0 .914.537 1.485 1.75 1.485a4.562 4.562 0 0 0 3.128-1.399l.619-3.111h-.56z"/>
        <path d="M121.112 9.114c.132-.005.26.049.35.147.091.098.135.23.122.364l-.091.974h.026a7.802 7.802 0 0 1 4.888-1.94c2.144 0 3.552 1.253 3.552 3.253-.017.902-.12 1.8-.31 2.683l-1.483 7.863a.621.621 0 0 1-.602.505h-2.07a.415.415 0 0 1-.32-.156.426.426 0 0 1-.087-.35l1.369-7.176c.14-.658.225-1.327.254-2 0-1.056-.564-1.597-1.75-1.597-1.303 0-2.763.683-3.806 1.683l-1.71 9.09a.615.615 0 0 1-.6.506h-2.06a.415.415 0 0 1-.323-.154.426.426 0 0 1-.087-.351l2.43-12.84a.615.615 0 0 1 .6-.504h1.708zM135.068 9.114a.46.46 0 0 1 .34.153c.088.097.131.227.12.358l-.095.974h.03a7.799 7.799 0 0 1 4.887-1.94c2.144 0 3.555 1.253 3.555 3.253a14.105 14.105 0 0 1-.326 2.683l-1.466 7.863a.618.618 0 0 1-.603.505h-2.063a.418.418 0 0 1-.322-.156.43.43 0 0 1-.088-.35l1.372-7.176c.14-.658.225-1.327.254-2 0-1.056-.564-1.597-1.75-1.597-1.303 0-2.763.683-3.806 1.683l-1.707 9.09a.618.618 0 0 1-.603.506h-2.089a.418.418 0 0 1-.322-.156.43.43 0 0 1-.089-.35l2.435-12.838a.615.615 0 0 1 .602-.505h1.734z"/>
        <path fill-rule="nonzero" d="M148.265 17.366c-.049.419-.039.842.03 1.257.253 1.4 1.325 2.086 3.127 2.086 1.27.001 2.532-.191 3.744-.571a.323.323 0 0 1 .297.053c.084.066.132.17.127.277l-.19 1.58a.817.817 0 0 1-.52.687 12.513 12.513 0 0 1-4.08.68c-3.89 0-5.78-1.683-5.78-5.51 0-3.3 1.071-6.37 3.385-7.996 1.157-.828 2.607-1.254 4.399-1.254 3.258 0 4.708 1.88 4.708 4.682a18.643 18.643 0 0 1-.378 3.547.61.61 0 0 1-.609.479l-8.26.003zm5.904-2.257a6.768 6.768 0 0 0 .225-1.65c0-1.283-.564-2.197-2-2.197-2.086 0-3.357 1.54-3.807 3.854l5.582-.007z"/>
        <path d="M162.563 9.114a.47.47 0 0 1 .344.153.482.482 0 0 1 .125.358l-.065 1.115h.056a5.218 5.218 0 0 1 4.004-1.94h.41a.414.414 0 0 1 .297.203c.064.11.074.243.03.362l-.56 1.857a.73.73 0 0 1-.679.495 7.172 7.172 0 0 0-3.73 1.139l-1.822 9.602a.618.618 0 0 1-.603.505h-2.06a.415.415 0 0 1-.323-.154.426.426 0 0 1-.087-.351l2.431-12.84a.618.618 0 0 1 .6-.504h1.632z"/>
        <path fill-rule="nonzero" d="M22.549 11.892a19.33 19.33 0 0 1 13.826-5.781h.039a10.13 10.13 0 0 1 .775 3.409c-.265-.014-.53-.02-.798-.02h-.042c-8.93.002-16.167 7.331-16.17 16.373v.06h-3.342a19.833 19.833 0 0 1 5.712-14.04zm19.831 6.484c.023-.267.036-.535.036-.808a8.366 8.366 0 0 0-.818-3.63 12.743 12.743 0 0 0-12.278.995c-3.661 2.42-5.86 6.556-5.84 10.983h3.36c-.043-5.289 4.149-9.615 9.372-9.672h.326a9.42 9.42 0 0 1 5.842 2.132zm-1.43 2.887a6.358 6.358 0 0 0-4.412-1.9h-.326c-3.518.074-6.32 3.003-6.28 6.566h3.226c.212-1.092.408-1.65 1.02-2.267a3.155 3.155 0 0 1 4.406 0c.203.208.375.445.511.703a8.127 8.127 0 0 0 2.281-2.64c-.14-.152-.277-.31-.426-.462zm-27.277 4.62c0-11.896 8.97-21.823 20.672-22.877A9.851 9.851 0 0 0 24.046.554C20.433 1.81 17.85 5.05 17.4 8.89a5.548 5.548 0 0 0-2.984-.894c-3.106 0-5.93 3.161-5.576 6.405a5.977 5.977 0 0 0-6.584.651 6.16 6.16 0 0 0-2.043 6.372c.631 2.346 2.576 4.091 4.952 4.443.232.042.468.063.704.063h7.8v-.056l.004.01zM8.84 14.323V14.325z"/>
    </g>
</svg>
