<?xml version="1.0" encoding="UTF-8"?>
<svg width="30px" height="30px" viewBox="0 0 30 30" version="1.1" xmlns="http://www.w3.org/2000/svg" xmlns:xlink="http://www.w3.org/1999/xlink">
    <!-- Generator: Sketch 52.5 (67469) - http://www.bohemiancoding.com/sketch -->
    <title>Shape</title>
    <desc>Created with Sketch.</desc>
    <g id="Page-1" stroke="none" stroke-width="1" fill="none" fill-rule="evenodd">
        <g id="MVP-eCommerce-Page---V2.8---Desktop" transform="translate(-520.000000, -2366.000000)" fill="#1E88E5" fill-rule="nonzero">
            <g id="Slider" transform="translate(165.000000, 1851.000000)">
                <g id="Slider-Handle" transform="translate(340.000000, 500.000000)">
                    <path d="M45,30 C45,21.72 38.28,15 30,15 C21.72,15 15,21.72 15,30 C15,38.28 21.72,45 30,45 C38.28,45 45,38.28 45,30 Z M34.5,21.75 L39.75,27 L34.5,32.25 L34.5,28.5 L28.5,28.5 L28.5,25.5 L34.5,25.5 L34.5,21.75 Z M25.5,38.25 L20.25,33 L25.5,27.75 L25.5,31.5 L31.5,31.5 L31.5,34.5 L25.5,34.5 L25.5,38.25 Z" id="Shape"></path>
                </g>
            </g>
        </g>
    </g>
</svg>