<svg xmlns="http://www.w3.org/2000/svg" width="2500" height="1387" viewBox="0 208.952 1048.713 581.696"><path fill="#f1f1f1" d="M0 686.22c0 13 4.72 22.85 14.15 29.52 9.44 6.67 19.52 9.03 30.26 7.08 10.1-1.96 17.17-5.54 21.24-10.74 4.06-5.2 6.1-13.83 6.1-25.86V544.7c0-10.1-3.5-18.63-10.5-25.62-7-7-15.53-10.5-25.62-10.5-9.76 0-18.13 3.5-25.13 10.5S0 534.6 0 544.7v141.52zm112.24 60.5c0 9.44 3.33 16.52 10 21.24 6.67 4.72 15.2 7.07 25.62 7.07 10.74 0 19.44-2.36 26.1-7.07 6.68-4.72 10.02-11.8 10.02-21.23v-329.9c0-9.75-3.5-18.13-10.5-25.12-7-7-15.53-10.48-25.62-10.48-9.76 0-18.13 3.5-25.13 10.5-7 6.98-10.5 15.36-10.5 25.12v329.9zM224 762.35c0 9.44 3.4 16.52 10.24 21.23 6.83 4.72 15.62 7.08 26.35 7.08 10.4 0 18.94-2.36 25.6-7.08 6.68-4.7 10.02-11.8 10.02-21.23v-301.1c0-10.08-3.5-18.7-10.5-25.86-7-7.15-15.37-10.73-25.13-10.73-10.1 0-18.7 3.58-25.87 10.73S224 451.16 224 461.25v301.1zm112.23 1.47c0 17.9 12.04 26.85 36.1 26.85 24.1 0 36.13-8.95 36.13-26.84v-488c0-27.32-8.3-42.77-24.9-46.35-10.73-2.6-21.3.5-31.7 9.27-10.42 8.78-15.63 21.15-15.63 37.1v488zm114.2 14.16V247.02c0-16.92 5.04-27 15.12-30.26 21.8-5.2 43.43-7.8 64.9-7.8 49.78 0 96.14 11.7 139.1 35.13 42.93 23.4 77.66 55.38 104.17 95.88 26.52 40.5 41.9 85.16 46.12 133.96 19.84-8.46 41-12.7 63.44-12.7 45.55 0 84.5 16.1 116.87 48.32 32.38 32.2 48.56 70.92 48.56 116.15 0 45.55-16.17 84.43-48.55 116.64-32.37 32.2-71.16 48.3-116.38 48.3l-424.56-.48c-2.92-.97-5.12-2.76-6.58-5.37s-2.2-4.9-2.2-6.84z"/></svg>