<?xml version="1.0" encoding="utf-8"?>
<svg width="129px" height="24px" viewBox="0.001 0.001 2838.375 511.999" xmlns="http://www.w3.org/2000/svg">
  <title>Shape</title>
  <path d="M2838.376 449.591c0 29.057-22.524 51.723-51.685 51.723-29.166 0-51.758-22.666-51.758-51.723 0-29.094 22.593-51.759 51.758-51.759 29.162 0 51.685 22.664 51.685 51.759zm-95.359 0c0 24.726 18.622 44.322 43.675 44.322 24.975 0 43.673-19.599 43.673-44.322 0-24.76-18.698-44.397-43.673-44.397-25.053.002-43.675 19.637-43.675 44.397zm32.265 29.848h-7.363v-59.734h22.956c13.501 0 19.418 5.814 19.418 16.533 0 10.541-6.93 15.305-15.012 16.673l17.829 26.529h-8.662l-16.82-26.529h-12.345v26.529l-.001-.001zm9.748-32.807c9.021 0 17.902-.256 17.902-10.394 0-8.337-6.93-10.289-14.146-10.289h-13.503v20.685h9.747v-.002zM422.231 119.474H275.255v382.204H146.977V119.474H.001V9.169h422.231v110.305h-.001zM449.156 9.168h251.108c86.952 0 172.496 39.271 172.496 138.603 0 53.13-25.553 103.553-77.314 123.516v1.372c52.481 12.417 67.64 71.106 71.756 117.957 1.372 20.72 3.464 93.124 20.719 111.061H760.976c-11.01-16.461-13.104-64.864-14.473-78.614-3.468-49.63-11.731-100.741-71.792-100.741h-97.276v179.356H449.156V9.168zm128.278 213.825h107.635c38.655 0 59.374-20.647 59.374-57.969 0-36.527-29.057-53.094-64.864-53.094H577.434v111.063zm750.617 75.219C1328.051 441 1262.501 512 1113.505 512c-148.996 0-214.544-71.001-214.544-213.788V9.169h128.283v296.624c0 63.454 23.457 95.863 86.261 95.863 62.806 0 86.268-32.409 86.268-95.863V9.169h128.277v289.043h.003-.002zm31.763-289.044h392.561v102.761h-264.284v86.23h241.471v99.332h-241.471v93.844h271.14v110.341h-399.418l.002-492.507-.001-.001zm801.724 149.719c-16.459-75.651-79.118-119.003-150.656-119.003-130.014 0-185.018 108.681-185.018 216.026 0 107.307 55.005 216.022 185.018 216.022 90.811 0 148.633-70.204 157.514-157.552h46.778c-13.064 120.411-89.37 197.438-204.292 197.438-154.844 0-231.87-121.78-231.87-255.907 0-134.126 77.025-255.91 231.87-255.91 92.907 0 185.017 55.73 197.434 158.887h-46.778v-.001zm100.486 96.373c4.191-83.267 62.66-119.111 143.801-119.111 62.586 0 130.731 19.276 130.731 114.239v188.486c0 16.566 8.233 26.169 25.414 26.169 4.834 0 10.32-1.375 13.785-2.745v36.49c-9.603 2.021-16.532 2.708-28.152 2.708-44.11 0-50.965-24.8-50.965-61.938h-1.372c-30.246 46.128-61.216 72.26-129.361 72.26-65.331 0-118.968-32.307-118.968-103.916 0-99.726 96.952-103.118 190.577-114.168 35.736-4.113 55.66-8.916 55.66-48.147 0-58.51-41.943-72.911-92.835-72.911-53.637 0-93.631 24.76-94.928 82.584h-43.387zm231.148 52.266h-1.374c-5.485 10.322-24.758 13.788-36.455 15.809-73.633 13.066-165.095 12.416-165.095 81.861 0 43.311 38.476 70.201 79.119 70.201 66.05 0 124.526-42.044 123.803-111.492v-56.38h.001l.001.001zm117.738-160.983h39.848v83.269h1.445c21.944-57.137 70.17-90.85 134.053-88.106v43.351c-78.326-4.153-132.034 53.671-132.034 127.23v189.208h-43.314l.002-354.952z" fill-rule="nonzero" style="fill: rgb(188, 206, 214);"/>
</svg>