<?xml version="1.0" encoding="utf-8"?>
<svg width="137px" height="25px" id="svg2" version="1.1" viewBox="0.5 0.5 1000.025 181.504" xmlns="http://www.w3.org/2000/svg">
  <defs id="defs4">
    <clipPath clipPathUnits="userSpaceOnUse" id="clipPath6931">
      <path d="m 446.644,35.433 120.285,0 0,21.852 -120.285,0 0,-21.852 z" id="path6933"/>
    </clipPath>
  </defs>
  <g id="layer1" transform="translate(-428.44451,124.17924)">
    <g id="g6927" transform="matrix(8.3053095,0,0,-8.3053095,-3280.5763,352.09041)">
      <g id="g6929" clip-path="url(#clipPath6931)">
        <g id="g6935" transform="translate(493.0905,52.881)">
          <path d="M 0,0 4.605,0 5.346,3.726 0.74,3.726 0,0 z m -0.477,-2.397 4.606,0 -2.926,-14.712 c -0.213,-0.074 -0.873,-0.336 -1.783,-0.336 -1.229,0 -2.356,0.478 -2.356,2.174 0,0.319 0.037,0.683 0.119,1.095 0.915,4.591 2.34,11.779 2.34,11.779 m 45.735,0.336 c -3.065,0 -4.284,-1.793 -4.856,-2.884 l -0.054,0 0.177,2.545 -4.552,0 c -0.03,-0.559 -0.227,-2.324 -0.519,-3.846 0,0 -1.051,-5.34 -1.25,-6.362 -0.151,-0.781 -0.429,-1.936 -0.429,-2.606 0,-1.427 0.726,-2.231 2.343,-2.231 0.907,0 1.56,0.247 1.798,0.336 l 1.522,7.662 c 0.423,2.116 1.954,3.5 3.777,3.5 1.469,0 2.172,-1.07 2.172,-1.945 0,-0.762 -0.191,-1.606 -0.339,-2.353 l -0.655,-3.281 c -0.078,-0.394 -0.245,-1.151 -0.245,-1.744 0,-1.45 0.819,-2.175 2.375,-2.175 0.849,0 1.387,0.212 1.769,0.336 l 1.366,6.869 c 0.296,1.552 0.405,2.37 0.405,3.358 0,2.844 -1.665,4.821 -4.805,4.821 M 24.799,-5.618 c -2.575,0 -4.001,-2.628 -4.001,-4.971 0,-1.977 0.894,-3.3 2.925,-3.3 2.297,0 4.095,1.952 4.095,5.283 0,1.524 -0.813,2.988 -3.019,2.988 m -1.358,-11.828 c -4.931,0 -7.291,2.954 -7.291,6.719 0,5.166 3.552,8.666 9.04,8.666 4.762,0 7.291,-2.879 7.291,-6.577 0,-5.542 -3.793,-8.808 -9.04,-8.808 m -17.248,3.543 c -0.105,-0.53 -0.171,-0.901 -0.171,-1.356 0,-1.687 1.129,-2.186 2.325,-2.186 0.956,0 1.548,0.261 1.765,0.336 l 2.215,11.152 3.581,10e-4 0.707,3.559 -3.581,0 0.174,0.877 c 0.324,1.644 1.098,2.367 2.439,2.367 0.896,0 1.619,-0.159 1.871,-0.225 l 0.674,3.386 c -0.287,0.072 -1.611,0.396 -3.569,0.396 -3.121,0 -5.166,-1.893 -5.771,-4.942 l -0.369,-1.859 -2.332,0 -0.708,-3.559 2.333,0 c 0,0 -0.92,-4.611 -1.583,-7.947 M -4.409,-2.061 c -2.312,0 -3.583,-1.603 -4.081,-2.882 l -0.053,0 0.178,2.546 -4.554,0 c -0.04,-0.882 -0.225,-2.374 -0.689,-4.721 -0.47,-2.378 -0.928,-4.749 -1.401,-7.057 -0.081,-0.395 -0.117,-0.781 -0.117,-1.108 0,-1.209 0.598,-2.161 2.365,-2.161 0.876,0 1.484,0.227 1.776,0.335 l 1.355,6.821 c 0.488,2.609 1.374,4.334 3.946,4.334 1.17,0 2.282,-0.249 2.514,-0.317 l 0.78,3.924 c -0.169,0.058 -0.843,0.286 -2.019,0.286 M 62.397,-8.36 c 0.246,1.349 -0.539,2.742 -2.315,2.742 -2.168,0 -3.121,-1.479 -3.546,-2.742 l 5.861,0 z m 2.055,-5.474 c 0,-2.047 -1.984,-3.616 -5.496,-3.616 -4.856,0 -7.23,3.021 -7.23,6.719 0,3.671 2.44,8.667 8.395,8.667 3.926,0 6.862,-1.948 6.862,-6.409 0,-1.096 -0.245,-2.288 -0.35,-2.766 l -10.436,0 c -0.018,-1.07 0.885,-2.925 4.512,-2.925 1.618,0 3.448,0.571 3.743,0.716 l 0,-0.386 z m -85.277,5.474 c 0.246,1.349 -0.54,2.742 -2.315,2.742 -2.169,0 -3.121,-1.479 -3.546,-2.742 l 5.861,0 z m 2.055,-5.474 c 0,-2.047 -1.984,-3.616 -5.496,-3.616 -4.856,0 -7.23,3.021 -7.23,6.719 0,3.671 2.439,8.667 8.394,8.667 3.927,0 6.862,-1.948 6.862,-6.409 0,-1.096 -0.244,-2.288 -0.349,-2.766 l -10.437,0 c -0.017,-1.07 0.886,-2.925 4.513,-2.925 1.617,0 3.448,0.571 3.743,0.716 l 0,-0.386 z m -27.676,16.443 4.633,0 0,-14.628 c 0,-2.199 1.096,-3.322 2.856,-3.322 0.18,0 0.285,0.023 0.32,0.031 -0.771,-1.166 -1.771,-2.122 -4.067,-2.122 -2.43,0 -3.742,1.685 -3.742,4.212 l 0,15.829 z" style="fill-opacity: 1; fill-rule: nonzero; stroke: none; fill: rgb(188, 206, 214);" id="path6937"/>
        </g>
        <g id="g6939" transform="translate(452.5683,42.3734)">
          <path d="m 0,0 0,-1.536 c 0,-1.483 0.802,-2.014 1.678,-2.014 0.895,0 1.374,0.607 1.813,1.295 0.737,1.155 9.736,15.372 9.736,15.372 l -4.816,0 L 0,0 z" style="fill-opacity: 1; fill-rule: nonzero; stroke: none; fill: rgb(188, 206, 214);" id="path6941"/>
        </g>
        <g id="g6943" transform="translate(564.2364,48.7356)">
          <path d="m 0,0 0.51,0 c 0.473,0 0.707,0.228 0.707,0.505 0,0.168 -0.085,0.414 -0.524,0.414 l -0.51,0 L 0,0 z m -0.015,1.138 0.753,0 c 0.453,0 0.727,-0.243 0.727,-0.598 0,-0.591 -0.551,-0.715 -0.809,-0.744 l 0.505,-1.241 -0.274,0 -0.482,1.226 -0.449,0 -0.243,-1.226 -0.241,0 0.513,2.583 z m 0.203,-3.343 c 1.242,0 2.102,0.895 2.223,2.005 0.122,1.109 -0.676,2.005 -1.786,2.005 -1.231,0 -2.102,-0.896 -2.223,-2.005 -0.121,-1.11 0.677,-2.005 1.786,-2.005 m 0.466,4.277 c 1.253,0 2.162,-1.02 2.025,-2.273 -0.137,-1.252 -1.151,-2.272 -2.52,-2.272 -1.252,0 -2.161,1.02 -2.025,2.272 0.137,1.253 1.183,2.273 2.52,2.273" style="fill-opacity: 1; fill-rule: nonzero; stroke: none; fill: rgb(188, 206, 214);" id="path6945"/>
        </g>
      </g>
    </g>
  </g>
</svg>