<svg xmlns="http://www.w3.org/2000/svg" width="15" height="15.969" viewBox="0 0 15 15.969" style="&#10;">
  <defs>
    <style>
      .cls-1 {
        fill: #1d2939;
        fill-rule: evenodd;
      }
    </style>
  </defs>
  <path id="_16-logo.svg" data-name="16-logo.svg" class="cls-1" d="M12.012,9.318a0.839,0.839,0,0,0-.958.85V21.694a0.838,0.838,0,0,0,.987.845l0.091-.019V9.337ZM9.957,10.593A0.839,0.839,0,0,0,9,11.443v9a0.837,0.837,0,0,0,.987.845l0.091-.018V10.612ZM23.263,9.513l-9.082-1.5a0.888,0.888,0,0,0-1.014.9V23.087a0.887,0.887,0,0,0,1.044.894l9.081-1.694A0.9,0.9,0,0,0,24,21.394V10.413a0.9,0.9,0,0,0-.738-0.9M22.476,20.3a0.677,0.677,0,0,1-.5.679l-5.956,1a0.642,0.642,0,0,1-.737-0.679V10.739A0.645,0.645,0,0,1,16,10.055l5.956,0.789a0.674,0.674,0,0,1,.521.684V20.3Z" transform="translate(-9 -8)"/>
</svg>